<svg width="22" height="22" viewBox="0 0 22 22" fill="none" xmlns="http://www.w3.org/2000/svg">
<rect x="1.6" y="1.6" width="18.8" height="18.8" fill="#00005B" stroke="#9696FC" stroke-width="1.2"/>
<path d="M7.38374 6.41669L4.58789 15.4458H5.75204L6.58624 12.65H9.44164L10.3033 15.4459H11.4949L8.71285 6.41673H7.38374V6.41669ZM6.80624 11.7792L7.57164 9.26753C7.73204 8.70838 7.86954 8.08963 7.98874 7.51669H8.02999C8.14914 8.07584 8.28664 8.68084 8.46084 9.28129L9.23999 11.7792H6.80624Z" fill="#9696FC"/>
<path d="M14.9832 8.81836C13.2507 8.81836 12.1553 10.2942 12.1553 12.2925C12.1553 14.2634 13.2507 15.5696 15.1299 15.5696C16.0099 15.5696 16.6836 15.3817 17.0778 15.1938L16.8899 14.3734C16.5095 14.5475 16.0236 14.6805 15.2949 14.6805C14.2407 14.6805 13.2782 14.0892 13.2645 12.3705H17.3757C17.4078 12.1826 17.4216 11.9946 17.417 11.8067C17.4169 10.5371 16.8761 8.81836 14.9832 8.81836ZM16.3215 11.55H13.2782C13.3607 10.7021 13.819 9.64336 14.8732 9.64336C15.9686 9.64336 16.3353 10.6379 16.3215 11.55Z" fill="#9696FC"/>
</svg>
