<svg width="22" height="22" viewBox="0 0 22 22" fill="none" xmlns="http://www.w3.org/2000/svg">
<path d="M0.917969 1.19189H21.0841V20.808H0.917969V1.19189Z" fill="#0C0824"/>
<path d="M0.9185 1.19195H21.0846V20.8081H0.9185V1.19195ZM0 21.725H22V0.275024H0V21.725ZM14.41 7.92002C14.41 7.84695 14.4375 7.81002 14.52 7.81002H15.9594C16.0325 7.81002 16.0694 7.83752 16.0694 7.92002V15.1525C16.0694 15.2256 16.0514 15.2625 15.9594 15.2625H14.5396C14.4477 15.2625 14.4202 15.217 14.4202 15.1431V7.92002H14.41ZM14.3094 5.83945C14.3094 5.59148 14.4079 5.35365 14.5833 5.17831C14.7586 5.00296 14.9965 4.90445 15.2444 4.90445C15.4924 4.90445 15.7302 5.00296 15.9056 5.17831C16.0809 5.35365 16.1794 5.59148 16.1794 5.83945C16.1885 5.96613 16.1699 6.09326 16.125 6.21204C16.08 6.33082 16.0098 6.43841 15.9191 6.52735C15.8285 6.61629 15.7195 6.68445 15.5999 6.72712C15.4803 6.76979 15.3528 6.78594 15.2264 6.77445C15.1024 6.78223 14.9783 6.76321 14.8624 6.71869C14.7465 6.67418 14.6415 6.60521 14.5547 6.51648C14.4678 6.42776 14.4011 6.32136 14.359 6.20453C14.317 6.0877 14.3006 5.96318 14.311 5.83945H14.3094ZM10.1844 10.9364C9.9275 9.91495 9.32014 7.70081 9.09386 6.62831H9.07579C8.88329 7.70081 8.39771 9.51581 8.01271 10.9364H10.1844ZM7.63636 12.4214L6.91193 15.1714C6.89386 15.2445 6.86636 15.2633 6.77443 15.2633H5.4285C5.33657 15.2633 5.3185 15.2358 5.33657 15.1258L7.93964 6.01152C8.003 5.76303 8.0339 5.50738 8.03157 5.25095C8.03157 5.18652 8.05907 5.15902 8.10464 5.15902H10.0296C10.0941 5.15902 10.1216 5.1771 10.1396 5.25095L13.0546 15.1415C13.0727 15.2146 13.0546 15.261 12.9816 15.261H11.4596C11.3866 15.261 11.3402 15.2429 11.3221 15.1824L10.5702 12.423H7.63714L7.63636 12.4214Z" fill="#FF7F18"/>
</svg>
