<svg width="54" height="60" viewBox="0 0 54 60" fill="none" xmlns="http://www.w3.org/2000/svg">
<path fill-rule="evenodd" clip-rule="evenodd" d="M34.1588 12.0011C33.1692 12.0011 32.3682 11.2215 32.3682 10.2584C32.3682 9.29533 33.1692 8.51922 34.1588 8.51922C35.1483 8.51922 35.9494 9.29533 35.9494 10.2584C35.9494 11.2215 35.1483 12.0011 34.1588 12.0011ZM19.8412 12.0011C18.8517 12.0011 18.0506 11.2215 18.0506 10.2584C18.0506 9.29533 18.8517 8.51922 19.8412 8.51922C20.8308 8.51922 21.6318 9.29533 21.6318 10.2584C21.6318 11.2215 20.8308 12.0011 19.8412 12.0011ZM35.2172 5.0232L35.8841 4.04252L36.551 3.07588L38.0372 0.902795C38.222 0.634683 38.1459 0.274816 37.8704 0.0984276C37.5986 -0.0814887 37.2253 -0.00740644 37.0476 0.260705L34.7786 3.56622L34.0971 4.56109C31.9404 3.74617 29.5373 3.2911 27 3.2911C24.4663 3.2911 22.0596 3.74617 19.9029 4.56109L19.225 3.56622L18.5545 2.58904L16.9596 0.260705C16.7747 -0.00740644 16.405 -0.0779612 16.1296 0.0984276C15.8577 0.274816 15.7816 0.634683 15.9628 0.902795L17.449 3.07588L18.1159 4.04252L18.7865 5.0232C13.7228 7.31978 10.2974 11.6695 10.2974 16.6472H43.7026C43.7026 11.6695 40.2772 7.31978 35.2172 5.0232ZM10.5548 18.9685H10.2974V44.5166C10.2974 46.5451 11.9902 48.1961 14.078 48.1961H16.8037C16.7095 48.503 16.6588 48.824 16.6588 49.1627V56.5181C16.6588 58.4407 18.2645 60 20.2399 60C22.2154 60 23.8211 58.4407 23.8211 56.5181V49.1627C23.8211 48.824 23.7668 48.503 23.6762 48.1961H30.3238C30.2332 48.503 30.1825 48.824 30.1825 49.1627V56.5181C30.1825 58.4407 31.7846 60 33.7601 60C35.7391 60 37.3448 58.4407 37.3448 56.5181V49.1627C37.3448 48.824 37.2905 48.503 37.1963 48.1961H39.9256C42.0135 48.1961 43.7026 46.5451 43.7026 44.5166V18.9685H10.5548ZM4.3312 18.9685C2.35212 18.9685 0.75 20.5278 0.75 22.4504V37.3552C0.75 39.2778 2.35212 40.8372 4.3312 40.8372C6.30666 40.8372 7.90878 39.2778 7.90878 37.3552V22.4504C7.90878 20.5278 6.30666 18.9685 4.3312 18.9685ZM49.6724 18.9685C47.6933 18.9685 46.0912 20.5278 46.0912 22.4504V37.3552C46.0912 39.2778 47.6933 40.8372 49.6724 40.8372C51.6479 40.8372 53.25 39.2778 53.25 37.3552V22.4504C53.25 20.5278 51.6479 18.9685 49.6724 18.9685Z" fill="#95CF00"/>
</svg>
