<svg width="22" height="22" viewBox="0 0 22 22" fill="none" xmlns="http://www.w3.org/2000/svg">
<path d="M11 22C17.0751 22 22 17.0751 22 11C22 4.92487 17.0751 0 11 0C4.92487 0 0 4.92487 0 11C0 17.0751 4.92487 22 11 22Z" fill="#13AA52"/>
<path d="M13.94 9.65594C13.2452 6.58947 11.6031 5.58121 11.4263 5.196C11.2329 4.92422 11.037 4.44082 11.037 4.44082C11.0338 4.43266 11.0286 4.41826 11.0226 4.4043C11.0026 4.67607 10.9923 4.78092 10.7354 5.05506C10.3375 5.36615 8.29602 7.0791 8.12994 10.563C7.97504 13.8123 10.4771 15.7485 10.8155 15.9953L10.8539 16.0226V16.0203C10.8561 16.0366 10.9614 16.7937 11.0353 17.5959H11.3004C11.3626 17.0288 11.4558 16.4656 11.5797 15.9087L11.6012 15.8948C11.7525 15.7863 11.8968 15.6682 12.0332 15.5414L12.0487 15.5274C12.768 14.8629 14.0611 13.3259 14.0485 10.8754C14.0458 10.4666 14.0095 10.0588 13.94 9.65594ZM11.0071 14.1608C11.0071 14.1608 11.0071 9.60352 11.1575 9.60438C11.2748 9.60438 11.4267 15.4827 11.4267 15.4827C11.2179 15.4576 11.0071 14.5153 11.0071 14.1608Z" fill="white"/>
</svg>
