<svg width="512" height="512" viewBox="0 0 512 512" fill="none" xmlns="http://www.w3.org/2000/svg">
<g clip-path="url(#clip0_1414_12)">
<path fill-rule="evenodd" clip-rule="evenodd" d="M317.088 102.41C308.644 102.41 301.808 95.7568 301.808 87.5385C301.808 79.3202 308.644 72.6973 317.088 72.6973C325.532 72.6973 332.368 79.3202 332.368 87.5385C332.368 95.7568 325.532 102.41 317.088 102.41ZM194.912 102.41C186.468 102.41 179.632 95.7568 179.632 87.5385C179.632 79.3202 186.468 72.6973 194.912 72.6973C203.356 72.6973 210.192 79.3202 210.192 87.5385C210.192 95.7568 203.356 102.41 194.912 102.41ZM326.12 42.8647L331.811 34.4962L337.502 26.2475L350.184 7.70385C351.761 5.41596 351.112 2.3451 348.761 0.839915C346.441 -0.69537 343.256 -0.0632016 341.74 2.22468L322.377 30.4317L316.562 38.9213C298.158 31.9674 277.651 28.0841 256 28.0841C234.379 28.0841 213.842 31.9674 195.438 38.9213L189.654 30.4317L183.932 22.0932L170.322 2.22468C168.744 -0.0632016 165.59 -0.665269 163.239 0.839915C160.919 2.3451 160.27 5.41596 161.816 7.70385L174.498 26.2475L180.189 34.4962L185.911 42.8647C142.701 62.4621 113.471 99.5798 113.471 142.056H398.529C398.529 99.5798 369.299 62.4621 326.12 42.8647ZM115.668 161.865H113.471V379.875C113.471 397.185 127.916 411.273 145.732 411.273H168.992C168.188 413.893 167.755 416.632 167.755 419.522V482.288C167.755 498.694 181.457 512 198.314 512C215.171 512 228.874 498.694 228.874 482.288V419.522C228.874 416.632 228.41 413.893 227.637 411.273H284.363C283.59 413.893 283.157 416.632 283.157 419.522V482.288C283.157 498.694 296.829 512 313.686 512C330.574 512 344.276 498.694 344.276 482.288V419.522C344.276 416.632 343.812 413.893 343.008 411.273H366.299C384.115 411.273 398.529 397.185 398.529 379.875V161.865H115.668ZM62.5596 161.865C45.6714 161.865 32 175.17 32 191.577V318.764C32 335.171 45.6714 348.477 62.5596 348.477C79.4168 348.477 93.0882 335.171 93.0882 318.764V191.577C93.0882 175.17 79.4168 161.865 62.5596 161.865ZM449.471 161.865C432.583 161.865 418.912 175.17 418.912 191.577V318.764C418.912 335.171 432.583 348.477 449.471 348.477C466.329 348.477 480 335.171 480 318.764V191.577C480 175.17 466.329 161.865 449.471 161.865Z" fill="#95CF00"/>
</g>
<defs>
<clipPath id="clip0_1414_12">
<rect width="512" height="512" fill="white"/>
</clipPath>
</defs>
</svg>
