<svg id="Layer_1" enable-background="new 0 0 3873 3873" height="300" viewBox="0 0 3873 3873" width="300" xmlns="http://www.w3.org/2000/svg" xmlns:xlink="http://www.w3.org/1999/xlink" version="1.1" xmlns:svgjs="http://svgjs.dev/svgjs"><g width="100%" height="100%" transform="matrix(1,0,0,1,0,0)"><linearGradient id="SVGID_1_" gradientUnits="userSpaceOnUse" x1="945.88" x2="3482.918" y1="673.794" y2="3210.833"><stop stop-opacity="1" stop-color="#ffffff" offset="0"/><stop stop-opacity="1" stop-color="#ffffff" offset="1"/></linearGradient><path clip-rule="evenodd" d="m1818.3 472.2-41.3-230.2h874.8l-41.2 230.3c-7.7 43.2-45.3 74.6-89.1 74.6h-614c-43.9-.1-81.5-31.5-89.2-74.7zm1161.4-230.2h-235.8l-44.1 246.2c-15.5 86.4-90.6 149.3-178.4 149.3h-614c-87.8 0-162.9-62.9-178.4-149.3l-44.1-246.2h-235.8c-95.2 0-172.4 77.2-172.4 172.4v842.5h27.2c57.9 0 110 35.1 131.7 88.7l30.8 76 75.5-31.9c53.2-22.5 115-10.4 155.9 30.4l46.6 46.6c40.8 40.8 52.9 102.7 30.4 155.9l-31.8 75.4 76 30.9c53.6 21.8 88.7 73.9 88.7 131.7v65.9c0 57.9-35.1 110-88.7 131.7l-76 30.9 31.9 75.5c22.5 53.2 10.4 115-30.4 155.9l-46.6 46.6c-40.8 40.8-102.7 52.9-155.9 30.4l-75.5-31.9-30.8 76c-21.8 53.6-73.9 88.7-131.7 88.7h-27.2v664.7h1875.5v-2780.6c-.2-95.2-77.4-172.4-172.6-172.4zm-1413.1 502.4h1295.6c25 0 45.3 20.3 45.3 45.3s-20.3 45.3-45.3 45.3h-1295.6c-25 0-45.3-20.3-45.3-45.3s20.2-45.3 45.3-45.3zm0 420c-25 0-45.3-20.3-45.3-45.3s20.3-45.3 45.3-45.3h1295.6c25 0 45.3 20.3 45.3 45.3s-20.3 45.3-45.3 45.3zm1295.6 658.7h-851.9c-25 0-45.3-20.3-45.3-45.3s20.3-45.3 45.3-45.3h851.9c25 0 45.3 20.3 45.3 45.3s-20.3 45.3-45.3 45.3zm45.3 284c0 25-20.3 45.3-45.3 45.3h-851.9c-25 0-45.3-20.3-45.3-45.3s20.3-45.3 45.3-45.3h851.9c25 0 45.3 20.3 45.3 45.3zm-45.3-613.3h-851.9c-25 0-45.3-20.3-45.3-45.3s20.3-45.3 45.3-45.3h851.9c25 0 45.3 20.3 45.3 45.3s-20.3 45.3-45.3 45.3zm-860 1508.9c-18.1 17.2-46.7 16.5-63.9-1.6l-118-123.7-.8-.8c-18.1-17.3-18.8-46-1.5-64.1l.1.1 120.3-126.1c17.2-18.1 45.8-18.8 63.9-1.6s18.8 45.8 1.6 63.9l-90.6 95 90.6 95c17.2 18 16.4 46.6-1.7 63.9zm308-297.8-106.2 307c-8.1 23.6-33.8 36.1-57.4 28s-36.1-33.8-28-57.4l106.2-307c8.1-23.6 33.8-36.1 57.4-28 23.6 8.2 36.1 33.9 28 57.4zm299.1 171.7-.8.8-118 123.7c-17.2 18.1-45.8 18.8-63.9 1.6s-18.8-45.8-1.6-63.9l90.6-95-90.6-95c-17.2-18.1-16.5-46.7 1.6-63.9s46.7-16.5 63.9 1.6l120.3 126.1.1-.1c17.2 18.1 16.6 46.8-1.6 64.1zm252.9-394.8h-891.1c-25 0-45.3-20.3-45.3-45.3s20.3-45.3 45.3-45.3h891.1c25 0 45.3 20.3 45.3 45.3s-20.3 45.3-45.3 45.3zm-1585.5 988.4c0 95.2 77.2 172.4 172.4 172.4h1530.5c95.2 0 172.4-77.2 172.4-172.4v-184.7h-1875.3zm791-51.4h293.3c25 0 45.3 20.3 45.3 45.3s-20.3 45.3-45.3 45.3h-293.3c-25 0-45.3-20.3-45.3-45.3s20.3-45.3 45.3-45.3zm-716.1-1011.4 45.8-112.8c10.8-26.6 41.3-39.2 67.8-28.1l112.1 47.3c19.3 8.2 41.6 3.8 56.5-11l46.6-46.6c14.8-14.8 19.2-37.1 11-56.5l-47.3-112.1c-11.2-26.5 1.4-57 28.1-67.8l112.8-45.8c19.4-7.9 32.1-26.8 32.1-47.7v-65.9c0-21-12.7-39.8-32.1-47.7l-112.8-45.8c-26.6-10.8-39.2-41.3-28.1-67.8l47.3-112.1c8.2-19.3 3.8-41.6-11-56.5l-46.6-46.6c-14.8-14.8-37.1-19.2-56.5-11l-112.1 47.3c-26.5 11.2-57-1.4-67.8-28.1l-45.8-112.8c-7.9-19.4-26.8-32.1-47.7-32.1h-65.9c-21 0-39.8 12.7-47.7 32.1l-45.8 112.8c-10.8 26.6-41.3 39.2-67.8 28.1l-112.1-47.3c-19.3-8.2-41.6-3.8-56.5 11l-46.6 46.6c-14.8 14.8-19.2 37.1-11 56.5l47.3 112.1c11.2 26.5-1.5 57-28.1 67.8l-112.8 45.8c-19.4 7.9-32.1 26.8-32.1 47.7v65.9c0 21 12.7 39.8 32.1 47.7l112.8 45.8c26.6 10.8 39.2 41.3 28.1 67.8l-47.3 112.1c-8.2 19.3-3.8 41.6 11 56.5l46.6 46.6c14.8 14.8 37.1 19.2 56.5 11l112.1-47.3c26.5-11.2 57 1.4 67.8 28.1l45.8 112.8c7.9 19.4 26.8 32.1 47.7 32.1h65.9c21 0 39.8-12.7 47.7-32.1zm-263.5-513.9c0-101 81.8-182.8 182.8-182.8s182.8 81.8 182.8 182.8-81.8 182.8-182.8 182.8c-100.9 0-182.8-81.8-182.8-182.8z" fill="url(#SVGID_1_)" fill-rule="evenodd" data-original-color="SVGID_1_" stroke="none" stroke-opacity="1"/></g></svg>