<svg width="26" height="22" viewBox="0 0 26 22" fill="none" xmlns="http://www.w3.org/2000/svg">
<path d="M7.96359 14.0673C7.96956 14.4066 8.07778 15.0661 8.24012 15.5811C8.58132 16.6711 9.16006 17.6796 9.96534 18.5683C10.7917 19.4818 11.8093 20.2156 12.9847 20.7365C14.2201 21.2836 15.5588 21.5625 16.9492 21.5602C18.3374 21.5583 19.676 21.274 20.9114 20.7228C22.0868 20.1968 23.1035 19.4598 23.9285 18.5459C24.7333 17.6534 25.3111 16.6432 25.6532 15.5531C25.8252 15.0023 25.9339 14.4433 25.9775 13.8825C26.0201 13.3299 26.0022 12.7763 25.9238 12.2233C25.7706 11.1456 25.3978 10.1344 24.8237 9.21264C24.2986 8.36562 23.6217 7.62408 22.8169 6.99994L22.8187 6.99857L14.6966 0.762202C14.6893 0.756699 14.6833 0.750737 14.6755 0.745693C14.1426 0.336631 13.2465 0.338006 12.6605 0.747986C12.068 1.16255 12.0001 1.84814 12.5275 2.28059L12.5252 2.28289L15.9128 5.03764L5.58764 5.04864H5.57388C4.72045 5.04956 3.90003 5.6095 3.73769 6.3171C3.57076 7.03801 4.15042 7.63601 5.03779 7.63922L5.03642 7.64243L10.2698 7.63234L0.931118 14.8006C0.919195 14.8093 0.906354 14.8184 0.895348 14.8272C0.0143971 15.5017 -0.270387 16.6235 0.284507 17.3333C0.847655 18.0552 2.04503 18.0565 2.93516 17.3375L8.03192 13.1661C8.03192 13.1661 7.95763 13.7293 7.96359 14.0673ZM21.0605 15.953C20.0103 17.0229 18.5401 17.6296 16.9492 17.6328C15.3561 17.6356 13.8858 17.0343 12.8357 15.9663C12.3225 15.4458 11.9455 14.8469 11.713 14.209C11.4851 13.5821 11.3966 12.9167 11.4553 12.2453C11.5108 11.5891 11.7061 10.9631 12.018 10.3967C12.3243 9.83999 12.7462 9.33692 13.2672 8.91134C14.288 8.07946 15.5877 7.62913 16.9469 7.62729C18.3075 7.62546 19.6063 8.07167 20.628 8.9008C21.1481 9.32453 21.5695 9.82577 21.8758 10.3816C22.1891 10.9475 22.383 11.5712 22.4408 12.2292C22.4986 12.8997 22.4101 13.5642 22.1822 14.1916C21.9492 14.8313 21.5736 15.4302 21.0605 15.953Z" fill="#EA7600"/>
</svg>
