<svg width="76" height="62" viewBox="0 0 76 62" fill="none" xmlns="http://www.w3.org/2000/svg">
<path d="M29.8152 34.3298C30.0916 29.4001 32.5056 25.057 36.1474 21.9782C39.7189 18.9542 44.526 17.1059 49.7711 17.1059C55.011 17.1059 59.8182 18.9542 63.3922 21.9782C67.0315 25.057 69.4455 29.4001 69.7244 34.3246C70.0008 39.3898 67.9648 44.0953 64.3933 47.5833C60.7514 51.1313 55.5715 53.3576 49.7711 53.3576C43.9708 53.3576 38.7804 51.1313 35.1412 47.5833C31.5671 44.0953 29.5363 39.3898 29.8152 34.3298Z" fill="white"/>
<path d="M39.5343 34.7698C39.6761 32.2404 40.9147 30.0119 42.7834 28.4322C44.6159 26.8805 47.0825 25.9321 49.7738 25.9321C52.4625 25.9321 54.9291 26.8805 56.763 28.4322C58.6303 30.0119 59.8689 32.2404 60.0121 34.7672C60.1538 37.3662 59.1092 39.7806 57.2766 41.5703C55.4079 43.3909 52.7501 44.5332 49.7738 44.5332C46.7976 44.5332 44.1344 43.3909 42.2671 41.5703C40.4332 39.7806 39.3912 37.3662 39.5343 34.7698Z" fill="#265787"/>
<path d="M23.2782 39.966C23.2956 40.958 23.612 42.8856 24.0865 44.391C25.0838 47.5773 26.7755 50.5251 29.1295 53.123C31.545 55.7932 34.5196 57.938 37.9553 59.4608C41.5666 61.06 45.4795 61.875 49.5438 61.8684C53.6015 61.863 57.5144 61.0319 61.1257 59.4206C64.5614 57.8831 67.5332 55.7289 69.9448 53.0573C72.2974 50.4487 73.9864 47.4956 74.9864 44.3092C75.4891 42.6993 75.8068 41.0652 75.9341 39.4258C76.0588 37.8105 76.0065 36.1925 75.7773 34.5759C75.3296 31.4257 74.2397 28.4699 72.5614 25.7756C71.0266 23.2997 69.048 21.1321 66.6954 19.3077L66.7008 19.3037L42.9593 1.07428C42.9379 1.0582 42.9205 1.04077 42.8977 1.02603C41.34 -0.169695 38.7207 -0.165673 37.0075 1.03273C35.2756 2.24453 35.0772 4.24857 36.6188 5.51266L36.6121 5.51936L46.5143 13.5717L16.3331 13.6039H16.2929C13.7982 13.6066 11.4001 15.2433 10.9256 17.3117C10.4376 19.4189 12.132 21.1669 14.7259 21.1763L14.7218 21.1857L30.0195 21.1562L2.72173 42.1095C2.68688 42.1349 2.64934 42.1618 2.61717 42.1872C0.0420838 44.1591 -0.790363 47.4379 0.831635 49.513C2.47776 51.623 5.97779 51.627 8.57969 49.5251L23.4779 37.332C23.4779 37.332 23.2608 38.9781 23.2782 39.966ZM61.5614 45.4781C58.4916 48.6055 54.194 50.379 49.5438 50.3884C44.887 50.3964 40.5893 48.639 37.5196 45.517C36.0196 43.9955 34.9177 42.2449 34.2381 40.3802C33.5718 38.5478 33.3131 36.6027 33.4847 34.6402C33.6469 32.722 34.218 30.8922 35.1295 29.2367C36.025 27.6094 37.2582 26.1388 38.781 24.8949C41.7649 22.4632 45.5639 21.1468 49.5371 21.1415C53.5144 21.1361 57.3106 22.4404 60.2973 24.864C61.8174 26.1026 63.0493 27.5678 63.9448 29.1925C64.8603 30.8466 65.4273 32.6697 65.5962 34.5933C65.7651 36.5531 65.5064 38.4955 64.8402 40.3293C64.1592 42.1993 63.0614 43.95 61.5614 45.4781Z" fill="#EA7600"/>
</svg>
