<svg width="60" height="68" viewBox="0 0 60 68" fill="none" xmlns="http://www.w3.org/2000/svg">
<g clip-path="url(#clip0_3_8259)">
<path d="M59.997 20.0758C59.9965 18.9421 59.7539 17.9402 59.2634 17.0802C58.782 16.2346 58.0603 15.5259 57.0928 14.9655C49.1053 10.3598 41.1096 5.76813 33.1247 1.15774C30.972 -0.0851549 28.8848 -0.0399205 26.7478 1.22102C23.5685 3.09602 7.65094 12.2155 2.90742 14.9629C0.954141 16.0938 0.00351563 17.8244 0.00304688 20.0734C0 29.3362 0.00304688 38.5984 0 47.8612C0 48.9698 0.232734 49.9525 0.701484 50.7995C1.18336 51.6707 1.91484 52.3989 2.90484 52.972C7.64859 55.7193 23.5683 64.8384 26.7469 66.7136C28.8846 67.975 30.972 68.0202 33.1254 66.7769C41.1105 62.1662 49.1065 57.5748 57.0954 52.9691C58.0854 52.3963 58.8169 51.6677 59.2987 50.7972C59.7668 49.9502 60 48.9677 60 47.8584C60 47.8584 60 29.3385 59.997 20.0758Z" fill="#649AD2"/>
<path d="M30.0919 33.8772L0.701294 50.7995C1.1834 51.6707 1.91489 52.3989 2.90489 52.972C7.64864 55.7193 23.5683 64.8384 26.7469 66.7136C28.8847 67.975 30.972 68.0202 33.1254 66.7769C41.1106 62.1663 49.1065 57.5749 57.0954 52.9691C58.0854 52.3963 58.8169 51.6677 59.2988 50.7972L30.0919 33.8772Z" fill="#004482"/>
<path d="M21.3867 38.8898C23.097 41.8752 26.3119 43.889 30 43.889C33.7109 43.889 36.9441 41.8499 38.6456 38.8321L30.0919 33.8772L21.3867 38.8898Z" fill="#1A4674"/>
<path d="M59.997 20.0758C59.9965 18.9421 59.754 17.9402 59.2634 17.0803L30.0919 33.8772L59.2988 50.7972C59.7668 49.9502 59.9996 48.9677 60 47.8584C60 47.8584 60 29.3385 59.997 20.0758Z" fill="#01589C"/>
<path d="M58.391 35.0865H56.1087V37.3693H53.8258V35.0865H51.5437V32.8047H53.8258V30.5223H56.1087V32.8047H58.391V35.0865ZM30 14.0422C37.2973 14.0422 43.6776 17.9657 47.1492 23.8178L47.2533 23.9957L38.5812 28.9895C36.8625 26.0343 33.6644 24.0456 30 24.0456C24.5203 24.0456 20.0782 28.4877 20.0782 33.9672C20.0764 35.6942 20.5275 37.3915 21.3867 38.8897C23.0969 41.8752 26.3119 43.889 30 43.889C33.6701 43.889 36.873 41.8944 38.5891 38.9312L38.6456 38.8321L47.3051 43.8491C43.8715 49.8484 37.4079 53.8923 30 53.8923C22.6057 53.8923 16.1522 49.8646 12.7139 43.8829C11.0353 40.9628 10.0748 37.5772 10.0748 33.9672C10.0748 22.9633 18.9954 14.0422 30 14.0422ZM47.7808 30.5221V32.8044H50.063V35.0865H47.7808V37.3693H45.4985V35.0865H43.2162V32.8047H45.4985V30.5223L47.7808 30.5221Z" fill="white"/>
</g>
<defs>
<clipPath id="clip0_3_8259">
<rect width="60" height="67.5" fill="white" transform="translate(0 0.25)"/>
</clipPath>
</defs>
</svg>
