<svg width="433" height="315" viewBox="0 0 433 315" fill="none" xmlns="http://www.w3.org/2000/svg">
<path d="M273.31 160.593C272.828 163.108 272.25 165.597 271.575 168.061C271.502 168.348 271.421 168.629 271.339 168.916H261.963C261.164 168.916 260.399 169.232 259.834 169.792C259.27 170.352 258.952 171.112 258.951 171.905V198.432C258.667 198.957 258.379 199.478 258.09 199.999C256.602 202.69 255.053 205.35 253.469 207.976C227.649 250.661 191.638 286.38 148.614 311.98L151.161 306.275C150.227 306.211 149.289 306.147 148.356 306.083C128.025 304.704 107.625 303.175 87.7718 298.64C67.0021 293.896 46.6843 285.667 30.4067 272.023C14.1247 258.375 2.18874 238.885 0.532109 217.798C-0.0202883 210.551 0.718223 203.264 2.71377 196.271C6.53022 182.811 14.8692 170.701 26.8999 163.535C45.7979 152.283 70.4488 154.576 90.3707 163.936C110.289 173.293 126.502 188.781 142.332 204.001C126.349 176.8 104.096 153.747 77.3978 136.734C68.5512 131.114 59.1625 126.11 51.6412 118.829C44.124 111.552 38.5776 101.35 39.9074 91.0117C41.4175 79.2853 51.0947 70.3859 60.7889 63.5235C64.6614 60.7819 68.6587 58.1813 72.7809 55.7899C84.4113 49.0257 96.9928 43.9226 110.28 42.0309C128.279 39.4644 147.719 43.3589 161.518 55.1109C177.064 68.3532 183.441 89.7092 182.834 110.139C192.412 96.3197 207.184 85.7421 223.866 85.2937C241.185 84.8325 257.647 95.692 266.322 110.578C274.992 125.46 276.549 143.703 273.31 160.593Z" fill="#E6E1F6"/>
<path d="M162.705 217.976C172.785 217.09 182.096 216.054 191.863 213.293C201.331 210.618 210.441 206.139 217.181 198.825C224.43 190.959 228.343 180.743 231.104 170.574C232.643 164.904 233.908 159.154 235.101 153.403C236.396 147.163 237.547 140.895 238.553 134.6C240.556 122.069 241.986 109.465 242.843 96.7864C242.946 95.2475 243.041 93.708 243.127 92.1679C243.181 91.2179 241.701 91.2209 241.648 92.1679C240.944 104.665 239.678 117.114 237.849 129.514C236.045 141.696 233.736 153.826 230.806 165.791C228.325 175.927 225.111 186.221 218.747 194.658C212.778 202.57 204.158 207.741 194.85 210.832C185.378 213.978 175.391 215.234 165.494 216.168C164.28 216.283 163.92 216.392 162.705 216.499C161.764 216.581 161.755 218.06 162.705 217.976L162.705 217.976Z" fill="white"/>
<path d="M3.55783 197.355C16.2749 198.059 28.8627 200.274 41.0549 203.954C53.2524 207.626 64.9737 212.721 75.9762 219.135C86.6074 225.337 96.4767 232.759 105.384 241.248C114.028 249.492 121.732 258.667 128.355 268.604C135.008 278.566 140.522 289.241 144.793 300.431C145.314 301.8 145.815 303.176 146.298 304.56C146.61 305.452 148.039 305.068 147.725 304.167C143.729 292.742 138.461 281.8 132.021 271.549C125.582 261.296 118.025 251.788 109.489 243.198C100.815 234.476 91.1627 226.782 80.7223 220.271C58.801 206.633 33.9533 198.383 8.21968 196.198C6.66738 196.068 5.11344 195.961 3.55785 195.877C2.60654 195.825 2.60946 197.303 3.55785 197.355L3.55783 197.355Z" fill="white"/>
<path d="M72.7273 57.521C80.8584 60.1037 88.5656 63.8652 95.6022 68.685C102.792 73.6436 109.35 79.4599 115.13 86.0048C121.22 92.8899 126.635 100.343 131.3 108.261C136.247 116.622 140.546 125.35 144.156 134.367C147.874 143.625 151.002 153.109 153.519 162.762C156.078 172.529 158.077 182.434 159.506 192.429C160.928 202.317 161.788 212.278 162.083 222.264C162.38 231.812 162.098 241.37 161.237 250.884C160.449 259.761 159.011 268.567 156.934 277.234C155.09 285.061 152.49 292.691 149.172 300.018C148.403 301.681 147.588 303.32 146.725 304.937C146.278 305.776 147.555 306.524 148.003 305.683C151.67 298.685 154.598 291.325 156.74 283.722C159.143 275.258 160.884 266.621 161.95 257.888C163.13 248.413 163.705 238.873 163.671 229.325C163.65 219.294 163.052 209.273 161.88 199.311C160.708 189.224 158.968 179.212 156.668 169.321C154.374 159.414 151.464 149.659 147.954 140.113C144.572 130.873 140.522 121.889 135.837 113.235C131.374 104.976 126.174 97.1366 120.299 89.8124C114.719 82.8387 108.35 76.5343 101.317 71.0253C94.5353 65.7291 87.0416 61.412 79.0559 58.201C77.1045 57.4252 75.126 56.7237 73.1206 56.0963C72.2103 55.8103 71.8208 57.2362 72.7273 57.521H72.7273Z" fill="white"/>
<path d="M166.844 314.522C233.524 314.522 287.58 312.531 287.58 310.074C287.58 307.617 233.524 305.626 166.844 305.626C100.163 305.626 46.1072 307.617 46.1072 310.074C46.1072 312.531 100.163 314.522 166.844 314.522Z" fill="#E6E1F6"/>
<path d="M182.288 300.457L187.359 301.784L194.897 282.882L187.413 280.924L182.288 300.457Z" fill="#FFB8B8"/>
<path d="M195.905 309.045L179.968 304.875L181.582 298.726L191.361 301.285C192.994 301.712 194.39 302.77 195.242 304.225C196.094 305.681 196.332 307.415 195.905 309.045Z" fill="#2F2E41"/>
<path d="M227.363 304.063L232.523 303.142L231.423 282.826L223.807 284.185L227.363 304.063Z" fill="#FFB8B8"/>
<path d="M243.33 306.152L227.113 309.045L225.994 302.787L235.945 301.012C236.768 300.865 237.612 300.882 238.428 301.061C239.245 301.239 240.018 301.577 240.704 302.055C241.389 302.532 241.974 303.139 242.425 303.842C242.876 304.545 243.183 305.33 243.33 306.152Z" fill="#2F2E41"/>
<path d="M217.203 154.653C218.474 154.962 219.509 156.256 220.13 157.755C220.703 159.33 221.091 160.966 221.286 162.629C221.774 165.728 222.243 169.083 221.233 171.953C220.05 175.317 216.897 177.078 214.162 176.25C211.427 175.422 209.252 172.315 208.508 168.737C207.832 165.123 208.268 161.388 209.759 158.026C210.536 156.259 211.607 154.63 213.03 153.833C213.728 153.411 214.56 153.269 215.359 153.435C216.157 153.601 216.863 154.063 217.335 154.728" fill="#2F2E41"/>
<path d="M224.396 210.757L234.22 298.635L226.106 301.712L211.142 242.783L190.308 296.664L181.427 297.156C181.427 297.156 193.612 213.319 202.643 211.414L224.396 210.757Z" fill="#2F2E41"/>
<path d="M216.145 165.868C221.944 165.868 226.646 161.172 226.646 155.38C226.646 149.587 221.944 144.892 216.145 144.892C210.345 144.892 205.644 149.587 205.644 155.38C205.644 161.172 210.345 165.868 216.145 165.868Z" fill="#FFB8B8"/>
<path d="M213.398 164.915C215.044 163.967 215.219 161.68 214.996 159.796C214.772 157.912 214.398 155.812 215.507 154.271C216.831 152.433 219.489 152.396 221.756 152.336C224.022 152.276 226.782 151.613 227.369 149.426C227.757 147.981 226.927 146.431 225.736 145.523C224.545 144.616 223.054 144.215 221.606 143.834C218.365 142.981 215.019 142.122 211.701 142.59C208.414 143.054 205.443 144.792 203.429 147.428C201.416 150.063 200.522 153.385 200.942 156.673C201.479 160.88 202.258 162.717 201.747 164.571C200.795 168.026 196.688 170.245 196.607 173.828C196.543 176.63 199.021 178.791 201.439 180.214C203.357 181.343 205.426 182.3 207.637 182.564C209.847 182.829 212.226 182.323 213.873 180.827C215.996 178.897 216.522 175.673 215.913 172.871C215.304 170.069 213.742 167.58 212.197 165.164" fill="#2F2E41"/>
<path d="M220.651 170.268L209.303 168.79C209.303 168.79 201.902 177.659 202.396 192.935C202.889 208.211 201.162 212.893 201.162 212.893L224.823 213.32C221.403 208.622 235.71 181.645 220.651 170.268Z" fill="#6C63FF"/>
<path d="M226.748 215.455C226.511 215.457 226.275 215.477 226.042 215.516L211.524 200.081L213.004 195.153L205.85 191.95L201.409 202.791L222.296 219.384C222.184 220.288 222.35 221.204 222.771 222.01C223.193 222.817 223.85 223.477 224.656 223.901C225.463 224.326 226.379 224.495 227.284 224.387C228.188 224.278 229.039 223.898 229.722 223.295C230.404 222.692 230.887 221.896 231.106 221.013C231.325 220.129 231.269 219.2 230.946 218.349C230.623 217.498 230.049 216.765 229.299 216.248C228.549 215.731 227.659 215.454 226.748 215.455Z" fill="#FFB8B8"/>
<path d="M253.97 176.507C253.917 176.737 253.883 176.971 253.868 177.207L235.501 187.789L231.037 185.222L226.277 191.445L235.828 198.243L256.781 181.734C257.636 182.05 258.567 182.098 259.45 181.873C260.332 181.648 261.126 181.159 261.724 180.473C262.322 179.786 262.697 178.934 262.798 178.03C262.9 177.125 262.723 176.211 262.292 175.41C261.861 174.608 261.195 173.956 260.384 173.541C259.573 173.126 258.655 172.968 257.752 173.087C256.848 173.206 256.002 173.597 255.327 174.208C254.651 174.819 254.178 175.621 253.97 176.507Z" fill="#FFB8B8"/>
<path d="M50.0747 299.205C50.3689 299.216 50.6592 299.135 50.9064 298.974C51.1535 298.814 51.3456 298.58 51.4566 298.306C51.5675 298.032 51.592 297.73 51.5267 297.441C51.4613 297.153 51.3094 296.891 51.0913 296.692C51.0538 296.548 51.0268 296.444 50.9893 296.3C51.2638 295.578 51.7464 294.956 52.3751 294.512C53.0038 294.068 53.7501 293.823 54.5181 293.808C55.2862 293.793 56.0412 294.01 56.6862 294.429C57.3312 294.849 57.8368 295.453 58.1384 296.164C59.8776 300.153 62.1186 304.278 61.0654 308.7C68.1523 293.212 65.511 274.057 54.697 260.974C51.7269 259.365 49.3046 256.479 48.6492 253.108C50.1162 253.592 51.928 252.379 50.8139 250.84C50.3317 250.252 49.8449 249.669 49.3628 249.082C54.8611 243.079 61.5679 252.367 55.5299 260.456C57.5538 262.959 59.3121 265.668 60.776 268.539C60.4152 265.479 60.7818 262.377 61.8457 259.487C62.9261 256.794 64.9773 254.514 66.7806 252.177C68.9731 249.329 73.5529 250.589 73.8855 254.173C71.8438 254.87 71.6059 257.848 73.9525 258.233C73.4021 264.911 69.1263 271.084 63.185 274.068C65.4481 280.268 66.3716 286.881 65.8937 293.468C66.8745 285.766 75.066 283.821 80.7749 280.709C81.1379 280.47 81.5622 280.342 81.996 280.341C82.4299 280.341 82.8546 280.467 83.2183 280.705C83.5819 280.943 83.8689 281.282 84.0441 281.681C84.2194 282.081 84.2754 282.522 84.2052 282.953C83.4163 283.285 82.6621 283.694 81.9538 284.175C81.6219 284.405 81.3685 284.731 81.2285 285.111C81.0884 285.491 81.0685 285.904 81.1715 286.296C81.2745 286.687 81.4953 287.037 81.8037 287.297C82.1121 287.557 82.493 287.715 82.8941 287.749C80.07 294.977 72.6382 299.883 64.958 299.93C64.2505 303.163 63.2108 306.313 61.8559 309.329L50.4572 309.439C50.4152 309.312 50.3772 309.18 50.3392 309.053C51.3949 309.11 52.4535 309.036 53.4914 308.834C50.6685 305.537 48.4937 303.861 50.0744 299.205L50.0747 299.205Z" fill="#8B68FF"/>
<path d="M282.749 303.4C282.539 303.407 282.332 303.35 282.155 303.235C281.979 303.12 281.842 302.954 281.762 302.758C281.683 302.562 281.666 302.346 281.712 302.14C281.759 301.934 281.867 301.747 282.023 301.605C282.05 301.502 282.069 301.428 282.096 301.325C281.9 300.809 281.555 300.364 281.106 300.047C280.657 299.73 280.124 299.555 279.575 299.545C279.027 299.534 278.488 299.689 278.027 299.989C277.566 300.288 277.205 300.72 276.99 301.227C275.747 304.077 274.147 307.023 274.899 310.182C269.837 299.119 271.723 285.437 279.448 276.092C281.569 274.942 283.299 272.881 283.768 270.473C282.72 270.819 281.426 269.952 282.221 268.853C282.566 268.433 282.913 268.017 283.258 267.597C279.33 263.309 274.54 269.944 278.853 275.722C277.407 277.51 276.151 279.445 275.106 281.495C275.363 279.31 275.101 277.094 274.342 275.03C273.57 273.106 272.105 271.477 270.817 269.808C269.251 267.774 265.979 268.674 265.742 271.234C267.2 271.732 267.37 273.859 265.694 274.134C266.087 278.904 269.141 283.314 273.385 285.445C271.768 289.873 271.109 294.597 271.45 299.302C270.749 293.801 264.898 292.411 260.821 290.188C260.561 290.017 260.258 289.926 259.948 289.926C259.638 289.925 259.335 290.015 259.075 290.185C258.816 290.355 258.611 290.598 258.485 290.883C258.36 291.168 258.32 291.484 258.37 291.791C258.934 292.028 259.473 292.32 259.979 292.664C260.216 292.828 260.397 293.061 260.497 293.332C260.597 293.604 260.611 293.899 260.537 294.179C260.464 294.458 260.306 294.708 260.086 294.894C259.865 295.08 259.593 295.193 259.307 295.217C261.324 300.38 266.633 303.884 272.118 303.917C272.624 306.226 273.366 308.477 274.334 310.631L282.476 310.709C282.506 310.619 282.533 310.525 282.56 310.434C281.806 310.475 281.05 310.422 280.309 310.278C282.325 307.922 283.879 306.726 282.75 303.4L282.749 303.4Z" fill="#8B68FF"/>
<path d="M212.14 182.999L226.602 193.293L233.07 185.194L219.012 173.928C218.407 173.443 217.71 173.087 216.962 172.881C216.215 172.675 215.433 172.623 214.665 172.73C213.897 172.836 213.159 173.098 212.495 173.499C211.832 173.9 211.258 174.432 210.808 175.063C209.931 176.292 209.579 177.818 209.829 179.307C210.078 180.795 210.91 182.123 212.14 182.999Z" fill="#6C63FF"/>
<path d="M209.153 180.799L202.429 197.215L211.803 201.65L219.567 185.404C219.901 184.706 220.088 183.946 220.118 183.172C220.148 182.398 220.019 181.626 219.74 180.904C219.46 180.181 219.036 179.524 218.493 178.971C217.95 178.418 217.3 177.981 216.583 177.688C215.89 177.405 215.149 177.261 214.401 177.264C213.652 177.267 212.912 177.418 212.222 177.707C211.533 177.996 210.906 178.418 210.38 178.948C209.853 179.479 209.436 180.108 209.153 180.799Z" fill="#6C63FF"/>
<circle cx="335.874" cy="272.582" r="19.0636" fill="#E6E1F6"/>
<path d="M418.854 187.955C418.788 187.955 418.747 187.954 418.732 187.953L410.854 187.954V186.788H418.761C418.944 186.795 422.679 186.901 426.12 182.711C431.249 176.467 435.46 161.011 426.4 122.833C414.217 71.497 424.378 26.1449 429.312 9.02902C429.555 8.18223 429.599 7.29032 429.439 6.42377C429.279 5.55721 428.921 4.73976 428.393 4.03599C427.864 3.33222 427.18 2.76142 426.393 2.36869C425.607 1.97597 424.741 1.77207 423.862 1.77312H306.205C305.31 1.77432 304.429 1.98712 303.632 2.39424C302.834 2.80136 302.144 3.39133 301.617 4.11627C299.527 7.00087 296.658 12.5425 294.863 22.5626L293.72 22.3566C295.554 12.1188 298.516 6.41416 300.677 3.43111C301.312 2.5576 302.144 1.84669 303.104 1.35612C304.065 0.865543 305.127 0.609117 306.205 0.607669H423.862C424.921 0.606647 425.965 0.85258 426.912 1.32604C427.86 1.79949 428.684 2.48751 429.321 3.33571C429.958 4.18392 430.389 5.16908 430.582 6.21336C430.774 7.25765 430.721 8.33244 430.428 9.35283C425.519 26.3799 415.411 71.4968 427.53 122.563C436.717 161.278 432.301 177.069 426.978 183.5C423.467 187.741 419.599 187.955 418.854 187.955Z" fill="#DFDDDD"/>
<path d="M397.511 209.299C397.445 209.299 397.404 209.297 397.389 209.296L389.511 209.297V208.132H397.418C397.602 208.137 401.336 208.244 404.777 204.055C409.906 197.811 414.117 182.354 405.057 144.176C392.874 92.8405 403.035 47.4884 407.969 30.3725C408.212 29.5257 408.256 28.6338 408.096 27.7673C407.936 26.9007 407.578 26.0833 407.05 25.3795C406.521 24.6757 405.837 24.1049 405.05 23.7122C404.264 23.3195 403.398 23.1156 402.519 23.1166H284.862C283.967 23.1178 283.086 23.3306 282.289 23.7377C281.491 24.1449 280.801 24.7348 280.274 25.4598C278.184 28.3444 275.315 33.886 273.521 43.9061L272.377 43.7001C274.211 33.4623 277.173 27.7577 279.334 24.7746C279.969 23.9011 280.801 23.1902 281.762 22.6996C282.722 22.209 283.784 21.9526 284.862 21.9512H402.519C403.578 21.9502 404.622 22.1961 405.569 22.6695C406.517 23.143 407.341 23.831 407.978 24.6792C408.615 25.5274 409.046 26.5126 409.239 27.5569C409.431 28.6012 409.378 29.6759 409.085 30.6963C404.176 47.7234 394.068 92.8403 406.187 143.906C415.374 182.621 410.958 198.413 405.635 204.843C402.124 209.084 398.256 209.299 397.511 209.299Z" fill="#BFBFC0"/>
<path d="M376.174 230.642C376.109 230.642 376.067 230.64 376.053 230.64L260.268 230.64C259.153 230.642 258.055 230.369 257.07 229.845C256.085 229.322 255.242 228.564 254.616 227.638C253.99 226.713 253.6 225.647 253.479 224.534C253.359 223.422 253.511 222.297 253.924 221.257C258.125 210.721 263.782 185.444 254.465 134.525C243.463 74.3991 253.313 52.6696 258.058 46.1179C258.693 45.2444 259.524 44.5334 260.484 44.0429C261.444 43.5523 262.506 43.2959 263.583 43.2944H381.18C382.238 43.2934 383.282 43.5393 384.228 44.0128C385.175 44.4863 386 45.1743 386.636 46.0225C387.273 46.8707 387.704 47.8558 387.896 48.9001C388.088 49.9444 388.035 51.0192 387.742 52.0396C382.836 69.0667 372.733 114.184 384.846 165.25C394.029 203.965 389.614 219.756 384.294 226.186C380.785 230.427 376.918 230.642 376.174 230.642ZM263.583 44.4599C262.689 44.4611 261.808 44.6739 261.011 45.081C260.214 45.4881 259.524 46.0781 258.997 46.803C254.34 53.2332 244.687 74.6324 255.607 134.314C264.507 182.957 260.191 208.678 255.002 221.69C254.652 222.549 254.521 223.481 254.62 224.403C254.719 225.326 255.045 226.209 255.569 226.973C256.089 227.744 256.789 228.375 257.608 228.812C258.427 229.248 259.341 229.476 260.268 229.475H376.081C376.264 229.484 379.997 229.588 383.437 225.398C388.562 219.154 392.772 203.697 383.716 165.519C371.54 114.184 381.696 68.8316 386.627 51.7158C386.87 50.869 386.913 49.9771 386.754 49.1105C386.594 48.244 386.236 47.4265 385.708 46.7228C385.18 46.019 384.496 45.4482 383.71 45.0555C382.924 44.6627 382.058 44.4588 381.18 44.4599H263.583Z" fill="white"/>
<path d="M361.784 95.4672H269.134C267.897 95.4672 266.712 94.9675 265.837 94.078C264.963 93.1885 264.472 91.9821 264.472 90.7242C264.472 89.4663 264.963 88.2599 265.837 87.3704C266.712 86.4809 267.897 85.9812 269.134 85.9812H361.784C363.021 85.9812 364.206 86.4809 365.081 87.3704C365.955 88.2599 366.446 89.4663 366.446 90.7242C366.446 91.9821 365.955 93.1885 365.081 94.078C364.206 94.9675 363.021 95.4672 361.784 95.4672Z" fill="#CBBFF1"/>
<path d="M361.784 115.23H269.134C267.897 115.23 266.712 114.73 265.837 113.84C264.963 112.951 264.472 111.745 264.472 110.487C264.472 109.229 264.963 108.022 265.837 107.133C266.712 106.243 267.897 105.744 269.134 105.744H361.784C363.021 105.744 364.206 106.243 365.081 107.133C365.955 108.022 366.446 109.229 366.446 110.487C366.446 111.745 365.955 112.951 365.081 113.84C364.206 114.73 363.021 115.23 361.784 115.23Z" fill="#E6E1F6"/>
<path d="M361.784 134.992H269.134C267.897 134.992 266.712 134.492 265.837 133.603C264.963 132.713 264.472 131.507 264.472 130.249C264.472 128.991 264.963 127.785 265.837 126.895C266.712 126.006 267.897 125.506 269.134 125.506H361.784C363.021 125.506 364.206 126.006 365.081 126.895C365.955 127.785 366.446 128.991 366.446 130.249C366.446 131.507 365.955 132.713 365.081 133.603C364.206 134.492 363.021 134.992 361.784 134.992Z" fill="#E6E1F6"/>
<path d="M368.144 154.755H276.211C274.985 154.755 273.808 154.255 272.941 153.365C272.073 152.476 271.586 151.269 271.586 150.012C271.586 148.754 272.073 147.547 272.941 146.658C273.808 145.768 274.985 145.269 276.211 145.269H368.144C369.371 145.269 370.547 145.768 371.415 146.658C372.282 147.547 372.77 148.754 372.77 150.012C372.77 151.269 372.282 152.476 371.415 153.365C370.547 154.255 369.371 154.755 368.144 154.755Z" fill="#E6E1F6"/>
<path d="M368.144 174.517H276.211C274.985 174.517 273.808 174.017 272.941 173.128C272.073 172.238 271.586 171.032 271.586 169.774C271.586 168.516 272.073 167.31 272.941 166.42C273.808 165.531 274.985 165.031 276.211 165.031H368.144C369.371 165.031 370.547 165.531 371.415 166.42C372.282 167.31 372.77 168.516 372.77 169.774C372.77 171.032 372.282 172.238 371.415 173.128C370.547 174.017 369.371 174.517 368.144 174.517Z" fill="#E6E1F6"/>
<path d="M312.779 75.705H269.128C267.893 75.705 266.709 75.2053 265.836 74.3158C264.962 73.4263 264.472 72.2199 264.472 70.962C264.472 69.7041 264.962 68.4977 265.836 67.6082C266.709 66.7187 267.893 66.219 269.128 66.219H312.779C314.014 66.219 315.198 66.7187 316.071 67.6082C316.945 68.4977 317.435 69.7041 317.435 70.962C317.435 72.2199 316.945 73.4263 316.071 74.3158C315.198 75.2053 314.014 75.705 312.779 75.705Z" fill="#8B68FF"/>
<path d="M307.288 206.286C308.227 202.397 312.64 201.122 316.249 201.265C318.528 201.415 320.79 201.765 323.006 202.31C325.324 202.817 327.62 203.418 329.904 204.055C334.094 205.223 338.239 206.636 342.498 207.549C346.043 208.309 349.895 208.755 353.43 207.705C356.828 206.696 359.711 204.22 360.636 200.795C361.507 197.568 360.311 194.04 357.113 192.565C354.196 191.22 350.512 191.904 349.066 194.945C347.436 198.375 349.065 202.114 351.646 204.596C353.113 205.942 354.719 207.136 356.44 208.156C358.186 209.319 360.129 210.171 362.18 210.67C365.546 211.373 369.557 210.337 371.293 207.192C371.679 206.48 371.911 205.698 371.975 204.895C372.078 203.802 370.331 203.808 370.229 204.895C369.935 208.026 366.184 209.493 363.379 209.149C361.486 208.843 359.678 208.157 358.069 207.134C356.516 206.249 355.044 205.234 353.67 204.1C351.291 202.087 349.061 198.775 350.659 195.634C351.96 193.076 355.352 193.102 357.414 194.751C359.912 196.749 359.467 200.374 357.819 202.746C355.995 205.373 352.688 206.474 349.571 206.593C346.183 206.722 342.824 205.962 339.587 205.063C335.564 203.946 331.581 202.696 327.539 201.644C325.244 201.047 322.932 200.509 320.596 200.089C318.387 199.613 316.118 199.46 313.863 199.634C310.22 200.045 306.501 202.118 305.604 205.832C305.346 206.901 307.029 207.357 307.288 206.286L307.288 206.286Z" fill="#927DFA"/>
<path d="M214.341 33.6512C207.565 33.6607 202.422 28.4564 202.429 21.7388C202.429 21.2996 202.785 20.9421 203.223 20.9421H205.32C205.713 20.9421 206.048 21.2313 206.106 21.6205C206.244 22.5539 206.515 23.4625 206.912 24.3188L206.994 24.4951C207.049 24.6138 207.06 24.7479 207.027 24.8744C206.994 25.0008 206.917 25.1116 206.811 25.1878C206.161 25.6516 205.913 26.585 206.419 27.3126C207.056 28.2287 207.851 29.024 208.767 29.6614C209.496 30.1665 210.429 29.9187 210.892 29.2698C210.968 29.1631 211.079 29.0864 211.206 29.0529C211.332 29.0194 211.467 29.0312 211.586 29.0863L211.761 29.1673C212.617 29.5645 213.526 29.8361 214.459 29.9743C214.849 30.0323 215.138 30.3667 215.138 30.7607V32.8569C215.138 32.9613 215.117 33.0646 215.077 33.1611C215.037 33.2575 214.979 33.3451 214.905 33.4188C214.831 33.4926 214.743 33.5511 214.647 33.591C214.55 33.6309 214.447 33.6513 214.343 33.6512H214.341Z" fill="#8B68FF"/>
<circle cx="208.783" cy="27.2968" r="17.7927" stroke="#8B68FF" stroke-width="2.54182"/>
</svg>
