<svg width="20" height="20" viewBox="0 0 20 20" fill="none" xmlns="http://www.w3.org/2000/svg">
<g clip-path="url(#clip0_1798_29)">
<path d="M19.1365 14.9536C19.2836 14.723 19.375 14.4632 19.375 14.2299V6.13182C19.375 5.89852 19.2837 5.63878 19.1365 5.4082L10 10.1809L19.1365 14.9536Z" fill="#7F3A86"/>
<path d="M10.8116 19.5521L18.5628 15.503C18.7861 15.3864 18.9891 15.185 19.1362 14.9544L9.99972 10.1816L0.863281 14.9544C1.01041 15.185 1.21341 15.3864 1.43663 15.503L9.18784 19.5521C9.63433 19.7854 10.3651 19.7854 10.8116 19.5521Z" fill="#662579"/>
<path d="M19.1365 5.40942C18.9894 5.17879 18.7863 4.97737 18.5631 4.86073L10.8119 0.811687C10.3654 0.578396 9.63461 0.578396 9.18813 0.811687L1.43689 4.86073C0.99032 5.09396 0.625 5.66655 0.625 6.13306V14.2312C0.625 14.4645 0.716359 14.7243 0.863539 14.9549L10 10.1822L19.1365 5.40942Z" fill="#9A5196"/>
<path d="M10.0301 15.6357C6.56727 15.6357 3.75 13.1887 3.75 10.1811C3.75 7.17347 6.56727 4.72656 10.0301 4.72656C12.2233 4.72656 14.2714 5.73271 15.4055 7.35961L12.716 8.76736C12.1478 7.95565 11.1249 7.45384 10.0301 7.45384C8.29859 7.45384 6.89008 8.67729 6.89008 10.1811C6.89008 11.6849 8.29859 12.9084 10.0301 12.9084C11.122 12.9084 12.1423 12.4094 12.7115 11.6015L15.4066 13.001C14.2728 14.6289 12.224 15.6357 10.0301 15.6357Z" fill="white"/>
<path fill-rule="evenodd" clip-rule="evenodd" d="M17.0313 8.13672V8.81676H15.4687V8.13672H14.6876V8.81676H13.9062V9.50036H14.6876V10.8604H13.9062V11.5458H14.6876V12.2276H15.4687L15.4688 11.5458H17.0313V12.2276H17.8124V11.5458H18.5938V10.864H17.8124V9.50036H18.5938V8.81676H17.8124V8.13672H17.0313ZM17.0313 10.864V9.50036H15.4687V10.8604L17.0313 10.864Z" fill="white"/>
</g>
<defs>
<clipPath id="clip0_1798_29">
<rect width="20" height="20" fill="white"/>
</clipPath>
</defs>
</svg>
