<svg width="69" height="30" viewBox="0 0 69 30" fill="none" xmlns="http://www.w3.org/2000/svg">
<rect x="0.5" y="0.5" width="68" height="29" rx="14.5" fill="#171616" fill-opacity="0.5" stroke="#D9D1FF"/>
<rect x="7" y="5" width="20" height="20" rx="10" fill="#9D80FF"/>
<path d="M39.4513 17.89H41.7513V19H38.0513V12.02H39.4513V17.89ZM43.3512 12.8C43.1045 12.8 42.8978 12.7233 42.7312 12.57C42.5712 12.41 42.4912 12.2133 42.4912 11.98C42.4912 11.7467 42.5712 11.5533 42.7312 11.4C42.8978 11.24 43.1045 11.16 43.3512 11.16C43.5978 11.16 43.8012 11.24 43.9612 11.4C44.1278 11.5533 44.2112 11.7467 44.2112 11.98C44.2112 12.2133 44.1278 12.41 43.9612 12.57C43.8012 12.7233 43.5978 12.8 43.3512 12.8ZM44.0412 13.46V19H42.6412V13.46H44.0412ZM47.5944 13.37C48.0077 13.37 48.371 13.4533 48.6844 13.62C48.9977 13.78 49.2444 13.99 49.4244 14.25V13.46H50.8344V19.04C50.8344 19.5533 50.731 20.01 50.5244 20.41C50.3177 20.8167 50.0077 21.1367 49.5944 21.37C49.181 21.61 48.681 21.73 48.0944 21.73C47.3077 21.73 46.661 21.5467 46.1544 21.18C45.6544 20.8133 45.371 20.3133 45.3044 19.68H46.6944C46.7677 19.9333 46.9244 20.1333 47.1644 20.28C47.411 20.4333 47.7077 20.51 48.0544 20.51C48.461 20.51 48.791 20.3867 49.0444 20.14C49.2977 19.9 49.4244 19.5333 49.4244 19.04V18.18C49.2444 18.44 48.9944 18.6567 48.6744 18.83C48.361 19.0033 48.001 19.09 47.5944 19.09C47.1277 19.09 46.701 18.97 46.3144 18.73C45.9277 18.49 45.621 18.1533 45.3944 17.72C45.1744 17.28 45.0644 16.7767 45.0644 16.21C45.0644 15.65 45.1744 15.1533 45.3944 14.72C45.621 14.2867 45.9244 13.9533 46.3044 13.72C46.691 13.4867 47.121 13.37 47.5944 13.37ZM49.4244 16.23C49.4244 15.89 49.3577 15.6 49.2244 15.36C49.091 15.1133 48.911 14.9267 48.6844 14.8C48.4577 14.6667 48.2144 14.6 47.9544 14.6C47.6944 14.6 47.4544 14.6633 47.2344 14.79C47.0144 14.9167 46.8344 15.1033 46.6944 15.35C46.561 15.59 46.4944 15.8767 46.4944 16.21C46.4944 16.5433 46.561 16.8367 46.6944 17.09C46.8344 17.3367 47.0144 17.5267 47.2344 17.66C47.461 17.7933 47.701 17.86 47.9544 17.86C48.2144 17.86 48.4577 17.7967 48.6844 17.67C48.911 17.5367 49.091 17.35 49.2244 17.11C49.3577 16.8633 49.4244 16.57 49.4244 16.23ZM55.3217 13.38C55.7417 13.38 56.1151 13.4733 56.4417 13.66C56.7684 13.84 57.0217 14.11 57.2017 14.47C57.3884 14.8233 57.4817 15.25 57.4817 15.75V19H56.0817V15.94C56.0817 15.5 55.9717 15.1633 55.7517 14.93C55.5317 14.69 55.2317 14.57 54.8517 14.57C54.4651 14.57 54.1584 14.69 53.9317 14.93C53.7117 15.1633 53.6017 15.5 53.6017 15.94V19H52.2017V11.6H53.6017V14.15C53.7817 13.91 54.0217 13.7233 54.3217 13.59C54.6217 13.45 54.9551 13.38 55.3217 13.38ZM60.443 14.61V17.29C60.443 17.4767 60.4864 17.6133 60.573 17.7C60.6664 17.78 60.8197 17.82 61.033 17.82H61.683V19H60.803C59.623 19 59.033 18.4267 59.033 17.28V14.61H58.373V13.46H59.033V12.09H60.443V13.46H61.683V14.61H60.443Z" fill="#8B68FF"/>
</svg>
