<svg width="69" height="29" viewBox="0 0 69 29" fill="none" xmlns="http://www.w3.org/2000/svg">
<rect x="0.5" y="0.5" width="68" height="28" rx="14" fill="#171616" stroke="#D9D1FF"/>
<rect x="6" y="4" width="20" height="20" rx="10" fill="#9D80FF"/>
<path d="M39.13 11.02C39.8633 11.02 40.5067 11.1633 41.06 11.45C41.62 11.7367 42.05 12.1467 42.35 12.68C42.6567 13.2067 42.81 13.82 42.81 14.52C42.81 15.22 42.6567 15.8333 42.35 16.36C42.05 16.88 41.62 17.2833 41.06 17.57C40.5067 17.8567 39.8633 18 39.13 18H36.69V11.02H39.13ZM39.08 16.81C39.8133 16.81 40.38 16.61 40.78 16.21C41.18 15.81 41.38 15.2467 41.38 14.52C41.38 13.7933 41.18 13.2267 40.78 12.82C40.38 12.4067 39.8133 12.2 39.08 12.2H38.09V16.81H39.08ZM43.498 15.21C43.498 14.65 43.608 14.1533 43.828 13.72C44.0546 13.2867 44.358 12.9533 44.738 12.72C45.1246 12.4867 45.5546 12.37 46.028 12.37C46.4413 12.37 46.8013 12.4533 47.108 12.62C47.4213 12.7867 47.6713 12.9967 47.858 13.25V12.46H49.268V18H47.858V17.19C47.678 17.45 47.428 17.6667 47.108 17.84C46.7946 18.0067 46.4313 18.09 46.018 18.09C45.5513 18.09 45.1246 17.97 44.738 17.73C44.358 17.49 44.0546 17.1533 43.828 16.72C43.608 16.28 43.498 15.7767 43.498 15.21ZM47.858 15.23C47.858 14.89 47.7913 14.6 47.658 14.36C47.5246 14.1133 47.3446 13.9267 47.118 13.8C46.8913 13.6667 46.648 13.6 46.388 13.6C46.128 13.6 45.888 13.6633 45.668 13.79C45.448 13.9167 45.268 14.1033 45.128 14.35C44.9946 14.59 44.928 14.8767 44.928 15.21C44.928 15.5433 44.9946 15.8367 45.128 16.09C45.268 16.3367 45.448 16.5267 45.668 16.66C45.8946 16.7933 46.1346 16.86 46.388 16.86C46.648 16.86 46.8913 16.7967 47.118 16.67C47.3446 16.5367 47.5246 16.35 47.658 16.11C47.7913 15.8633 47.858 15.57 47.858 15.23ZM52.0353 13.32C52.2153 13.0267 52.4486 12.7967 52.7353 12.63C53.0286 12.4633 53.362 12.38 53.7353 12.38V13.85H53.3653C52.9253 13.85 52.592 13.9533 52.3653 14.16C52.1453 14.3667 52.0353 14.7267 52.0353 15.24V18H50.6353V12.46H52.0353V13.32ZM57.9583 18L56.0783 15.64V18H54.6783V10.6H56.0783V14.81L57.9383 12.46H59.7583L57.3183 15.24L59.7783 18H57.9583Z" fill="#8B68FF"/>
</svg>
