<svg width="20" height="20" viewBox="0 0 20 20" fill="none" xmlns="http://www.w3.org/2000/svg">
<g clip-path="url(#clip0_1796_21)">
<path d="M5.51141 5.445L4.21875 4.15234L4.22422 13.4961L4.23969 13.9328C4.24609 14.1383 4.28422 14.3702 4.34781 14.6105L14.5903 18.2222L17.1506 17.0878L17.1516 17.0847L5.51141 5.445Z" fill="#00D2B8"/>
<path d="M4.34789 14.6103L4.34852 14.6109C4.34789 14.6067 4.3457 14.602 4.3457 14.5977C4.3457 14.602 4.34633 14.6061 4.34789 14.6103ZM17.1507 17.0877L14.5904 18.222L4.34852 14.6109C4.54414 15.3616 4.97727 16.2053 5.44336 16.6667L8.78586 19.9902L16.2179 19.9998L17.1516 17.0845L17.1507 17.0877Z" fill="#55DDCA"/>
<path d="M0.237303 10.1653C-0.0936344 10.5186 0.0707407 11.2473 0.603553 11.7842L2.90183 14.1016L4.34715 14.6105C4.28355 14.3702 4.24543 14.1383 4.23902 13.9328L4.22355 13.4961L4.21808 4.15234L0.237303 10.1653Z" fill="#0081C6"/>
<path d="M14.6744 4.27227C14.4341 4.21086 14.2036 4.17289 13.9947 4.16633L13.5331 4.15039L4.21875 4.15164L17.1528 17.0846H17.1539L18.2898 14.5218L14.6744 4.27227Z" fill="#0079B3"/>
<path d="M14.6621 4.26953C14.6671 4.27063 14.671 4.27203 14.6743 4.2725L14.6738 4.27203C14.671 4.27063 14.6671 4.27063 14.6621 4.26953ZM16.7284 5.36938C16.259 4.89609 15.4263 4.46594 14.6743 4.2725L18.2893 14.5216L17.1534 17.0844H17.1523L19.9282 16.1978L19.9341 8.58719L16.7284 5.36938Z" fill="#00A4E4"/>
<path d="M14.168 2.83571L11.8513 0.536022C11.3155 0.00524089 10.5864 -0.159915 10.2341 0.170085L4.21875 4.15165L13.5331 4.1504L13.9947 4.16634C14.2036 4.1729 14.4341 4.21087 14.6744 4.27227L14.168 2.83571Z" fill="#00D2B8"/>
</g>
<defs>
<clipPath id="clip0_1796_21">
<rect width="20" height="20" fill="white"/>
</clipPath>
</defs>
</svg>
