<svg width="79" height="79" viewBox="0 0 79 79" fill="none" xmlns="http://www.w3.org/2000/svg">
<g clip-path="url(#clip0_3_913)">
<path d="M60.3771 0.360766C48.2844 3.50719 36.3195 13.6313 30.3599 25.8153C22.103 28.2914 14.9714 33.9528 10.6835 41.5663C10.4322 42.0047 10.4518 42.5503 10.7325 42.9702C11.0164 43.392 11.5111 43.6165 12.0133 43.5509L22.3076 42.2028L21.4676 43.9133C21.1551 44.5489 21.3943 45.3155 22.012 45.6634L43.1307 57.5575C43.4494 57.737 43.8133 57.771 44.1447 57.6784C44.4503 57.593 44.7258 57.3997 44.9088 57.1133L45.9361 55.5083L50.1195 65.0103C50.3238 65.4738 50.8029 65.722 51.3057 65.7476C51.4346 65.7531 51.5629 65.7367 51.6888 65.7015C52.0535 65.5996 52.3814 65.3363 52.5672 65.0103C56.7959 57.5019 57.9404 48.4686 55.7777 40.1242C63.1128 28.691 65.621 13.202 61.9832 1.26316C61.7743 0.585022 61.0678 0.187134 60.3771 0.360766ZM54.7371 25.8371C53.8358 27.4374 52.3672 28.5233 50.721 28.9833C49.0747 29.4433 47.2559 29.276 45.6556 28.3747C42.4544 26.5696 41.3162 22.4963 43.118 19.2932C44.9224 16.0895 48.9957 14.9513 52.1995 16.7557C55.4033 18.56 56.5422 22.6359 54.7371 25.8371Z" fill="white"/>
<path d="M19.1279 58.6857C17.1477 62.2016 16.8439 75.6709 16.8153 77.1935C16.8055 77.6835 17.0684 78.1389 17.493 78.3802C17.8085 78.5579 18.1712 78.5977 18.5077 78.5037C18.6309 78.4692 18.7492 78.4168 18.8624 78.3464C20.1496 77.5327 31.5105 70.2908 33.4907 66.7748C35.7207 62.8153 34.3134 57.7789 30.3538 55.5488C26.3917 53.3195 21.3586 54.7287 19.1279 58.6857Z" fill="white"/>
</g>
<defs>
<clipPath id="clip0_3_913">
<rect width="64" height="64" fill="white" transform="translate(0 17.2236) rotate(-15.6117)"/>
</clipPath>
</defs>
</svg>
