<svg width="54" height="66" viewBox="0 0 54 66" fill="none" xmlns="http://www.w3.org/2000/svg">
<path d="M50.3771 0.360766C38.2844 3.50719 26.3195 13.6313 20.3599 25.8153C12.103 28.2914 4.97143 33.9528 0.683491 41.5663C0.432219 42.0047 0.451752 42.5503 0.732457 42.9702C1.01645 43.392 1.51111 43.6165 2.01333 43.5509L12.3076 42.2028L11.4676 43.9133C11.1551 44.5489 11.3943 45.3155 12.012 45.6634L33.1307 57.5575C33.4494 57.737 33.8133 57.771 34.1447 57.6784C34.4503 57.593 34.7258 57.3997 34.9088 57.1133L35.9361 55.5083L40.1195 65.0103C40.3238 65.4738 40.8029 65.722 41.3057 65.7476C41.4346 65.7531 41.5629 65.7367 41.6888 65.7015C42.0535 65.5996 42.3814 65.3363 42.5672 65.0103C46.7959 57.5019 47.9404 48.4686 45.7777 40.1242C53.1128 28.691 55.621 13.202 51.9832 1.26316C51.7743 0.585022 51.0678 0.187134 50.3771 0.360766ZM44.7371 25.8371C43.8358 27.4374 42.3672 28.5233 40.721 28.9833C39.0747 29.4433 37.2559 29.276 35.6556 28.3747C32.4544 26.5696 31.3162 22.4963 33.118 19.2932C34.9224 16.0895 38.9957 14.9513 42.1995 16.7557C45.4033 18.56 46.5422 22.6359 44.7371 25.8371Z" fill="#8B68FF"/>
</svg>
