<svg width="162" height="154" viewBox="0 0 162 154" fill="none" xmlns="http://www.w3.org/2000/svg">
<g filter="url(#filter0_d_1158_380)">
<path d="M4 77L42.5 10.316H119.5L158 77L119.5 143.684H42.5L4 77Z" fill="white" fill-opacity="0.08" shape-rendering="crispEdges"/>
<path d="M42.933 142.934L4.86603 77L42.933 11.066H119.067L157.134 77L119.067 142.934H42.933Z" stroke="#8B68FF" stroke-width="1.5" shape-rendering="crispEdges"/>
</g>
<g clip-path="url(#clip0_1158_380)">
<path d="M103.377 39.3608C91.2844 42.5072 79.3195 52.6313 73.3599 64.8153C65.103 67.2914 57.9714 72.9528 53.6835 80.5663C53.4322 81.0047 53.4518 81.5503 53.7325 81.9702C54.0164 82.392 54.5111 82.6165 55.0133 82.5509L65.3076 81.2028L64.4676 82.9133C64.1551 83.5489 64.3943 84.3155 65.012 84.6634L86.1307 96.5575C86.4494 96.737 86.8133 96.771 87.1447 96.6784C87.4503 96.593 87.7258 96.3997 87.9088 96.1133L88.9361 94.5083L93.1195 104.01C93.3238 104.474 93.8029 104.722 94.3057 104.748C94.4346 104.753 94.5629 104.737 94.6888 104.701C95.0535 104.6 95.3814 104.336 95.5672 104.01C99.7959 96.5019 100.94 87.4686 98.7777 79.1242C106.113 67.691 108.621 52.202 104.983 40.2632C104.774 39.585 104.068 39.1871 103.377 39.3608ZM97.7371 64.8371C96.8358 66.4374 95.3672 67.5233 93.721 67.9833C92.0747 68.4433 90.2559 68.276 88.6556 67.3747C85.4544 65.5696 84.3162 61.4963 86.118 58.2932C87.9224 55.0895 91.9957 53.9513 95.1995 55.7557C98.4033 57.56 99.5422 61.6359 97.7371 64.8371Z" fill="white"/>
<path d="M62.1279 97.6855C60.1477 101.201 59.8439 114.671 59.8153 116.193C59.8055 116.683 60.0684 117.139 60.493 117.38C60.8085 117.558 61.1712 117.598 61.5077 117.504C61.6309 117.469 61.7492 117.417 61.8624 117.346C63.1496 116.533 74.5105 109.291 76.4907 105.775C78.7207 101.815 77.3134 96.7787 73.3538 94.5487C69.3917 92.3194 64.3586 93.7286 62.1279 97.6855Z" fill="white"/>
</g>
<defs>
<filter id="filter0_d_1158_380" x="0" y="6.31616" width="162" height="141.368" filterUnits="userSpaceOnUse" color-interpolation-filters="sRGB">
<feFlood flood-opacity="0" result="BackgroundImageFix"/>
<feColorMatrix in="SourceAlpha" type="matrix" values="0 0 0 0 0 0 0 0 0 0 0 0 0 0 0 0 0 0 127 0" result="hardAlpha"/>
<feOffset/>
<feGaussianBlur stdDeviation="2"/>
<feComposite in2="hardAlpha" operator="out"/>
<feColorMatrix type="matrix" values="0 0 0 0 0.545098 0 0 0 0 0.407843 0 0 0 0 1 0 0 0 0.8 0"/>
<feBlend mode="normal" in2="BackgroundImageFix" result="effect1_dropShadow_1158_380"/>
<feBlend mode="normal" in="SourceGraphic" in2="effect1_dropShadow_1158_380" result="shape"/>
</filter>
<clipPath id="clip0_1158_380">
<rect width="64" height="64" fill="white" transform="translate(43 56.2236) rotate(-15.6117)"/>
</clipPath>
</defs>
</svg>
