<svg width="162" height="154" viewBox="0 0 162 154" fill="none" xmlns="http://www.w3.org/2000/svg">
<g filter="url(#filter0_d_222_36)">
<path d="M4 77L42.5 10.316H119.5L158 77L119.5 143.684H42.5L4 77Z" fill="white" fill-opacity="0.08" shape-rendering="crispEdges"/>
<path d="M42.933 142.934L4.86603 77L42.933 11.066H119.067L157.134 77L119.067 142.934H42.933Z" stroke="#8B68FF" stroke-width="1.5" shape-rendering="crispEdges"/>
</g>
<g clip-path="url(#clip0_222_36)">
<path d="M62.4366 61.5317C58.6459 61.5317 55.5615 64.6161 55.5615 68.4068C55.5615 72.1975 58.6459 75.2818 62.4366 75.2818C66.2279 75.2818 69.3116 72.1975 69.3116 68.4068C69.3116 64.6161 66.2279 61.5317 62.4366 61.5317ZM62.4366 71.8443C60.5412 71.8443 58.9991 70.3021 58.9991 68.4068C58.9991 66.5115 60.5412 64.9693 62.4366 64.9693C64.3326 64.9693 65.8741 66.5115 65.8741 68.4068C65.8741 70.3021 64.3326 71.8443 62.4366 71.8443Z" fill="white"/>
<path d="M88.2181 59.813C88.2181 56.0224 85.1344 52.938 81.3431 52.938C77.5524 52.938 74.468 56.0224 74.468 59.813C74.468 63.6037 77.5524 66.6881 81.3431 66.6881C85.1344 66.6881 88.2181 63.6037 88.2181 59.813ZM77.9055 59.813C77.9055 57.9177 79.4477 56.3755 81.3431 56.3755C83.2391 56.3755 84.7806 57.9177 84.7806 59.813C84.7806 61.7084 83.2391 63.2506 81.3431 63.2506C79.4477 63.2506 77.9055 61.7084 77.9055 59.813Z" fill="white"/>
<path d="M50.4053 89.0318C50.4053 92.8225 53.4896 95.9068 57.2803 95.9068C61.0717 95.9068 64.1554 92.8225 64.1554 89.0318C64.1554 85.2411 61.0717 82.1567 57.2803 82.1567C53.4896 82.1567 50.4053 85.2411 50.4053 89.0318ZM57.2803 85.5943C59.1763 85.5943 60.7179 87.1365 60.7179 89.0318C60.7179 90.9271 59.1763 92.4693 57.2803 92.4693C55.385 92.4693 53.8428 90.9271 53.8428 89.0318C53.8428 87.1365 55.385 85.5943 57.2803 85.5943Z" fill="white"/>
<path d="M65.8743 102.782C65.8743 106.572 68.9586 109.657 72.7493 109.657C76.5407 109.657 79.6244 106.572 79.6244 102.782C79.6244 98.9911 76.5407 95.9067 72.7493 95.9067C68.9586 95.9067 65.8743 98.9911 65.8743 102.782ZM76.1868 102.782C76.1868 104.677 74.6453 106.219 72.7493 106.219C70.854 106.219 69.3118 104.677 69.3118 102.782C69.3118 100.886 70.854 99.3443 72.7493 99.3443C74.6453 99.3443 76.1868 100.886 76.1868 102.782Z" fill="white"/>
<path d="M112.331 49.3457C112.331 45.2563 106.381 35.6762 105.188 33.7976C104.873 33.3008 104.326 33 103.737 33C103.149 33 102.601 33.3008 102.287 33.7976C101.244 35.4392 96.5716 42.9588 95.4067 47.5591C84.604 43.1212 73.3441 43.2421 63.4565 47.9546C53.6254 52.6402 45.6969 61.755 42.8878 73.2305C42.6615 74.153 43.2262 75.0828 44.148 75.3084C44.2856 75.342 44.4233 75.3581 44.5582 75.3581C45.3317 75.3581 46.0346 74.8324 46.2266 74.0476C48.6685 64.072 55.663 55.4769 64.9356 51.0571C74.3116 46.589 85.0848 46.6769 95.3651 51.2827C95.9042 53.6158 97.4035 55.6192 99.466 56.8022C98.4542 60.4848 97.666 66.0741 97.2182 72.8122C97.0362 75.5475 96.9134 78.4512 96.8529 81.4577C90.3263 85.2027 86.0281 92.3289 86.5665 100.84C86.7706 104.056 87.0788 108.916 82.0152 113.33C78.3984 116.484 73.0749 117.35 68.1234 115.593C55.8329 111.231 46.9416 100.053 45.4706 87.1149C45.3639 86.1716 44.5105 85.4948 43.5692 85.6009C42.6259 85.7083 41.9485 86.5596 42.0553 87.5029C43.7055 102.022 53.5831 114.079 66.974 118.832C73.0957 121.005 79.7244 119.888 84.2744 115.921C90.6164 110.392 90.2135 104.037 89.9967 100.622C89.5958 94.2793 92.36 88.9135 96.812 85.5868V85.5935C96.812 93.7341 97.4357 109.687 100.059 117.125C100.433 118.185 101.426 121 103.687 121C105.949 121 106.942 118.185 107.315 117.125C109.923 109.733 110.562 93.8979 110.562 85.5935C110.562 84.4139 110.552 83.253 110.533 82.1204C111.063 82.113 111.601 82.1123 112.145 82.121C115.4 82.1687 118.357 80.1881 119.51 77.1877C122.669 68.9591 116.797 60.7627 109.872 55.3634C111.425 53.7803 112.331 51.6305 112.331 49.3457ZM103.737 38.014C106.217 42.2115 108.894 47.4544 108.894 49.3457C108.894 52.33 106.414 54.5678 103.629 54.5054C100.859 54.4429 98.5811 52.1823 98.5811 49.3457C98.5811 47.4544 101.257 42.2115 103.737 38.014ZM103.737 57.9395C104.041 57.9395 104.343 57.9221 104.642 57.8905C105.484 61.038 106.181 65.8351 106.615 71.503C104.681 71.7514 102.694 71.7467 100.76 71.4902C101.194 65.823 101.892 61.0279 102.736 57.8804C103.067 57.9194 103.401 57.9395 103.737 57.9395ZM103.687 116.929C100.91 110.99 100.249 93.0997 100.249 85.5942C100.249 84.6341 100.272 82.5199 100.272 82.5145C100.312 79.8967 100.401 77.3548 100.534 74.9284C101.594 75.06 102.665 75.1265 103.737 75.1265C104.777 75.1265 105.815 75.064 106.842 74.9398C106.942 76.7707 107.016 78.6513 107.062 80.5547C107.104 82.1674 107.125 83.8626 107.125 85.5942C107.125 93.334 106.426 111.073 103.687 116.929ZM116.3 75.9557C115.663 77.6153 114.012 78.7151 112.199 78.6849C111.609 78.6755 111.023 78.6755 110.447 78.6842C110.38 76.6915 110.283 74.7297 110.158 72.8323C110.157 72.8209 110.155 72.8095 110.154 72.7981C109.772 67.0463 109.141 62.1324 108.336 58.5297C115.292 64.16 118.327 70.6778 116.3 75.9557Z" fill="white"/>
<path d="M45.2491 80.438C45.2491 81.3874 44.4796 82.1568 43.5303 82.1568C42.5816 82.1568 41.8115 81.3874 41.8115 80.438C41.8115 79.4887 42.5816 78.7192 43.5303 78.7192C44.4796 78.7192 45.2491 79.4887 45.2491 80.438Z" fill="white"/>
</g>
<defs>
<filter id="filter0_d_222_36" x="0" y="6.31616" width="162" height="141.368" filterUnits="userSpaceOnUse" color-interpolation-filters="sRGB">
<feFlood flood-opacity="0" result="BackgroundImageFix"/>
<feColorMatrix in="SourceAlpha" type="matrix" values="0 0 0 0 0 0 0 0 0 0 0 0 0 0 0 0 0 0 127 0" result="hardAlpha"/>
<feOffset/>
<feGaussianBlur stdDeviation="2"/>
<feComposite in2="hardAlpha" operator="out"/>
<feColorMatrix type="matrix" values="0 0 0 0 0.545098 0 0 0 0 0.407843 0 0 0 0 1 0 0 0 0.8 0"/>
<feBlend mode="normal" in2="BackgroundImageFix" result="effect1_dropShadow_222_36"/>
<feBlend mode="normal" in="SourceGraphic" in2="effect1_dropShadow_222_36" result="shape"/>
</filter>
<clipPath id="clip0_222_36">
<rect width="88" height="88" fill="white" transform="translate(37 33)"/>
</clipPath>
</defs>
</svg>
