<svg width="162" height="154" viewBox="0 0 162 154" fill="none" xmlns="http://www.w3.org/2000/svg">
<g filter="url(#filter0_d_1158_381)">
<path d="M4 77L42.5 10.316H119.5L158 77L119.5 143.684H42.5L4 77Z" fill="white" fill-opacity="0.08" shape-rendering="crispEdges"/>
<path d="M42.933 142.934L4.86603 77L42.933 11.066H119.067L157.134 77L119.067 142.934H42.933Z" stroke="#8B68FF" stroke-width="1.5" shape-rendering="crispEdges"/>
</g>
<g clip-path="url(#clip0_1158_381)">
<path d="M62.4366 61.5312C58.6459 61.5312 55.5615 64.6156 55.5615 68.4063C55.5615 72.197 58.6459 75.2814 62.4366 75.2814C66.2279 75.2814 69.3116 72.197 69.3116 68.4063C69.3116 64.6156 66.2279 61.5312 62.4366 61.5312ZM62.4366 71.8438C60.5412 71.8438 58.9991 70.3016 58.9991 68.4063C58.9991 66.511 60.5412 64.9688 62.4366 64.9688C64.3326 64.9688 65.8741 66.511 65.8741 68.4063C65.8741 70.3016 64.3326 71.8438 62.4366 71.8438Z" fill="#8B68FF"/>
<path d="M88.2179 59.8126C88.2179 56.0219 85.1342 52.9375 81.3428 52.9375C77.5521 52.9375 74.4678 56.0219 74.4678 59.8126C74.4678 63.6032 77.5521 66.6876 81.3428 66.6876C85.1342 66.6876 88.2179 63.6032 88.2179 59.8126ZM77.9053 59.8126C77.9053 57.9172 79.4475 56.375 81.3428 56.375C83.2388 56.375 84.7804 57.9172 84.7804 59.8126C84.7804 61.7079 83.2388 63.2501 81.3428 63.2501C79.4475 63.2501 77.9053 61.7079 77.9053 59.8126Z" fill="#8B68FF"/>
<path d="M50.4053 89.0313C50.4053 92.822 53.4896 95.9064 57.2803 95.9064C61.0717 95.9064 64.1554 92.822 64.1554 89.0313C64.1554 85.2406 61.0717 82.1562 57.2803 82.1562C53.4896 82.1562 50.4053 85.2406 50.4053 89.0313ZM57.2803 85.5938C59.1763 85.5938 60.7179 87.136 60.7179 89.0313C60.7179 90.9266 59.1763 92.4688 57.2803 92.4688C55.385 92.4688 53.8428 90.9266 53.8428 89.0313C53.8428 87.136 55.385 85.5938 57.2803 85.5938Z" fill="#8B68FF"/>
<path d="M65.874 102.781C65.874 106.572 68.9584 109.656 72.7491 109.656C76.5404 109.656 79.6241 106.572 79.6241 102.781C79.6241 98.9906 76.5404 95.9062 72.7491 95.9062C68.9584 95.9062 65.874 98.9906 65.874 102.781ZM76.1866 102.781C76.1866 104.677 74.6451 106.219 72.7491 106.219C70.8537 106.219 69.3116 104.677 69.3116 102.781C69.3116 100.886 70.8537 99.3438 72.7491 99.3438C74.6451 99.3438 76.1866 100.886 76.1866 102.781Z" fill="#8B68FF"/>
<path d="M112.331 49.3457C112.331 45.2563 106.381 35.6762 105.188 33.7976C104.872 33.3008 104.325 33 103.737 33C103.148 33 102.601 33.3008 102.286 33.7976C101.244 35.4392 96.5714 42.9588 95.4065 47.5591C84.6038 43.1212 73.3439 43.2421 63.4563 47.9546C53.6251 52.6402 45.6966 61.755 42.8875 73.2305C42.6613 74.153 43.2259 75.0828 44.1477 75.3084C44.2854 75.342 44.423 75.3581 44.558 75.3581C45.3314 75.3581 46.0344 74.8324 46.2264 74.0476C48.6682 64.072 55.6628 55.4769 64.9354 51.0571C74.3114 46.589 85.0845 46.6769 95.3649 51.2827C95.904 53.6158 97.4032 55.6192 99.4657 56.8022C98.4539 60.4848 97.6657 66.0741 97.2179 72.8122C97.036 75.5475 96.9131 78.4512 96.8527 81.4577C90.3261 85.2027 86.0278 92.3289 86.5663 100.84C86.7704 104.056 87.0786 108.916 82.0149 113.33C78.3981 116.484 73.0747 117.35 68.1231 115.593C55.8326 111.231 46.9414 100.053 45.4704 87.1149C45.3636 86.1716 44.5103 85.4948 43.569 85.6009C42.6257 85.7083 41.9483 86.5596 42.055 87.5029C43.7053 102.022 53.5828 114.079 66.9737 118.832C73.0955 121.005 79.7241 119.888 84.2742 115.921C90.6161 110.392 90.2133 104.037 89.9964 100.622C89.5956 94.2793 92.3597 88.9135 96.8117 85.5868V85.5935C96.8117 93.7341 97.4354 109.687 100.059 117.125C100.433 118.185 101.426 121 103.687 121C105.949 121 106.942 118.185 107.315 117.125C109.923 109.733 110.562 93.8979 110.562 85.5935C110.562 84.4139 110.552 83.253 110.532 82.1204C111.063 82.113 111.6 82.1123 112.145 82.121C115.4 82.1687 118.357 80.1881 119.509 77.1877C122.668 68.9591 116.797 60.7627 109.872 55.3634C111.425 53.7803 112.331 51.6305 112.331 49.3457ZM103.737 38.014C106.217 42.2115 108.893 47.4544 108.893 49.3457C108.893 52.33 106.414 54.5678 103.629 54.5054C100.859 54.4429 98.5808 52.1823 98.5808 49.3457C98.5808 47.4544 101.257 42.2115 103.737 38.014ZM103.737 57.9395C104.041 57.9395 104.343 57.9221 104.642 57.8905C105.483 61.038 106.18 65.8351 106.615 71.503C104.681 71.7514 102.694 71.7467 100.76 71.4902C101.194 65.823 101.892 61.0279 102.735 57.8804C103.066 57.9194 103.401 57.9395 103.737 57.9395ZM103.687 116.929C100.91 110.99 100.249 93.0997 100.249 85.5942C100.249 84.6341 100.271 82.5199 100.272 82.5145C100.312 79.8967 100.4 77.3548 100.534 74.9284C101.593 75.06 102.665 75.1265 103.737 75.1265C104.776 75.1265 105.815 75.064 106.842 74.9398C106.942 76.7707 107.016 78.6513 107.062 80.5547C107.103 82.1674 107.124 83.8626 107.124 85.5942C107.124 93.334 106.425 111.073 103.687 116.929ZM116.3 75.9557C115.662 77.6153 114.012 78.7151 112.199 78.6849C111.609 78.6755 111.023 78.6755 110.446 78.6842C110.38 76.6915 110.283 74.7297 110.158 72.8323C110.157 72.8209 110.155 72.8095 110.154 72.7981C109.772 67.0463 109.14 62.1324 108.336 58.5297C115.292 64.16 118.326 70.6778 116.3 75.9557Z" fill="#8B68FF"/>
<path d="M45.2491 80.4375C45.2491 81.3869 44.4796 82.1563 43.5303 82.1563C42.5816 82.1563 41.8115 81.3869 41.8115 80.4375C41.8115 79.4882 42.5816 78.7188 43.5303 78.7188C44.4796 78.7188 45.2491 79.4882 45.2491 80.4375Z" fill="#8B68FF"/>
</g>
<defs>
<filter id="filter0_d_1158_381" x="0" y="6.31641" width="162" height="141.367" filterUnits="userSpaceOnUse" color-interpolation-filters="sRGB">
<feFlood flood-opacity="0" result="BackgroundImageFix"/>
<feColorMatrix in="SourceAlpha" type="matrix" values="0 0 0 0 0 0 0 0 0 0 0 0 0 0 0 0 0 0 127 0" result="hardAlpha"/>
<feOffset/>
<feGaussianBlur stdDeviation="2"/>
<feComposite in2="hardAlpha" operator="out"/>
<feColorMatrix type="matrix" values="0 0 0 0 0.545098 0 0 0 0 0.407843 0 0 0 0 1 0 0 0 0.8 0"/>
<feBlend mode="normal" in2="BackgroundImageFix" result="effect1_dropShadow_1158_381"/>
<feBlend mode="normal" in="SourceGraphic" in2="effect1_dropShadow_1158_381" result="shape"/>
</filter>
<clipPath id="clip0_1158_381">
<rect width="88" height="88" fill="white" transform="translate(37 33)"/>
</clipPath>
</defs>
</svg>
