<svg width="88" height="88" viewBox="0 0 88 88" fill="none" xmlns="http://www.w3.org/2000/svg">
<g clip-path="url(#clip0_3_900)">
<path d="M25.4366 28.5317C21.6459 28.5317 18.5615 31.6161 18.5615 35.4068C18.5615 39.1975 21.6459 42.2818 25.4366 42.2818C29.2279 42.2818 32.3116 39.1975 32.3116 35.4068C32.3116 31.6161 29.2279 28.5317 25.4366 28.5317ZM25.4366 38.8443C23.5412 38.8443 21.9991 37.3021 21.9991 35.4068C21.9991 33.5115 23.5412 31.9693 25.4366 31.9693C27.3326 31.9693 28.8741 33.5115 28.8741 35.4068C28.8741 37.3021 27.3326 38.8443 25.4366 38.8443Z" fill="white"/>
<path d="M51.2179 26.813C51.2179 23.0224 48.1342 19.938 44.3428 19.938C40.5521 19.938 37.4678 23.0224 37.4678 26.813C37.4678 30.6037 40.5521 33.6881 44.3428 33.6881C48.1342 33.6881 51.2179 30.6037 51.2179 26.813ZM40.9053 26.813C40.9053 24.9177 42.4475 23.3755 44.3428 23.3755C46.2388 23.3755 47.7804 24.9177 47.7804 26.813C47.7804 28.7084 46.2388 30.2506 44.3428 30.2506C42.4475 30.2506 40.9053 28.7084 40.9053 26.813Z" fill="white"/>
<path d="M13.4053 56.0318C13.4053 59.8225 16.4896 62.9068 20.2803 62.9068C24.0717 62.9068 27.1554 59.8225 27.1554 56.0318C27.1554 52.2411 24.0717 49.1567 20.2803 49.1567C16.4896 49.1567 13.4053 52.2411 13.4053 56.0318ZM20.2803 52.5943C22.1763 52.5943 23.7179 54.1365 23.7179 56.0318C23.7179 57.9271 22.1763 59.4693 20.2803 59.4693C18.385 59.4693 16.8428 57.9271 16.8428 56.0318C16.8428 54.1365 18.385 52.5943 20.2803 52.5943Z" fill="white"/>
<path d="M28.874 69.7818C28.874 73.5725 31.9584 76.6568 35.7491 76.6568C39.5404 76.6568 42.6241 73.5725 42.6241 69.7818C42.6241 65.9911 39.5404 62.9067 35.7491 62.9067C31.9584 62.9067 28.874 65.9911 28.874 69.7818ZM39.1866 69.7818C39.1866 71.6771 37.6451 73.2193 35.7491 73.2193C33.8537 73.2193 32.3116 71.6771 32.3116 69.7818C32.3116 67.8865 33.8537 66.3443 35.7491 66.3443C37.6451 66.3443 39.1866 67.8865 39.1866 69.7818Z" fill="white"/>
<path d="M75.3309 16.3457C75.3309 12.2563 69.3811 2.67617 68.188 0.797614C67.8725 0.300784 67.3253 0 66.7371 0C66.1483 0 65.6011 0.300784 65.2863 0.797614C64.2436 2.43917 59.5714 9.95876 58.4065 14.5591C47.6038 10.1212 36.3439 10.2421 26.4563 14.9546C16.6251 19.6402 8.69664 28.755 5.88754 40.2305C5.66128 41.153 6.22592 42.0828 7.14774 42.3084C7.28538 42.342 7.42301 42.3581 7.55796 42.3581C8.33141 42.3581 9.03435 41.8324 9.22637 41.0476C11.6682 31.072 18.6628 22.4769 27.9354 18.0571C37.3114 13.589 48.0845 13.6769 58.3649 18.2827C58.904 20.6158 60.4032 22.6192 62.4657 23.8022C61.4539 27.4848 60.6657 33.0741 60.2179 39.8122C60.036 42.5475 59.9131 45.4512 59.8527 48.4577C53.3261 52.2027 49.0278 59.3289 49.5663 67.8401C49.7704 71.0561 50.0786 75.9163 45.0149 80.33C41.3981 83.4836 36.0747 84.3503 31.1231 82.5926C18.8326 78.2306 9.9414 67.0526 8.47038 54.1149C8.36363 53.1716 7.51029 52.4948 6.569 52.6009C5.6257 52.7083 4.94826 53.5596 5.05501 54.5029C6.7053 69.0218 16.5828 81.0793 29.9737 85.8321C36.0955 88.0054 42.7241 86.8875 47.2742 82.9209C53.6161 77.392 53.2133 71.0366 52.9964 67.6219C52.5956 61.2793 55.3597 55.9135 59.8117 52.5868V52.5935C59.8117 60.7341 60.4354 76.6871 63.0592 84.1254C63.4325 85.1849 64.4255 88 66.6868 88C68.9487 88 69.9417 85.1849 70.315 84.1254C72.9227 76.7334 73.5618 60.8979 73.5618 52.5935C73.5618 51.4139 73.5518 50.253 73.5323 49.1204C74.0627 49.113 74.6005 49.1123 75.145 49.121C78.3999 49.1687 81.3567 47.1881 82.5095 44.1877C85.6684 35.9591 79.7971 27.7627 72.8716 22.3634C74.4252 20.7803 75.3309 18.6305 75.3309 16.3457ZM66.7371 5.01396C69.2166 9.2115 71.8934 14.4544 71.8934 16.3457C71.8934 19.33 69.414 21.5678 66.629 21.5054C63.8589 21.4429 61.5808 19.1823 61.5808 16.3457C61.5808 14.4544 64.257 9.2115 66.7371 5.01396ZM66.7371 24.9395C67.0406 24.9395 67.3427 24.9221 67.6415 24.8905C68.4834 28.038 69.1803 32.8351 69.6147 38.503C67.6811 38.7514 65.6938 38.7467 63.7595 38.4902C64.1939 32.823 64.8922 28.0279 65.7354 24.8804C66.0664 24.9194 66.4008 24.9395 66.7371 24.9395ZM66.6868 83.9294C63.9099 77.9896 63.2493 60.0997 63.2493 52.5942C63.2493 51.6341 63.2714 49.5199 63.2721 49.5145C63.3117 46.8967 63.4003 44.3548 63.5339 41.9284C64.5934 42.06 65.6649 42.1265 66.7371 42.1265C67.7764 42.1265 68.8151 42.064 69.8417 41.9398C69.9417 43.7707 70.0155 45.6513 70.0619 47.5547C70.1035 49.1674 70.1243 50.8626 70.1243 52.5942C70.1243 60.334 69.4254 78.0728 66.6868 83.9294ZM79.3002 42.9557C78.6624 44.6153 77.0121 45.7151 75.1987 45.6849C74.6085 45.6755 74.0231 45.6755 73.4464 45.6842C73.3799 43.6915 73.2832 41.7297 73.1577 39.8323C73.157 39.8209 73.155 39.8095 73.1536 39.7981C72.7716 34.0463 72.1405 29.1324 71.3355 25.5297C78.2918 31.16 81.3265 37.6778 79.3002 42.9557Z" fill="white"/>
<path d="M8.24905 47.438C8.24905 48.3874 7.47964 49.1568 6.53029 49.1568C5.58161 49.1568 4.81152 48.3874 4.81152 47.438C4.81152 46.4887 5.58161 45.7192 6.53029 45.7192C7.47964 45.7192 8.24905 46.4887 8.24905 47.438Z" fill="white"/>
</g>
<defs>
<clipPath id="clip0_3_900">
<rect width="88" height="88" fill="white"/>
</clipPath>
</defs>
</svg>
