<svg width="162" height="154" viewBox="0 0 162 154" fill="none" xmlns="http://www.w3.org/2000/svg">
<g filter="url(#filter0_d_222_35)">
<path d="M4 77L42.5 10.316H119.5L158 77L119.5 143.684H42.5L4 77Z" fill="white" fill-opacity="0.08" shape-rendering="crispEdges"/>
<path d="M42.933 142.934L4.86603 77L42.933 11.066H119.067L157.134 77L119.067 142.934H42.933Z" stroke="#8B68FF" stroke-width="1.5" shape-rendering="crispEdges"/>
</g>
<path d="M93.9559 33.0057C93.1902 32.9563 92.4312 33.2308 91.8734 33.7544C91.3193 34.2748 91.0015 35.0096 91.0015 35.7698V41.4455C89.9099 41.2193 88.7539 41.2892 87.6984 41.6507C87.025 41.8817 86.6661 42.6147 86.8971 43.2881C87.1281 43.9615 87.8612 44.3202 88.5346 44.0894C89.2432 43.8462 90.0392 43.8306 90.7507 44.0373C91.42 44.2333 92.1503 44.1026 92.7048 43.6874C93.2606 43.2711 93.5796 42.6333 93.5796 41.9375V35.7698C93.5796 35.7161 93.5994 35.6704 93.6386 35.6336C93.6681 35.606 93.7194 35.5728 93.7948 35.5788C106.175 36.3538 115.86 46.678 115.843 59.0849C115.843 59.5264 115.83 59.973 115.806 60.4121C115.798 60.5529 115.69 60.6593 115.556 60.6593H112.793C112.934 59.986 112.962 59.2953 112.877 58.5998C112.53 55.7656 110.217 53.484 107.377 53.1749C105.605 52.9823 103.833 53.5488 102.515 54.7311C101.195 55.9145 100.438 57.6088 100.438 59.3795C100.438 59.81 100.482 60.238 100.569 60.6594H94.3259C93.9143 60.6594 93.5796 60.3248 93.5796 59.9132V53.1748C93.5796 52.4766 93.2593 51.8365 92.7005 51.4185C92.1412 51.0002 91.4358 50.8735 90.7643 51.0708C90.2769 51.2145 89.7681 51.2556 89.253 51.192C87.5925 50.988 86.2576 49.6321 86.0788 47.9674C86.0626 47.8189 86.0554 47.6696 86.057 47.5233C86.0642 46.8114 85.4931 46.2284 84.7811 46.221C84.7767 46.221 84.772 46.221 84.7676 46.221C84.062 46.221 83.4862 46.7896 83.4788 47.4969C83.4763 47.7438 83.4888 47.9951 83.5155 48.2433C83.8207 51.086 86.1015 53.4023 88.9392 53.7511C89.6358 53.8361 90.3274 53.8081 91.0015 53.6675V59.9133C91.0015 61.7464 92.4929 63.2377 94.3259 63.2377H101.061C101.757 63.2377 102.395 62.9189 102.811 62.3629C103.226 61.8083 103.357 61.0778 103.162 60.4138C103.066 60.0785 103.016 59.7304 103.016 59.3795C103.016 58.3401 103.461 57.3455 104.236 56.6504C105.021 55.9464 106.036 55.6218 107.098 55.7379C108.761 55.9189 110.115 57.2542 110.318 58.9132C110.381 59.4309 110.339 59.9415 110.195 60.4284C109.996 61.0915 110.12 61.7921 110.535 62.35C110.948 62.9057 111.608 63.2376 112.301 63.2376H115.556C117.055 63.2376 118.296 62.0595 118.38 60.5558C118.407 60.0692 118.42 59.5744 118.42 59.0868C118.439 45.3216 107.693 33.8656 93.9559 33.0057Z" fill="white"/>
<path d="M103.288 75.8221C102.748 75.1693 101.952 74.7949 101.106 74.7949H98.7207C99.6682 70.9329 96.0681 66.7506 91.9137 67.3104C89.0736 67.6196 86.7605 69.9011 86.4135 72.7353C86.3284 73.4308 86.3566 74.1214 86.4972 74.7948H79.5079V67.3101C79.5079 66.6119 79.1875 65.9719 78.6288 65.5539C78.0693 65.1354 77.3641 65.0087 76.6926 65.2062C76.2051 65.3495 75.6964 65.3902 75.1813 65.3275C73.521 65.1233 72.1858 63.7674 72.0071 62.1033C71.8935 61.0449 72.2185 60.0301 72.9225 59.2465C73.6179 58.4726 74.6124 58.0286 75.6512 58.0286C76.0027 58.0286 76.3495 58.0776 76.679 58.1732C77.3483 58.3696 78.0784 58.2388 78.6329 57.8234C79.1887 57.4071 79.5077 56.7693 79.5077 56.0735V49.9697C79.5077 49.1908 79.1815 48.439 78.6124 47.9067C78.0413 47.3727 77.2649 47.096 76.4843 47.1484C62.8777 48.0573 52.1616 59.4468 52.0884 73.0772C52.0167 79.5067 54.5411 86.2089 59.0623 90.9865C59.5466 91.508 60.3622 91.5386 60.8841 91.054C61.4058 90.5697 61.436 89.7541 60.9517 89.2322C57.8471 85.8883 55.8171 81.8133 55.0313 77.3731H57.7161C56.9064 80.9005 59.7259 84.9559 63.8428 84.8925C67.5077 84.9207 70.8113 81.4027 69.9385 77.3731H76.9299V84.8533C76.904 86.2432 78.4827 87.5199 80.1387 86.8675C82.2851 86.4019 84.7499 88.4149 84.4278 90.8863C84.2453 92.8476 82.0126 94.7334 79.7384 93.9849C79.0741 93.7863 78.3739 93.9104 77.8166 94.3255C77.2615 94.7389 76.9299 95.3991 76.9299 96.091V103.575H68.1492C67.5125 100.36 66.3958 97.3246 64.8287 94.5484C64.4786 93.9285 63.6924 93.7099 63.0725 94.0595C62.4525 94.4094 62.2335 95.1957 62.5835 95.8157C64.1084 98.4737 65.2522 101.796 65.7941 104.987V115.557C65.7941 118.558 68.2358 121 71.2371 121H85.2008C88.2019 121 90.6435 118.558 90.6435 115.557V104.989C91.4808 99.8596 93.936 94.8006 97.6454 90.6902C100.838 87.1444 102.996 82.8064 103.885 78.1451C104.043 77.3189 103.825 76.4721 103.288 75.8221ZM69.4465 74.7951C68.2378 74.7487 66.8321 76.145 67.3608 77.6836C67.9695 79.8479 66.3225 82.5857 63.4116 82.2918C61.661 82.073 59.7645 80.4503 60.2432 77.8904C60.726 76.6574 59.9787 74.7955 58.2087 74.7951H54.7183C54.6806 74.2277 54.6634 73.6581 54.6665 73.0915C54.7327 60.8058 64.3916 50.5402 76.6563 49.7209C76.7488 49.7135 76.8139 49.7549 76.8514 49.7896C76.887 49.8229 76.9296 49.8812 76.9296 49.9697V55.5815C76.5106 55.4945 76.0824 55.4507 75.6512 55.4507C73.8817 55.4507 72.1882 56.2062 71.0047 57.5238C69.8225 58.8397 69.2536 60.6093 69.4437 62.3788C69.749 65.2215 72.0298 67.5378 74.8676 67.8867C75.5647 67.972 76.2562 67.9436 76.9298 67.803V74.7951H69.4465ZM88.0654 108.421H76.3022C75.5902 108.421 75.0132 108.998 75.0132 109.71C75.0132 110.422 75.5902 110.999 76.3022 110.999H88.0654V113.577H68.3721V110.999H70.3658C71.0779 110.999 71.6549 110.422 71.6549 109.71C71.6549 108.998 71.0779 108.421 70.3658 108.421H68.3721V106.154H88.0652L88.0654 108.421ZM85.2008 118.422H71.2371C69.8624 118.422 68.7117 117.449 68.436 116.155H88.0018C87.726 117.449 86.5753 118.422 85.2008 118.422ZM101.353 77.6623C100.551 81.8611 98.6069 85.7697 95.7295 88.9656C91.9068 93.2111 89.3363 98.2599 88.2895 103.576H79.5079V96.584C82.8696 97.4029 86.6896 94.7134 86.991 91.1633C87.4939 87.1167 83.6279 83.4487 79.5079 84.3617V77.3732H86.9896C87.6878 77.3732 88.328 77.0529 88.746 76.4941C89.1646 75.9346 89.2914 75.2293 89.0937 74.5581C88.9502 74.0708 88.9095 73.5631 88.9724 73.0489C89.1756 71.3901 90.5298 70.0546 92.193 69.8736C94.5683 69.6024 96.9015 71.8928 96.1271 74.5473C95.9327 75.2164 96.0649 75.9463 96.4806 76.5001C96.8971 77.0549 97.5344 77.3731 98.2291 77.3731H101.106C101.204 77.3731 101.266 77.4233 101.301 77.4652C101.334 77.5054 101.37 77.5721 101.353 77.6623Z" fill="white"/>
<path d="M113.663 83.5796L109.18 83.3369C108.471 83.3008 107.862 83.8436 107.823 84.5545C107.785 85.2653 108.33 85.8728 109.041 85.9114L113.524 86.1541C113.547 86.1553 113.571 86.156 113.594 86.156C114.274 86.156 114.843 85.6237 114.88 84.9365C114.919 84.2257 114.374 83.6183 113.663 83.5796Z" fill="white"/>
<path d="M109.427 96.459L106.035 93.7014C105.482 93.2525 104.67 93.336 104.221 93.8888C103.772 94.4412 103.856 95.2531 104.409 95.7022L107.801 98.4598C108.04 98.654 108.328 98.7485 108.614 98.7485C108.988 98.7485 109.36 98.5861 109.615 98.2724C110.064 97.72 109.98 96.9081 109.427 96.459Z" fill="white"/>
<path d="M97.3975 100.237C97.2144 99.5492 96.5073 99.1406 95.8202 99.323C95.1322 99.506 94.7229 100.212 94.906 100.9L96.0608 105.24C96.2145 105.817 96.7358 106.198 97.3057 106.198C97.4155 106.198 97.5271 106.184 97.6381 106.154C98.3261 105.971 98.7354 105.265 98.5523 104.577L97.3975 100.237Z" fill="white"/>
<path d="M62.9805 45.192C63.0811 45.8268 63.629 46.2797 64.2522 46.2797C64.3193 46.2797 64.387 46.2745 64.4554 46.2637C65.1585 46.1525 65.6384 45.4921 65.527 44.7888L64.8253 40.3546C64.7141 39.6516 64.0546 39.1724 63.3504 39.2829C62.6473 39.3941 62.1674 40.0545 62.2788 40.7578L62.9805 45.192Z" fill="white"/>
<path d="M53.717 50.806C53.9688 51.0577 54.2988 51.1835 54.6286 51.1835C54.9584 51.1835 55.2884 51.0577 55.5402 50.806C56.0437 50.3024 56.0437 49.4864 55.5402 48.983L52.4487 45.8916C51.9451 45.3883 51.129 45.3883 50.6256 45.8916C50.1222 46.3952 50.1222 47.2113 50.6256 47.7147L53.717 50.806Z" fill="white"/>
<path d="M49.9262 58.2461L45.4909 57.5433C44.7876 57.4323 44.1273 57.9117 44.0161 58.6146C43.9047 59.3178 44.3844 59.9783 45.0874 60.0895L49.5226 60.7923C49.5908 60.8031 49.6589 60.8084 49.7259 60.8084C50.349 60.8084 50.8969 60.3557 50.9975 59.721C51.109 59.0178 50.6293 58.3573 49.9262 58.2461Z" fill="white"/>
<defs>
<filter id="filter0_d_222_35" x="0" y="6.31616" width="162" height="141.368" filterUnits="userSpaceOnUse" color-interpolation-filters="sRGB">
<feFlood flood-opacity="0" result="BackgroundImageFix"/>
<feColorMatrix in="SourceAlpha" type="matrix" values="0 0 0 0 0 0 0 0 0 0 0 0 0 0 0 0 0 0 127 0" result="hardAlpha"/>
<feOffset/>
<feGaussianBlur stdDeviation="2"/>
<feComposite in2="hardAlpha" operator="out"/>
<feColorMatrix type="matrix" values="0 0 0 0 0.545098 0 0 0 0 0.407843 0 0 0 0 1 0 0 0 0.8 0"/>
<feBlend mode="normal" in2="BackgroundImageFix" result="effect1_dropShadow_222_35"/>
<feBlend mode="normal" in="SourceGraphic" in2="effect1_dropShadow_222_35" result="shape"/>
</filter>
</defs>
</svg>
