<svg width="75" height="88" viewBox="0 0 75 88" fill="none" xmlns="http://www.w3.org/2000/svg">
<path d="M49.9559 0.00566932C49.1902 -0.043659 48.4312 0.230826 47.8734 0.75436C47.3193 1.2748 47.0015 2.00957 47.0015 2.76977V8.44545C45.9099 8.21926 44.7539 8.28922 43.6984 8.65067C43.025 8.88167 42.6661 9.61472 42.8971 10.2881C43.1281 10.9615 43.8612 11.3202 44.5346 11.0894C45.2432 10.8462 46.0392 10.8306 46.7507 11.0373C47.42 11.2333 48.1503 11.1026 48.7048 10.6874C49.2606 10.2711 49.5796 9.63328 49.5796 8.93753V2.76977C49.5796 2.71615 49.5994 2.67043 49.6386 2.63365C49.6681 2.60598 49.7194 2.5728 49.7948 2.57882C62.1749 3.35381 71.8595 13.678 71.8427 26.0849C71.8427 26.5264 71.8303 26.973 71.8057 27.4121C71.7978 27.5529 71.6904 27.6593 71.556 27.6593H68.7933C68.9339 26.986 68.9621 26.2953 68.877 25.5998C68.53 22.7656 66.2169 20.484 63.3771 20.1749C61.6051 19.9823 59.8332 20.5488 58.5148 21.7311C57.1949 22.9145 56.4382 24.6088 56.4382 26.3795C56.4382 26.81 56.482 27.238 56.5693 27.6594H50.3259C49.9143 27.6594 49.5796 27.3248 49.5796 26.9132V20.1748C49.5796 19.4766 49.2593 18.8365 48.7005 18.4185C48.1412 18.0002 47.4358 17.8735 46.7643 18.0708C46.2769 18.2145 45.7681 18.2556 45.253 18.192C43.5925 17.988 42.2576 16.6321 42.0788 14.9674C42.0626 14.8189 42.0554 14.6696 42.057 14.5233C42.0642 13.8114 41.4931 13.2284 40.7811 13.221C40.7767 13.221 40.772 13.221 40.7676 13.221C40.062 13.221 39.4862 13.7896 39.4788 14.4969C39.4763 14.7438 39.4888 14.9951 39.5155 15.2433C39.8207 18.086 42.1015 20.4023 44.9392 20.7511C45.6358 20.8361 46.3274 20.8081 47.0015 20.6675V26.9133C47.0015 28.7464 48.4929 30.2377 50.3259 30.2377H57.0614C57.757 30.2377 58.3948 29.9189 58.8111 29.3629C59.2263 28.8083 59.3573 28.0778 59.1624 27.4138C59.0656 27.0785 59.0163 26.7304 59.0163 26.3795C59.0163 25.3401 59.4609 24.3455 60.2361 23.6504C61.0212 22.9464 62.0365 22.6218 63.0977 22.7379C64.7606 22.9189 66.1149 24.2542 66.3179 25.9132C66.3812 26.4309 66.3394 26.9415 66.1947 27.4284C65.9958 28.0915 66.1196 28.7921 66.5348 29.35C66.9482 29.9057 67.6084 30.2376 68.3005 30.2376H71.5557C73.0554 30.2376 74.2957 29.0595 74.3796 27.5558C74.4067 27.0692 74.4205 26.5744 74.4205 26.0868C74.4394 12.3216 63.693 0.865563 49.9559 0.00566932Z" fill="#8B68FF"/>
<path d="M59.2876 42.8221C58.7476 42.1693 57.9523 41.7949 57.1058 41.7949H54.7207C55.6682 37.9329 52.0681 33.7506 47.9137 34.3104C45.0736 34.6196 42.7605 36.9011 42.4135 39.7353C42.3284 40.4308 42.3566 41.1214 42.4972 41.7948H35.5079V34.3101C35.5079 33.6119 35.1875 32.9719 34.6288 32.5539C34.0693 32.1354 33.3641 32.0087 32.6926 32.2062C32.2051 32.3495 31.6964 32.3902 31.1813 32.3275C29.521 32.1233 28.1858 30.7674 28.0071 29.1033C27.8935 28.0449 28.2185 27.0301 28.9225 26.2465C29.6179 25.4726 30.6124 25.0286 31.6512 25.0286C32.0027 25.0286 32.3495 25.0776 32.679 25.1732C33.3483 25.3696 34.0784 25.2388 34.6329 24.8234C35.1887 24.4071 35.5077 23.7693 35.5077 23.0735V16.9697C35.5077 16.1908 35.1815 15.439 34.6124 14.9067C34.0413 14.3727 33.2649 14.096 32.4843 14.1484C18.8777 15.0573 8.16162 26.4468 8.0884 40.0772C8.01673 46.5067 10.5411 53.2089 15.0623 57.9865C15.5466 58.508 16.3622 58.5386 16.8841 58.054C17.4058 57.5697 17.436 56.7541 16.9517 56.2322C13.8471 52.8883 11.8171 48.8133 11.0313 44.3731H13.7161C12.9064 47.9005 15.7259 51.9559 19.8428 51.8925C23.5077 51.9207 26.8113 48.4027 25.9385 44.3731H32.9299V51.8533C32.904 53.2432 34.4827 54.5199 36.1387 53.8675C38.2851 53.4019 40.7499 55.4149 40.4278 57.8863C40.2453 59.8476 38.0126 61.7334 35.7384 60.9849C35.0741 60.7863 34.3739 60.9104 33.8166 61.3255C33.2615 61.7389 32.9299 62.3991 32.9299 63.091V70.575H24.1492C23.5125 67.3602 22.3958 64.3246 20.8287 61.5484C20.4786 60.9285 19.6924 60.7099 19.0725 61.0595C18.4525 61.4094 18.2335 62.1957 18.5835 62.8157C20.1084 65.4737 21.2522 68.7959 21.7941 71.9875V82.5571C21.7941 85.5583 24.2358 87.9999 27.2371 87.9999H41.2008C44.2019 87.9999 46.6435 85.5583 46.6435 82.5571V71.9892C47.4808 66.8596 49.936 61.8006 53.6454 57.6902C56.838 54.1444 58.9957 49.8064 59.8852 45.1451C60.043 44.3189 59.825 43.4721 59.2876 42.8221ZM25.4465 41.7951C24.2378 41.7487 22.8321 43.145 23.3608 44.6836C23.9695 46.8479 22.3225 49.5857 19.4116 49.2918C17.661 49.073 15.7645 47.4503 16.2432 44.8904C16.726 43.6574 15.9787 41.7955 14.2087 41.7951H10.7183C10.6806 41.2277 10.6634 40.6581 10.6665 40.0915C10.7327 27.8058 20.3916 17.5402 32.6563 16.7209C32.7488 16.7135 32.8139 16.7549 32.8514 16.7896C32.887 16.8229 32.9296 16.8812 32.9296 16.9697V22.5815C32.5106 22.4945 32.0824 22.4507 31.6512 22.4507C29.8817 22.4507 28.1882 23.2062 27.0047 24.5238C25.8225 25.8397 25.2536 27.6093 25.4437 29.3788C25.749 32.2215 28.0298 34.5378 30.8676 34.8867C31.5647 34.972 32.2562 34.9436 32.9298 34.803V41.7951H25.4465ZM44.0654 75.4207H32.3022C31.5902 75.4207 31.0132 75.9977 31.0132 76.7098C31.0132 77.4218 31.5902 77.9988 32.3022 77.9988H44.0654V80.577H24.3721V77.9988H26.3658C27.0779 77.9988 27.6549 77.4218 27.6549 76.7098C27.6549 75.9977 27.0779 75.4207 26.3658 75.4207H24.3721V73.154H44.0652L44.0654 75.4207ZM41.2008 85.4223H27.2371C25.8624 85.4223 24.7117 84.4488 24.436 83.1553H44.0018C43.726 84.4488 42.5753 85.4223 41.2008 85.4223ZM57.3526 44.6623C56.5515 48.8611 54.6069 52.7697 51.7295 55.9656C47.9068 60.2111 45.3363 65.2599 44.2895 70.5755H35.5079V63.584C38.8696 64.4029 42.6896 61.7134 42.991 58.1633C43.4939 54.1167 39.6279 50.4487 35.5079 51.3617V44.3732H42.9896C43.6878 44.3732 44.328 44.0529 44.746 43.4941C45.1646 42.9346 45.2914 42.2293 45.0937 41.5581C44.9502 41.0708 44.9095 40.5631 44.9724 40.0489C45.1756 38.3901 46.5298 37.0546 48.193 36.8736C50.5683 36.6024 52.9015 38.8928 52.1271 41.5473C51.9327 42.2164 52.0649 42.9463 52.4806 43.5001C52.8971 44.0549 53.5344 44.3731 54.2291 44.3731H57.1058C57.2041 44.3731 57.2663 44.4233 57.301 44.4652C57.334 44.5054 57.37 44.5721 57.3526 44.6623Z" fill="#8B68FF"/>
<path d="M69.663 50.5796L65.1802 50.3369C64.4714 50.3008 63.8619 50.8436 63.8232 51.5545C63.7847 52.2653 64.3297 52.8728 65.0408 52.9114L69.5236 53.1541C69.5474 53.1553 69.5709 53.156 69.5945 53.156C70.2744 53.156 70.8433 52.6237 70.8804 51.9365C70.9191 51.2257 70.3741 50.6183 69.663 50.5796Z" fill="#8B68FF"/>
<path d="M65.4274 63.459L62.0348 60.7014C61.482 60.2525 60.6703 60.336 60.2213 60.8888C59.7724 61.4412 59.8563 62.2531 60.4087 62.7022L63.8013 65.4598C64.0404 65.654 64.3278 65.7485 64.6136 65.7485C64.9885 65.7485 65.3601 65.5861 65.6148 65.2724C66.0637 64.72 65.9798 63.9081 65.4274 63.459Z" fill="#8B68FF"/>
<path d="M53.3975 67.2372C53.2144 66.5492 52.5073 66.1406 51.8202 66.323C51.1322 66.506 50.7229 67.2123 50.906 67.9003L52.0608 72.2398C52.2145 72.8166 52.7358 73.1977 53.3057 73.1977C53.4155 73.1977 53.5271 73.1836 53.6381 73.154C54.3261 72.971 54.7354 72.2647 54.5523 71.5767L53.3975 67.2372Z" fill="#8B68FF"/>
<path d="M18.9805 12.192C19.0811 12.8268 19.629 13.2797 20.2522 13.2797C20.3193 13.2797 20.387 13.2745 20.4554 13.2637C21.1585 13.1525 21.6384 12.4921 21.527 11.7888L20.8253 7.35458C20.7141 6.65161 20.0546 6.17242 19.3504 6.28294C18.6473 6.39414 18.1674 7.05449 18.2788 7.7578L18.9805 12.192Z" fill="#8B68FF"/>
<path d="M9.71697 17.806C9.96877 18.0577 10.2988 18.1835 10.6286 18.1835C10.9584 18.1835 11.2884 18.0577 11.5402 17.806C12.0437 17.3024 12.0437 16.4864 11.5402 15.983L8.4487 12.8916C7.9451 12.3883 7.12904 12.3883 6.62561 12.8916C6.12219 13.3952 6.12219 14.2113 6.62561 14.7147L9.71697 17.806Z" fill="#8B68FF"/>
<path d="M5.92618 25.2461L1.49093 24.5433C0.787611 24.4323 0.127265 24.9117 0.0160616 25.6146C-0.0953139 26.3178 0.384391 26.9783 1.08736 27.0895L5.52261 27.7923C5.59085 27.8031 5.65891 27.8084 5.72594 27.8084C6.34899 27.8084 6.89693 27.3557 6.99748 26.721C7.10903 26.0178 6.62932 25.3573 5.92618 25.2461Z" fill="#8B68FF"/>
</svg>
