<svg width="20" height="20" viewBox="0 0 20 20" fill="none" xmlns="http://www.w3.org/2000/svg">
<g clip-path="url(#clip0_847_2048)">
<path d="M15.3125 0H4.6875C2.09867 0 0 2.09867 0 4.6875V15.3125C0 17.9013 2.09867 20 4.6875 20H15.3125C17.9013 20 20 17.9013 20 15.3125V4.6875C20 2.09867 17.9013 0 15.3125 0Z" fill="white"/>
<path d="M16.3639 14.0639C16.1654 14.1391 15.9463 14.139 15.7479 14.0636C15.5495 13.9881 15.3856 13.8426 15.2872 13.6545C14.6693 12.7295 13.9869 11.8462 13.3311 10.9439L13.0467 10.5648C12.2658 11.6112 11.4848 12.6157 10.7721 13.6583C10.6793 13.8381 10.5243 13.9779 10.336 14.0519C10.1477 14.1258 9.93889 14.1288 9.74856 14.0602L12.679 10.1289L9.95324 6.57661C10.1495 6.50577 10.3641 6.5048 10.5609 6.57386C10.7578 6.64292 10.9248 6.77779 11.0337 6.9557C11.6668 7.88079 12.3682 8.76408 13.0657 9.70049C13.7671 8.77165 14.4608 7.88454 15.1091 6.96708C15.2024 6.79024 15.3575 6.65388 15.5448 6.58398C15.7322 6.51407 15.9387 6.5155 16.1251 6.58799L15.0674 7.9907C14.5935 8.6162 14.1272 9.24552 13.6344 9.85588C13.5947 9.89144 13.5629 9.93497 13.5411 9.98364C13.5194 10.0323 13.5081 10.085 13.5081 10.1383C13.5081 10.1916 13.5194 10.2443 13.5411 10.293C13.5629 10.3417 13.5947 10.3852 13.6344 10.4208C14.5404 11.6225 15.4389 12.8281 16.3639 14.0639ZM2.72754 10.0796C2.80718 9.70049 2.8564 9.28724 2.96638 8.90058C3.62222 6.56911 6.29488 5.59854 8.13354 7.04297C9.2102 7.88843 9.47938 9.08638 9.42633 10.436H3.36068C3.26208 12.8471 5.00215 14.3028 7.22747 13.5598C7.58846 13.4307 7.91162 13.2137 8.16776 12.9284C8.4239 12.6431 8.60497 12.2986 8.69461 11.9258C8.81215 11.5467 9.0017 11.4823 9.36184 11.5922C9.30251 12.0537 9.13933 12.4958 8.88457 12.8852C8.6298 13.2745 8.29008 13.6011 7.89095 13.8403C7.23148 14.201 6.47483 14.3439 5.72923 14.2486C4.98363 14.1532 4.28728 13.8246 3.73977 13.3096C3.1981 12.7005 2.87057 11.9309 2.80718 11.1183C2.80718 10.9895 2.75788 10.8605 2.73136 10.7392C2.72885 10.5194 2.72758 10.2995 2.72754 10.0796ZM3.36824 9.91656H8.85388C8.81972 8.16893 7.71654 6.92924 6.24565 6.91793C4.60793 6.89515 3.43649 8.10824 3.36443 9.90899L3.36824 9.91656Z" fill="#FC1515"/>
</g>
<defs>
<clipPath id="clip0_847_2048">
<rect width="20" height="20" fill="white"/>
</clipPath>
</defs>
</svg>
