<svg width="22" height="22" viewBox="0 0 22 22" fill="none" xmlns="http://www.w3.org/2000/svg">
<rect y="0.275024" width="22" height="21.45" fill="#181717"/>
<path fill-rule="evenodd" clip-rule="evenodd" d="M11 10.9085C11 9.89596 11.8208 9.07513 12.8333 9.07513C13.8458 9.07513 14.6667 9.89596 14.6667 10.9085C14.6667 11.921 13.8458 12.7418 12.8333 12.7418C11.8208 12.7418 11 11.921 11 10.9085Z" fill="#1ABCFE"/>
<path fill-rule="evenodd" clip-rule="evenodd" d="M7.33301 14.5753C7.33301 13.5628 8.15382 12.742 9.16634 12.742H10.9997V14.5753C10.9997 15.5878 10.1788 16.4087 9.16634 16.4087C8.15382 16.4087 7.33301 15.5878 7.33301 14.5753Z" fill="#0ACF83"/>
<path fill-rule="evenodd" clip-rule="evenodd" d="M11 5.40857V9.07524H12.8333C13.8458 9.07524 14.6667 8.25441 14.6667 7.2419C14.6667 6.22938 13.8458 5.40857 12.8333 5.40857H11Z" fill="#FF7262"/>
<path fill-rule="evenodd" clip-rule="evenodd" d="M7.33301 7.24178C7.33301 8.25429 8.15382 9.07511 9.16634 9.07511H10.9997V5.40845H9.16634C8.15382 5.40845 7.33301 6.22926 7.33301 7.24178Z" fill="#F24E1E"/>
<path fill-rule="evenodd" clip-rule="evenodd" d="M7.33301 10.9085C7.33301 11.921 8.15382 12.7418 9.16634 12.7418H10.9997V9.07513H9.16634C8.15382 9.07513 7.33301 9.89596 7.33301 10.9085Z" fill="#A259FF"/>
</svg>
