<svg id="Layer_1" viewBox="0 0 64 64" xmlns="http://www.w3.org/2000/svg" data-name="Layer 1" width="300" height="300" version="1.1" xmlns:xlink="http://www.w3.org/1999/xlink" xmlns:svgjs="http://svgjs.dev/svgjs"><g width="100%" height="100%" transform="matrix(1,0,0,1,0,0)"><path d="m59.278 42.825c-.123-1.354-.26-2.523-.396-3.386-.384-2.363-1.623-4.264-3.488-5.347-1.573-.919-3.431-1.176-5.291-.653-.287.075-.543.153-.785.246-1.69.642-2.804 1.667-2.815 1.678-.185.172-.43.27-.683.27h-7.954c-.254 0-.499-.097-.685-.271-.011-.01-1.324-1.216-3.262-1.835-2.284-.697-4.336-.35-6.062.846-.86.59-1.554 1.344-2.067 2.242-.49.844-.821 1.793-.987 2.828-.117.743-.226 1.614-.315 2.516-.131 1.304-.25 2.758-.344 4.205-.077 1.074-.145 2.153-.204 3.18-.028.485-.055.963-.078 1.417l-.004.12c0 .027-.004.117-.006.144-.005.065-.004.115-.004.169 0 1.978 1.616 3.586 3.603 3.586 1.018 0 1.99-.428 2.667-1.174l3.926-4.33c-.17-.319-.286-.661-.358-1.013-.007-.035-.014-.07-.02-.105-.036-.207-.061-.417-.061-.629 0-.238.028-.474.073-.708.013-.066.033-.128.049-.193.028-.113.048-.227.086-.337.018-.05.044-.094.063-.143.026-.066.056-.129.085-.192.066-.141.139-.276.22-.405.04-.064.079-.128.122-.19.096-.135.201-.26.313-.379.039-.042.073-.088.113-.128.152-.15.317-.285.491-.406.059-.041.122-.073.183-.11.126-.077.254-.15.389-.212.077-.036.156-.067.237-.097.136-.052.275-.094.417-.13.075-.019.149-.04.226-.054.219-.041.443-.068.671-.068h.005s0 0 0 0c.181 0 .359.016.535.042.052.008.103.021.155.031.123.023.245.051.365.086.058.017.115.038.172.058.111.039.219.082.325.131.056.026.111.052.165.08.106.055.208.117.309.182.047.031.096.059.141.092.113.08.219.168.323.261.028.025.058.046.085.072.124.118.241.245.349.38.04.05.073.104.111.156.051.071.106.14.152.215h2.746c.056-.089.12-.172.183-.256.028-.038.053-.079.082-.116.107-.133.223-.259.347-.377.04-.038.084-.07.126-.106.09-.078.181-.154.277-.223.056-.04.115-.075.173-.112.09-.057.18-.112.274-.161.062-.033.126-.063.19-.092.098-.045.198-.084.3-.121.063-.022.126-.045.19-.064.115-.034.231-.06.349-.082.056-.011.11-.025.166-.033.175-.026.353-.042.533-.042 1.29 0 2.43.658 3.103 1.656.079.117.137.248.203.375.046.088.102.169.141.26.191.45.296.944.296 1.463 0 .227-.027.449-.067.668-.006.034-.013.068-.02.102-.08.381-.212.748-.406 1.084l3.843 4.224c.678.747 1.65 1.175 2.668 1.175 1.991 0 3.611-1.612 3.611-3.594l-.008-.242c-.09-1.733-.285-5.167-.561-8.119zm-25.08-1.064h-.18v.18c0 1.304-1.061 2.364-2.365 2.364s-2.364-1.061-2.364-2.364v-.18h-.18c-1.304 0-2.364-1.061-2.364-2.364s1.061-2.364 2.364-2.364h.18v-.18c0-1.304 1.061-2.364 2.364-2.364s2.365 1.061 2.365 2.364v.18h.18c1.304 0 2.365 1.061 2.365 2.364s-1.061 2.364-2.365 2.364zm5.62 1.062h-.509c-.552 0-1-.448-1-1s.448-1 1-1h.509c.552 0 1 .448 1 1s-.448 1-1 1zm4.696 0h-.509c-.552 0-1-.448-1-1s.448-1 1-1h.509c.552 0 1 .448 1 1s-.448 1-1 1zm5.654-2.467h-1.119c-.552 0-1-.448-1-1s.448-1 1-1h1.119c.552 0 1 .448 1 1s-.448 1-1 1zm3.257 2.376c0 .552-.448 1-1 1s-1-.448-1-1v-1.119c0-.552.448-1 1-1s1 .448 1 1zm0-5.634c0 .552-.448 1-1 1s-1-.448-1-1v-1.119c0-.552.448-1 1-1s1 .448 1 1zm2.377 3.258h-1.119c-.552 0-1-.448-1-1s.448-1 1-1h1.119c.552 0 1 .448 1 1s-.448 1-1 1z" fill="#7049ee" fill-opacity="1" data-original-color="#000000ff" stroke="none" stroke-opacity="1"/><path d="m19.763 47.098c-1.132 0-2.052.92-2.052 2.052v.559h4.205c.002-.035.004-.072.006-.107.045-.803.096-1.645.153-2.494 0-.003 0-.007 0-.01z" fill="#7049ee" fill-opacity="1" data-original-color="#000000ff" stroke="none" stroke-opacity="1"/><path d="m26.723 32.726c1.467-1.018 3.186-1.557 4.967-1.557.915 0 1.84.146 2.827.447 1.804.577 3.14 1.545 3.719 2.016h7.215c.518-.421 1.641-1.241 3.156-1.816.075-.028.15-.056.227-.083v-21.349c0-.642-.522-1.164-1.164-1.164h-42.514c-.637 0-1.156.522-1.156 1.164v24.734h20.381c.622-.936 1.401-1.746 2.342-2.392zm5.227-15.046c-.391-.391-.391-1.023 0-1.414s1.023-.391 1.414 0l5.431 5.431c.391.391.391 1.023 0 1.414l-5.431 5.431c-.195.195-.451.293-.707.293s-.512-.098-.707-.293c-.391-.391-.391-1.023 0-1.414l4.724-4.724zm-11.067 9.447c.391.391.391 1.023 0 1.414-.195.195-.451.293-.707.293s-.512-.098-.707-.293l-5.43-5.431c-.391-.391-.391-1.023 0-1.414l5.43-5.431c.391-.391 1.023-.391 1.414 0s.391 1.023 0 1.414l-4.723 4.724zm2.538 1.622c-.505-.224-.733-.814-.51-1.319l4.811-10.861c.224-.505.816-.732 1.319-.51.505.224.733.814.51 1.319l-4.811 10.861c-.166.374-.532.596-.915.596-.135 0-.273-.028-.404-.086z" fill="#7049ee" fill-opacity="1" data-original-color="#000000ff" stroke="none" stroke-opacity="1"/><path d="m22.262 44.489c.03-.384.059-.756.091-1.131.014-.164.026-.337.04-.499h-.937v2.239h.755c.015-.207.033-.404.049-.609z" fill="#7049ee" fill-opacity="1" data-original-color="#000000ff" stroke="none" stroke-opacity="1"/><path d="m5.156 40.859h17.439c.012-.106.026-.205.039-.308.013-.105.025-.206.039-.309.05-.388.102-.766.156-1.114.113-.703.295-1.372.531-2.01h-19.36v2.569c0 .646.519 1.172 1.156 1.172z" fill="#7049ee" fill-opacity="1" data-original-color="#000000ff" stroke="none" stroke-opacity="1"/><path d="m34.198 39.032h-1.18c-.552 0-1-.448-1-1v-1.18c0-.201-.164-.364-.365-.364s-.364.164-.364.364v1.18c0 .552-.448 1-1 1h-1.18c-.201 0-.364.164-.364.364s.164.364.364.364h1.18c.552 0 1 .448 1 1v1.18c0 .201.164.364.364.364s.365-.164.365-.364v-1.18c0-.552.448-1 1-1h1.18c.201 0 .365-.164.365-.364s-.164-.364-.365-.364z" fill="#7049ee" fill-opacity="1" data-original-color="#000000ff" stroke="none" stroke-opacity="1"/><path d="m47.71 48.751s.006-.011.011-.016c.08-.08.15-.166.212-.258.185-.283.285-.612.285-.954 0-.241-.049-.471-.137-.68-.017-.04-.042-.076-.062-.115-.031-.061-.06-.124-.098-.181-.314-.466-.844-.773-1.445-.773-.13 0-.254.031-.377.059-.048.011-.1.008-.147.023-.154.049-.297.124-.43.212-.012.008-.026.011-.038.019-.287.199-.515.483-.643.822-.076.193-.112.396-.112.613 0 .964.784 1.749 1.749 1.749.467 0 .904-.185 1.235-.52z" fill="#7049ee" fill-opacity="1" data-original-color="#000000ff" stroke="none" stroke-opacity="1"/><path d="m36.059 48.692c.331.37.799.579 1.289.579.964 0 1.749-.784 1.749-1.749 0-.216-.036-.418-.107-.599-.002-.006-.007-.011-.009-.017-.062-.167-.15-.321-.257-.458-.329-.419-.833-.675-1.375-.676-.167 0-.328.031-.483.076-.031.009-.061.018-.091.029-.15.053-.294.122-.424.214-.011.008-.021.018-.032.027-.119.088-.224.193-.318.308-.019.024-.04.046-.058.071-.09.123-.162.26-.219.406-.013.034-.021.069-.032.104-.05.163-.082.33-.084.499 0 .005-.002.01-.002.015 0 .171.032.337.08.498.071.23.185.447.342.632.011.013.019.027.03.04z" fill="#7049ee" fill-opacity="1" data-original-color="#000000ff" stroke="none" stroke-opacity="1"/></g></svg>