<svg id="Layer_1" viewBox="0 0 512 512" xmlns="http://www.w3.org/2000/svg" xmlns:xlink="http://www.w3.org/1999/xlink" data-name="Layer 1"><linearGradient id="linear-gradient" gradientUnits="userSpaceOnUse" x1="407.116" x2="137.025" y1="43.983" y2="511.794"><stop offset="0" stop-color="#2aa3ff"/><stop offset="1" stop-color="#ce3fff"/></linearGradient><path d="m235.888 104.157c0-11.112 9.015-20.098 20.098-20.098s20.126 8.986 20.126 20.098-9.014 20.098-20.126 20.098-20.098-9.014-20.098-20.098zm-98.985 65.708v-131.443c0-12.331 10.091-22.422 22.422-22.422h193.352c12.33 0 22.422 10.091 22.422 22.422v131.443c0 12.331-10.092 22.422-22.422 22.422h-77.619c.202 5.333.558 10.661 1.083 15.987h-40.28c.525-5.327.87-10.654 1.064-15.987h-77.599c-12.331 0-22.422-10.091-22.422-22.422zm45.949-65.708c0 3.43.256 6.86.737 10.262l.907 6.52 10.941 3.005c1.021 3.09 2.268 6.123 3.742 9.042l-5.584 9.836 3.939 5.272c4.139 5.5 9.043 10.375 14.542 14.514l5.244 3.968 9.836-5.612c2.92 1.474 5.953 2.721 9.071 3.742l3.005 10.941 6.491.907c3.401.482 6.831.737 10.261.737 3.459 0 6.889-.255 10.29-.737l6.491-.907 3.005-10.941c3.118-1.021 6.151-2.268 9.071-3.742l9.836 5.612 5.244-3.968c5.499-4.139 10.403-9.014 14.542-14.514l3.939-5.272-5.584-9.836c1.475-2.92 2.722-5.953 3.742-9.042l10.941-3.033.907-6.491c.481-3.402.737-6.832.737-10.262 0-3.458-.256-6.888-.737-10.29l-.907-6.491-10.941-3.005c-1.021-3.118-2.268-6.151-3.742-9.071l5.584-9.836-3.939-5.244c-4.139-5.5-9.043-10.403-14.542-14.542l-5.244-3.94-9.836 5.584c-2.92-1.474-5.953-2.721-9.071-3.742l-3.005-10.941-6.491-.907c-3.401-.482-6.831-.709-10.29-.709-3.43 0-6.859.227-10.261.709l-6.491.907-3.005 10.941c-3.118 1.021-6.151 2.268-9.071 3.742l-9.836-5.584-5.272 3.94c-5.471 4.139-10.375 9.042-14.514 14.542l-3.939 5.244 5.584 9.836c-1.475 2.919-2.722 5.953-3.742 9.071l-10.941 3.005-.907 6.491c-.481 3.401-.737 6.832-.737 10.29zm213.109 390.841c-36.312 6.35-71.179-18.17-77.5-54.454l-4.733-27.042c16.838-2.92 29.65-17.603 29.65-35.263 0-19.786-16.044-35.801-35.802-35.801s-35.802 16.016-35.802 35.801h-31.549c0-19.786-16.017-35.801-35.802-35.801s-35.802 16.016-35.802 35.801c0 17.66 12.812 32.343 29.65 35.263l-4.734 27.042c-6.321 36.284-41.215 60.803-77.499 54.454-36.283-6.35-60.803-41.216-54.453-77.5l25.087-143.773c5.669-32.372 34.016-55.389 65.849-55.474h14.797v.992c0 21.118 17.234 38.381 38.381 38.381h100.602c21.146 0 38.381-17.263 38.381-38.381v-.992l21.288.34c29.112 2.976 54.085 24.973 59.357 55.134l25.087 143.773c6.35 36.284-18.17 71.15-54.453 77.5zm-196.413-185.613c0-13.039-10.63-23.669-23.697-23.669h-1.928v-1.956c0-13.04-10.658-23.698-23.697-23.698s-23.698 10.658-23.698 23.698v1.956h-1.928c-13.067 0-23.697 10.63-23.697 23.669s10.63 23.698 23.697 23.698h1.928v1.956c0 13.039 10.63 23.669 23.698 23.669s23.697-10.63 23.697-23.669v-1.956h1.928c13.067 0 23.697-10.63 23.697-23.698zm94.706-11.14c0-12.643-10.318-22.96-22.961-22.96h-30.586c-12.643 0-22.961 10.318-22.961 22.96s10.318 22.961 22.961 22.961h30.586c12.643 0 22.961-10.318 22.961-22.961zm116.844 11.14c0-13.039-10.63-23.669-23.697-23.669h-1.928v-1.956c0-13.04-10.658-23.698-23.698-23.698s-23.697 10.658-23.697 23.698v1.956h-1.928c-13.067 0-23.697 10.63-23.697 23.669s10.63 23.698 23.697 23.698h1.928v1.956c0 13.039 10.658 23.669 23.697 23.669s23.698-10.63 23.698-23.669v-1.956h1.928c13.067 0 23.697-10.63 23.697-23.698zm-206.674 43.059c-14.202 0-25.796 11.565-25.796 25.795s11.594 25.795 25.796 25.795 25.795-11.594 25.795-25.795-11.594-25.795-25.795-25.795zm128.948 25.795c0-14.23-11.594-25.795-25.796-25.795s-25.795 11.565-25.795 25.795 11.565 25.795 25.795 25.795 25.796-11.594 25.796-25.795zm-62.079-92.948h-30.586c-7.144 0-12.982 5.839-12.982 12.954s5.839 12.955 12.982 12.955h30.586c7.144 0 12.954-5.811 12.954-12.955s-5.811-12.954-12.954-12.954zm-93.997-66.047c0 15.59 12.784 28.375 28.403 28.375h100.602c15.619 0 28.403-12.784 28.403-28.375v-.992h-157.408zm210.104 76.45h-11.935v-11.934c0-7.54-6.151-13.691-13.691-13.691s-13.691 6.151-13.691 13.691v11.934h-11.934c-7.54 0-13.691 6.18-13.691 13.691s6.151 13.691 13.691 13.691h11.934v11.962c0 7.512 6.151 13.691 13.691 13.691s13.691-6.18 13.691-13.691v-11.962h11.935c7.54 0 13.69-6.151 13.69-13.691s-6.15-13.691-13.69-13.691zm-211.55 0h-11.935v-11.934c0-7.54-6.15-13.691-13.69-13.691s-13.691 6.151-13.691 13.691v11.934h-11.935c-7.54 0-13.72 6.18-13.72 13.691s6.18 13.691 13.72 13.691h11.935v11.962c0 7.512 6.15 13.691 13.691 13.691s13.69-6.18 13.69-13.691v-11.962h11.935c7.54 0 13.691-6.151 13.691-13.691s-6.151-13.691-13.691-13.691zm17.631-182.665c-.396-2.919-.623-5.868-.623-8.873 0-3.033.227-5.981.623-8.9l3.459-.936 6.633-1.814c1.36-6.208 3.799-12.019 7.115-17.206l-3.402-5.981-1.757-3.09c3.571-4.762 7.795-8.986 12.558-12.558l3.09 1.757 5.98 3.402c5.188-3.316 10.999-5.754 17.206-7.115l1.814-6.633.936-3.458c2.92-.396 5.868-.624 8.872-.624 3.033 0 5.981.227 8.901.624l.936 3.458 1.813 6.633c6.208 1.36 12.02 3.798 17.207 7.115l5.98-3.402 3.09-1.757c4.763 3.572 8.986 7.795 12.558 12.558l-1.758 3.09-3.401 5.981c3.316 5.188 5.755 10.999 7.115 17.206l6.633 1.814 3.459.936c.396 2.919.623 5.868.623 8.9 0 3.005-.227 5.953-.623 8.873l-3.459.936-6.633 1.842c-1.36 6.18-3.799 11.991-7.115 17.178l3.401 5.981 1.758 3.118c-3.571 4.734-7.795 8.958-12.558 12.529l-3.09-1.758-5.98-3.401c-5.188 3.316-10.999 5.754-17.207 7.115l-1.813 6.633-.936 3.458c-2.92.397-5.868.624-8.901.624-3.004 0-5.952-.227-8.872-.624l-.936-3.458-1.814-6.605c-6.207-1.389-12.019-3.827-17.206-7.143l-5.98 3.401-3.09 1.758c-4.763-3.572-8.986-7.795-12.558-12.529l1.757-3.118 3.402-5.981c-3.316-5.188-5.755-10.999-7.115-17.178l-6.633-1.842zm32.429-8.873c0 16.611 13.465 30.076 30.075 30.076s30.104-13.464 30.104-30.076-13.465-30.104-30.104-30.104-30.075 13.464-30.075 30.104z" fill="url(#linear-gradient)" fill-rule="evenodd"/></svg>