<svg width="602" height="571" viewBox="0 0 602 571" fill="none" xmlns="http://www.w3.org/2000/svg">
<g filter="url(#filter0_d_847_1159)">
<path d="M76.8855 130.338L298.657 3.57591L520.428 130.338V383.855L298.657 510.617L76.8855 383.855V130.338Z" stroke="#8B68FF" shape-rendering="crispEdges"/>
</g>
<g filter="url(#filter1_bi_847_1159)">
<path d="M106.887 40.1223L199.454 93.5658V200.453L106.887 253.896L14.3201 200.453V93.5658L106.887 40.1223Z" fill="white" fill-opacity="0.15"/>
</g>
<path d="M48.644 167.48C50.272 167.48 51.6947 167.795 52.912 168.426C54.144 169.042 55.09 169.936 55.75 171.11C56.4247 172.268 56.762 173.625 56.762 175.18C56.762 176.734 56.4247 178.084 55.75 179.228C55.09 180.372 54.144 181.252 52.912 181.868C51.6947 182.469 50.272 182.77 48.644 182.77H43.65V167.48H48.644ZM48.644 180.724C50.4333 180.724 51.8047 180.24 52.758 179.272C53.7113 178.304 54.188 176.94 54.188 175.18C54.188 173.405 53.7113 172.019 52.758 171.022C51.8047 170.024 50.4333 169.526 48.644 169.526H46.158V180.724H48.644ZM65.1657 182.968C64.0217 182.968 62.9877 182.711 62.0637 182.198C61.1397 181.67 60.4137 180.936 59.8857 179.998C59.3577 179.044 59.0937 177.944 59.0937 176.698C59.0937 175.466 59.365 174.373 59.9077 173.42C60.4503 172.466 61.191 171.733 62.1297 171.22C63.0683 170.706 64.117 170.45 65.2757 170.45C66.4343 170.45 67.483 170.706 68.4217 171.22C69.3603 171.733 70.101 172.466 70.6437 173.42C71.1863 174.373 71.4577 175.466 71.4577 176.698C71.4577 177.93 71.179 179.022 70.6217 179.976C70.0643 180.929 69.3017 181.67 68.3337 182.198C67.3803 182.711 66.3243 182.968 65.1657 182.968ZM65.1657 180.79C65.811 180.79 66.4123 180.636 66.9697 180.328C67.5417 180.02 68.0037 179.558 68.3557 178.942C68.7077 178.326 68.8837 177.578 68.8837 176.698C68.8837 175.818 68.715 175.077 68.3777 174.476C68.0403 173.86 67.593 173.398 67.0357 173.09C66.4783 172.782 65.877 172.628 65.2317 172.628C64.5863 172.628 63.985 172.782 63.4277 173.09C62.885 173.398 62.4523 173.86 62.1297 174.476C61.807 175.077 61.6457 175.818 61.6457 176.698C61.6457 178.003 61.9757 179.015 62.6357 179.734C63.3103 180.438 64.1537 180.79 65.1657 180.79ZM90.877 170.648L87.115 182.77H84.475L82.033 173.816L79.591 182.77H76.951L73.167 170.648H75.719L78.249 180.394L80.823 170.648H83.441L85.905 180.35L88.413 170.648H90.877ZM99.5272 170.45C100.481 170.45 101.331 170.648 102.079 171.044C102.842 171.44 103.436 172.026 103.861 172.804C104.287 173.581 104.499 174.52 104.499 175.62V182.77H102.013V175.994C102.013 174.908 101.742 174.08 101.199 173.508C100.657 172.921 99.9159 172.628 98.9772 172.628C98.0386 172.628 97.2906 172.921 96.7332 173.508C96.1906 174.08 95.9192 174.908 95.9192 175.994V182.77H93.4112V170.648H95.9192V172.034C96.3299 171.535 96.8506 171.146 97.4812 170.868C98.1266 170.589 98.8086 170.45 99.5272 170.45ZM110.866 166.49V182.77H108.358V166.49H110.866ZM120.077 182.968C118.933 182.968 117.899 182.711 116.975 182.198C116.051 181.67 115.325 180.936 114.797 179.998C114.269 179.044 114.005 177.944 114.005 176.698C114.005 175.466 114.276 174.373 114.819 173.42C115.362 172.466 116.102 171.733 117.041 171.22C117.98 170.706 119.028 170.45 120.187 170.45C121.346 170.45 122.394 170.706 123.333 171.22C124.272 171.733 125.012 172.466 125.555 173.42C126.098 174.373 126.369 175.466 126.369 176.698C126.369 177.93 126.09 179.022 125.533 179.976C124.976 180.929 124.213 181.67 123.245 182.198C122.292 182.711 121.236 182.968 120.077 182.968ZM120.077 180.79C120.722 180.79 121.324 180.636 121.881 180.328C122.453 180.02 122.915 179.558 123.267 178.942C123.619 178.326 123.795 177.578 123.795 176.698C123.795 175.818 123.626 175.077 123.289 174.476C122.952 173.86 122.504 173.398 121.947 173.09C121.39 172.782 120.788 172.628 120.143 172.628C119.498 172.628 118.896 172.782 118.339 173.09C117.796 173.398 117.364 173.86 117.041 174.476C116.718 175.077 116.557 175.818 116.557 176.698C116.557 178.003 116.887 179.015 117.547 179.734C118.222 180.438 119.065 180.79 120.077 180.79ZM128.672 176.654C128.672 175.436 128.922 174.358 129.42 173.42C129.934 172.481 130.623 171.755 131.488 171.242C132.368 170.714 133.336 170.45 134.392 170.45C135.346 170.45 136.174 170.64 136.878 171.022C137.597 171.388 138.169 171.85 138.594 172.408V170.648H141.124V182.77H138.594V180.966C138.169 181.538 137.59 182.014 136.856 182.396C136.123 182.777 135.287 182.968 134.348 182.968C133.307 182.968 132.354 182.704 131.488 182.176C130.623 181.633 129.934 180.885 129.42 179.932C128.922 178.964 128.672 177.871 128.672 176.654ZM138.594 176.698C138.594 175.862 138.418 175.136 138.066 174.52C137.729 173.904 137.282 173.434 136.724 173.112C136.167 172.789 135.566 172.628 134.92 172.628C134.275 172.628 133.674 172.789 133.116 173.112C132.559 173.42 132.104 173.882 131.752 174.498C131.415 175.099 131.246 175.818 131.246 176.654C131.246 177.49 131.415 178.223 131.752 178.854C132.104 179.484 132.559 179.968 133.116 180.306C133.688 180.628 134.29 180.79 134.92 180.79C135.566 180.79 136.167 180.628 136.724 180.306C137.282 179.983 137.729 179.514 138.066 178.898C138.418 178.267 138.594 177.534 138.594 176.698ZM144.243 176.654C144.243 175.436 144.492 174.358 144.991 173.42C145.504 172.481 146.193 171.755 147.059 171.242C147.939 170.714 148.914 170.45 149.985 170.45C150.777 170.45 151.554 170.626 152.317 170.978C153.094 171.315 153.71 171.77 154.165 172.342V166.49H156.695V182.77H154.165V180.944C153.754 181.53 153.182 182.014 152.449 182.396C151.73 182.777 150.901 182.968 149.963 182.968C148.907 182.968 147.939 182.704 147.059 182.176C146.193 181.633 145.504 180.885 144.991 179.932C144.492 178.964 144.243 177.871 144.243 176.654ZM154.165 176.698C154.165 175.862 153.989 175.136 153.637 174.52C153.299 173.904 152.852 173.434 152.295 173.112C151.737 172.789 151.136 172.628 150.491 172.628C149.845 172.628 149.244 172.789 148.687 173.112C148.129 173.42 147.675 173.882 147.323 174.498C146.985 175.099 146.817 175.818 146.817 176.654C146.817 177.49 146.985 178.223 147.323 178.854C147.675 179.484 148.129 179.968 148.687 180.306C149.259 180.628 149.86 180.79 150.491 180.79C151.136 180.79 151.737 180.628 152.295 180.306C152.852 179.983 153.299 179.514 153.637 178.898C153.989 178.267 154.165 177.534 154.165 176.698ZM165.049 182.968C164.095 182.968 163.237 182.799 162.475 182.462C161.727 182.11 161.133 181.64 160.693 181.054C160.253 180.452 160.018 179.785 159.989 179.052H162.585C162.629 179.565 162.871 179.998 163.311 180.35C163.765 180.687 164.33 180.856 165.005 180.856C165.709 180.856 166.251 180.724 166.633 180.46C167.029 180.181 167.227 179.829 167.227 179.404C167.227 178.949 167.007 178.612 166.567 178.392C166.141 178.172 165.459 177.93 164.521 177.666C163.611 177.416 162.871 177.174 162.299 176.94C161.727 176.705 161.228 176.346 160.803 175.862C160.392 175.378 160.187 174.74 160.187 173.948C160.187 173.302 160.377 172.716 160.759 172.188C161.14 171.645 161.683 171.22 162.387 170.912C163.105 170.604 163.927 170.45 164.851 170.45C166.229 170.45 167.337 170.802 168.173 171.506C169.023 172.195 169.478 173.141 169.537 174.344H167.029C166.985 173.801 166.765 173.368 166.369 173.046C165.973 172.723 165.437 172.562 164.763 172.562C164.103 172.562 163.597 172.686 163.245 172.936C162.893 173.185 162.717 173.515 162.717 173.926C162.717 174.248 162.834 174.52 163.069 174.74C163.303 174.96 163.589 175.136 163.927 175.268C164.264 175.385 164.763 175.539 165.423 175.73C166.303 175.964 167.021 176.206 167.579 176.456C168.151 176.69 168.642 177.042 169.053 177.512C169.463 177.981 169.676 178.604 169.691 179.382C169.691 180.071 169.5 180.687 169.119 181.23C168.737 181.772 168.195 182.198 167.491 182.506C166.801 182.814 165.987 182.968 165.049 182.968Z" fill="#E1E0E0"/>
<path d="M62.161 140.952C63.3216 140.03 63.8507 139.604 63.7483 139.672C67.0936 136.907 69.722 134.637 71.6336 132.862C73.5793 131.087 75.2178 129.226 76.5491 127.281C77.8804 125.335 78.5461 123.44 78.5461 121.597C78.5461 120.198 78.2218 119.105 77.5732 118.32C76.9246 117.535 75.9518 117.142 74.6546 117.142C73.3575 117.142 72.3334 117.637 71.5824 118.627C70.8656 119.583 70.5071 120.949 70.5071 122.724H62.0586C62.1269 119.822 62.7413 117.398 63.9019 115.453C65.0966 113.507 66.6498 112.073 68.5614 111.152C70.5071 110.23 72.6577 109.769 75.013 109.769C79.0752 109.769 82.1303 110.81 84.1784 112.893C86.2607 114.975 87.3018 117.689 87.3018 121.034C87.3018 124.686 86.0559 128.083 83.564 131.223C81.0721 134.33 77.8975 137.368 74.0402 140.338H87.8651V147.455H62.161V140.952ZM93.461 141.31V134.244L109.641 111.1H119.421V133.732H123.62V141.31H119.421V147.967H110.665V141.31H93.461ZM111.28 120.727L102.678 133.732H111.28V120.727ZM156.275 133.988H147.366V143.102H139.071V133.988H130.161V126.154H139.071V116.989H147.366V126.154H156.275V133.988Z" fill="url(#paint0_linear_847_1159)"/>
<g filter="url(#filter2_bi_847_1159)">
<path d="M494.887 40.4438L587.454 93.8873V200.774L494.887 254.218L402.32 200.774V93.8873L494.887 40.4438Z" fill="white" fill-opacity="0.15"/>
</g>
<path d="M456.342 169.795C456.342 170.572 456.159 171.306 455.792 171.995C455.425 172.684 454.839 173.249 454.032 173.689C453.225 174.114 452.191 174.327 450.93 174.327H448.158V180.531H445.65V165.241H450.93C452.103 165.241 453.093 165.446 453.9 165.857C454.721 166.253 455.33 166.796 455.726 167.485C456.137 168.174 456.342 168.944 456.342 169.795ZM450.93 172.281C451.883 172.281 452.595 172.068 453.064 171.643C453.533 171.203 453.768 170.587 453.768 169.795C453.768 168.123 452.822 167.287 450.93 167.287H448.158V172.281H450.93ZM461.902 170.169C462.269 169.553 462.753 169.076 463.354 168.739C463.97 168.387 464.696 168.211 465.532 168.211V170.807H464.894C463.911 170.807 463.163 171.056 462.65 171.555C462.151 172.054 461.902 172.919 461.902 174.151V180.531H459.394V168.409H461.902V170.169ZM473.755 180.729C472.611 180.729 471.577 180.472 470.653 179.959C469.729 179.431 469.003 178.698 468.475 177.759C467.947 176.806 467.683 175.706 467.683 174.459C467.683 173.227 467.955 172.134 468.497 171.181C469.04 170.228 469.781 169.494 470.719 168.981C471.658 168.468 472.707 168.211 473.865 168.211C475.024 168.211 476.073 168.468 477.011 168.981C477.95 169.494 478.691 170.228 479.233 171.181C479.776 172.134 480.047 173.227 480.047 174.459C480.047 175.691 479.769 176.784 479.211 177.737C478.654 178.69 477.891 179.431 476.923 179.959C475.97 180.472 474.914 180.729 473.755 180.729ZM473.755 178.551C474.401 178.551 475.002 178.397 475.559 178.089C476.131 177.781 476.593 177.319 476.945 176.703C477.297 176.087 477.473 175.339 477.473 174.459C477.473 173.579 477.305 172.838 476.967 172.237C476.63 171.621 476.183 171.159 475.625 170.851C475.068 170.543 474.467 170.389 473.821 170.389C473.176 170.389 472.575 170.543 472.017 170.851C471.475 171.159 471.042 171.621 470.719 172.237C470.397 172.838 470.235 173.579 470.235 174.459C470.235 175.764 470.565 176.776 471.225 177.495C471.9 178.199 472.743 178.551 473.755 178.551ZM482.351 174.415C482.351 173.198 482.6 172.12 483.099 171.181C483.612 170.242 484.301 169.516 485.167 169.003C486.047 168.475 487.022 168.211 488.093 168.211C488.885 168.211 489.662 168.387 490.425 168.739C491.202 169.076 491.818 169.531 492.273 170.103V164.251H494.803V180.531H492.273V178.705C491.862 179.292 491.29 179.776 490.557 180.157C489.838 180.538 489.009 180.729 488.071 180.729C487.015 180.729 486.047 180.465 485.167 179.937C484.301 179.394 483.612 178.646 483.099 177.693C482.6 176.725 482.351 175.632 482.351 174.415ZM492.273 174.459C492.273 173.623 492.097 172.897 491.745 172.281C491.407 171.665 490.96 171.196 490.403 170.873C489.845 170.55 489.244 170.389 488.599 170.389C487.953 170.389 487.352 170.55 486.795 170.873C486.237 171.181 485.783 171.643 485.431 172.259C485.093 172.86 484.925 173.579 484.925 174.415C484.925 175.251 485.093 175.984 485.431 176.615C485.783 177.246 486.237 177.73 486.795 178.067C487.367 178.39 487.968 178.551 488.599 178.551C489.244 178.551 489.845 178.39 490.403 178.067C490.96 177.744 491.407 177.275 491.745 176.659C492.097 176.028 492.273 175.295 492.273 174.459ZM509.735 168.409V180.531H507.227V179.101C506.831 179.6 506.31 179.996 505.665 180.289C505.034 180.568 504.359 180.707 503.641 180.707C502.687 180.707 501.829 180.509 501.067 180.113C500.319 179.717 499.725 179.13 499.285 178.353C498.859 177.576 498.647 176.637 498.647 175.537V168.409H501.133V175.163C501.133 176.248 501.404 177.084 501.947 177.671C502.489 178.243 503.23 178.529 504.169 178.529C505.107 178.529 505.848 178.243 506.391 177.671C506.948 177.084 507.227 176.248 507.227 175.163V168.409H509.735ZM512.868 174.459C512.868 173.212 513.117 172.12 513.616 171.181C514.129 170.228 514.833 169.494 515.728 168.981C516.623 168.468 517.649 168.211 518.808 168.211C520.275 168.211 521.485 168.563 522.438 169.267C523.406 169.956 524.059 170.946 524.396 172.237H521.69C521.47 171.636 521.118 171.166 520.634 170.829C520.15 170.492 519.541 170.323 518.808 170.323C517.781 170.323 516.96 170.69 516.344 171.423C515.743 172.142 515.442 173.154 515.442 174.459C515.442 175.764 515.743 176.784 516.344 177.517C516.96 178.25 517.781 178.617 518.808 178.617C520.26 178.617 521.221 177.979 521.69 176.703H524.396C524.044 177.935 523.384 178.918 522.416 179.651C521.448 180.37 520.245 180.729 518.808 180.729C517.649 180.729 516.623 180.472 515.728 179.959C514.833 179.431 514.129 178.698 513.616 177.759C513.117 176.806 512.868 175.706 512.868 174.459ZM530.481 170.455V177.165C530.481 177.62 530.584 177.95 530.789 178.155C531.009 178.346 531.376 178.441 531.889 178.441H533.429V180.531H531.449C530.32 180.531 529.455 180.267 528.853 179.739C528.252 179.211 527.951 178.353 527.951 177.165V170.455H526.521V168.409H527.951V165.395H530.481V168.409H533.429V170.455H530.481ZM540.801 180.729C539.848 180.729 538.99 180.56 538.227 180.223C537.479 179.871 536.885 179.402 536.445 178.815C536.005 178.214 535.77 177.546 535.741 176.813H538.337C538.381 177.326 538.623 177.759 539.063 178.111C539.518 178.448 540.082 178.617 540.757 178.617C541.461 178.617 542.004 178.485 542.385 178.221C542.781 177.942 542.979 177.59 542.979 177.165C542.979 176.71 542.759 176.373 542.319 176.153C541.894 175.933 541.212 175.691 540.273 175.427C539.364 175.178 538.623 174.936 538.051 174.701C537.479 174.466 536.98 174.107 536.555 173.623C536.144 173.139 535.939 172.501 535.939 171.709C535.939 171.064 536.13 170.477 536.511 169.949C536.892 169.406 537.435 168.981 538.139 168.673C538.858 168.365 539.679 168.211 540.603 168.211C541.982 168.211 543.089 168.563 543.925 169.267C544.776 169.956 545.23 170.902 545.289 172.105H542.781C542.737 171.562 542.517 171.13 542.121 170.807C541.725 170.484 541.19 170.323 540.515 170.323C539.855 170.323 539.349 170.448 538.997 170.697C538.645 170.946 538.469 171.276 538.469 171.687C538.469 172.01 538.586 172.281 538.821 172.501C539.056 172.721 539.342 172.897 539.679 173.029C540.016 173.146 540.515 173.3 541.175 173.491C542.055 173.726 542.774 173.968 543.331 174.217C543.903 174.452 544.394 174.804 544.805 175.273C545.216 175.742 545.428 176.366 545.443 177.143C545.443 177.832 545.252 178.448 544.871 178.991C544.49 179.534 543.947 179.959 543.243 180.267C542.554 180.575 541.74 180.729 540.801 180.729Z" fill="#E1E0E0"/>
<path d="M470.919 125.656C467.711 123.95 466.106 121.27 466.106 117.617C466.106 115.774 466.584 114.101 467.54 112.599C468.496 111.063 469.946 109.852 471.892 108.964C473.838 108.042 476.227 107.582 479.061 107.582C481.894 107.582 484.266 108.042 486.178 108.964C488.124 109.852 489.574 111.063 490.53 112.599C491.486 114.101 491.964 115.774 491.964 117.617C491.964 119.461 491.52 121.065 490.633 122.431C489.779 123.796 488.619 124.871 487.151 125.656C488.994 126.544 490.411 127.773 491.401 129.343C492.391 130.879 492.885 132.688 492.885 134.771C492.885 137.194 492.271 139.293 491.042 141.069C489.813 142.809 488.141 144.141 486.024 145.062C483.942 145.984 481.621 146.445 479.061 146.445C476.5 146.445 474.162 145.984 472.046 145.062C469.963 144.141 468.308 142.809 467.079 141.069C465.85 139.293 465.236 137.194 465.236 134.771C465.236 132.654 465.731 130.828 466.721 129.292C467.711 127.722 469.11 126.51 470.919 125.656ZM483.464 118.949C483.464 117.549 483.054 116.474 482.235 115.723C481.45 114.938 480.392 114.545 479.061 114.545C477.729 114.545 476.654 114.938 475.835 115.723C475.05 116.508 474.657 117.6 474.657 119C474.657 120.331 475.067 121.389 475.886 122.174C476.705 122.925 477.763 123.301 479.061 123.301C480.358 123.301 481.416 122.908 482.235 122.123C483.054 121.338 483.464 120.28 483.464 118.949ZM479.061 129.445C477.456 129.445 476.159 129.889 475.169 130.777C474.179 131.63 473.684 132.825 473.684 134.361C473.684 135.795 474.162 136.972 475.118 137.894C476.108 138.816 477.422 139.276 479.061 139.276C480.699 139.276 481.979 138.816 482.901 137.894C483.857 136.972 484.335 135.795 484.335 134.361C484.335 132.859 483.84 131.664 482.85 130.777C481.894 129.889 480.631 129.445 479.061 129.445ZM526.344 131.75H517.434V140.864H509.139V131.75H500.23V123.915H509.139V114.75H517.434V123.915H526.344V131.75Z" fill="url(#paint1_linear_847_1159)"/>
<g filter="url(#filter3_bi_847_1159)">
<path d="M298.887 356.303L391.454 409.746V516.633L298.887 570.077L206.32 516.633V409.746L298.887 356.303Z" fill="white" fill-opacity="0.15"/>
</g>
<path d="M264.592 496.39L261.072 490.274H259.158V496.39H256.65V481.1H261.93C263.103 481.1 264.093 481.305 264.9 481.716C265.721 482.127 266.33 482.677 266.726 483.366C267.137 484.055 267.342 484.825 267.342 485.676C267.342 486.673 267.049 487.583 266.462 488.404C265.89 489.211 265.003 489.761 263.8 490.054L267.584 496.39H264.592ZM259.158 488.272H261.93C262.869 488.272 263.573 488.037 264.042 487.568C264.526 487.099 264.768 486.468 264.768 485.676C264.768 484.884 264.533 484.268 264.064 483.828C263.595 483.373 262.883 483.146 261.93 483.146H259.158V488.272ZM270.374 490.274C270.374 489.057 270.624 487.979 271.122 487.04C271.636 486.101 272.325 485.375 273.19 484.862C274.07 484.334 275.038 484.07 276.094 484.07C277.048 484.07 277.876 484.261 278.58 484.642C279.299 485.009 279.871 485.471 280.296 486.028V484.268H282.826V496.39H280.296V494.586C279.871 495.158 279.292 495.635 278.558 496.016C277.825 496.397 276.989 496.588 276.05 496.588C275.009 496.588 274.056 496.324 273.19 495.796C272.325 495.253 271.636 494.505 271.122 493.552C270.624 492.584 270.374 491.491 270.374 490.274ZM280.296 490.318C280.296 489.482 280.12 488.756 279.768 488.14C279.431 487.524 278.984 487.055 278.426 486.732C277.869 486.409 277.268 486.248 276.622 486.248C275.977 486.248 275.376 486.409 274.818 486.732C274.261 487.04 273.806 487.502 273.454 488.118C273.117 488.719 272.948 489.438 272.948 490.274C272.948 491.11 273.117 491.843 273.454 492.474C273.806 493.105 274.261 493.589 274.818 493.926C275.39 494.249 275.992 494.41 276.622 494.41C277.268 494.41 277.869 494.249 278.426 493.926C278.984 493.603 279.431 493.134 279.768 492.518C280.12 491.887 280.296 491.154 280.296 490.318ZM289.707 486.314V493.024C289.707 493.479 289.809 493.809 290.015 494.014C290.235 494.205 290.601 494.3 291.115 494.3H292.655V496.39H290.675C289.545 496.39 288.68 496.126 288.079 495.598C287.477 495.07 287.177 494.212 287.177 493.024V486.314H285.747V484.268H287.177V481.254H289.707V484.268H292.655V486.314H289.707ZM296.902 482.662C296.447 482.662 296.066 482.508 295.758 482.2C295.45 481.892 295.296 481.511 295.296 481.056C295.296 480.601 295.45 480.22 295.758 479.912C296.066 479.604 296.447 479.45 296.902 479.45C297.342 479.45 297.716 479.604 298.024 479.912C298.332 480.22 298.486 480.601 298.486 481.056C298.486 481.511 298.332 481.892 298.024 482.2C297.716 482.508 297.342 482.662 296.902 482.662ZM298.134 484.268V496.39H295.626V484.268H298.134ZM308.203 484.07C309.156 484.07 310.007 484.268 310.755 484.664C311.518 485.06 312.112 485.647 312.537 486.424C312.962 487.201 313.175 488.14 313.175 489.24V496.39H310.689V489.614C310.689 488.529 310.418 487.7 309.875 487.128C309.332 486.541 308.592 486.248 307.653 486.248C306.714 486.248 305.966 486.541 305.409 487.128C304.866 487.7 304.595 488.529 304.595 489.614V496.39H302.087V484.268H304.595V485.654C305.006 485.155 305.526 484.767 306.157 484.488C306.802 484.209 307.484 484.07 308.203 484.07ZM321.918 484.07C322.857 484.07 323.685 484.261 324.404 484.642C325.137 485.009 325.709 485.471 326.12 486.028V484.268H328.65V496.588C328.65 497.703 328.415 498.693 327.946 499.558C327.477 500.438 326.795 501.127 325.9 501.626C325.02 502.125 323.964 502.374 322.732 502.374C321.089 502.374 319.725 501.985 318.64 501.208C317.555 500.445 316.939 499.404 316.792 498.084H319.278C319.469 498.715 319.872 499.221 320.488 499.602C321.119 499.998 321.867 500.196 322.732 500.196C323.744 500.196 324.558 499.888 325.174 499.272C325.805 498.656 326.12 497.761 326.12 496.588V494.564C325.695 495.136 325.115 495.62 324.382 496.016C323.663 496.397 322.842 496.588 321.918 496.588C320.862 496.588 319.894 496.324 319.014 495.796C318.149 495.253 317.459 494.505 316.946 493.552C316.447 492.584 316.198 491.491 316.198 490.274C316.198 489.057 316.447 487.979 316.946 487.04C317.459 486.101 318.149 485.375 319.014 484.862C319.894 484.334 320.862 484.07 321.918 484.07ZM326.12 490.318C326.12 489.482 325.944 488.756 325.592 488.14C325.255 487.524 324.807 487.055 324.25 486.732C323.693 486.409 323.091 486.248 322.446 486.248C321.801 486.248 321.199 486.409 320.642 486.732C320.085 487.04 319.63 487.502 319.278 488.118C318.941 488.719 318.772 489.438 318.772 490.274C318.772 491.11 318.941 491.843 319.278 492.474C319.63 493.105 320.085 493.589 320.642 493.926C321.214 494.249 321.815 494.41 322.446 494.41C323.091 494.41 323.693 494.249 324.25 493.926C324.807 493.603 325.255 493.134 325.592 492.518C325.944 491.887 326.12 491.154 326.12 490.318ZM337.004 496.588C336.051 496.588 335.193 496.419 334.43 496.082C333.682 495.73 333.088 495.261 332.648 494.674C332.208 494.073 331.973 493.405 331.944 492.672H334.54C334.584 493.185 334.826 493.618 335.266 493.97C335.721 494.307 336.285 494.476 336.96 494.476C337.664 494.476 338.207 494.344 338.588 494.08C338.984 493.801 339.182 493.449 339.182 493.024C339.182 492.569 338.962 492.232 338.522 492.012C338.097 491.792 337.415 491.55 336.476 491.286C335.567 491.037 334.826 490.795 334.254 490.56C333.682 490.325 333.183 489.966 332.758 489.482C332.347 488.998 332.142 488.36 332.142 487.568C332.142 486.923 332.333 486.336 332.714 485.808C333.095 485.265 333.638 484.84 334.342 484.532C335.061 484.224 335.882 484.07 336.806 484.07C338.185 484.07 339.292 484.422 340.128 485.126C340.979 485.815 341.433 486.761 341.492 487.964H338.984C338.94 487.421 338.72 486.989 338.324 486.666C337.928 486.343 337.393 486.182 336.718 486.182C336.058 486.182 335.552 486.307 335.2 486.556C334.848 486.805 334.672 487.135 334.672 487.546C334.672 487.869 334.789 488.14 335.024 488.36C335.259 488.58 335.545 488.756 335.882 488.888C336.219 489.005 336.718 489.159 337.378 489.35C338.258 489.585 338.977 489.827 339.534 490.076C340.106 490.311 340.597 490.663 341.008 491.132C341.419 491.601 341.631 492.225 341.646 493.002C341.646 493.691 341.455 494.307 341.074 494.85C340.693 495.393 340.15 495.818 339.446 496.126C338.757 496.434 337.943 496.588 337.004 496.588Z" fill="#E1E0E0"/>
<path d="M253.558 432.35V424.208H267.742V461.587H258.627V432.35H253.558ZM316.844 425.642V461.587H308.089V440.03L300.05 461.587H292.984L284.894 439.979V461.587H276.138V425.642H286.481L296.568 450.527L306.553 425.642H316.844ZM350.637 447.608H341.728V456.723H333.433V447.608H324.523V439.774H333.433V430.609H341.728V439.774H350.637V447.608Z" fill="url(#paint2_linear_847_1159)"/>
<path d="M219.289 239.91C222.566 237.179 225.178 234.909 227.123 233.1C229.069 231.257 230.69 229.345 231.988 227.365C233.285 225.385 233.933 223.439 233.933 221.528C233.933 219.787 233.524 218.422 232.704 217.432C231.885 216.442 230.622 215.947 228.915 215.947C227.209 215.947 225.894 216.527 224.973 217.688C224.051 218.814 223.573 220.367 223.539 222.347H216.575C216.712 218.251 217.924 215.145 220.211 213.028C222.532 210.912 225.468 209.854 229.018 209.854C232.909 209.854 235.896 210.895 237.978 212.977C240.061 215.025 241.102 217.739 241.102 221.118C241.102 223.781 240.385 226.324 238.951 228.748C237.518 231.171 235.879 233.288 234.036 235.097C232.192 236.872 229.786 239.022 226.816 241.548H241.921V247.488H216.627V242.163L219.289 239.91ZM247.974 228.85C247.974 222.945 249.032 218.319 251.149 214.974C253.299 211.629 256.85 209.956 261.799 209.956C266.749 209.956 270.282 211.629 272.398 214.974C274.549 218.319 275.624 222.945 275.624 228.85C275.624 234.79 274.549 239.449 272.398 242.828C270.282 246.208 266.749 247.898 261.799 247.898C256.85 247.898 253.299 246.208 251.149 242.828C249.032 239.449 247.974 234.79 247.974 228.85ZM268.558 228.85C268.558 226.324 268.387 224.208 268.046 222.501C267.739 220.76 267.09 219.343 266.1 218.251C265.144 217.159 263.711 216.612 261.799 216.612C259.888 216.612 258.437 217.159 257.447 218.251C256.491 219.343 255.843 220.76 255.501 222.501C255.194 224.208 255.04 226.324 255.04 228.85C255.04 231.444 255.194 233.629 255.501 235.404C255.808 237.145 256.457 238.562 257.447 239.654C258.437 240.712 259.888 241.241 261.799 241.241C263.711 241.241 265.162 240.712 266.151 239.654C267.141 238.562 267.79 237.145 268.097 235.404C268.404 233.629 268.558 231.444 268.558 228.85ZM282.613 228.85C282.613 222.945 283.671 218.319 285.787 214.974C287.938 211.629 291.488 209.956 296.437 209.956C301.387 209.956 304.92 211.629 307.037 214.974C309.187 218.319 310.262 222.945 310.262 228.85C310.262 234.79 309.187 239.449 307.037 242.828C304.92 246.208 301.387 247.898 296.437 247.898C291.488 247.898 287.938 246.208 285.787 242.828C283.671 239.449 282.613 234.79 282.613 228.85ZM303.196 228.85C303.196 226.324 303.026 224.208 302.684 222.501C302.377 220.76 301.728 219.343 300.739 218.251C299.783 217.159 298.349 216.612 296.437 216.612C294.526 216.612 293.075 217.159 292.085 218.251C291.129 219.343 290.481 220.76 290.139 222.501C289.832 224.208 289.679 226.324 289.679 228.85C289.679 231.444 289.832 233.629 290.139 235.404C290.447 237.145 291.095 238.562 292.085 239.654C293.075 240.712 294.526 241.241 296.437 241.241C298.349 241.241 299.8 240.712 300.79 239.654C301.78 238.562 302.428 237.145 302.735 235.404C303.043 233.629 303.196 231.444 303.196 228.85ZM317.251 228.85C317.251 222.945 318.309 218.319 320.425 214.974C322.576 211.629 326.126 209.956 331.076 209.956C336.025 209.956 339.558 211.629 341.675 214.974C343.825 218.319 344.901 222.945 344.901 228.85C344.901 234.79 343.825 239.449 341.675 242.828C339.558 246.208 336.025 247.898 331.076 247.898C326.126 247.898 322.576 246.208 320.425 242.828C318.309 239.449 317.251 234.79 317.251 228.85ZM337.835 228.85C337.835 226.324 337.664 224.208 337.322 222.501C337.015 220.76 336.367 219.343 335.377 218.251C334.421 217.159 332.987 216.612 331.076 216.612C329.164 216.612 327.713 217.159 326.723 218.251C325.768 219.343 325.119 220.76 324.778 222.501C324.47 224.208 324.317 226.324 324.317 228.85C324.317 231.444 324.47 233.629 324.778 235.404C325.085 237.145 325.733 238.562 326.723 239.654C327.713 240.712 329.164 241.241 331.076 241.241C332.987 241.241 334.438 240.712 335.428 239.654C336.418 238.562 337.066 237.145 337.374 235.404C337.681 233.629 337.835 231.444 337.835 228.85ZM379.488 232.895H369.81V242.828H363.051V232.895H353.374V226.648H363.051V216.715H369.81V226.648H379.488V232.895Z" fill="#8B68FF"/>
<path d="M210.182 272.242V294.483H206.534V284.755H196.069V294.483H192.421V272.242H196.069V281.779H206.534V272.242H210.182ZM229.354 289.939H220.042L218.441 294.483H214.633L222.602 272.21H226.826L234.794 294.483H230.954L229.354 289.939ZM228.33 286.963L224.714 276.626L221.066 286.963H228.33ZM254.772 278.866C254.772 279.997 254.506 281.064 253.972 282.067C253.439 283.069 252.585 283.891 251.412 284.531C250.239 285.149 248.735 285.459 246.9 285.459H242.867V294.483H239.219V272.242H246.9C248.607 272.242 250.047 272.541 251.22 273.138C252.415 273.714 253.3 274.503 253.876 275.506C254.474 276.509 254.772 277.629 254.772 278.866ZM246.9 282.483C248.287 282.483 249.321 282.173 250.004 281.555C250.687 280.915 251.028 280.018 251.028 278.866C251.028 276.434 249.652 275.218 246.9 275.218H242.867V282.483H246.9ZM274.765 278.866C274.765 279.997 274.498 281.064 273.965 282.067C273.431 283.069 272.578 283.891 271.405 284.531C270.231 285.149 268.727 285.459 266.892 285.459H262.86V294.483H259.212V272.242H266.892C268.599 272.242 270.039 272.541 271.213 273.138C272.407 273.714 273.293 274.503 273.869 275.506C274.466 276.509 274.765 277.629 274.765 278.866ZM266.892 282.483C268.279 282.483 269.314 282.173 269.996 281.555C270.679 280.915 271.021 280.018 271.021 278.866C271.021 276.434 269.644 275.218 266.892 275.218H262.86V282.483H266.892ZM295.685 272.242L288.325 286.419V294.483H284.677V286.419L277.284 272.242H281.348L286.501 283.155L291.653 272.242H295.685ZM312.43 272.242V286.419C312.43 288.104 312.867 289.374 313.742 290.227C314.638 291.081 315.876 291.507 317.454 291.507C319.054 291.507 320.292 291.081 321.167 290.227C322.063 289.374 322.511 288.104 322.511 286.419V272.242H326.159V286.355C326.159 288.168 325.764 289.704 324.975 290.963C324.185 292.222 323.129 293.161 321.807 293.779C320.484 294.398 319.022 294.707 317.422 294.707C315.822 294.707 314.361 294.398 313.038 293.779C311.737 293.161 310.702 292.222 309.934 290.963C309.166 289.704 308.782 288.168 308.782 286.355V272.242H312.43ZM339.197 294.707C337.704 294.707 336.36 294.451 335.165 293.939C333.97 293.406 333.032 292.659 332.349 291.699C331.666 290.739 331.325 289.619 331.325 288.339H335.229C335.315 289.299 335.688 290.088 336.349 290.707C337.032 291.326 337.981 291.635 339.197 291.635C340.456 291.635 341.438 291.337 342.142 290.739C342.846 290.12 343.198 289.331 343.198 288.371C343.198 287.624 342.974 287.016 342.526 286.547C342.099 286.078 341.555 285.715 340.894 285.459C340.254 285.203 339.357 284.925 338.205 284.627C336.755 284.243 335.571 283.859 334.653 283.475C333.757 283.069 332.989 282.451 332.349 281.619C331.709 280.787 331.389 279.677 331.389 278.29C331.389 277.01 331.709 275.89 332.349 274.93C332.989 273.97 333.885 273.234 335.037 272.722C336.189 272.21 337.523 271.954 339.037 271.954C341.192 271.954 342.952 272.498 344.318 273.586C345.705 274.653 346.473 276.125 346.622 278.002H342.59C342.526 277.192 342.142 276.498 341.438 275.922C340.734 275.346 339.806 275.058 338.653 275.058C337.608 275.058 336.755 275.325 336.093 275.858C335.432 276.392 335.101 277.16 335.101 278.162C335.101 278.845 335.304 279.41 335.709 279.858C336.136 280.285 336.669 280.626 337.309 280.883C337.949 281.139 338.824 281.416 339.934 281.715C341.406 282.12 342.6 282.525 343.518 282.931C344.456 283.336 345.246 283.965 345.886 284.819C346.547 285.651 346.878 286.771 346.878 288.179C346.878 289.31 346.569 290.376 345.95 291.379C345.353 292.382 344.467 293.193 343.294 293.811C342.142 294.409 340.776 294.707 339.197 294.707ZM355.791 275.186V281.715H363.472V284.691H355.791V291.507H364.432V294.483H352.143V272.21H364.432V275.186H355.791ZM381.438 294.483L376.318 285.587H373.533V294.483H369.885V272.242H377.566C379.272 272.242 380.713 272.541 381.886 273.138C383.081 273.735 383.966 274.535 384.542 275.538C385.14 276.541 385.438 277.661 385.438 278.898C385.438 280.349 385.012 281.672 384.158 282.867C383.326 284.04 382.035 284.84 380.286 285.267L385.79 294.483H381.438ZM373.533 282.675H377.566C378.931 282.675 379.955 282.333 380.638 281.651C381.342 280.968 381.694 280.05 381.694 278.898C381.694 277.746 381.353 276.85 380.67 276.21C379.987 275.549 378.952 275.218 377.566 275.218H373.533V282.675ZM398.394 294.707C396.9 294.707 395.556 294.451 394.362 293.939C393.167 293.406 392.228 292.659 391.545 291.699C390.863 290.739 390.521 289.619 390.521 288.339H394.426C394.511 289.299 394.884 290.088 395.546 290.707C396.228 291.326 397.178 291.635 398.394 291.635C399.653 291.635 400.634 291.337 401.338 290.739C402.042 290.12 402.394 289.331 402.394 288.371C402.394 287.624 402.17 287.016 401.722 286.547C401.295 286.078 400.751 285.715 400.09 285.459C399.45 285.203 398.554 284.925 397.402 284.627C395.951 284.243 394.767 283.859 393.85 283.475C392.953 283.069 392.185 282.451 391.545 281.619C390.905 280.787 390.585 279.677 390.585 278.29C390.585 277.01 390.905 275.89 391.545 274.93C392.185 273.97 393.081 273.234 394.234 272.722C395.386 272.21 396.719 271.954 398.234 271.954C400.389 271.954 402.149 272.498 403.514 273.586C404.901 274.653 405.669 276.125 405.818 278.002H401.786C401.722 277.192 401.338 276.498 400.634 275.922C399.93 275.346 399.002 275.058 397.85 275.058C396.804 275.058 395.951 275.325 395.29 275.858C394.628 276.392 394.298 277.16 394.298 278.162C394.298 278.845 394.5 279.41 394.906 279.858C395.332 280.285 395.866 280.626 396.506 280.883C397.146 281.139 398.02 281.416 399.13 281.715C400.602 282.12 401.797 282.525 402.714 282.931C403.653 283.336 404.442 283.965 405.082 284.819C405.744 285.651 406.074 286.771 406.074 288.179C406.074 289.31 405.765 290.376 405.146 291.379C404.549 292.382 403.663 293.193 402.49 293.811C401.338 294.409 399.973 294.707 398.394 294.707Z" fill="#E1E0E0"/>
<defs>
<filter id="filter0_d_847_1159" x="73.3857" y="0" width="450.542" height="514.193" filterUnits="userSpaceOnUse" color-interpolation-filters="sRGB">
<feFlood flood-opacity="0" result="BackgroundImageFix"/>
<feColorMatrix in="SourceAlpha" type="matrix" values="0 0 0 0 0 0 0 0 0 0 0 0 0 0 0 0 0 0 127 0" result="hardAlpha"/>
<feOffset/>
<feGaussianBlur stdDeviation="1.5"/>
<feComposite in2="hardAlpha" operator="out"/>
<feColorMatrix type="matrix" values="0 0 0 0 0.545098 0 0 0 0 0.407843 0 0 0 0 1 0 0 0 0.9 0"/>
<feBlend mode="normal" in2="BackgroundImageFix" result="effect1_dropShadow_847_1159"/>
<feBlend mode="normal" in="SourceGraphic" in2="effect1_dropShadow_847_1159" result="shape"/>
</filter>
<filter id="filter1_bi_847_1159" x="-4.87969" y="20.9223" width="223.534" height="252.174" filterUnits="userSpaceOnUse" color-interpolation-filters="sRGB">
<feFlood flood-opacity="0" result="BackgroundImageFix"/>
<feGaussianBlur in="BackgroundImageFix" stdDeviation="9.6"/>
<feComposite in2="SourceAlpha" operator="in" result="effect1_backgroundBlur_847_1159"/>
<feBlend mode="normal" in="SourceGraphic" in2="effect1_backgroundBlur_847_1159" result="shape"/>
<feColorMatrix in="SourceAlpha" type="matrix" values="0 0 0 0 0 0 0 0 0 0 0 0 0 0 0 0 0 0 127 0" result="hardAlpha"/>
<feOffset/>
<feGaussianBlur stdDeviation="9.60062"/>
<feComposite in2="hardAlpha" operator="arithmetic" k2="-1" k3="1"/>
<feColorMatrix type="matrix" values="0 0 0 0 1 0 0 0 0 1 0 0 0 0 1 0 0 0 0.3 0"/>
<feBlend mode="normal" in2="shape" result="effect2_innerShadow_847_1159"/>
</filter>
<filter id="filter2_bi_847_1159" x="383.119" y="21.2426" width="223.536" height="252.176" filterUnits="userSpaceOnUse" color-interpolation-filters="sRGB">
<feFlood flood-opacity="0" result="BackgroundImageFix"/>
<feGaussianBlur in="BackgroundImageFix" stdDeviation="9.60062"/>
<feComposite in2="SourceAlpha" operator="in" result="effect1_backgroundBlur_847_1159"/>
<feBlend mode="normal" in="SourceGraphic" in2="effect1_backgroundBlur_847_1159" result="shape"/>
<feColorMatrix in="SourceAlpha" type="matrix" values="0 0 0 0 0 0 0 0 0 0 0 0 0 0 0 0 0 0 127 0" result="hardAlpha"/>
<feOffset/>
<feGaussianBlur stdDeviation="9.60062"/>
<feComposite in2="hardAlpha" operator="arithmetic" k2="-1" k3="1"/>
<feColorMatrix type="matrix" values="0 0 0 0 1 0 0 0 0 1 0 0 0 0 1 0 0 0 0.3 0"/>
<feBlend mode="normal" in2="shape" result="effect2_innerShadow_847_1159"/>
</filter>
<filter id="filter3_bi_847_1159" x="187.119" y="337.101" width="223.536" height="252.176" filterUnits="userSpaceOnUse" color-interpolation-filters="sRGB">
<feFlood flood-opacity="0" result="BackgroundImageFix"/>
<feGaussianBlur in="BackgroundImageFix" stdDeviation="9.60062"/>
<feComposite in2="SourceAlpha" operator="in" result="effect1_backgroundBlur_847_1159"/>
<feBlend mode="normal" in="SourceGraphic" in2="effect1_backgroundBlur_847_1159" result="shape"/>
<feColorMatrix in="SourceAlpha" type="matrix" values="0 0 0 0 0 0 0 0 0 0 0 0 0 0 0 0 0 0 127 0" result="hardAlpha"/>
<feOffset/>
<feGaussianBlur stdDeviation="9.60062"/>
<feComposite in2="hardAlpha" operator="arithmetic" k2="-1" k3="1"/>
<feColorMatrix type="matrix" values="0 0 0 0 1 0 0 0 0 1 0 0 0 0 1 0 0 0 0.3 0"/>
<feBlend mode="normal" in2="shape" result="effect2_innerShadow_847_1159"/>
</filter>
<linearGradient id="paint0_linear_847_1159" x1="60.1641" y1="130.467" x2="160.164" y2="130.467" gradientUnits="userSpaceOnUse">
<stop offset="0.615" stop-color="#FA4417"/>
<stop offset="1" stop-color="#FCAA1C"/>
</linearGradient>
<linearGradient id="paint1_linear_847_1159" x1="462.471" y1="128.228" x2="529.471" y2="128.228" gradientUnits="userSpaceOnUse">
<stop offset="0.615" stop-color="#FA4417"/>
<stop offset="1" stop-color="#FCAA1C"/>
</linearGradient>
<linearGradient id="paint2_linear_847_1159" x1="252.176" y1="444.087" x2="354.176" y2="444.087" gradientUnits="userSpaceOnUse">
<stop offset="0.615" stop-color="#FA4417"/>
<stop offset="1" stop-color="#FCAA1C"/>
</linearGradient>
</defs>
</svg>
