<svg width="602" height="568" viewBox="0 0 602 568" fill="none" xmlns="http://www.w3.org/2000/svg">
<path d="M169 74L299 1L429.5 75.5" stroke="#8B68FF"/>
<path d="M76.5 233V380.5L207 455" stroke="#8B68FF"/>
<path d="M520.5 235.5V381.5L391 455" stroke="#8B68FF"/>
<g filter="url(#filter0_bi_847_1159)">
<path d="M106.887 37.1223L199.454 90.5658V197.453L106.887 250.896L14.3201 197.453V90.5658L106.887 37.1223Z" fill="white" fill-opacity="0.4"/>
</g>
<path d="M48.644 164.48C50.272 164.48 51.6947 164.795 52.912 165.426C54.144 166.042 55.09 166.936 55.75 168.11C56.4247 169.268 56.762 170.625 56.762 172.18C56.762 173.734 56.4247 175.084 55.75 176.228C55.09 177.372 54.144 178.252 52.912 178.868C51.6947 179.469 50.272 179.77 48.644 179.77H43.65V164.48H48.644ZM48.644 177.724C50.4333 177.724 51.8047 177.24 52.758 176.272C53.7113 175.304 54.188 173.94 54.188 172.18C54.188 170.405 53.7113 169.019 52.758 168.022C51.8047 167.024 50.4333 166.526 48.644 166.526H46.158V177.724H48.644ZM65.1657 179.968C64.0217 179.968 62.9877 179.711 62.0637 179.198C61.1397 178.67 60.4137 177.936 59.8857 176.998C59.3577 176.044 59.0937 174.944 59.0937 173.698C59.0937 172.466 59.365 171.373 59.9077 170.42C60.4503 169.466 61.191 168.733 62.1297 168.22C63.0683 167.706 64.117 167.45 65.2757 167.45C66.4343 167.45 67.483 167.706 68.4217 168.22C69.3603 168.733 70.101 169.466 70.6437 170.42C71.1863 171.373 71.4577 172.466 71.4577 173.698C71.4577 174.93 71.179 176.022 70.6217 176.976C70.0643 177.929 69.3017 178.67 68.3337 179.198C67.3803 179.711 66.3243 179.968 65.1657 179.968ZM65.1657 177.79C65.811 177.79 66.4123 177.636 66.9697 177.328C67.5417 177.02 68.0037 176.558 68.3557 175.942C68.7077 175.326 68.8837 174.578 68.8837 173.698C68.8837 172.818 68.715 172.077 68.3777 171.476C68.0403 170.86 67.593 170.398 67.0357 170.09C66.4783 169.782 65.877 169.628 65.2317 169.628C64.5863 169.628 63.985 169.782 63.4277 170.09C62.885 170.398 62.4523 170.86 62.1297 171.476C61.807 172.077 61.6457 172.818 61.6457 173.698C61.6457 175.003 61.9757 176.015 62.6357 176.734C63.3103 177.438 64.1537 177.79 65.1657 177.79ZM90.877 167.648L87.115 179.77H84.475L82.033 170.816L79.591 179.77H76.951L73.167 167.648H75.719L78.249 177.394L80.823 167.648H83.441L85.905 177.35L88.413 167.648H90.877ZM99.5272 167.45C100.481 167.45 101.331 167.648 102.079 168.044C102.842 168.44 103.436 169.026 103.861 169.804C104.287 170.581 104.499 171.52 104.499 172.62V179.77H102.013V172.994C102.013 171.908 101.742 171.08 101.199 170.508C100.657 169.921 99.9159 169.628 98.9772 169.628C98.0386 169.628 97.2906 169.921 96.7332 170.508C96.1906 171.08 95.9192 171.908 95.9192 172.994V179.77H93.4112V167.648H95.9192V169.034C96.3299 168.535 96.8506 168.146 97.4812 167.868C98.1266 167.589 98.8086 167.45 99.5272 167.45ZM110.866 163.49V179.77H108.358V163.49H110.866ZM120.077 179.968C118.933 179.968 117.899 179.711 116.975 179.198C116.051 178.67 115.325 177.936 114.797 176.998C114.269 176.044 114.005 174.944 114.005 173.698C114.005 172.466 114.276 171.373 114.819 170.42C115.362 169.466 116.102 168.733 117.041 168.22C117.98 167.706 119.028 167.45 120.187 167.45C121.346 167.45 122.394 167.706 123.333 168.22C124.272 168.733 125.012 169.466 125.555 170.42C126.098 171.373 126.369 172.466 126.369 173.698C126.369 174.93 126.09 176.022 125.533 176.976C124.976 177.929 124.213 178.67 123.245 179.198C122.292 179.711 121.236 179.968 120.077 179.968ZM120.077 177.79C120.722 177.79 121.324 177.636 121.881 177.328C122.453 177.02 122.915 176.558 123.267 175.942C123.619 175.326 123.795 174.578 123.795 173.698C123.795 172.818 123.626 172.077 123.289 171.476C122.952 170.86 122.504 170.398 121.947 170.09C121.39 169.782 120.788 169.628 120.143 169.628C119.498 169.628 118.896 169.782 118.339 170.09C117.796 170.398 117.364 170.86 117.041 171.476C116.718 172.077 116.557 172.818 116.557 173.698C116.557 175.003 116.887 176.015 117.547 176.734C118.222 177.438 119.065 177.79 120.077 177.79ZM128.672 173.654C128.672 172.436 128.922 171.358 129.42 170.42C129.934 169.481 130.623 168.755 131.488 168.242C132.368 167.714 133.336 167.45 134.392 167.45C135.346 167.45 136.174 167.64 136.878 168.022C137.597 168.388 138.169 168.85 138.594 169.408V167.648H141.124V179.77H138.594V177.966C138.169 178.538 137.59 179.014 136.856 179.396C136.123 179.777 135.287 179.968 134.348 179.968C133.307 179.968 132.354 179.704 131.488 179.176C130.623 178.633 129.934 177.885 129.42 176.932C128.922 175.964 128.672 174.871 128.672 173.654ZM138.594 173.698C138.594 172.862 138.418 172.136 138.066 171.52C137.729 170.904 137.282 170.434 136.724 170.112C136.167 169.789 135.566 169.628 134.92 169.628C134.275 169.628 133.674 169.789 133.116 170.112C132.559 170.42 132.104 170.882 131.752 171.498C131.415 172.099 131.246 172.818 131.246 173.654C131.246 174.49 131.415 175.223 131.752 175.854C132.104 176.484 132.559 176.968 133.116 177.306C133.688 177.628 134.29 177.79 134.92 177.79C135.566 177.79 136.167 177.628 136.724 177.306C137.282 176.983 137.729 176.514 138.066 175.898C138.418 175.267 138.594 174.534 138.594 173.698ZM144.243 173.654C144.243 172.436 144.492 171.358 144.991 170.42C145.504 169.481 146.193 168.755 147.059 168.242C147.939 167.714 148.914 167.45 149.985 167.45C150.777 167.45 151.554 167.626 152.317 167.978C153.094 168.315 153.71 168.77 154.165 169.342V163.49H156.695V179.77H154.165V177.944C153.754 178.53 153.182 179.014 152.449 179.396C151.73 179.777 150.901 179.968 149.963 179.968C148.907 179.968 147.939 179.704 147.059 179.176C146.193 178.633 145.504 177.885 144.991 176.932C144.492 175.964 144.243 174.871 144.243 173.654ZM154.165 173.698C154.165 172.862 153.989 172.136 153.637 171.52C153.299 170.904 152.852 170.434 152.295 170.112C151.737 169.789 151.136 169.628 150.491 169.628C149.845 169.628 149.244 169.789 148.687 170.112C148.129 170.42 147.675 170.882 147.323 171.498C146.985 172.099 146.817 172.818 146.817 173.654C146.817 174.49 146.985 175.223 147.323 175.854C147.675 176.484 148.129 176.968 148.687 177.306C149.259 177.628 149.86 177.79 150.491 177.79C151.136 177.79 151.737 177.628 152.295 177.306C152.852 176.983 153.299 176.514 153.637 175.898C153.989 175.267 154.165 174.534 154.165 173.698ZM165.049 179.968C164.095 179.968 163.237 179.799 162.475 179.462C161.727 179.11 161.133 178.64 160.693 178.054C160.253 177.452 160.018 176.785 159.989 176.052H162.585C162.629 176.565 162.871 176.998 163.311 177.35C163.765 177.687 164.33 177.856 165.005 177.856C165.709 177.856 166.251 177.724 166.633 177.46C167.029 177.181 167.227 176.829 167.227 176.404C167.227 175.949 167.007 175.612 166.567 175.392C166.141 175.172 165.459 174.93 164.521 174.666C163.611 174.416 162.871 174.174 162.299 173.94C161.727 173.705 161.228 173.346 160.803 172.862C160.392 172.378 160.187 171.74 160.187 170.948C160.187 170.302 160.377 169.716 160.759 169.188C161.14 168.645 161.683 168.22 162.387 167.912C163.105 167.604 163.927 167.45 164.851 167.45C166.229 167.45 167.337 167.802 168.173 168.506C169.023 169.195 169.478 170.141 169.537 171.344H167.029C166.985 170.801 166.765 170.368 166.369 170.046C165.973 169.723 165.437 169.562 164.763 169.562C164.103 169.562 163.597 169.686 163.245 169.936C162.893 170.185 162.717 170.515 162.717 170.926C162.717 171.248 162.834 171.52 163.069 171.74C163.303 171.96 163.589 172.136 163.927 172.268C164.264 172.385 164.763 172.539 165.423 172.73C166.303 172.964 167.021 173.206 167.579 173.456C168.151 173.69 168.642 174.042 169.053 174.512C169.463 174.981 169.676 175.604 169.691 176.382C169.691 177.071 169.5 177.687 169.119 178.23C168.737 178.772 168.195 179.198 167.491 179.506C166.801 179.814 165.987 179.968 165.049 179.968Z" fill="#171616"/>
<path d="M62.161 137.952C63.3216 137.03 63.8507 136.604 63.7483 136.672C67.0936 133.907 69.722 131.637 71.6336 129.862C73.5793 128.087 75.2178 126.226 76.5491 124.281C77.8804 122.335 78.5461 120.44 78.5461 118.597C78.5461 117.198 78.2218 116.105 77.5732 115.32C76.9246 114.535 75.9518 114.142 74.6546 114.142C73.3575 114.142 72.3334 114.637 71.5824 115.627C70.8656 116.583 70.5071 117.949 70.5071 119.724H62.0586C62.1269 116.822 62.7413 114.398 63.9019 112.453C65.0966 110.507 66.6498 109.073 68.5614 108.152C70.5071 107.23 72.6577 106.769 75.013 106.769C79.0752 106.769 82.1303 107.81 84.1784 109.893C86.2607 111.975 87.3018 114.689 87.3018 118.034C87.3018 121.686 86.0559 125.083 83.564 128.223C81.0721 131.33 77.8975 134.368 74.0402 137.338H87.8651V144.455H62.161V137.952ZM93.461 138.31V131.244L109.641 108.1H119.421V130.732H123.62V138.31H119.421V144.967H110.665V138.31H93.461ZM111.28 117.727L102.678 130.732H111.28V117.727ZM156.275 130.988H147.366V140.102H139.071V130.988H130.161V123.154H139.071V113.989H147.366V123.154H156.275V130.988Z" fill="url(#paint0_linear_847_1159)"/>
<g filter="url(#filter1_bi_847_1159)">
<path d="M494.887 37.4438L587.454 90.8873V197.774L494.887 251.218L402.32 197.774V90.8873L494.887 37.4438Z" fill="white" fill-opacity="0.4"/>
</g>
<path d="M456.342 166.795C456.342 167.572 456.159 168.306 455.792 168.995C455.425 169.684 454.839 170.249 454.032 170.689C453.225 171.114 452.191 171.327 450.93 171.327H448.158V177.531H445.65V162.241H450.93C452.103 162.241 453.093 162.446 453.9 162.857C454.721 163.253 455.33 163.796 455.726 164.485C456.137 165.174 456.342 165.944 456.342 166.795ZM450.93 169.281C451.883 169.281 452.595 169.068 453.064 168.643C453.533 168.203 453.768 167.587 453.768 166.795C453.768 165.123 452.822 164.287 450.93 164.287H448.158V169.281H450.93ZM461.902 167.169C462.269 166.553 462.753 166.076 463.354 165.739C463.97 165.387 464.696 165.211 465.532 165.211V167.807H464.894C463.911 167.807 463.163 168.056 462.65 168.555C462.151 169.054 461.902 169.919 461.902 171.151V177.531H459.394V165.409H461.902V167.169ZM473.755 177.729C472.611 177.729 471.577 177.472 470.653 176.959C469.729 176.431 469.003 175.698 468.475 174.759C467.947 173.806 467.683 172.706 467.683 171.459C467.683 170.227 467.955 169.134 468.497 168.181C469.04 167.228 469.781 166.494 470.719 165.981C471.658 165.468 472.707 165.211 473.865 165.211C475.024 165.211 476.073 165.468 477.011 165.981C477.95 166.494 478.691 167.228 479.233 168.181C479.776 169.134 480.047 170.227 480.047 171.459C480.047 172.691 479.769 173.784 479.211 174.737C478.654 175.69 477.891 176.431 476.923 176.959C475.97 177.472 474.914 177.729 473.755 177.729ZM473.755 175.551C474.401 175.551 475.002 175.397 475.559 175.089C476.131 174.781 476.593 174.319 476.945 173.703C477.297 173.087 477.473 172.339 477.473 171.459C477.473 170.579 477.305 169.838 476.967 169.237C476.63 168.621 476.183 168.159 475.625 167.851C475.068 167.543 474.467 167.389 473.821 167.389C473.176 167.389 472.575 167.543 472.017 167.851C471.475 168.159 471.042 168.621 470.719 169.237C470.397 169.838 470.235 170.579 470.235 171.459C470.235 172.764 470.565 173.776 471.225 174.495C471.9 175.199 472.743 175.551 473.755 175.551ZM482.351 171.415C482.351 170.198 482.6 169.12 483.099 168.181C483.612 167.242 484.301 166.516 485.167 166.003C486.047 165.475 487.022 165.211 488.093 165.211C488.885 165.211 489.662 165.387 490.425 165.739C491.202 166.076 491.818 166.531 492.273 167.103V161.251H494.803V177.531H492.273V175.705C491.862 176.292 491.29 176.776 490.557 177.157C489.838 177.538 489.009 177.729 488.071 177.729C487.015 177.729 486.047 177.465 485.167 176.937C484.301 176.394 483.612 175.646 483.099 174.693C482.6 173.725 482.351 172.632 482.351 171.415ZM492.273 171.459C492.273 170.623 492.097 169.897 491.745 169.281C491.407 168.665 490.96 168.196 490.403 167.873C489.845 167.55 489.244 167.389 488.599 167.389C487.953 167.389 487.352 167.55 486.795 167.873C486.237 168.181 485.783 168.643 485.431 169.259C485.093 169.86 484.925 170.579 484.925 171.415C484.925 172.251 485.093 172.984 485.431 173.615C485.783 174.246 486.237 174.73 486.795 175.067C487.367 175.39 487.968 175.551 488.599 175.551C489.244 175.551 489.845 175.39 490.403 175.067C490.96 174.744 491.407 174.275 491.745 173.659C492.097 173.028 492.273 172.295 492.273 171.459ZM509.735 165.409V177.531H507.227V176.101C506.831 176.6 506.31 176.996 505.665 177.289C505.034 177.568 504.359 177.707 503.641 177.707C502.687 177.707 501.829 177.509 501.067 177.113C500.319 176.717 499.725 176.13 499.285 175.353C498.859 174.576 498.647 173.637 498.647 172.537V165.409H501.133V172.163C501.133 173.248 501.404 174.084 501.947 174.671C502.489 175.243 503.23 175.529 504.169 175.529C505.107 175.529 505.848 175.243 506.391 174.671C506.948 174.084 507.227 173.248 507.227 172.163V165.409H509.735ZM512.868 171.459C512.868 170.212 513.117 169.12 513.616 168.181C514.129 167.228 514.833 166.494 515.728 165.981C516.623 165.468 517.649 165.211 518.808 165.211C520.275 165.211 521.485 165.563 522.438 166.267C523.406 166.956 524.059 167.946 524.396 169.237H521.69C521.47 168.636 521.118 168.166 520.634 167.829C520.15 167.492 519.541 167.323 518.808 167.323C517.781 167.323 516.96 167.69 516.344 168.423C515.743 169.142 515.442 170.154 515.442 171.459C515.442 172.764 515.743 173.784 516.344 174.517C516.96 175.25 517.781 175.617 518.808 175.617C520.26 175.617 521.221 174.979 521.69 173.703H524.396C524.044 174.935 523.384 175.918 522.416 176.651C521.448 177.37 520.245 177.729 518.808 177.729C517.649 177.729 516.623 177.472 515.728 176.959C514.833 176.431 514.129 175.698 513.616 174.759C513.117 173.806 512.868 172.706 512.868 171.459ZM530.481 167.455V174.165C530.481 174.62 530.584 174.95 530.789 175.155C531.009 175.346 531.376 175.441 531.889 175.441H533.429V177.531H531.449C530.32 177.531 529.455 177.267 528.853 176.739C528.252 176.211 527.951 175.353 527.951 174.165V167.455H526.521V165.409H527.951V162.395H530.481V165.409H533.429V167.455H530.481ZM540.801 177.729C539.848 177.729 538.99 177.56 538.227 177.223C537.479 176.871 536.885 176.402 536.445 175.815C536.005 175.214 535.77 174.546 535.741 173.813H538.337C538.381 174.326 538.623 174.759 539.063 175.111C539.518 175.448 540.082 175.617 540.757 175.617C541.461 175.617 542.004 175.485 542.385 175.221C542.781 174.942 542.979 174.59 542.979 174.165C542.979 173.71 542.759 173.373 542.319 173.153C541.894 172.933 541.212 172.691 540.273 172.427C539.364 172.178 538.623 171.936 538.051 171.701C537.479 171.466 536.98 171.107 536.555 170.623C536.144 170.139 535.939 169.501 535.939 168.709C535.939 168.064 536.13 167.477 536.511 166.949C536.892 166.406 537.435 165.981 538.139 165.673C538.858 165.365 539.679 165.211 540.603 165.211C541.982 165.211 543.089 165.563 543.925 166.267C544.776 166.956 545.23 167.902 545.289 169.105H542.781C542.737 168.562 542.517 168.13 542.121 167.807C541.725 167.484 541.19 167.323 540.515 167.323C539.855 167.323 539.349 167.448 538.997 167.697C538.645 167.946 538.469 168.276 538.469 168.687C538.469 169.01 538.586 169.281 538.821 169.501C539.056 169.721 539.342 169.897 539.679 170.029C540.016 170.146 540.515 170.3 541.175 170.491C542.055 170.726 542.774 170.968 543.331 171.217C543.903 171.452 544.394 171.804 544.805 172.273C545.216 172.742 545.428 173.366 545.443 174.143C545.443 174.832 545.252 175.448 544.871 175.991C544.49 176.534 543.947 176.959 543.243 177.267C542.554 177.575 541.74 177.729 540.801 177.729Z" fill="#171616"/>
<path d="M470.919 122.656C467.711 120.95 466.106 118.27 466.106 114.617C466.106 112.774 466.584 111.101 467.54 109.599C468.496 108.063 469.946 106.852 471.892 105.964C473.838 105.042 476.227 104.582 479.061 104.582C481.894 104.582 484.266 105.042 486.178 105.964C488.124 106.852 489.574 108.063 490.53 109.599C491.486 111.101 491.964 112.774 491.964 114.617C491.964 116.461 491.52 118.065 490.633 119.431C489.779 120.796 488.619 121.871 487.151 122.656C488.994 123.544 490.411 124.773 491.401 126.343C492.391 127.879 492.885 129.688 492.885 131.771C492.885 134.194 492.271 136.293 491.042 138.069C489.813 139.809 488.141 141.141 486.024 142.062C483.942 142.984 481.621 143.445 479.061 143.445C476.5 143.445 474.162 142.984 472.046 142.062C469.963 141.141 468.308 139.809 467.079 138.069C465.85 136.293 465.236 134.194 465.236 131.771C465.236 129.654 465.731 127.828 466.721 126.292C467.711 124.722 469.11 123.51 470.919 122.656ZM483.464 115.949C483.464 114.549 483.054 113.474 482.235 112.723C481.45 111.938 480.392 111.545 479.061 111.545C477.729 111.545 476.654 111.938 475.835 112.723C475.05 113.508 474.657 114.6 474.657 116C474.657 117.331 475.067 118.389 475.886 119.174C476.705 119.925 477.763 120.301 479.061 120.301C480.358 120.301 481.416 119.908 482.235 119.123C483.054 118.338 483.464 117.28 483.464 115.949ZM479.061 126.445C477.456 126.445 476.159 126.889 475.169 127.777C474.179 128.63 473.684 129.825 473.684 131.361C473.684 132.795 474.162 133.972 475.118 134.894C476.108 135.816 477.422 136.276 479.061 136.276C480.699 136.276 481.979 135.816 482.901 134.894C483.857 133.972 484.335 132.795 484.335 131.361C484.335 129.859 483.84 128.664 482.85 127.777C481.894 126.889 480.631 126.445 479.061 126.445ZM526.344 128.75H517.434V137.864H509.139V128.75H500.23V120.915H509.139V111.75H517.434V120.915H526.344V128.75Z" fill="url(#paint1_linear_847_1159)"/>
<g filter="url(#filter2_bi_847_1159)">
<path d="M298.887 353.303L391.454 406.746V513.633L298.887 567.077L206.32 513.633V406.746L298.887 353.303Z" fill="white" fill-opacity="0.4"/>
</g>
<path d="M264.592 493.39L261.072 487.274H259.158V493.39H256.65V478.1H261.93C263.103 478.1 264.093 478.305 264.9 478.716C265.721 479.127 266.33 479.677 266.726 480.366C267.137 481.055 267.342 481.825 267.342 482.676C267.342 483.673 267.049 484.583 266.462 485.404C265.89 486.211 265.003 486.761 263.8 487.054L267.584 493.39H264.592ZM259.158 485.272H261.93C262.869 485.272 263.573 485.037 264.042 484.568C264.526 484.099 264.768 483.468 264.768 482.676C264.768 481.884 264.533 481.268 264.064 480.828C263.595 480.373 262.883 480.146 261.93 480.146H259.158V485.272ZM270.374 487.274C270.374 486.057 270.624 484.979 271.122 484.04C271.636 483.101 272.325 482.375 273.19 481.862C274.07 481.334 275.038 481.07 276.094 481.07C277.048 481.07 277.876 481.261 278.58 481.642C279.299 482.009 279.871 482.471 280.296 483.028V481.268H282.826V493.39H280.296V491.586C279.871 492.158 279.292 492.635 278.558 493.016C277.825 493.397 276.989 493.588 276.05 493.588C275.009 493.588 274.056 493.324 273.19 492.796C272.325 492.253 271.636 491.505 271.122 490.552C270.624 489.584 270.374 488.491 270.374 487.274ZM280.296 487.318C280.296 486.482 280.12 485.756 279.768 485.14C279.431 484.524 278.984 484.055 278.426 483.732C277.869 483.409 277.268 483.248 276.622 483.248C275.977 483.248 275.376 483.409 274.818 483.732C274.261 484.04 273.806 484.502 273.454 485.118C273.117 485.719 272.948 486.438 272.948 487.274C272.948 488.11 273.117 488.843 273.454 489.474C273.806 490.105 274.261 490.589 274.818 490.926C275.39 491.249 275.992 491.41 276.622 491.41C277.268 491.41 277.869 491.249 278.426 490.926C278.984 490.603 279.431 490.134 279.768 489.518C280.12 488.887 280.296 488.154 280.296 487.318ZM289.707 483.314V490.024C289.707 490.479 289.809 490.809 290.015 491.014C290.235 491.205 290.601 491.3 291.115 491.3H292.655V493.39H290.675C289.545 493.39 288.68 493.126 288.079 492.598C287.477 492.07 287.177 491.212 287.177 490.024V483.314H285.747V481.268H287.177V478.254H289.707V481.268H292.655V483.314H289.707ZM296.902 479.662C296.447 479.662 296.066 479.508 295.758 479.2C295.45 478.892 295.296 478.511 295.296 478.056C295.296 477.601 295.45 477.22 295.758 476.912C296.066 476.604 296.447 476.45 296.902 476.45C297.342 476.45 297.716 476.604 298.024 476.912C298.332 477.22 298.486 477.601 298.486 478.056C298.486 478.511 298.332 478.892 298.024 479.2C297.716 479.508 297.342 479.662 296.902 479.662ZM298.134 481.268V493.39H295.626V481.268H298.134ZM308.203 481.07C309.156 481.07 310.007 481.268 310.755 481.664C311.518 482.06 312.112 482.647 312.537 483.424C312.962 484.201 313.175 485.14 313.175 486.24V493.39H310.689V486.614C310.689 485.529 310.418 484.7 309.875 484.128C309.332 483.541 308.592 483.248 307.653 483.248C306.714 483.248 305.966 483.541 305.409 484.128C304.866 484.7 304.595 485.529 304.595 486.614V493.39H302.087V481.268H304.595V482.654C305.006 482.155 305.526 481.767 306.157 481.488C306.802 481.209 307.484 481.07 308.203 481.07ZM321.918 481.07C322.857 481.07 323.685 481.261 324.404 481.642C325.137 482.009 325.709 482.471 326.12 483.028V481.268H328.65V493.588C328.65 494.703 328.415 495.693 327.946 496.558C327.477 497.438 326.795 498.127 325.9 498.626C325.02 499.125 323.964 499.374 322.732 499.374C321.089 499.374 319.725 498.985 318.64 498.208C317.555 497.445 316.939 496.404 316.792 495.084H319.278C319.469 495.715 319.872 496.221 320.488 496.602C321.119 496.998 321.867 497.196 322.732 497.196C323.744 497.196 324.558 496.888 325.174 496.272C325.805 495.656 326.12 494.761 326.12 493.588V491.564C325.695 492.136 325.115 492.62 324.382 493.016C323.663 493.397 322.842 493.588 321.918 493.588C320.862 493.588 319.894 493.324 319.014 492.796C318.149 492.253 317.459 491.505 316.946 490.552C316.447 489.584 316.198 488.491 316.198 487.274C316.198 486.057 316.447 484.979 316.946 484.04C317.459 483.101 318.149 482.375 319.014 481.862C319.894 481.334 320.862 481.07 321.918 481.07ZM326.12 487.318C326.12 486.482 325.944 485.756 325.592 485.14C325.255 484.524 324.807 484.055 324.25 483.732C323.693 483.409 323.091 483.248 322.446 483.248C321.801 483.248 321.199 483.409 320.642 483.732C320.085 484.04 319.63 484.502 319.278 485.118C318.941 485.719 318.772 486.438 318.772 487.274C318.772 488.11 318.941 488.843 319.278 489.474C319.63 490.105 320.085 490.589 320.642 490.926C321.214 491.249 321.815 491.41 322.446 491.41C323.091 491.41 323.693 491.249 324.25 490.926C324.807 490.603 325.255 490.134 325.592 489.518C325.944 488.887 326.12 488.154 326.12 487.318ZM337.004 493.588C336.051 493.588 335.193 493.419 334.43 493.082C333.682 492.73 333.088 492.261 332.648 491.674C332.208 491.073 331.973 490.405 331.944 489.672H334.54C334.584 490.185 334.826 490.618 335.266 490.97C335.721 491.307 336.285 491.476 336.96 491.476C337.664 491.476 338.207 491.344 338.588 491.08C338.984 490.801 339.182 490.449 339.182 490.024C339.182 489.569 338.962 489.232 338.522 489.012C338.097 488.792 337.415 488.55 336.476 488.286C335.567 488.037 334.826 487.795 334.254 487.56C333.682 487.325 333.183 486.966 332.758 486.482C332.347 485.998 332.142 485.36 332.142 484.568C332.142 483.923 332.333 483.336 332.714 482.808C333.095 482.265 333.638 481.84 334.342 481.532C335.061 481.224 335.882 481.07 336.806 481.07C338.185 481.07 339.292 481.422 340.128 482.126C340.979 482.815 341.433 483.761 341.492 484.964H338.984C338.94 484.421 338.72 483.989 338.324 483.666C337.928 483.343 337.393 483.182 336.718 483.182C336.058 483.182 335.552 483.307 335.2 483.556C334.848 483.805 334.672 484.135 334.672 484.546C334.672 484.869 334.789 485.14 335.024 485.36C335.259 485.58 335.545 485.756 335.882 485.888C336.219 486.005 336.718 486.159 337.378 486.35C338.258 486.585 338.977 486.827 339.534 487.076C340.106 487.311 340.597 487.663 341.008 488.132C341.419 488.601 341.631 489.225 341.646 490.002C341.646 490.691 341.455 491.307 341.074 491.85C340.693 492.393 340.15 492.818 339.446 493.126C338.757 493.434 337.943 493.588 337.004 493.588Z" fill="#171616"/>
<path d="M253.558 429.35V421.208H267.742V458.587H258.627V429.35H253.558ZM316.844 422.642V458.587H308.089V437.03L300.05 458.587H292.984L284.894 436.979V458.587H276.138V422.642H286.481L296.568 447.527L306.553 422.642H316.844ZM350.637 444.608H341.728V453.723H333.433V444.608H324.523V436.774H333.433V427.609H341.728V436.774H350.637V444.608Z" fill="url(#paint2_linear_847_1159)"/>
<path d="M219.289 236.91C222.566 234.179 225.178 231.909 227.123 230.1C229.069 228.257 230.69 226.345 231.988 224.365C233.285 222.385 233.933 220.439 233.933 218.528C233.933 216.787 233.524 215.422 232.704 214.432C231.885 213.442 230.622 212.947 228.915 212.947C227.209 212.947 225.894 213.527 224.973 214.688C224.051 215.814 223.573 217.367 223.539 219.347H216.575C216.712 215.251 217.924 212.145 220.211 210.028C222.532 207.912 225.468 206.854 229.018 206.854C232.909 206.854 235.896 207.895 237.978 209.977C240.061 212.025 241.102 214.739 241.102 218.118C241.102 220.781 240.385 223.324 238.951 225.748C237.518 228.171 235.879 230.288 234.036 232.097C232.192 233.872 229.786 236.022 226.816 238.548H241.921V244.488H216.627V239.163L219.289 236.91ZM247.974 225.85C247.974 219.945 249.032 215.319 251.149 211.974C253.299 208.629 256.85 206.956 261.799 206.956C266.749 206.956 270.282 208.629 272.398 211.974C274.549 215.319 275.624 219.945 275.624 225.85C275.624 231.79 274.549 236.449 272.398 239.828C270.282 243.208 266.749 244.898 261.799 244.898C256.85 244.898 253.299 243.208 251.149 239.828C249.032 236.449 247.974 231.79 247.974 225.85ZM268.558 225.85C268.558 223.324 268.387 221.208 268.046 219.501C267.739 217.76 267.09 216.343 266.1 215.251C265.144 214.159 263.711 213.612 261.799 213.612C259.888 213.612 258.437 214.159 257.447 215.251C256.491 216.343 255.843 217.76 255.501 219.501C255.194 221.208 255.04 223.324 255.04 225.85C255.04 228.444 255.194 230.629 255.501 232.404C255.808 234.145 256.457 235.562 257.447 236.654C258.437 237.712 259.888 238.241 261.799 238.241C263.711 238.241 265.162 237.712 266.151 236.654C267.141 235.562 267.79 234.145 268.097 232.404C268.404 230.629 268.558 228.444 268.558 225.85ZM282.613 225.85C282.613 219.945 283.671 215.319 285.787 211.974C287.938 208.629 291.488 206.956 296.437 206.956C301.387 206.956 304.92 208.629 307.037 211.974C309.187 215.319 310.262 219.945 310.262 225.85C310.262 231.79 309.187 236.449 307.037 239.828C304.92 243.208 301.387 244.898 296.437 244.898C291.488 244.898 287.938 243.208 285.787 239.828C283.671 236.449 282.613 231.79 282.613 225.85ZM303.196 225.85C303.196 223.324 303.026 221.208 302.684 219.501C302.377 217.76 301.728 216.343 300.739 215.251C299.783 214.159 298.349 213.612 296.437 213.612C294.526 213.612 293.075 214.159 292.085 215.251C291.129 216.343 290.481 217.76 290.139 219.501C289.832 221.208 289.679 223.324 289.679 225.85C289.679 228.444 289.832 230.629 290.139 232.404C290.447 234.145 291.095 235.562 292.085 236.654C293.075 237.712 294.526 238.241 296.437 238.241C298.349 238.241 299.8 237.712 300.79 236.654C301.78 235.562 302.428 234.145 302.735 232.404C303.043 230.629 303.196 228.444 303.196 225.85ZM317.251 225.85C317.251 219.945 318.309 215.319 320.425 211.974C322.576 208.629 326.126 206.956 331.076 206.956C336.025 206.956 339.558 208.629 341.675 211.974C343.825 215.319 344.901 219.945 344.901 225.85C344.901 231.79 343.825 236.449 341.675 239.828C339.558 243.208 336.025 244.898 331.076 244.898C326.126 244.898 322.576 243.208 320.425 239.828C318.309 236.449 317.251 231.79 317.251 225.85ZM337.835 225.85C337.835 223.324 337.664 221.208 337.322 219.501C337.015 217.76 336.367 216.343 335.377 215.251C334.421 214.159 332.987 213.612 331.076 213.612C329.164 213.612 327.713 214.159 326.723 215.251C325.768 216.343 325.119 217.76 324.778 219.501C324.47 221.208 324.317 223.324 324.317 225.85C324.317 228.444 324.47 230.629 324.778 232.404C325.085 234.145 325.733 235.562 326.723 236.654C327.713 237.712 329.164 238.241 331.076 238.241C332.987 238.241 334.438 237.712 335.428 236.654C336.418 235.562 337.066 234.145 337.374 232.404C337.681 230.629 337.835 228.444 337.835 225.85ZM379.488 229.895H369.81V239.828H363.051V229.895H353.374V223.648H363.051V213.715H369.81V223.648H379.488V229.895Z" fill="#8B68FF"/>
<path d="M210.182 269.242V291.483H206.534V281.755H196.069V291.483H192.421V269.242H196.069V278.779H206.534V269.242H210.182ZM229.354 286.939H220.042L218.441 291.483H214.633L222.602 269.21H226.826L234.794 291.483H230.954L229.354 286.939ZM228.33 283.963L224.714 273.626L221.066 283.963H228.33ZM254.772 275.866C254.772 276.997 254.506 278.064 253.972 279.067C253.439 280.069 252.585 280.891 251.412 281.531C250.239 282.149 248.735 282.459 246.9 282.459H242.867V291.483H239.219V269.242H246.9C248.607 269.242 250.047 269.541 251.22 270.138C252.415 270.714 253.3 271.503 253.876 272.506C254.474 273.509 254.772 274.629 254.772 275.866ZM246.9 279.483C248.287 279.483 249.321 279.173 250.004 278.555C250.687 277.915 251.028 277.018 251.028 275.866C251.028 273.434 249.652 272.218 246.9 272.218H242.867V279.483H246.9ZM274.765 275.866C274.765 276.997 274.498 278.064 273.965 279.067C273.431 280.069 272.578 280.891 271.405 281.531C270.231 282.149 268.727 282.459 266.892 282.459H262.86V291.483H259.212V269.242H266.892C268.599 269.242 270.039 269.541 271.213 270.138C272.407 270.714 273.293 271.503 273.869 272.506C274.466 273.509 274.765 274.629 274.765 275.866ZM266.892 279.483C268.279 279.483 269.314 279.173 269.996 278.555C270.679 277.915 271.021 277.018 271.021 275.866C271.021 273.434 269.644 272.218 266.892 272.218H262.86V279.483H266.892ZM295.685 269.242L288.325 283.419V291.483H284.677V283.419L277.284 269.242H281.348L286.501 280.155L291.653 269.242H295.685ZM312.43 269.242V283.419C312.43 285.104 312.867 286.374 313.742 287.227C314.638 288.081 315.876 288.507 317.454 288.507C319.054 288.507 320.292 288.081 321.167 287.227C322.063 286.374 322.511 285.104 322.511 283.419V269.242H326.159V283.355C326.159 285.168 325.764 286.704 324.975 287.963C324.185 289.222 323.129 290.161 321.807 290.779C320.484 291.398 319.022 291.707 317.422 291.707C315.822 291.707 314.361 291.398 313.038 290.779C311.737 290.161 310.702 289.222 309.934 287.963C309.166 286.704 308.782 285.168 308.782 283.355V269.242H312.43ZM339.197 291.707C337.704 291.707 336.36 291.451 335.165 290.939C333.97 290.406 333.032 289.659 332.349 288.699C331.666 287.739 331.325 286.619 331.325 285.339H335.229C335.315 286.299 335.688 287.088 336.349 287.707C337.032 288.326 337.981 288.635 339.197 288.635C340.456 288.635 341.438 288.337 342.142 287.739C342.846 287.12 343.198 286.331 343.198 285.371C343.198 284.624 342.974 284.016 342.526 283.547C342.099 283.078 341.555 282.715 340.894 282.459C340.254 282.203 339.357 281.925 338.205 281.627C336.755 281.243 335.571 280.859 334.653 280.475C333.757 280.069 332.989 279.451 332.349 278.619C331.709 277.787 331.389 276.677 331.389 275.29C331.389 274.01 331.709 272.89 332.349 271.93C332.989 270.97 333.885 270.234 335.037 269.722C336.189 269.21 337.523 268.954 339.037 268.954C341.192 268.954 342.952 269.498 344.318 270.586C345.705 271.653 346.473 273.125 346.622 275.002H342.59C342.526 274.192 342.142 273.498 341.438 272.922C340.734 272.346 339.806 272.058 338.653 272.058C337.608 272.058 336.755 272.325 336.093 272.858C335.432 273.392 335.101 274.16 335.101 275.162C335.101 275.845 335.304 276.41 335.709 276.858C336.136 277.285 336.669 277.626 337.309 277.883C337.949 278.139 338.824 278.416 339.934 278.715C341.406 279.12 342.6 279.525 343.518 279.931C344.456 280.336 345.246 280.965 345.886 281.819C346.547 282.651 346.878 283.771 346.878 285.179C346.878 286.31 346.569 287.376 345.95 288.379C345.353 289.382 344.467 290.193 343.294 290.811C342.142 291.409 340.776 291.707 339.197 291.707ZM355.791 272.186V278.715H363.472V281.691H355.791V288.507H364.432V291.483H352.143V269.21H364.432V272.186H355.791ZM381.438 291.483L376.318 282.587H373.533V291.483H369.885V269.242H377.566C379.272 269.242 380.713 269.541 381.886 270.138C383.081 270.735 383.966 271.535 384.542 272.538C385.14 273.541 385.438 274.661 385.438 275.898C385.438 277.349 385.012 278.672 384.158 279.867C383.326 281.04 382.035 281.84 380.286 282.267L385.79 291.483H381.438ZM373.533 279.675H377.566C378.931 279.675 379.955 279.333 380.638 278.651C381.342 277.968 381.694 277.05 381.694 275.898C381.694 274.746 381.353 273.85 380.67 273.21C379.987 272.549 378.952 272.218 377.566 272.218H373.533V279.675ZM398.394 291.707C396.9 291.707 395.556 291.451 394.362 290.939C393.167 290.406 392.228 289.659 391.545 288.699C390.863 287.739 390.521 286.619 390.521 285.339H394.426C394.511 286.299 394.884 287.088 395.546 287.707C396.228 288.326 397.178 288.635 398.394 288.635C399.653 288.635 400.634 288.337 401.338 287.739C402.042 287.12 402.394 286.331 402.394 285.371C402.394 284.624 402.17 284.016 401.722 283.547C401.295 283.078 400.751 282.715 400.09 282.459C399.45 282.203 398.554 281.925 397.402 281.627C395.951 281.243 394.767 280.859 393.85 280.475C392.953 280.069 392.185 279.451 391.545 278.619C390.905 277.787 390.585 276.677 390.585 275.29C390.585 274.01 390.905 272.89 391.545 271.93C392.185 270.97 393.081 270.234 394.234 269.722C395.386 269.21 396.719 268.954 398.234 268.954C400.389 268.954 402.149 269.498 403.514 270.586C404.901 271.653 405.669 273.125 405.818 275.002H401.786C401.722 274.192 401.338 273.498 400.634 272.922C399.93 272.346 399.002 272.058 397.85 272.058C396.804 272.058 395.951 272.325 395.29 272.858C394.628 273.392 394.298 274.16 394.298 275.162C394.298 275.845 394.5 276.41 394.906 276.858C395.332 277.285 395.866 277.626 396.506 277.883C397.146 278.139 398.02 278.416 399.13 278.715C400.602 279.12 401.797 279.525 402.714 279.931C403.653 280.336 404.442 280.965 405.082 281.819C405.744 282.651 406.074 283.771 406.074 285.179C406.074 286.31 405.765 287.376 405.146 288.379C404.549 289.382 403.663 290.193 402.49 290.811C401.338 291.409 399.973 291.707 398.394 291.707Z" fill="#171616"/>
<defs>
<filter id="filter0_bi_847_1159" x="-4.87969" y="17.9223" width="223.534" height="252.174" filterUnits="userSpaceOnUse" color-interpolation-filters="sRGB">
<feFlood flood-opacity="0" result="BackgroundImageFix"/>
<feGaussianBlur in="BackgroundImageFix" stdDeviation="9.6"/>
<feComposite in2="SourceAlpha" operator="in" result="effect1_backgroundBlur_847_1159"/>
<feBlend mode="normal" in="SourceGraphic" in2="effect1_backgroundBlur_847_1159" result="shape"/>
<feColorMatrix in="SourceAlpha" type="matrix" values="0 0 0 0 0 0 0 0 0 0 0 0 0 0 0 0 0 0 127 0" result="hardAlpha"/>
<feOffset/>
<feGaussianBlur stdDeviation="9.60062"/>
<feComposite in2="hardAlpha" operator="arithmetic" k2="-1" k3="1"/>
<feColorMatrix type="matrix" values="0 0 0 0 1 0 0 0 0 1 0 0 0 0 1 0 0 0 0.3 0"/>
<feBlend mode="normal" in2="shape" result="effect2_innerShadow_847_1159"/>
</filter>
<filter id="filter1_bi_847_1159" x="383.119" y="18.2426" width="223.536" height="252.176" filterUnits="userSpaceOnUse" color-interpolation-filters="sRGB">
<feFlood flood-opacity="0" result="BackgroundImageFix"/>
<feGaussianBlur in="BackgroundImageFix" stdDeviation="9.60062"/>
<feComposite in2="SourceAlpha" operator="in" result="effect1_backgroundBlur_847_1159"/>
<feBlend mode="normal" in="SourceGraphic" in2="effect1_backgroundBlur_847_1159" result="shape"/>
<feColorMatrix in="SourceAlpha" type="matrix" values="0 0 0 0 0 0 0 0 0 0 0 0 0 0 0 0 0 0 127 0" result="hardAlpha"/>
<feOffset/>
<feGaussianBlur stdDeviation="9.60062"/>
<feComposite in2="hardAlpha" operator="arithmetic" k2="-1" k3="1"/>
<feColorMatrix type="matrix" values="0 0 0 0 1 0 0 0 0 1 0 0 0 0 1 0 0 0 0.3 0"/>
<feBlend mode="normal" in2="shape" result="effect2_innerShadow_847_1159"/>
</filter>
<filter id="filter2_bi_847_1159" x="187.119" y="334.101" width="223.536" height="252.176" filterUnits="userSpaceOnUse" color-interpolation-filters="sRGB">
<feFlood flood-opacity="0" result="BackgroundImageFix"/>
<feGaussianBlur in="BackgroundImageFix" stdDeviation="9.60062"/>
<feComposite in2="SourceAlpha" operator="in" result="effect1_backgroundBlur_847_1159"/>
<feBlend mode="normal" in="SourceGraphic" in2="effect1_backgroundBlur_847_1159" result="shape"/>
<feColorMatrix in="SourceAlpha" type="matrix" values="0 0 0 0 0 0 0 0 0 0 0 0 0 0 0 0 0 0 127 0" result="hardAlpha"/>
<feOffset/>
<feGaussianBlur stdDeviation="9.60062"/>
<feComposite in2="hardAlpha" operator="arithmetic" k2="-1" k3="1"/>
<feColorMatrix type="matrix" values="0 0 0 0 1 0 0 0 0 1 0 0 0 0 1 0 0 0 0.3 0"/>
<feBlend mode="normal" in2="shape" result="effect2_innerShadow_847_1159"/>
</filter>
<linearGradient id="paint0_linear_847_1159" x1="60.1641" y1="127.467" x2="160.164" y2="127.467" gradientUnits="userSpaceOnUse">
<stop offset="0.615" stop-color="#FA4417"/>
<stop offset="1" stop-color="#FCAA1C"/>
</linearGradient>
<linearGradient id="paint1_linear_847_1159" x1="462.471" y1="125.228" x2="529.471" y2="125.228" gradientUnits="userSpaceOnUse">
<stop offset="0.615" stop-color="#FA4417"/>
<stop offset="1" stop-color="#FCAA1C"/>
</linearGradient>
<linearGradient id="paint2_linear_847_1159" x1="252.176" y1="441.087" x2="354.176" y2="441.087" gradientUnits="userSpaceOnUse">
<stop offset="0.615" stop-color="#FA4417"/>
<stop offset="1" stop-color="#FCAA1C"/>
</linearGradient>
</defs>
</svg>
