<svg width="33" height="33" viewBox="0 0 33 33" fill="none" xmlns="http://www.w3.org/2000/svg">
<rect width="32.8" height="32.8" rx="5" fill="url(#paint0_linear_3_1010)"/>
<path fill-rule="evenodd" clip-rule="evenodd" d="M16.7997 19.8542C18.4866 19.8542 19.8542 18.4866 19.8542 16.7997C19.8542 15.1127 18.4866 13.7451 16.7997 13.7451C15.1127 13.7451 13.7451 15.1127 13.7451 16.7997C13.7451 18.4866 15.1127 19.8542 16.7997 19.8542ZM16.7997 18.836C17.9243 18.836 18.836 17.9243 18.836 16.7997C18.836 15.675 17.9243 14.7633 16.7997 14.7633C15.675 14.7633 14.7633 15.675 14.7633 16.7997C14.7633 17.9243 15.675 18.836 16.7997 18.836Z" fill="white"/>
<path d="M19.6002 13.5999C19.3793 13.5999 19.2002 13.7789 19.2002 13.9999C19.2002 14.2208 19.3793 14.3999 19.6002 14.3999C19.8211 14.3999 20.0002 14.2208 20.0002 13.9999C20.0002 13.7789 19.8211 13.5999 19.6002 13.5999Z" fill="white"/>
<path fill-rule="evenodd" clip-rule="evenodd" d="M11.5331 12.8675C11.2002 13.5209 11.2002 14.3763 11.2002 16.087V17.5124C11.2002 19.2231 11.2002 20.0785 11.5331 20.7319C11.826 21.3066 12.2933 21.7739 12.868 22.0668C13.5214 22.3997 14.3768 22.3997 16.0875 22.3997H17.5129C19.2236 22.3997 20.079 22.3997 20.7324 22.0668C21.3071 21.7739 21.7744 21.3066 22.0673 20.7319C22.4002 20.0785 22.4002 19.2231 22.4002 17.5124V16.087C22.4002 14.3763 22.4002 13.5209 22.0673 12.8675C21.7744 12.2928 21.3071 11.8255 20.7324 11.5326C20.079 11.1997 19.2236 11.1997 17.5129 11.1997H16.0875C14.3768 11.1997 13.5214 11.1997 12.868 11.5326C12.2933 11.8255 11.826 12.2928 11.5331 12.8675ZM17.5129 12.2179H16.0875C15.2153 12.2179 14.6224 12.2187 14.1642 12.2561C13.7178 12.2926 13.4895 12.3587 13.3303 12.4398C12.9471 12.6351 12.6356 12.9466 12.4403 13.3298C12.3592 13.489 12.2931 13.7173 12.2566 14.1637C12.2192 14.6219 12.2184 15.2148 12.2184 16.087V17.5124C12.2184 18.3846 12.2192 18.9774 12.2566 19.4357C12.2931 19.8822 12.3592 20.1104 12.4403 20.2697C12.6356 20.6528 12.9471 20.9643 13.3303 21.1596C13.4895 21.2407 13.7178 21.3068 14.1642 21.3433C14.6224 21.3807 15.2153 21.3815 16.0875 21.3815H17.5129C18.3851 21.3815 18.9779 21.3807 19.4362 21.3433C19.8826 21.3068 20.1109 21.2407 20.2702 21.1596C20.6533 20.9643 20.9648 20.6528 21.16 20.2697C21.2412 20.1104 21.3073 19.8822 21.3438 19.4357C21.3812 18.9774 21.382 18.3846 21.382 17.5124V16.087C21.382 15.2148 21.3812 14.6219 21.3438 14.1637C21.3073 13.7173 21.2412 13.489 21.16 13.3298C20.9648 12.9466 20.6533 12.6351 20.2702 12.4398C20.1109 12.3587 19.8826 12.2926 19.4362 12.2561C18.9779 12.2187 18.3851 12.2179 17.5129 12.2179Z" fill="white"/>
<defs>
<linearGradient id="paint0_linear_3_1010" x1="31.6" y1="-2" x2="9.41753e-07" y2="32.8" gradientUnits="userSpaceOnUse">
<stop stop-color="#475FC1"/>
<stop offset="0.395" stop-color="#C435A7"/>
<stop offset="0.75" stop-color="#ED4D50"/>
<stop offset="1" stop-color="#F7AA4D"/>
</linearGradient>
</defs>
</svg>
