<svg width="60" height="60" viewBox="0 0 60 60" fill="none" xmlns="http://www.w3.org/2000/svg">
<path d="M60 30C60 46.56 46.575 60 30 60C13.425 60 0 46.56 0 30C0 13.425 13.425 0 30 0C46.575 0 60 13.425 60 30Z" fill="#7049EE"/>
<path d="M10.8981 40.3701H14.1747V25.1663H10.8981V40.3701ZM12.5298 23.1726C13.5431 23.1726 14.3589 22.312 14.3589 21.2363C14.3589 20.1319 13.5431 19.2856 12.5298 19.2856C11.5297 19.2856 10.7139 20.1319 10.7139 21.2363C10.7139 22.312 11.5297 23.1726 12.5298 23.1726Z" fill="white"/>
<path d="M25.6235 19.3289C20.0833 19.3289 16.6094 23.4453 16.6094 30.0288C16.6094 36.6123 20.0833 40.7144 25.6235 40.7144C31.1501 40.7144 34.6241 36.6123 34.6241 30.0288C34.6241 23.4453 31.1501 19.3289 25.6235 19.3289ZM25.6235 22.4842C29.0053 22.4842 31.1634 25.4103 31.1634 30.0288C31.1634 34.6329 29.0053 37.5588 25.6235 37.5588C22.2283 37.5588 20.0833 34.6329 20.0833 30.0288C20.0833 25.4103 22.2283 22.4842 25.6235 22.4842Z" fill="white"/>
<path d="M36.5586 34.5468C36.7032 38.3621 39.5719 40.7144 43.9407 40.7144C48.5333 40.7144 51.4283 38.2473 51.4283 34.3173C51.4283 31.2335 49.7965 29.498 45.9409 28.5371L43.7564 27.992C41.4274 27.3896 40.4667 26.5865 40.4667 25.2095C40.4667 23.4884 41.9142 22.3409 44.0592 22.3409C46.2304 22.3409 47.7175 23.5027 47.8754 25.439H51.1124C51.0336 21.7959 48.2702 19.3289 44.0856 19.3289C39.9535 19.3289 37.0191 21.8101 37.0191 25.4821C37.0191 28.4366 38.6772 30.2726 42.1774 31.1476L44.6382 31.7786C47.0331 32.3954 48.007 33.2559 48.007 34.7476C48.007 36.4687 46.4147 37.7024 44.125 37.7024C41.809 37.7024 40.0587 36.4544 39.8483 34.5468H36.5586Z" fill="white"/>
</svg>
