<svg width="300" height="300" viewBox="0 0 300 300" fill="none" xmlns="http://www.w3.org/2000/svg">
<g clip-path="url(#clip0_1720_15)">
<path d="M267.583 300H32.4166C14.5137 300 0 285.486 0 267.583V32.4166C0 14.5137 14.5137 0 32.4166 0H267.583C285.487 0 300 14.5137 300 32.4166V267.583C300 285.486 285.486 300 267.583 300Z" fill="white"/>
<path d="M208.942 156.779C209.16 139.818 218.052 124.151 232.502 115.267C223.345 102.189 208.557 94.1941 192.599 93.6949C175.81 91.9327 159.534 103.741 150.979 103.741C142.258 103.741 129.086 93.8699 114.902 94.1619C96.2385 94.7648 79.2615 105.118 70.1819 121.435C50.8463 154.912 65.2687 204.112 83.7913 231.173C93.0582 244.423 103.889 259.225 118.06 258.7C131.928 258.125 137.107 249.857 153.847 249.857C170.431 249.857 175.29 258.7 189.749 258.366C204.63 258.124 214.005 245.056 222.947 231.68C229.606 222.238 234.729 211.803 238.128 200.762C220.454 193.287 208.963 175.969 208.942 156.779Z" fill="url(#paint0_linear_1720_15)"/>
<path d="M181.63 75.8992C189.744 66.1594 193.741 53.6397 192.773 41C180.378 42.3016 168.927 48.2261 160.704 57.5925C152.585 66.8336 148.471 78.9238 149.27 91.1995C161.831 91.3294 173.759 85.6899 181.63 75.8992Z" fill="url(#paint1_linear_1720_15)"/>
</g>
<defs>
<linearGradient id="paint0_linear_1720_15" x1="69.3608" y1="93.5156" x2="177.92" y2="287.699" gradientUnits="userSpaceOnUse">
<stop stop-color="#FF3100"/>
<stop offset="0.269231" stop-color="#FD9300"/>
<stop offset="0.620192" stop-color="#EC64CB"/>
<stop offset="1" stop-color="#A673EE"/>
</linearGradient>
<linearGradient id="paint1_linear_1720_15" x1="151.237" y1="41" x2="187.403" y2="93.5734" gradientUnits="userSpaceOnUse">
<stop stop-color="#FF3100"/>
<stop offset="0.269231" stop-color="#FD9300"/>
<stop offset="0.620192" stop-color="#EC64CB"/>
<stop offset="1" stop-color="#A673EE"/>
</linearGradient>
<clipPath id="clip0_1720_15">
<rect width="300" height="300" fill="white"/>
</clipPath>
</defs>
</svg>
