<svg width="300" height="300" viewBox="0 0 300 300" fill="none" xmlns="http://www.w3.org/2000/svg">
<g clip-path="url(#clip0_1720_15)">
<path d="M231.652 159.428C231.953 135.98 244.247 114.321 264.223 102.039C251.563 83.9597 231.119 72.9068 209.059 72.2166C185.848 69.7805 163.348 86.1053 151.521 86.1053C139.464 86.1053 121.254 72.4585 101.645 72.8623C75.8445 73.6956 52.3745 88.0091 39.8224 110.566C13.0919 156.846 33.0301 224.863 58.6368 262.273C71.4479 280.591 86.4208 301.054 106.012 300.328C125.183 299.533 132.344 288.103 155.485 288.103C178.412 288.103 185.129 300.328 205.118 299.866C225.69 299.532 238.652 281.466 251.014 262.974C260.219 249.922 267.301 235.496 272.001 220.231C247.567 209.898 231.681 185.957 231.652 159.428Z" fill="url(#paint0_linear_1720_15)"/>
<path d="M193.896 47.6137C205.112 34.1489 210.639 16.841 209.3 -0.632812C192.164 1.16659 176.334 9.35695 164.967 22.3055C153.741 35.081 148.054 51.7951 149.159 68.7656C166.524 68.9452 183.013 61.1489 193.896 47.6137Z" fill="url(#paint1_linear_1720_15)"/>
</g>
<defs>
<linearGradient id="paint0_linear_1720_15" x1="38.6874" y1="71.9687" x2="188.766" y2="340.418" gradientUnits="userSpaceOnUse">
<stop stop-color="#FF3100"/>
<stop offset="0.269231" stop-color="#FD9300"/>
<stop offset="0.620192" stop-color="#EC64CB"/>
<stop offset="1" stop-color="#A673EE"/>
</linearGradient>
<linearGradient id="paint1_linear_1720_15" x1="151.878" y1="-0.632813" x2="201.876" y2="72.0475" gradientUnits="userSpaceOnUse">
<stop stop-color="#FF3100"/>
<stop offset="0.269231" stop-color="#FD9300"/>
<stop offset="0.620192" stop-color="#EC64CB"/>
<stop offset="1" stop-color="#A673EE"/>
</linearGradient>
<clipPath id="clip0_1720_15">
<rect width="300" height="300" fill="white"/>
</clipPath>
</defs>
</svg>
