<svg width="44" height="80" viewBox="0 0 44 80" fill="none" xmlns="http://www.w3.org/2000/svg">
<path d="M41.2017 63.0861H40.9004V62.9175H41.7118V63.0861H41.4123V63.9273H41.2017V63.0861ZM42.82 63.13H42.8153L42.5165 63.9276H42.3798L42.0831 63.13H42.0796V63.9276H41.881V62.9178H42.1732L42.4483 63.6329L42.7225 62.9178H43.0137V63.9276H42.8198L42.82 63.13Z" fill="#E76F00"/>
<path d="M14.2213 42.4364C14.2213 42.4364 12.1243 43.6558 15.7136 44.0685C20.0618 44.5645 22.2842 44.4934 27.076 43.5865C27.076 43.5865 28.3358 44.3764 30.0952 45.0606C19.3532 49.6644 5.784 44.7939 14.2213 42.4364ZM12.9086 36.4287C12.9086 36.4287 10.5567 38.1696 14.1486 38.5412C18.7936 39.0204 22.4618 39.0596 28.8092 37.8373C28.8092 37.8373 29.6873 38.7274 31.0678 39.2141C18.08 43.0119 3.61401 39.5136 12.9086 36.4287Z" fill="#5382A1"/>
<path d="M23.9743 26.2373C26.6211 29.2846 23.279 32.027 23.279 32.027C23.279 32.027 29.9995 28.5575 26.9131 24.213C24.0304 20.1612 21.8197 18.1483 33.7873 11.2075C33.7875 11.2074 15.0021 15.8991 23.9743 26.2373Z" fill="#E76F00"/>
<path d="M38.1815 46.88C38.1815 46.88 39.7333 48.1587 36.4726 49.1477C30.2721 51.0261 10.6658 51.5933 5.21922 49.2227C3.26132 48.3708 6.93294 47.1888 8.08789 46.9408C9.29238 46.6796 9.98071 46.7282 9.98071 46.7282C7.80333 45.1944 -4.09301 49.7399 3.93796 51.0419C25.8396 54.5937 43.8627 49.4425 38.1815 46.88ZM15.2297 30.204C15.2297 30.204 5.25664 32.5727 11.698 33.4329C14.4177 33.797 19.8394 33.7147 24.8895 33.2915C29.0168 32.9434 33.1612 32.2033 33.1612 32.2033C33.1612 32.2033 31.7059 32.8265 30.653 33.5453C20.5255 36.209 0.961177 34.9697 6.5935 32.2453C11.3568 29.9428 15.2297 30.204 15.2297 30.204ZM33.1201 40.2041C43.4151 34.8544 38.6553 29.7132 35.3327 30.406C34.5184 30.5755 34.1553 30.7224 34.1553 30.7224C34.1553 30.7224 34.4577 30.2488 35.0348 30.0438C41.6076 27.733 46.6626 36.8592 32.913 40.4738C32.913 40.4738 33.0726 40.3316 33.1201 40.2041Z" fill="#5382A1"/>
<path d="M26.913 0C26.913 0 32.6145 5.70332 21.5053 14.4738C12.5969 21.5089 19.4739 25.5203 21.5016 30.1036C16.3018 25.4117 12.4856 21.2818 15.0458 17.4379C18.8033 11.7953 29.2134 9.05962 26.913 0Z" fill="#E76F00"/>
<path d="M16.2411 54.7005C26.123 55.3331 41.2979 54.3495 41.6571 49.6738C41.6571 49.6738 40.9664 51.4463 33.4902 52.8541C25.0559 54.4412 14.6531 54.2561 8.48315 53.2388C8.48345 53.2385 9.74637 54.284 16.2411 54.7005Z" fill="#5382A1"/>
<path d="M14.6217 72.5672C13.6895 73.3758 12.7049 73.8297 11.8214 73.8297C10.5602 73.8297 9.87883 73.0735 9.87883 71.8605C9.87883 70.5485 10.609 69.5892 13.5377 69.5892H14.6215L14.6217 72.5672ZM17.194 75.4694V66.4857C17.194 64.1906 15.8851 62.6764 12.7292 62.6764C10.8868 62.6764 9.27289 63.1313 7.96116 63.7115L8.33979 65.3018C9.37257 64.9227 10.7094 64.5698 12.0216 64.5698C13.8396 64.5698 14.6217 65.3018 14.6217 66.8151V67.9506H13.7143C9.29729 67.9506 7.30478 69.6653 7.30478 72.2387C7.30478 74.4599 8.61784 75.7224 11.0901 75.7224C12.6793 75.7224 13.8656 75.0661 14.9746 74.106L15.1759 75.4697L17.194 75.4694ZM25.7785 75.4694H22.5704L18.7094 62.9039H21.5112L23.9069 70.6241L24.4394 72.946C25.6515 69.5889 26.5089 66.1831 26.9376 62.9039H29.663C28.9326 67.0415 27.6187 71.5832 25.7785 75.4694ZM38.0859 72.5672C37.1519 73.3758 36.1657 73.8297 35.282 73.8297C34.0231 73.8297 33.3399 73.0735 33.3399 71.8605C33.3399 70.5485 34.0716 69.5892 37.0001 69.5892H38.0859V72.5672ZM40.6579 75.4694V66.4857C40.6579 64.1906 39.3458 62.6764 36.1934 62.6764C34.3498 62.6764 32.7353 63.1313 31.4242 63.7115L31.8023 65.3018C32.8354 64.9227 34.1748 64.5698 35.4859 64.5698C37.3026 64.5698 38.0859 65.3018 38.0859 66.8151V67.9506H37.1769C32.7587 67.9506 30.7669 69.6653 30.7669 72.2387C30.7669 74.4599 32.0789 75.7224 34.5508 75.7224C36.141 75.7224 37.3269 75.0661 38.4376 74.106L38.6396 75.4697L40.6579 75.4694ZM4.48433 77.6032C3.75104 78.6738 2.56666 79.5209 1.27002 80.0001L0 78.5055C0.986937 77.9991 1.83337 77.1812 2.22663 76.4196C2.5668 75.742 2.70761 74.8688 2.70761 72.7806V58.4351H5.4405V72.5841C5.44035 75.3757 5.21717 76.5034 4.48433 77.6032Z" fill="#E76F00"/>
</svg>
