<svg width="20" height="21" viewBox="0 0 20 21" fill="none" xmlns="http://www.w3.org/2000/svg">
<g clip-path="url(#clip0_3_1561)">
<path d="M17 0.5H3C1.34315 0.5 0 1.84315 0 3.5V17.5C0 19.1569 1.34315 20.5 3 20.5H17C18.6569 20.5 20 19.1569 20 17.5V3.5C20 1.84315 18.6569 0.5 17 0.5Z" fill="#F7DF1E"/>
<path d="M12.6562 14.9531C13.0469 15.6172 13.5938 16.0859 14.4922 16.0859C15.2734 16.0859 15.7812 15.6953 15.7812 15.1484C15.7812 14.5234 15.2734 14.2891 14.4141 13.8984L13.9453 13.7031C12.5781 13.1172 11.6797 12.4141 11.6797 10.8906C11.6797 9.48438 12.7344 8.39062 14.4141 8.39062C15.625 8.39062 16.4844 8.82031 17.0703 9.91406L15.625 10.8516C15.3125 10.2656 14.9609 10.0312 14.4141 10.0312C13.8672 10.0312 13.5156 10.3828 13.5156 10.8516C13.5156 11.3984 13.8672 11.6328 14.6875 11.9844L15.1562 12.1797C16.7578 12.8828 17.6562 13.5469 17.6562 15.1484C17.6562 16.8281 16.3281 17.7656 14.5312 17.7656C12.7734 17.7656 11.6406 16.9453 11.0938 15.8516L12.6562 14.9531ZM6.01562 15.1094C6.32812 15.6172 6.5625 16.0859 7.22656 16.0859C7.85156 16.0859 8.24219 15.8516 8.24219 14.9141V8.42969H10.1172V14.8359C10.1172 16.7891 8.98438 17.6484 7.30469 17.6484C5.78125 17.6484 4.92188 16.8672 4.49219 15.9297L6.01562 15.1094Z" fill="black"/>
</g>
<defs>
<clipPath id="clip0_3_1561">
<rect width="20" height="20" fill="white" transform="translate(0 0.5)"/>
</clipPath>
</defs>
</svg>
