<svg width="20" height="22" viewBox="0 0 20 22" fill="none" xmlns="http://www.w3.org/2000/svg">
<path d="M10.9019 0.460499C10.3559 0.153429 9.64408 0.154806 9.09762 0.460499C6.3607 1.97092 3.62371 3.4818 0.886276 4.99153C0.353607 5.27176 -0.0056632 5.84378 6.7576e-05 6.43749V15.5637C-0.00377858 16.169 0.374014 16.7465 0.920422 17.0229C1.7067 17.4412 2.47062 17.902 3.27111 18.2924C4.19578 18.7468 5.35264 18.8473 6.28862 18.3734C7.04839 17.9807 7.38585 17.1073 7.38485 16.3046C7.39101 13.2927 7.38585 10.2808 7.38724 7.26887C7.40531 7.13503 7.30477 6.99195 7.15877 6.99518C6.809 6.98964 6.45877 6.99195 6.109 6.99426C5.97685 6.9818 5.84785 7.09157 5.85785 7.22441C5.85316 10.2169 5.85877 13.2103 5.855 16.2032C5.86262 16.6172 5.58293 17.015 5.18395 17.1549C4.26246 17.4779 1.63229 15.7701 1.63229 15.7701C1.53577 15.7254 1.47448 15.6207 1.48394 15.5167C1.48394 12.5058 1.48441 9.4948 1.48394 6.48433C1.47067 6.36296 1.54548 6.25364 1.65694 6.20409C4.38487 4.70256 7.11139 3.19729 9.83931 1.69484C9.93408 1.6316 10.0662 1.63179 10.1607 1.6953C12.8886 3.19729 15.6156 4.70119 18.344 6.20278C18.4559 6.25226 18.5275 6.36341 18.5161 6.48433C18.5156 9.4948 18.517 12.5058 18.5152 15.5163C18.5232 15.6229 18.4682 15.7261 18.3687 15.7729C15.6662 17.2663 12.933 18.7115 10.255 20.2483C10.1382 20.3153 10.0058 20.3912 9.87485 20.3173C9.17062 19.9278 8.47493 19.5231 7.77301 19.1298C7.6967 19.0822 7.59954 19.0617 7.51993 19.115C7.20524 19.2809 6.90924 19.4152 6.54785 19.5583C6.04031 19.7592 6.12139 19.8413 6.57916 20.108C7.40001 20.5726 8.22224 21.0353 9.04308 21.5003C9.58347 21.8375 10.3095 21.8615 10.8673 21.5499C13.6047 20.0413 16.3412 18.531 19.0792 17.0225C19.6241 16.7446 20.0038 16.1693 19.9999 15.5636V6.43749C20.0052 5.85583 19.6597 5.294 19.1431 5.00963C16.3966 3.49185 13.6489 1.97736 10.9019 0.460499Z" fill="#8CC84B"/>
<path d="M15.032 7.31233C13.9576 6.73756 12.6795 6.70694 11.4855 6.7821C10.623 6.86733 9.71583 7.10533 9.08745 7.72364C8.44291 8.34517 8.3026 9.34887 8.60876 10.1603C8.82814 10.7336 9.38037 11.1065 9.95145 11.3037C10.6871 11.5634 11.4597 11.6437 12.2325 11.724C12.9375 11.7973 13.6426 11.8706 14.3201 12.08C14.5969 12.1717 14.9192 12.312 15.004 12.6132C15.0823 12.9698 14.9965 13.3843 14.7069 13.6321C13.7872 14.36 11.2289 14.2485 10.3202 13.6756C9.95283 13.4315 9.79453 12.9994 9.73014 12.5876C9.72299 12.4593 9.61968 12.3416 9.48037 12.3514C9.13153 12.3473 8.78268 12.3482 8.43383 12.3509C8.31214 12.3407 8.1856 12.4273 8.17891 12.5516C8.10722 14.4375 9.8393 15.2596 11.4643 15.4406C12.3927 15.5291 13.3415 15.524 14.2557 15.3248C14.9429 15.1683 15.632 14.8802 16.1051 14.3509C16.6885 13.7076 16.8031 12.7498 16.5415 11.9485C16.3415 11.3506 15.7699 10.967 15.1856 10.7697C14.391 10.4973 13.4493 10.3508 12.7296 10.2823C11.6835 10.1826 10.4404 10.2233 10.1444 9.53594C10.0263 9.17602 10.1268 8.7291 10.4575 8.50771C11.3327 7.9141 13.1138 7.99294 14.0201 8.4364C14.4363 8.64479 14.6775 9.07279 14.777 9.50487C14.7955 9.63179 14.8808 9.76425 15.0278 9.75871C15.3742 9.76564 15.7207 9.76056 16.0671 9.76102C16.1861 9.76933 16.3164 9.70218 16.3396 9.58033C16.3249 8.67725 15.8638 7.75279 15.032 7.31233Z" fill="#8CC84B"/>
</svg>
