<svg width="69" height="30" viewBox="0 0 69 30" fill="none" xmlns="http://www.w3.org/2000/svg">
<rect x="0.5" y="0.5" width="68" height="29" rx="14.5" fill="white" stroke="#8B68FF"/>
<path d="M13.13 12.02C13.8633 12.02 14.5067 12.1633 15.06 12.45C15.62 12.7367 16.05 13.1467 16.35 13.68C16.6567 14.2067 16.81 14.82 16.81 15.52C16.81 16.22 16.6567 16.8333 16.35 17.36C16.05 17.88 15.62 18.2833 15.06 18.57C14.5067 18.8567 13.8633 19 13.13 19H10.69V12.02H13.13ZM13.08 17.81C13.8133 17.81 14.38 17.61 14.78 17.21C15.18 16.81 15.38 16.2467 15.38 15.52C15.38 14.7933 15.18 14.2267 14.78 13.82C14.38 13.4067 13.8133 13.2 13.08 13.2H12.09V17.81H13.08ZM17.498 16.21C17.498 15.65 17.608 15.1533 17.828 14.72C18.0546 14.2867 18.358 13.9533 18.738 13.72C19.1246 13.4867 19.5546 13.37 20.028 13.37C20.4413 13.37 20.8013 13.4533 21.108 13.62C21.4213 13.7867 21.6713 13.9967 21.858 14.25V13.46H23.268V19H21.858V18.19C21.678 18.45 21.428 18.6667 21.108 18.84C20.7946 19.0067 20.4313 19.09 20.018 19.09C19.5513 19.09 19.1246 18.97 18.738 18.73C18.358 18.49 18.0546 18.1533 17.828 17.72C17.608 17.28 17.498 16.7767 17.498 16.21ZM21.858 16.23C21.858 15.89 21.7913 15.6 21.658 15.36C21.5246 15.1133 21.3446 14.9267 21.118 14.8C20.8913 14.6667 20.648 14.6 20.388 14.6C20.128 14.6 19.888 14.6633 19.668 14.79C19.448 14.9167 19.268 15.1033 19.128 15.35C18.9946 15.59 18.928 15.8767 18.928 16.21C18.928 16.5433 18.9946 16.8367 19.128 17.09C19.268 17.3367 19.448 17.5267 19.668 17.66C19.8946 17.7933 20.1346 17.86 20.388 17.86C20.648 17.86 20.8913 17.7967 21.118 17.67C21.3446 17.5367 21.5246 17.35 21.658 17.11C21.7913 16.8633 21.858 16.57 21.858 16.23ZM26.0353 14.32C26.2153 14.0267 26.4486 13.7967 26.7353 13.63C27.0286 13.4633 27.362 13.38 27.7353 13.38V14.85H27.3653C26.9253 14.85 26.592 14.9533 26.3653 15.16C26.1453 15.3667 26.0353 15.7267 26.0353 16.24V19H24.6353V13.46H26.0353V14.32ZM31.9583 19L30.0783 16.64V19H28.6783V11.6H30.0783V15.81L31.9383 13.46H33.7583L31.3183 16.24L33.7783 19H31.9583Z" fill="#8B68FF"/>
<rect x="40" y="5" width="20" height="20" rx="10" fill="#9D80FF"/>
</svg>
