<svg width="69" height="29" viewBox="0 0 69 29" fill="none" xmlns="http://www.w3.org/2000/svg">
<rect x="0.5" y="0.5" width="68" height="28" rx="14" fill="white" stroke="#8B68FF"/>
<path d="M8.09 16.89H10.39V18H6.69V11.02H8.09V16.89ZM11.9898 11.8C11.7432 11.8 11.5365 11.7233 11.3698 11.57C11.2098 11.41 11.1298 11.2133 11.1298 10.98C11.1298 10.7467 11.2098 10.5533 11.3698 10.4C11.5365 10.24 11.7432 10.16 11.9898 10.16C12.2365 10.16 12.4398 10.24 12.5998 10.4C12.7665 10.5533 12.8498 10.7467 12.8498 10.98C12.8498 11.2133 12.7665 11.41 12.5998 11.57C12.4398 11.7233 12.2365 11.8 11.9898 11.8ZM12.6798 12.46V18H11.2798V12.46H12.6798ZM16.233 12.37C16.6464 12.37 17.0097 12.4533 17.323 12.62C17.6364 12.78 17.883 12.99 18.063 13.25V12.46H19.473V18.04C19.473 18.5533 19.3697 19.01 19.163 19.41C18.9564 19.8167 18.6464 20.1367 18.233 20.37C17.8197 20.61 17.3197 20.73 16.733 20.73C15.9464 20.73 15.2997 20.5467 14.793 20.18C14.293 19.8133 14.0097 19.3133 13.943 18.68H15.333C15.4064 18.9333 15.563 19.1333 15.803 19.28C16.0497 19.4333 16.3464 19.51 16.693 19.51C17.0997 19.51 17.4297 19.3867 17.683 19.14C17.9364 18.9 18.063 18.5333 18.063 18.04V17.18C17.883 17.44 17.633 17.6567 17.313 17.83C16.9997 18.0033 16.6397 18.09 16.233 18.09C15.7664 18.09 15.3397 17.97 14.953 17.73C14.5664 17.49 14.2597 17.1533 14.033 16.72C13.813 16.28 13.703 15.7767 13.703 15.21C13.703 14.65 13.813 14.1533 14.033 13.72C14.2597 13.2867 14.563 12.9533 14.943 12.72C15.3297 12.4867 15.7597 12.37 16.233 12.37ZM18.063 15.23C18.063 14.89 17.9964 14.6 17.863 14.36C17.7297 14.1133 17.5497 13.9267 17.323 13.8C17.0964 13.6667 16.853 13.6 16.593 13.6C16.333 13.6 16.093 13.6633 15.873 13.79C15.653 13.9167 15.473 14.1033 15.333 14.35C15.1997 14.59 15.133 14.8767 15.133 15.21C15.133 15.5433 15.1997 15.8367 15.333 16.09C15.473 16.3367 15.653 16.5267 15.873 16.66C16.0997 16.7933 16.3397 16.86 16.593 16.86C16.853 16.86 17.0964 16.7967 17.323 16.67C17.5497 16.5367 17.7297 16.35 17.863 16.11C17.9964 15.8633 18.063 15.57 18.063 15.23ZM23.9604 12.38C24.3804 12.38 24.7537 12.4733 25.0804 12.66C25.4071 12.84 25.6604 13.11 25.8404 13.47C26.0271 13.8233 26.1204 14.25 26.1204 14.75V18H24.7204V14.94C24.7204 14.5 24.6104 14.1633 24.3904 13.93C24.1704 13.69 23.8704 13.57 23.4904 13.57C23.1037 13.57 22.7971 13.69 22.5704 13.93C22.3504 14.1633 22.2404 14.5 22.2404 14.94V18H20.8404V10.6H22.2404V13.15C22.4204 12.91 22.6604 12.7233 22.9604 12.59C23.2604 12.45 23.5937 12.38 23.9604 12.38ZM29.0817 13.61V16.29C29.0817 16.4767 29.1251 16.6133 29.2117 16.7C29.3051 16.78 29.4584 16.82 29.6717 16.82H30.3217V18H29.4417C28.2617 18 27.6717 17.4267 27.6717 16.28V13.61H27.0117V12.46H27.6717V11.09H29.0817V12.46H30.3217V13.61H29.0817Z" fill="#8B68FF"/>
<rect x="37" y="4" width="20" height="20" rx="10" fill="#9D80FF"/>
</svg>
