<svg width="33" height="33" viewBox="0 0 33 33" fill="none" xmlns="http://www.w3.org/2000/svg">
<rect x="0.200195" width="32.8" height="32.8" rx="5" fill="#203854"/>
<g clip-path="url(#clip0_219_3097)">
<path fill-rule="evenodd" clip-rule="evenodd" d="M23.4006 22.3996H20.8406V17.9202C20.8406 16.6914 20.2985 16.0059 19.3263 16.0059C18.2684 16.0059 17.6406 16.7202 17.6406 17.9202V22.3996H15.0806V14.0796H17.6406V15.0152C17.6406 15.0152 18.4438 13.6059 20.2537 13.6059C22.0643 13.6059 23.4006 14.7107 23.4006 16.9968V22.3996ZM12.1635 12.749C11.3001 12.749 10.6006 12.0437 10.6006 11.174C10.6006 10.3049 11.3001 9.59961 12.1635 9.59961C13.0262 9.59961 13.7257 10.3049 13.7257 11.174C13.7263 12.0437 13.0262 12.749 12.1635 12.749ZM10.6006 22.3996H13.8006V14.0796H10.6006V22.3996Z" fill="white"/>
</g>
<defs>
<clipPath id="clip0_219_3097">
<rect width="12.8" height="12.8" fill="white" transform="translate(10.6006 9.59961)"/>
</clipPath>
</defs>
</svg>
