<svg width="61" height="66" viewBox="0 0 61 66" fill="none" xmlns="http://www.w3.org/2000/svg">
<path d="M32.7195 1.38174C31.0815 0.460533 28.946 0.464663 27.3066 1.38174C19.0958 5.91301 10.8849 10.4457 2.67256 14.9748C1.07455 15.8155 -0.00325669 17.5316 0.0139356 19.3127V46.6912C0.00239717 48.5071 1.13578 50.2397 2.775 51.0689C5.13383 52.3238 7.42558 53.7061 9.82706 54.8775C12.6011 56.2407 16.0717 56.542 18.8796 55.1205C21.1589 53.9424 22.1713 51.322 22.1683 48.914C22.1867 39.8784 22.1713 30.8426 22.1754 21.8069C22.2297 21.4053 21.9281 20.9761 21.4901 20.9858C20.4407 20.9692 19.3901 20.9761 18.3407 20.983C17.9443 20.9456 17.5573 21.2749 17.5873 21.6735C17.5732 30.6509 17.5901 39.631 17.5787 48.6098C17.6016 49.8518 16.7625 51.0454 15.5656 51.4649C12.8011 52.4339 4.91061 47.3106 4.91061 47.3106C4.62104 47.1765 4.43716 46.8624 4.46555 46.5504C4.46555 37.5176 4.46696 28.4846 4.46555 19.4532C4.42574 19.0891 4.65016 18.7612 4.98455 18.6125C13.1683 14.1079 21.3479 9.5921 29.5317 5.08476C29.816 4.89504 30.2122 4.89562 30.4958 5.08614C38.6796 9.5921 46.8606 14.1038 55.0458 18.6086C55.3813 18.757 55.5962 19.0905 55.562 19.4532C55.5606 28.4846 55.5648 37.5176 55.5592 46.5493C55.5835 46.8689 55.4182 47.1786 55.1199 47.3189C47.0125 51.799 38.8128 56.1347 30.7788 60.7451C30.4282 60.9461 30.0311 61.1738 29.6383 60.9523C27.5256 59.7837 25.4385 58.5696 23.3328 57.3897C23.1038 57.2468 22.8124 57.1854 22.5735 57.3454C21.6294 57.8429 20.7414 58.2458 19.6573 58.675C18.1347 59.2778 18.3779 59.5243 19.7512 60.3244C22.2137 61.718 24.6804 63.1061 27.143 64.5011C28.7641 65.5127 30.9424 65.5847 32.6157 64.6499C40.8278 60.1243 49.0375 55.5934 57.2512 51.0677C58.886 50.234 60.0251 48.5083 60.0136 46.691V19.3127C60.0295 17.5677 58.9929 15.8823 57.443 15.0291C49.2036 10.4758 40.9603 5.93233 32.7195 1.38174Z" fill="#8CC84B"/>
<path d="M45.1104 21.9373C41.8872 20.213 38.0528 20.1212 34.471 20.3467C31.8834 20.6023 29.1619 21.3163 27.2768 23.1713C25.3431 25.0359 24.9222 28.047 25.8407 30.4811C26.4988 32.2013 28.1555 33.3198 29.8688 33.9115C32.0756 34.6906 34.3934 34.9315 36.712 35.1724C38.8268 35.3921 40.9422 35.612 42.9748 36.2404C43.8052 36.5155 44.7721 36.9364 45.0264 37.8399C45.2613 38.9097 45.0038 40.1534 44.1352 40.8967C41.3761 43.0804 33.7011 42.7458 30.9751 41.0271C29.8729 40.2948 29.398 38.9986 29.2048 37.7633C29.1834 37.3784 28.8734 37.0253 28.4555 37.0546C27.409 37.0421 26.3624 37.0449 25.3159 37.0532C24.9508 37.0225 24.5712 37.2824 24.5511 37.6551C24.3361 43.3128 29.5323 45.7793 34.4073 46.3223C37.1925 46.5877 40.0388 46.5724 42.7815 45.9748C44.8432 45.5054 46.9104 44.6409 48.3296 43.053C50.0798 41.1231 50.4238 38.2497 49.639 35.8458C49.039 34.052 47.3242 32.9014 45.5712 32.3095C43.1874 31.4921 40.3623 31.0527 38.2032 30.8471C35.065 30.5483 31.3358 30.6704 30.4475 28.6082C30.0933 27.5284 30.3947 26.1877 31.387 25.5235C34.0125 23.7427 39.3559 23.9792 42.0748 25.3096C43.3233 25.9347 44.0468 27.2187 44.3454 28.515C44.4008 28.8957 44.6569 29.2931 45.0977 29.2765C46.1371 29.2973 47.1765 29.282 48.2156 29.2834C48.5726 29.3084 48.9635 29.1069 49.0332 28.7414C48.9892 26.0321 47.6057 23.2587 45.1104 21.9373Z" fill="#8CC84B"/>
</svg>
