<svg width="56" height="61" viewBox="0 0 56 61" fill="none" xmlns="http://www.w3.org/2000/svg">
<path d="M30.5254 0.643401C28.9966 -0.216394 27.0034 -0.212538 25.4733 0.643401C17.8099 4.87259 10.1464 9.10305 2.48157 13.3303C0.990098 14.1149 -0.015857 15.7166 0.000189213 17.379V42.9322C-0.01058 44.6271 1.04724 46.2442 2.57718 47.0181C4.77876 48.1893 6.91772 49.4795 9.15911 50.5728C11.7482 51.8451 14.9874 52.1264 17.6081 50.7996C19.7355 49.7001 20.6804 47.2544 20.6776 45.0068C20.6948 36.5736 20.6804 28.1402 20.6843 19.7069C20.7349 19.3321 20.4534 18.9315 20.0446 18.9405C19.0652 18.925 18.0846 18.9315 17.1052 18.9379C16.7352 18.903 16.374 19.2104 16.402 19.5824C16.3888 27.9613 16.4046 36.3427 16.394 44.7229C16.4153 45.8821 15.6322 46.9961 14.5151 47.3877C11.9349 48.2921 4.57042 43.5103 4.57042 43.5103C4.30015 43.3852 4.12853 43.092 4.15503 42.8008C4.15503 34.3703 4.15634 25.9394 4.15503 17.5101C4.11787 17.1703 4.32733 16.8642 4.63943 16.7255C12.2776 12.5212 19.9119 8.30641 27.5501 4.09955C27.8154 3.92248 28.1853 3.92302 28.45 4.10084C36.0882 8.30641 43.7238 12.5173 51.3632 16.7218C51.6764 16.8603 51.8769 17.1716 51.8451 17.5101C51.8438 25.9394 51.8476 34.3703 51.8425 42.7998C51.8651 43.0981 51.7109 43.3871 51.4324 43.5181C43.8655 47.6996 36.2124 51.7462 28.714 56.0492C28.3868 56.2368 28.0162 56.4493 27.6496 56.2426C25.6777 55.1519 23.7298 54.0187 21.7644 52.9175C21.5508 52.7841 21.2787 52.7269 21.0558 52.8761C20.1747 53.3405 19.3459 53.7165 18.334 54.1172C16.9129 54.6797 17.1399 54.9098 18.4216 55.6565C20.72 56.9572 23.0223 58.2528 25.3206 59.5548C26.8337 60.499 28.8667 60.5662 30.4285 59.6937C38.0932 55.4698 45.7555 51.2409 53.4217 47.017C54.9475 46.2388 56.0106 44.6282 55.9998 42.932V17.379C56.0147 15.7503 55.0472 14.1772 53.6007 13.381C45.9106 9.13118 38.2168 4.89062 30.5254 0.643401Z" fill="#7049EE"/>
<path d="M42.0911 19.8288C39.0829 18.2194 35.504 18.1337 32.161 18.3441C29.7459 18.5828 27.2059 19.2492 25.4464 20.9804C23.6417 22.7207 23.2488 25.5311 24.1061 27.803C24.7204 29.4084 26.2666 30.4524 27.8656 31.0047C29.9253 31.7318 32.0887 31.9567 34.2526 32.1815C36.2264 32.3866 38.2009 32.5918 40.098 33.1783C40.8729 33.4351 41.7754 33.8279 42.0127 34.6711C42.232 35.6697 41.9916 36.8304 41.1809 37.5241C38.6058 39.5623 31.4425 39.25 28.8982 37.6458C27.8695 36.9624 27.4262 35.7526 27.246 34.5996C27.2259 34.2404 26.9367 33.9108 26.5466 33.9382C25.5698 33.9266 24.5931 33.9291 23.6163 33.9369C23.2756 33.9082 22.9212 34.1508 22.9025 34.4986C22.7018 39.7792 27.5516 42.0812 32.1016 42.588C34.7011 42.8357 37.3576 42.8215 39.9175 42.2637C41.8417 41.8256 43.7711 41.0188 45.0958 39.5367C46.7292 37.7354 47.0504 35.0537 46.3179 32.81C45.7579 31.1358 44.1573 30.0619 42.5213 29.5094C40.2963 28.7466 37.6596 28.3365 35.6445 28.1446C32.7154 27.8656 29.2348 27.9796 28.4058 26.0549C28.0752 25.0471 28.3565 23.7957 29.2826 23.1758C31.7331 21.5137 36.7203 21.7345 39.258 22.9762C40.4232 23.5597 41.0984 24.7581 41.3771 25.9679C41.4288 26.3233 41.6679 26.6942 42.0793 26.6786C43.0494 26.698 44.0195 26.6838 44.9894 26.6851C45.3226 26.7084 45.6874 26.5203 45.7525 26.1792C45.7113 23.6506 44.4201 21.0621 42.0911 19.8288Z" fill="#7049EE"/>
</svg>
