<svg width="60" height="60" viewBox="0 0 60 60" fill="none" xmlns="http://www.w3.org/2000/svg">
<path d="M30 60C46.5685 60 60 46.5685 60 30C60 13.4315 46.5685 0 30 0C13.4315 0 0 13.4315 0 30C0 46.5685 13.4315 60 30 60Z" fill="#7049EE"/>
<path d="M26.6561 17.1428H30.2561L29.2386 22.5518H32.4735C34.2476 22.5898 35.5691 22.9862 36.4388 23.7413C37.3258 24.4963 37.5868 25.9315 37.2216 28.0459L35.4737 37.4762H31.8214L33.4909 28.4706C33.6647 27.5265 33.6126 26.8564 33.3345 26.46C33.0563 26.0635 32.4563 25.8653 31.5345 25.8653L28.6386 25.837L26.4994 37.4762H22.8994L26.6561 17.1428Z" fill="white"/>
<path fill-rule="evenodd" clip-rule="evenodd" d="M10.1593 22.5521H17.1507C19.2027 22.5708 20.6899 23.213 21.6117 24.4777C22.5336 25.7426 22.8379 27.47 22.5248 29.6602C22.4033 30.6611 22.1335 31.6426 21.7161 32.6056C21.316 33.5683 20.7597 34.4366 20.0466 35.2108C19.1768 36.1925 18.2464 36.8154 17.2551 37.0801C16.2638 37.3445 15.2375 37.4765 14.1767 37.4765H11.0462L10.0549 42.8572H6.42871L10.1593 22.5521ZM11.6462 34.2763L13.2063 25.8088H13.7333C13.9247 25.8088 14.1246 25.7992 14.3333 25.7806C15.7248 25.7617 16.881 25.9033 17.803 26.2053C18.742 26.5072 19.0551 27.6496 18.742 29.6319C18.3597 31.9921 17.6114 33.3701 16.4986 33.7666C15.3856 34.1443 13.9941 34.3235 12.3245 34.3046H11.9593C11.8549 34.3046 11.7506 34.295 11.6462 34.2763Z" fill="white"/>
<path fill-rule="evenodd" clip-rule="evenodd" d="M48.0784 22.5521H41.0869L37.3564 42.8572H40.9826L41.9741 37.4765H45.1046C46.1653 37.4765 47.1915 37.3445 48.1828 37.0801C49.1743 36.8154 50.1045 36.1925 50.9743 35.2108C51.6874 34.4366 52.2437 33.5683 52.6438 32.6056C53.0612 31.6426 53.331 30.6611 53.4525 29.6602C53.7656 27.47 53.4615 25.7426 52.5394 24.4777C51.6176 23.213 50.1307 22.5708 48.0784 22.5521ZM44.1341 25.8088L42.5741 34.2763C42.6784 34.295 42.7828 34.3046 42.8872 34.3046H43.2523C44.922 34.3235 46.3134 34.1443 47.4264 33.7666C48.5392 33.3701 49.2874 31.9921 49.6699 29.6319C49.983 27.6496 49.6699 26.5072 48.7307 26.2053C47.8089 25.9033 46.6526 25.7617 45.261 25.7806C45.0523 25.7992 44.8526 25.8088 44.661 25.8088H44.1341Z" fill="white"/>
</svg>
