<svg width="61" height="61" viewBox="0 0 61 61" fill="none" xmlns="http://www.w3.org/2000/svg">
<path d="M27.278 38.9711C27.4383 41.0829 27.4072 43.2048 27.1849 45.311C27.1756 45.607 27.0886 45.8954 26.9327 46.1472C26.7768 46.399 26.5574 46.6054 26.2966 46.7457C24.615 47.9943 18.9792 48.2938 18.2771 45.6409C18.018 45.6307 18.2244 44.7727 17.9776 44.8051C17.4846 44.7646 17.0081 44.6089 16.5863 44.3506C16.1645 44.0923 15.8093 43.7385 15.5493 43.3178C15.5594 40.4159 15.8791 29.9479 10.6926 32.7668C9.5656 33.3949 8.72037 34.429 8.32907 35.6585C7.97961 36.7311 7.81537 37.8554 7.84341 38.9832C7.80294 40.4281 8.16314 42.0085 8.21575 43.7427C8.23599 44.5178 8.35943 44.7141 7.7827 45.3737C6.85387 46.4361 5.23298 45.5397 4.35676 44.3721C3.9862 43.784 3.78264 43.1061 3.76789 42.4112C3.07101 34.831 3.75667 27.1873 5.79149 19.8522C6.53415 17.3632 6.79317 17.003 9.15672 16.4445C11.8461 15.8529 14.6119 15.689 17.3523 15.9588C19.4791 15.2667 24.5259 11.519 26.7033 14.4937C30.0071 13.7602 33.4243 13.6956 36.7535 14.3038C40.0826 14.912 43.2563 16.1807 46.0873 18.035C48.9548 18.252 51.8324 18.3041 54.7058 18.1908C55.1105 17.9318 55.584 17.6546 55.9968 17.4158C56.2998 17.2106 56.6402 17.0669 56.9985 16.9928C57.464 16.92 58.071 16.8998 58.2127 17.4785C58.3359 18.0724 58.3774 18.6804 58.3361 19.2856C58.3221 19.6504 58.1863 20 57.9505 20.2787C57.7147 20.5574 57.3924 20.7492 57.035 20.8235C56.2271 20.6909 55.4439 20.4371 54.7119 20.0707C52.0812 20.1436 50.4623 19.9979 47.8316 20.0707C48.2546 20.524 48.2364 20.8235 48.544 21.4225C49.3 23.4122 49.5525 25.558 49.2789 27.6689C49.0053 29.7798 48.214 31.7903 46.9757 33.5216C46.7895 36.5367 47.0161 39.5822 47.0384 42.6075C47.0485 43.6496 47.1214 44.6412 46.1399 45.3333C45.2743 45.8522 44.3013 46.1658 43.2955 46.25C42.2898 46.3342 41.2781 46.1868 40.3383 45.8189C39.826 45.5249 39.3686 45.1442 38.9865 44.6938C38.6505 44.7307 38.3119 44.7374 37.9747 44.7141C37.4014 44.5537 36.9059 44.1906 36.5805 43.6921C36.3939 43.3512 36.2349 42.996 36.1049 42.6298C36.1049 41.2132 36.0523 40.6588 36.0523 39.2443C33.1349 39.7664 30.1413 39.6824 27.2578 38.9974L27.278 38.9711Z" fill="#CCCCCC"/>
<path d="M22.4391 47.994C21.6032 48.0065 20.7711 47.8806 19.9763 47.6217C19.5351 47.5032 19.1276 47.2835 18.7862 46.98C18.4447 46.6765 18.1788 46.2976 18.0094 45.8733C17.8619 45.6895 17.7896 45.4567 17.807 45.2217V45.1306C17.2927 45.0535 16.8008 44.8672 16.3645 44.5841C15.9282 44.301 15.5576 43.9278 15.2776 43.4895L15.229 43.4106V42.8844C15.2472 40.4925 15.2937 34.1364 13.1366 32.8434C12.7735 32.667 12.3693 32.5926 11.9672 32.6282C11.5652 32.6639 11.1804 32.8082 10.854 33.0457C9.79074 33.6382 8.99435 34.6148 8.62803 35.7756C8.29441 36.8131 8.13842 37.8995 8.16665 38.989C8.16673 39.8015 8.22421 40.613 8.33865 41.4173C8.42567 42.158 8.51471 42.9269 8.54101 43.7343C8.54101 43.8537 8.54101 43.9569 8.55518 44.05C8.60124 44.3299 8.5773 44.6168 8.48549 44.8851C8.39369 45.1535 8.23687 45.395 8.02904 45.588C7.86468 45.7821 7.65775 45.9356 7.42435 46.0367C7.19095 46.1378 6.93737 46.1837 6.68335 46.1707C6.16479 46.0991 5.66703 45.9194 5.22225 45.6434C4.77748 45.3673 4.39558 45.001 4.10125 44.5681C3.68623 43.934 3.46023 43.1949 3.44965 42.4372C2.7438 34.8173 3.43506 27.1325 5.48943 19.7608C6.24828 17.2212 6.58217 16.7254 9.08941 16.1325C11.7906 15.5381 14.5681 15.3694 17.3214 15.6327C17.9266 15.397 18.5178 15.1268 19.092 14.8233C21.5851 13.5767 24.9807 11.883 26.8444 14.1474C30.1477 13.4346 33.5595 13.3837 36.8825 13.9978C40.2055 14.6119 43.3738 15.8788 46.2041 17.7251C49.0057 17.9357 51.8171 17.9844 54.6243 17.8708C55.029 17.6219 55.458 17.3629 55.8506 17.1362L55.9639 17.0715C56.2673 16.8722 56.607 16.7347 56.9636 16.6668C57.8621 16.5271 58.3801 16.774 58.5359 17.3973C58.6657 18.0218 58.7099 18.661 58.6674 19.2974C58.6471 19.7396 58.478 20.1619 58.1874 20.4958C57.8968 20.8298 57.5019 21.0557 57.0668 21.1369H57.0142L56.9636 21.1227C56.7916 21.0782 56.6175 21.0377 56.4374 20.9972C55.806 20.8892 55.1947 20.6858 54.6243 20.3942C53.3434 20.4266 52.2871 20.4084 51.2672 20.3942C50.391 20.3801 49.4905 20.3639 48.4463 20.3801C48.511 20.5075 48.5576 20.631 48.6082 20.7564C48.6739 20.9333 48.7495 21.1062 48.8348 21.2745C49.6198 23.3076 49.89 25.5033 49.6214 27.6661C49.3527 29.8289 48.5535 31.8917 47.2949 33.671C47.1815 35.6258 47.2402 37.6312 47.2949 39.5718C47.3252 40.5654 47.3556 41.5954 47.3616 42.6072V42.7812C47.4591 43.301 47.414 43.8375 47.2313 44.3338C47.0485 44.8301 46.7348 45.2677 46.3235 45.6001C45.4145 46.1535 44.3895 46.4885 43.3291 46.5788C42.2686 46.669 41.2018 46.512 40.2123 46.1202C39.7766 45.9045 39.3886 45.6038 39.071 45.2358C39.0001 45.163 38.9293 45.0902 38.8565 45.0214C38.7573 45.0214 38.6541 45.0335 38.563 45.0436C38.3414 45.0785 38.1155 45.0744 37.8953 45.0315C37.2444 44.8514 36.6812 44.4407 36.3108 43.876C36.1684 43.6463 36.0523 43.4012 35.9648 43.1455C35.9182 43.022 35.8696 42.8966 35.811 42.765L35.7826 42.7023V42.6335C35.7826 41.9313 35.7705 41.4315 35.7563 40.9499C35.7462 40.5452 35.7361 40.1404 35.732 39.6163C33.0458 40.0582 30.3007 39.9951 27.6377 39.4302C27.7593 41.4074 27.7153 43.3914 27.5061 45.3613C27.4909 45.6989 27.3901 46.027 27.2131 46.3148C27.036 46.6026 26.7887 46.8406 26.4943 47.0065C25.2615 47.7085 23.8566 48.0506 22.4391 47.994ZM18.4546 45.3269H18.5274L18.5882 45.5576C18.7105 45.9153 18.9215 46.2361 19.2014 46.4901C19.4813 46.7442 19.821 46.9232 20.1888 47.0105C22.1532 47.6094 24.2734 47.4215 26.1018 46.4864C26.3265 46.3719 26.5158 46.1984 26.6495 45.9846C26.7832 45.7707 26.8562 45.5245 26.8606 45.2723C27.0721 43.2719 27.1093 41.2569 26.9719 39.2501L26.7999 39.2015L27.5082 37.7971L27.5911 38.734C30.3642 39.3473 33.231 39.4078 36.0275 38.9121L36.3938 38.8636V39.2319C36.3938 39.934 36.4059 40.4339 36.4201 40.9155C36.4342 41.3971 36.4443 41.8726 36.4464 42.5485C36.497 42.6679 36.5415 42.7833 36.586 42.8946C36.6575 43.1065 36.7518 43.3101 36.8673 43.5016C37.1507 43.9358 37.5822 44.2522 38.0814 44.392C38.2263 44.4137 38.3736 44.4137 38.5185 44.392C38.6824 44.3726 38.8473 44.3638 39.0123 44.3657H39.1337L39.2227 44.4487C39.332 44.5499 39.4413 44.6611 39.5506 44.7724C39.8103 45.0769 40.1264 45.3284 40.4814 45.5131C41.3704 45.8599 42.3268 45.9994 43.2778 45.9208C44.2288 45.8423 45.1494 45.5478 45.9694 45.0598C46.7546 44.5053 46.7444 43.7445 46.7323 42.7792V42.6032C46.7323 41.5914 46.6959 40.5796 46.6655 39.584C46.6068 37.5867 46.5461 35.5206 46.6655 33.495V33.3614L46.7667 33.2724C47.9596 31.5946 48.7202 29.6485 48.9811 27.6065C49.2419 25.5645 48.995 23.4896 48.2621 21.5659C48.1662 21.3773 48.0811 21.1834 48.0072 20.9851C47.9257 20.7246 47.7875 20.4855 47.6024 20.2849L47.1148 19.7608L47.8291 19.7406C49.1525 19.7042 50.2331 19.7224 51.2813 19.7406C52.3296 19.7588 53.396 19.777 54.7032 19.7406H54.7983L54.8793 19.7912C55.4068 20.0771 55.9776 20.2746 56.569 20.376C56.7349 20.4145 56.8988 20.4509 57.0587 20.4914C57.3248 20.4086 57.5591 20.2459 57.7296 20.0255C57.9001 19.805 57.9986 19.5374 58.0118 19.259C58.0504 18.685 58.0109 18.1084 57.8944 17.545C57.8661 17.4216 57.8115 17.1888 57.0526 17.3082C56.7751 17.3628 56.5111 17.4714 56.2756 17.628L56.1622 17.6927C55.7575 17.9234 55.2941 18.2047 54.8854 18.4597L54.8105 18.5062H54.7235C51.8373 18.6244 48.9466 18.5724 46.0665 18.3504H45.9815L45.9107 18.3018C43.1153 16.4689 39.9805 15.2155 36.6919 14.6159C33.4034 14.0163 30.0279 14.0827 26.7655 14.8111L26.5631 14.8475L26.4437 14.6857C24.9321 12.6216 21.7207 14.2263 19.3753 15.398C18.7544 15.7301 18.1122 16.0208 17.4529 16.2681L17.3882 16.2883H17.3214C14.6149 16.0213 11.8833 16.1825 9.22701 16.7659C6.95856 17.3001 6.7987 17.5754 6.09651 19.9511C4.06191 27.2461 3.37614 34.8513 4.07292 42.3927C4.07726 43.0259 4.25805 43.6454 4.595 44.1816C4.83322 44.5368 5.14153 44.8396 5.501 45.0713C5.86046 45.3031 6.2635 45.4589 6.68538 45.5293C6.8433 45.5384 7.00117 45.5104 7.14631 45.4475C7.29146 45.3846 7.41983 45.2886 7.52112 45.167C7.67333 45.0371 7.78782 44.8686 7.85261 44.6792C7.9174 44.4898 7.93011 44.2865 7.88941 44.0905C7.88941 43.9913 7.87727 43.8881 7.87525 43.7586C7.85299 42.9775 7.76395 42.2247 7.67289 41.4963C7.55453 40.6631 7.4957 39.8225 7.49684 38.9809C7.46724 37.8136 7.63906 36.6498 8.00476 35.5408C8.42551 34.2426 9.32197 33.1517 10.514 32.4872C10.9364 32.1905 11.4319 32.0148 11.9469 31.9791C12.4619 31.9434 12.9768 32.0492 13.4361 32.2849C15.9109 33.7681 15.8644 40.1566 15.8442 42.8844V43.2224C16.0757 43.5734 16.3826 43.8685 16.7424 44.0862C17.1022 44.3039 17.506 44.4388 17.9244 44.4811C17.9785 44.475 18.0333 44.48 18.0855 44.4956C18.1376 44.5113 18.1861 44.5373 18.228 44.5721C18.3012 44.6542 18.3569 44.7504 18.3917 44.8548C18.4265 44.9592 18.4396 45.0696 18.4303 45.1792C18.4485 45.2257 18.4506 45.2844 18.4546 45.3269Z" fill="#CCCCCC"/>
<path d="M26.0749 38.1625C26.2352 40.2743 26.204 42.3963 25.9818 44.5024C25.9725 44.7984 25.8855 45.0868 25.7295 45.3386C25.5736 45.5904 25.3543 45.7968 25.0934 45.9371C23.4118 47.1857 17.7761 47.4852 17.0739 44.8323C16.8149 44.8221 17.0213 43.9641 16.7744 43.9965C16.2815 43.956 15.805 43.8003 15.3832 43.542C14.9614 43.2837 14.6062 42.9299 14.3461 42.5092C14.3562 39.6073 14.676 29.1393 9.48951 31.9582C8.36247 32.5863 7.51724 33.6204 7.12595 34.8499C6.77649 35.9225 6.61225 37.0469 6.64029 38.1746C6.59982 39.6195 6.96002 41.1999 7.01263 42.9341C7.03286 43.7092 7.1563 43.9055 6.57958 44.5652C5.65075 45.6275 4.02985 44.7311 3.15363 43.5635C2.78308 42.9754 2.57952 42.2976 2.56477 41.6026C1.86789 34.0224 2.55355 26.3787 4.58836 19.0436C5.33102 16.5546 5.59004 16.1944 7.9536 15.6359C10.643 15.0443 13.4088 14.8804 16.1492 15.1502C18.276 14.4581 23.3228 10.7104 25.5002 13.6851C28.804 12.9516 32.2212 12.887 35.5504 13.4952C38.8795 14.1034 42.0532 15.3721 44.8842 17.2264C47.7517 17.4434 50.6292 17.4955 53.5027 17.3822C53.9074 17.1232 54.3809 16.846 54.7937 16.6072C55.0967 16.402 55.437 16.2583 55.7954 16.1843C56.2608 16.1114 56.8679 16.0912 57.0096 16.6699C57.1328 17.2638 57.1743 17.8718 57.133 18.477C57.1189 18.8418 56.9832 19.1914 56.7474 19.4701C56.5116 19.7489 56.1893 19.9406 55.8318 20.0149C55.024 19.8823 54.2408 19.6285 53.5087 19.2621C50.8781 19.335 49.2592 19.1893 46.6285 19.2621C47.0515 19.7154 47.0332 20.0149 47.3408 20.6139C48.0969 22.6036 48.3494 24.7494 48.0757 26.8603C47.8021 28.9712 47.0109 30.9817 45.7725 32.713C45.5864 35.7281 45.813 38.7736 45.8353 41.7989C45.8454 42.841 45.9182 43.8326 44.9368 44.5247C44.0712 45.0436 43.0981 45.3573 42.0924 45.4414C41.0867 45.5256 40.075 45.3782 39.1352 45.0103C38.6229 44.7163 38.1655 44.3356 37.7834 43.8852C37.4474 43.9221 37.1088 43.9288 36.7716 43.9055C36.1983 43.7452 35.7028 43.382 35.3773 42.8835C35.1908 42.5426 35.0318 42.1874 34.9018 41.8212C34.9018 40.4046 34.8492 39.8502 34.8492 38.4357C31.9318 38.9578 28.9381 38.8738 26.0546 38.1888L26.0749 38.1625Z" fill="#373435"/>
<path d="M21.2361 47.1824C20.4003 47.1948 19.5681 47.069 18.7734 46.8101C18.3321 46.6916 17.9246 46.4719 17.5832 46.1684C17.2418 45.8649 16.9758 45.486 16.8064 45.0617C16.6589 44.8779 16.5866 44.6451 16.6041 44.4101V44.319C16.0897 44.2419 15.5978 44.0556 15.1615 43.7725C14.7252 43.4894 14.3546 43.1162 14.0746 42.6779L14.026 42.599V42.0728C14.0442 39.6809 14.0908 33.3248 11.9336 32.0318C11.5705 31.8554 11.1663 31.781 10.7643 31.8166C10.3622 31.8523 9.97737 31.9966 9.651 32.2341C8.58775 32.8266 7.79136 33.8032 7.42504 34.9639C7.09142 36.0015 6.93544 37.0879 6.96366 38.1774C6.96372 38.9899 7.0212 39.8013 7.13567 40.6057C7.22268 41.3484 7.31172 42.1153 7.33803 42.9248C7.33803 43.0442 7.33803 43.1474 7.35219 43.2404C7.39825 43.5203 7.37432 43.8072 7.28251 44.0756C7.1907 44.3439 7.03389 44.5854 6.82606 44.7784C6.6618 44.9726 6.45488 45.1263 6.22146 45.2274C5.98803 45.3284 5.73441 45.3742 5.48037 45.3612C4.96181 45.2895 4.46405 45.1099 4.01927 44.8338C3.57449 44.5577 3.19259 44.1914 2.89826 43.7585C2.48335 43.1244 2.25735 42.3853 2.24667 41.6276C1.54057 34.007 2.23183 26.3215 4.28645 18.9492C5.0453 16.4096 5.37919 15.9138 7.88642 15.3209C10.5876 14.7264 13.3651 14.5577 16.1184 14.8211C16.7236 14.5854 17.3148 14.3152 17.889 14.0117C20.3821 12.7651 23.7777 11.0694 25.6414 13.3358C28.9448 12.6234 32.3567 12.5729 35.6797 13.1874C39.0027 13.8018 42.1709 15.069 45.0012 16.9155C47.7993 17.1272 50.6073 17.1772 53.4112 17.0653C53.8058 16.8204 54.247 16.5553 54.6375 16.3307L54.7508 16.2659C55.0542 16.0667 55.3939 15.9292 55.7505 15.8612C56.649 15.7216 57.167 15.9685 57.3228 16.5917C57.4526 17.2162 57.4969 17.8555 57.4543 18.4919C57.434 18.9341 57.2648 19.3564 56.9743 19.6903C56.6837 20.0242 56.2888 20.2501 55.8537 20.3313H55.8011L55.7505 20.3172C55.5785 20.2727 55.4044 20.2322 55.2243 20.1917C54.5976 20.081 53.9911 19.8763 53.4254 19.5846C52.1444 19.617 51.0881 19.5988 50.0682 19.5846C49.192 19.5705 48.2915 19.5543 47.2473 19.5705C47.3121 19.698 47.3586 19.8214 47.4092 19.9469C47.4749 20.1237 47.5506 20.2966 47.6359 20.4649C48.4207 22.4981 48.6908 24.6937 48.4222 26.8565C48.1535 29.0193 47.3544 31.0821 46.0959 32.8614C45.9826 34.8162 46.0413 36.8216 46.0959 38.7602C46.1242 39.7558 46.1546 40.7838 46.1627 41.7956V41.9696C46.2604 42.4893 46.2157 43.0256 46.0333 43.5219C45.8509 44.0182 45.5376 44.4558 45.1266 44.7885C44.2176 45.3419 43.1926 45.6769 42.1321 45.7672C41.0717 45.8574 40.0048 45.7004 39.0154 45.3086C38.5797 45.0929 38.1917 44.7922 37.8741 44.4242C37.8032 44.3514 37.7324 44.2785 37.6596 44.2097C37.5604 44.2097 37.4572 44.2219 37.3661 44.232C37.1445 44.267 36.9185 44.2628 36.6983 44.2199C36.0475 44.0398 35.4843 43.6291 35.1139 43.0644C34.9713 42.8347 34.8552 42.5897 34.7678 42.3339C34.7213 42.2104 34.6727 42.085 34.614 41.9534L34.5857 41.8907V41.8219C34.5857 41.1197 34.5736 40.6199 34.5594 40.1383C34.5493 39.7336 34.5372 39.3288 34.5351 38.8047C31.8489 39.2466 29.1038 39.1834 26.4408 38.6186C26.5573 40.5942 26.5085 42.5761 26.2951 44.5436C26.2798 44.8812 26.179 45.2093 26.002 45.4971C25.825 45.7849 25.5776 46.023 25.2833 46.1888C24.0534 46.8914 22.6514 47.2356 21.2361 47.1824ZM17.2516 44.5153H17.3245L17.3852 44.746C17.5076 45.1036 17.7186 45.4245 17.9984 45.6785C18.2783 45.9326 18.618 46.1116 18.9858 46.1989C20.9502 46.798 23.0704 46.6101 24.8988 45.6748C25.1235 45.5603 25.3128 45.3868 25.4465 45.1729C25.5802 44.9591 25.6532 44.7129 25.6576 44.4607C25.8691 42.4603 25.9063 40.4453 25.7689 38.4385L25.5969 38.3899L26.2951 36.9956L26.378 37.9326C29.1511 38.5457 32.0179 38.6062 34.8144 38.1106L35.1807 38.0621V38.4304C35.1807 39.1326 35.1928 39.6324 35.207 40.114C35.2211 40.5956 35.2312 41.0712 35.2333 41.747C35.2839 41.8664 35.3284 41.9818 35.3729 42.0951C35.4442 42.3071 35.5385 42.5107 35.6542 42.7022C35.9376 43.1363 36.3691 43.4527 36.8683 43.5926C37.0132 43.6145 37.1606 43.6145 37.3054 43.5926C37.4693 43.5731 37.6342 43.5643 37.7992 43.5662H37.9206L38.0096 43.6492C38.1189 43.7504 38.2282 43.8516 38.3375 43.973C38.5973 44.2774 38.9133 44.5288 39.2683 44.7136C40.1573 45.0604 41.1137 45.1999 42.0647 45.1213C43.0157 45.0428 43.9363 44.7483 44.7563 44.2603C45.5415 43.7059 45.5313 42.945 45.5192 41.9797V41.8037C45.5192 40.7919 45.4828 39.7801 45.4524 38.7825C45.3937 36.7852 45.333 34.7211 45.4524 32.6955V32.5619L45.5536 32.4729C46.7464 30.7951 47.5069 28.849 47.7677 26.807C48.0286 24.765 47.7817 22.6902 47.049 20.7664C46.9531 20.5778 46.868 20.3839 46.7941 20.1856C46.7126 19.9252 46.5744 19.686 46.3893 19.4855L45.9017 18.9614L46.616 18.9411C47.9394 18.9047 49.02 18.9229 50.0682 18.9411C51.1165 18.9593 52.1829 18.9776 53.4901 18.9411H53.5852L53.6662 18.9917C54.1937 19.2776 54.7645 19.4751 55.3559 19.5765C55.5218 19.615 55.6857 19.6514 55.8456 19.6919C56.1117 19.6091 56.346 19.4465 56.5165 19.226C56.687 19.0055 56.7855 18.7379 56.7987 18.4595C56.8373 17.8855 56.7978 17.3089 56.6813 16.7455C56.653 16.6221 56.5984 16.3914 55.8395 16.5088C55.562 16.5633 55.298 16.6719 55.0625 16.8285L54.9471 16.8933C54.5424 17.126 54.0749 17.4073 53.6702 17.6602L53.6136 17.7007H53.5266C50.6404 17.8187 47.7497 17.7667 44.8696 17.5449H44.7846L44.7098 17.4922C41.9143 15.6593 38.7795 14.4059 35.491 13.8063C32.2024 13.2067 28.827 13.2731 25.5645 14.0015L25.3622 14.038L25.2428 13.8761C23.7312 11.812 20.5197 13.4167 18.1744 14.5884C17.5535 14.9205 16.9113 15.2112 16.252 15.4585L16.1872 15.4788H16.1204C13.414 15.2116 10.6823 15.3728 8.02605 15.9563C5.7576 16.4906 5.59774 16.7658 4.89555 19.1415C2.86095 26.4365 2.17518 34.0418 2.87196 41.5831C2.87629 42.2164 3.05709 42.8358 3.39404 43.372C3.63226 43.7272 3.94057 44.03 4.30003 44.2617C4.6595 44.4935 5.06254 44.6493 5.48442 44.7197C5.64247 44.73 5.80071 44.7025 5.94604 44.6395C6.09137 44.5765 6.21961 44.4799 6.32016 44.3575C6.47237 44.2275 6.58686 44.059 6.65165 43.8696C6.71644 43.6802 6.72915 43.4769 6.68845 43.2809C6.68845 43.1818 6.67631 43.0786 6.67429 42.949C6.65203 42.1679 6.56299 41.4152 6.47193 40.6867C6.3535 39.8535 6.29466 39.0129 6.29588 38.1713C6.26628 37.004 6.4381 35.8402 6.8038 34.7312C7.22455 33.433 8.121 32.3421 9.31305 31.6776C9.73546 31.3809 10.2309 31.2052 10.7459 31.1695C11.2609 31.1339 11.7758 31.2396 12.2351 31.4753C14.71 32.9586 14.6634 39.3471 14.6432 42.0749V42.4128C14.8777 42.7648 15.1881 43.0599 15.5516 43.2763C15.9151 43.4927 16.3224 43.625 16.7437 43.6634C16.7978 43.6574 16.8526 43.6623 16.9047 43.678C16.9569 43.6936 17.0054 43.7196 17.0472 43.7544C17.1204 43.8366 17.1762 43.9328 17.2109 44.0371C17.2457 44.1415 17.2589 44.2519 17.2496 44.3615C17.2455 44.4141 17.2476 44.4728 17.2516 44.5153Z" fill="#373435"/>
<path d="M35.5469 38.0934C36.1962 38.0308 36.8376 37.9026 37.4612 37.7109C37.7744 39.5476 37.8675 41.4151 37.7384 43.2738C37.2659 43.3036 36.7952 43.1919 36.3865 42.9529C35.9777 42.7139 35.6495 42.3585 35.4437 41.9322C35.3392 40.6526 35.3738 39.3655 35.5469 38.0934Z" fill="#6978AB"/>
<path d="M37.6715 43.5964C37.1508 43.6141 36.6362 43.4803 36.1901 43.2113C35.7439 42.9422 35.3855 42.5495 35.1582 42.0807L35.1278 42.0241V41.9593C35.0221 40.6561 35.0574 39.3453 35.2331 38.0497L35.2654 37.7988L35.5164 37.7705C36.1442 37.7094 36.7645 37.586 37.368 37.4022L37.6998 37.2949L37.7808 37.6349C38.0852 39.2919 38.1851 40.9801 38.0782 42.6615L38.062 43.5903H37.7504L37.6715 43.5964ZM35.7612 41.8359C35.9193 42.1475 36.1555 42.4129 36.4466 42.6061C36.7378 42.7994 37.074 42.914 37.4226 42.9387V42.6473C37.5096 41.1348 37.4418 39.6173 37.2202 38.1185C36.7661 38.2379 36.3043 38.3258 35.8381 38.3816C35.6969 39.5302 35.6704 40.6901 35.7592 41.844L35.7612 41.8359Z" fill="#373435"/>
<path d="M6.16463 43.6304C5.70932 40.6476 5.24592 35.3843 7.37879 32.875C7.54758 32.6476 7.73004 32.4307 7.92516 32.2255C11.2904 29.0565 14.2226 31.7823 15.0179 35.2912C15.1864 37.5097 15.2209 39.7363 15.1211 41.9589C15.3199 42.3456 15.6267 42.6661 16.0042 42.8817C16.3818 43.0972 16.8138 43.1985 17.2479 43.1731C17.5575 43.8125 17.4745 44.2881 17.8266 44.711C18.4949 45.4612 19.3715 45.9954 20.3445 46.2455C21.3176 46.4956 22.3431 46.4503 23.2903 46.1154C23.9241 45.8467 24.5411 45.5399 25.1378 45.1967C25.621 42.4823 25.5522 39.6984 24.9355 37.0112C24.9355 36.6389 24.812 36.392 24.812 36.0197C25.0436 36.0529 25.2614 36.1495 25.4414 36.2989C25.0367 37.7843 30.6137 38.8062 37.1195 37.0112C37.1924 36.7522 37.0669 36.4325 37.2227 36.3394C37.3234 36.2764 37.4366 36.2363 37.5545 36.222C37.6723 36.2077 37.7919 36.2194 37.9047 36.2564C37.935 36.732 37.9452 37.1954 37.9775 37.673C38.4821 37.7205 38.9896 37.7273 39.4952 37.6932C39.1633 37.9917 38.727 38.1473 38.2811 38.1262C38.3944 38.1262 38.2184 38.3428 38.3216 38.363C38.621 38.4359 39.1897 38.3225 39.4264 38.4257C38.9833 38.6848 38.4875 38.5391 38.188 38.8305C38.2608 40.4089 38.3013 42.1026 38.3641 43.6871C39.3399 44.4278 40.5443 44.8034 41.7683 44.7487C42.9922 44.694 44.1583 44.2124 45.0642 43.3876C45.2575 40.2171 45.1898 37.0361 44.8618 33.8767C44.625 33.8463 44.3863 33.8039 44.1495 33.7735C47.8466 28.7995 48.5589 23.7102 45.4608 19.1166C45.4304 18.9143 45.2949 18.7119 45.2584 18.5095C47.9539 18.4063 50.7221 18.6856 53.4257 18.5824C54.1555 18.8587 54.9086 19.0693 55.6759 19.2117C56.4712 18.9325 56.6148 16.7247 55.8317 16.9716C55.0486 17.2185 54.6176 17.7143 53.7778 18.0239C50.6796 18.0239 47.2416 17.9004 44.1455 17.9004C41.6179 15.8894 38.6243 14.5476 35.4412 13.9991C32.2581 13.4505 28.9881 13.7129 25.9331 14.7618C26.874 16.7879 27.4049 18.98 27.4952 21.2121C27.5855 23.4442 27.2334 25.672 26.4593 27.7675C26.2832 28.3462 23.61 30.0379 25.7975 28.1904C28.0073 26.3125 26.6232 13.2664 23.9075 13.2441C20.7119 13.2773 17.6442 14.5044 15.3072 16.6842C14.8843 16.231 14.9147 16.4151 15.1049 15.7757C12.7936 15.5766 10.4653 15.7821 8.22465 16.3827C7.64392 16.4013 7.08227 16.5944 6.61298 16.937C6.1437 17.2796 5.78858 17.7557 5.59398 18.3031C3.55183 25.6012 2.73131 33.1869 3.16567 40.7529C3.27199 41.6601 3.51203 42.5466 3.87797 43.3835C5.09213 44.7151 5.74777 44.3326 6.15047 43.6304H6.16463Z" fill="url(#paint0_linear_1679_98)"/>
<path d="M11.0099 18.8198C10.3291 18.5422 9.58978 18.4385 8.85884 18.5183C8.79179 18.511 8.72427 18.5272 8.66781 18.5641C8.61135 18.601 8.56944 18.6563 8.54923 18.7207C8.52205 18.7673 8.50446 18.8189 8.49751 18.8724C8.49056 18.9259 8.49438 18.9803 8.50876 19.0323C8.57149 19.2083 8.58161 19.1982 8.7354 19.2346C8.93908 19.265 9.14706 19.247 9.34248 19.182C9.5735 19.0603 9.82838 18.9907 10.0892 18.9781C10.35 18.9656 10.6104 19.0103 10.8521 19.1092C11.0787 19.0991 11.101 19.006 11.0281 18.8279L11.0099 18.8198Z" fill="#373435"/>
<path d="M8.90537 19.566C8.82514 19.5663 8.74511 19.5582 8.66658 19.5417H8.64028C8.53316 19.5308 8.43246 19.4855 8.35329 19.4125C8.27412 19.3396 8.22074 19.2429 8.20116 19.137C8.17266 19.0419 8.16353 18.942 8.17431 18.8433C8.18508 18.7446 8.21554 18.6491 8.26389 18.5623C8.31083 18.4505 8.39084 18.3556 8.49319 18.2905C8.59555 18.2254 8.71536 18.1932 8.83657 18.1981C9.592 18.1182 10.3556 18.2216 11.0625 18.4996H11.2285L11.3114 18.702C11.3579 18.7783 11.3821 18.8661 11.3814 18.9554C11.3806 19.0448 11.3549 19.1322 11.3072 19.2077C11.2594 19.2833 11.1915 19.344 11.1111 19.3829C11.0307 19.4219 10.941 19.4377 10.8521 19.4284H10.8035L10.7489 19.4122C10.5496 19.3259 10.3336 19.2852 10.1165 19.2929C9.89949 19.3006 9.68691 19.3566 9.49423 19.4568L9.45781 19.479L9.41734 19.4891C9.25073 19.5368 9.07863 19.5627 8.90537 19.566ZM8.81633 18.9124C8.95259 18.9265 9.09027 18.9127 9.22105 18.8719L9.33032 18.8173C9.18867 18.8173 9.045 18.8173 8.8993 18.8396H8.84668L8.83454 18.8638C8.82573 18.8789 8.81957 18.8953 8.81633 18.9124Z" fill="#373435"/>
<path d="M9.34164 21.3798C9.43412 21.1874 9.58006 21.0257 9.76201 20.9141C9.94395 20.8025 10.1542 20.7457 10.3676 20.7504C10.4081 20.4914 10.3676 20.3457 10.0357 20.3457C9.56441 20.5846 9.16184 20.9398 8.86609 21.3777C8.69629 21.7584 8.6421 22.1806 8.71027 22.5919C8.74729 22.873 8.89249 23.1285 9.11499 23.3042C9.34539 23.4484 9.614 23.5196 9.88558 23.5084C10.1572 23.4972 10.419 23.4042 10.6367 23.2415C11.3612 22.8185 12.0856 21.6105 10.8128 21.1551C10.5577 21.1054 10.2953 21.1071 10.0409 21.1603C9.78649 21.2135 9.5453 21.317 9.33152 21.4648C9.31128 21.4749 9.30116 21.4344 9.33152 21.3818L9.34164 21.3798Z" fill="#373435"/>
<path d="M9.73455 23.8472C9.43385 23.8531 9.14096 23.7512 8.90892 23.5599C8.62261 23.3298 8.43687 22.9975 8.39088 22.6331C8.30845 22.1513 8.37923 21.6559 8.59324 21.2165C8.91706 20.7305 9.35928 20.335 9.87822 20.0671L9.94905 20.0246H10.0259C10.1252 20.0151 10.2254 20.0273 10.3194 20.0605C10.4134 20.0937 10.4991 20.1471 10.5703 20.2169C10.6315 20.2998 10.6737 20.3952 10.694 20.4963C10.7142 20.5973 10.7121 20.7016 10.6877 20.8017C10.9625 20.8432 11.2183 20.9666 11.4219 21.1558C11.6255 21.3449 11.7674 21.5911 11.829 21.8621C11.8173 22.2051 11.7163 22.5392 11.536 22.8312C11.3557 23.1233 11.1024 23.3633 10.801 23.5275C10.4796 23.7255 10.1119 23.8357 9.73455 23.8472ZM9.08093 21.6901C9.00605 21.9752 8.98953 22.2726 9.03236 22.5643C9.06073 22.7635 9.16607 22.9437 9.32578 23.0661C9.71634 23.3919 10.3497 23.0438 10.4732 22.971C10.6679 22.867 10.8344 22.7172 10.9585 22.5346C11.0825 22.3521 11.1604 22.1421 11.1855 21.9228C11.1673 21.7204 11.0054 21.5747 10.7059 21.4675C10.2849 21.4039 9.85556 21.5039 9.50588 21.7467L9.47958 21.7609L9.26305 21.8702L9.08498 21.6901H9.08093Z" fill="#373435"/>
<path d="M9.90398 22.7835C9.90819 22.8573 9.92249 22.9301 9.94647 23C9.95686 23.0326 9.97112 23.0639 9.98897 23.0931C9.92991 23.1323 9.86217 23.1565 9.79163 23.1635C9.72109 23.1706 9.6499 23.1603 9.58425 23.1336C9.13704 22.9312 9.16941 22.3039 9.39808 21.9639C9.51788 21.7886 9.67713 21.6438 9.86304 21.5412C10.049 21.4386 10.2564 21.381 10.4686 21.373C10.7073 21.4965 10.7802 21.6118 10.6547 21.6422C10.5838 21.6556 10.5155 21.6802 10.4524 21.715C10.4043 21.7366 10.3614 21.7681 10.3265 21.8075C10.2916 21.847 10.2655 21.8934 10.25 21.9437C10.3532 21.9741 10.4058 21.9437 10.4989 21.9842V22.3059C10.3995 22.256 10.2859 22.2417 10.1772 22.2655C9.9748 22.3282 9.89588 22.6176 9.89588 22.7936L9.90398 22.7835Z" fill="#FEFEFE"/>
<path d="M10.7598 31.0364C11.333 30.9136 11.8762 30.6782 12.3579 30.3439C12.8395 30.0096 13.25 29.5831 13.5657 29.0891C13.8813 28.595 14.0958 28.0432 14.1967 27.4657C14.2975 26.8881 14.2828 26.2963 14.1533 25.7245C13.7911 25.717 13.4361 25.6211 13.1193 25.4453C13.099 25.3117 13.0889 25.1761 13.0667 25.0405C13.9044 25.4453 15.0903 25.5667 14.9365 24.2857C15.0498 24.2554 15.2258 24.2453 15.3412 24.2129C15.3007 25.1114 15.1388 25.1943 14.5864 25.5768C14.7453 26.5564 14.6624 27.5599 14.345 28.5002C14.0276 29.4404 13.4852 30.2888 12.7651 30.9717C12.7223 31.2528 12.7473 31.54 12.838 31.8095C12.5731 31.5327 12.248 31.3207 11.888 31.1898C11.5279 31.0589 11.1426 31.0126 10.7618 31.0547L10.7598 31.0364Z" fill="#373435"/>
<path d="M13.4081 32.9217L12.5987 32.0273C12.3637 31.7853 12.076 31.6009 11.7579 31.4886C11.4399 31.3763 11.1002 31.339 10.7653 31.3797H10.4375V30.8131L10.6662 30.722C11.7081 30.5084 12.6257 29.8971 13.2241 29.0179C13.8226 28.1386 14.0549 27.0608 13.8715 26.0131C13.5434 25.9887 13.2258 25.8867 12.9447 25.7157L12.8193 25.6367L12.797 25.4931C12.7869 25.4222 12.7768 25.3514 12.7687 25.2806C12.7606 25.2098 12.7545 25.1551 12.7444 25.0904L12.6513 24.4833L13.2038 24.7504C13.3893 24.8696 13.5991 24.946 13.8179 24.974C14.0366 25.002 14.2589 24.9809 14.4685 24.9123C14.598 24.8212 14.6466 24.6229 14.6122 24.3234L14.5818 24.0482L14.8489 23.9754C14.9282 23.9557 15.0086 23.9408 15.0897 23.9309C15.1442 23.9245 15.1982 23.915 15.2516 23.9025L15.6806 23.7852L15.6604 24.2283C15.6179 25.1511 15.4155 25.3838 14.9299 25.7298C15.0563 26.7135 14.9531 27.7131 14.6284 28.6502C14.3036 29.5873 13.7661 30.4363 13.0581 31.1308C13.0585 31.3032 13.0823 31.4748 13.1289 31.6407L13.4081 32.9217ZM11.9916 30.8819C12.1387 30.929 12.281 30.9899 12.4166 31.064C12.4227 30.9951 12.4369 30.9272 12.4591 30.8617L12.4813 30.7969L12.5279 30.7463C12.7006 30.5615 12.8604 30.376 13.0075 30.1898C12.6966 30.4588 12.3557 30.691 11.9916 30.8819Z" fill="#373435"/>
<path d="M42.801 44.7031C42.7504 43.9402 42.6573 43.2704 42.6351 42.5055C42.5845 40.753 41.2529 40.3706 41.1801 42.123C41.1396 43.0417 41.1801 43.9078 41.1801 44.7739C41.7203 44.8478 42.2693 44.8238 42.801 44.7031Z" fill="#8093D0"/>
<path d="M41.955 44.92C41.7527 44.92 41.5625 44.9078 41.3702 44.8957L41.0667 44.8795V44.7783C41.0667 44.491 41.0667 44.2056 41.0667 43.9183C41.0667 43.3395 41.0485 42.7405 41.0667 42.1233C41.1051 41.2067 41.4714 40.8809 41.7972 40.8809C42.2282 40.8809 42.7018 41.4535 42.7341 42.4997C42.7463 42.9672 42.7867 43.3942 42.8272 43.8454C42.8535 44.1206 42.8778 44.3999 42.898 44.6913V44.7783L42.8151 44.8026C42.5354 44.8821 42.2458 44.9216 41.955 44.92ZM41.2893 44.6771H41.3864C41.8205 44.7282 42.2599 44.7084 42.6876 44.6184C42.6694 44.3594 42.6451 44.1105 42.6228 43.8657C42.5803 43.4104 42.5419 42.9814 42.5277 42.5058C42.5014 41.6336 42.123 41.0893 41.8053 41.0893C41.5868 41.0893 41.3217 41.3605 41.2893 42.1254C41.261 42.7324 41.2711 43.3395 41.2893 43.9082C41.2852 44.1672 41.2893 44.4201 41.2893 44.6771Z" fill="#373435"/>
<path d="M41.2061 44.7929C41.0592 43.9127 41.0042 43.0195 41.0422 42.1279C41.1555 40.509 39.6257 38.8031 39.5225 41.8081C39.485 42.6864 39.5195 43.5662 39.6257 44.4388C40.1425 44.5976 40.6709 44.716 41.2061 44.7929Z" fill="#8093D0"/>
<path d="M41.3277 44.9222L41.188 44.8999C40.6467 44.824 40.1121 44.7056 39.5894 44.5458L39.5246 44.5235V44.4567C39.4175 43.5774 39.383 42.6908 39.4214 41.8058C39.4538 40.8365 39.6238 40.2618 39.9536 40.0959C40.0289 40.0583 40.1133 40.0427 40.1971 40.051C40.2809 40.0592 40.3606 40.0909 40.4272 40.1424C40.6919 40.3977 40.8952 40.7097 41.0218 41.055C41.1483 41.4003 41.1948 41.7698 41.1577 42.1357C41.112 42.9172 41.1493 43.7013 41.269 44.475L41.3277 44.9222ZM39.7209 44.3616C40.166 44.4939 40.6197 44.5953 41.0788 44.6652L41.0585 44.4972C40.9334 43.7119 40.8907 42.9157 40.931 42.1215C40.9653 41.7935 40.9263 41.4619 40.8168 41.1508C40.7072 40.8396 40.5299 40.5567 40.2976 40.3225C40.263 40.293 40.2206 40.2738 40.1754 40.2674C40.1303 40.2609 40.0843 40.2674 40.0427 40.2861C39.9314 40.3428 39.6683 40.6079 39.6258 41.8119C39.5895 42.663 39.6213 43.5156 39.7209 44.3616Z" fill="#373435"/>
<path d="M39.6278 44.5761L39.4113 41.136C39.2555 38.5681 38.2235 38.8676 38.1405 40.9822C38.1 41.9819 38.181 42.5283 38.0879 43.5299C38.5736 43.8598 39.0795 44.5094 39.6278 44.562V44.5761Z" fill="#8093D0"/>
<path d="M39.6157 44.6769C39.1828 44.5712 38.7915 44.3378 38.4927 44.0071C38.3452 43.8712 38.1898 43.7442 38.0272 43.6267L37.9746 43.5903V43.5275C38.0169 43.0431 38.0311 42.5566 38.0171 42.0706C38.0171 41.7427 38.0171 41.4048 38.0171 40.9859C38.0596 39.9073 38.3449 39.2072 38.7436 39.2031C39.1483 39.2031 39.4275 39.9255 39.5004 41.1377L39.7169 44.5778H39.6077L39.6157 44.6769ZM38.1992 43.485C38.3449 43.5903 38.4906 43.7198 38.6343 43.8452C38.8819 44.1008 39.1795 44.3027 39.5085 44.4382L39.3061 41.1518C39.2292 39.879 38.9399 39.4196 38.7638 39.4196C38.5817 39.4196 38.2923 39.9235 38.2518 40.996C38.2336 41.4007 38.2397 41.7468 38.2518 42.0706C38.2598 42.5413 38.2422 43.0121 38.1992 43.481V43.485Z" fill="#373435"/>
<path d="M21.9747 46.3529C22.0022 45.5475 21.9609 44.7412 21.8513 43.9428C21.4182 42.0811 20.8719 41.8524 20.2324 43.2285V46.3205C20.8108 46.3996 21.3967 46.4064 21.9768 46.3407L21.9747 46.3529Z" fill="#8093D0"/>
<path d="M21.3212 46.4983C20.9853 46.4983 20.6494 46.4679 20.3195 46.4376L20.1172 46.4194V43.1816C20.4268 42.5159 20.7243 42.2062 21.0238 42.2386C21.3921 42.2771 21.6834 42.8093 21.9404 43.9162L21.9607 44.0922C22.0604 44.842 22.0963 45.5988 22.0679 46.3546H21.9627L21.9769 46.4477C21.76 46.4817 21.5408 46.4986 21.3212 46.4983ZM20.3378 46.2231C20.8459 46.2882 21.3596 46.2971 21.8696 46.2494C21.8898 45.5373 21.8532 44.8248 21.7603 44.1185L21.7421 43.9546C21.4467 42.6858 21.1593 42.4693 21.0157 42.4551C20.9044 42.4551 20.6757 42.5341 20.3378 43.2545V46.2231Z" fill="#373435"/>
<path d="M18.8071 45.8434C18.8172 44.6575 18.8273 43.8724 18.8273 42.6866C19.2603 40.9422 19.7035 41.1183 20.1366 43.2127C20.1467 44.3378 20.1568 45.0703 20.1568 46.1934C19.6831 46.1749 19.2188 46.0556 18.7949 45.8434H18.8071Z" fill="#8093D0"/>
<path d="M20.2588 46.3145L20.0766 46.2942C19.609 46.2716 19.1517 46.1495 18.735 45.936L18.3809 45.7337H18.6925V45.1266C18.6925 44.2969 18.7067 43.6109 18.7067 42.676V42.6497C18.9252 41.7715 19.1397 41.3789 19.4048 41.3789C19.6072 41.3789 19.8925 41.5914 20.2142 43.1799V43.8801C20.2142 44.6592 20.2284 45.2966 20.2284 46.1849L20.2588 46.3145ZM18.909 45.7843C19.2655 45.952 19.6509 46.0496 20.0443 46.0716C20.0443 45.25 20.0443 44.6328 20.0301 43.8902V43.2123C19.7124 41.6885 19.4696 41.6055 19.423 41.6055C19.3765 41.6055 19.2024 41.6298 18.9353 42.6983C18.9353 43.6271 18.9353 44.3172 18.9212 45.1387L18.909 45.7843Z" fill="#373435"/>
<path d="M17.1882 43.5088C17.2509 42.5172 17.4573 41.5155 17.5181 40.524C17.1133 38.5611 16.6722 38.211 16.2088 39.4919C16.1886 40.7627 16.1784 42.0437 16.1582 43.3145C16.4644 43.5098 16.833 43.5821 17.1902 43.5169L17.1882 43.5088Z" fill="#8093D0"/>
<path d="M16.9308 43.6642C16.6837 43.6515 16.4428 43.5823 16.2266 43.4619L16.0566 43.385V43.3142C16.0674 42.6788 16.0762 42.042 16.0829 41.4039C16.0897 40.7658 16.0985 40.1284 16.1093 39.4916V39.4572C16.3116 38.8764 16.5261 38.6154 16.7689 38.6316C17.0118 38.6478 17.2931 38.8764 17.6269 40.5054V40.5337C17.5966 41.0336 17.5278 41.5455 17.461 42.0332C17.3942 42.5209 17.3275 43.0248 17.2971 43.5145V43.6076L17.2121 43.6258C17.1199 43.6483 17.0257 43.6612 16.9308 43.6642ZM16.2752 43.2595L16.3157 43.2777C16.5499 43.4176 16.8238 43.476 17.0947 43.4437C17.1271 42.9681 17.1919 42.4845 17.2566 42.017C17.3214 41.5496 17.3882 41.0336 17.4205 40.5459C17.1028 39.0019 16.8357 38.8643 16.7609 38.8582C16.7204 38.8582 16.5585 38.8926 16.3258 39.526C16.315 40.1547 16.3062 40.7853 16.2995 41.4181C16.2927 42.0508 16.2846 42.6592 16.2752 43.2433V43.2595Z" fill="#373435"/>
<path d="M36.4565 43.1964C36.5395 42.1421 36.4261 41.2639 36.4565 40.2319C36.4868 38.9813 37.7233 39.3435 37.7759 40.4909C37.8285 41.6383 37.8892 42.2271 37.9519 43.3725C37.4508 43.4573 36.9359 43.3962 36.4686 43.1964H36.4565Z" fill="#8093D0"/>
<path d="M37.3494 43.5005C37.0329 43.5116 36.7189 43.4419 36.4368 43.2981H36.3477V43.1828C36.3839 42.6196 36.3879 42.0547 36.3599 41.4911C36.3477 41.0863 36.3336 40.6675 36.3477 40.2243C36.3639 39.5727 36.6857 39.338 36.9811 39.3359C37.3858 39.3359 37.8452 39.771 37.8755 40.4813C37.9059 41.0661 37.9362 41.4931 37.9646 41.9403C37.9929 42.3875 38.0212 42.7963 38.0516 43.3568V43.4661L37.7379 43.4782C37.6104 43.4944 37.4789 43.5005 37.3494 43.5005ZM36.5663 43.1282C36.9366 43.2813 37.3414 43.3316 37.7379 43.2739H37.8351C37.8067 42.7619 37.7804 42.3612 37.7541 41.9626C37.7258 41.5234 37.6975 41.0863 37.6651 40.4995C37.6327 39.9127 37.2948 39.5585 36.9851 39.5585C36.7322 39.5585 36.5804 39.8155 36.5642 40.2385C36.5481 40.6614 36.5642 41.0904 36.5764 41.4931C36.6013 42.0379 36.598 42.5837 36.5663 43.1282Z" fill="#373435"/>
<path d="M36.3901 43.2351C36.3597 42.4621 36.3698 41.5333 36.3395 40.7603C36.4123 39.6979 35.6798 38.1296 35.3924 39.8739C35.3012 40.5199 35.2465 41.1705 35.2285 41.8227C35.562 42.3352 35.9516 42.8089 36.3901 43.2351Z" fill="#B9C5EA"/>
<path d="M36.5074 43.4522L36.3273 43.3227C35.9712 43.0087 35.66 42.6471 35.4025 42.2482C35.3054 42.1126 35.2163 41.9892 35.1435 41.8961L35.1172 41.8637V41.8232C35.1314 41.6209 35.1415 41.4185 35.1496 41.2566C35.1648 40.7902 35.2094 40.3252 35.2831 39.8644C35.3195 39.6378 35.4329 38.9497 35.7951 38.9943C36.1998 39.0428 36.4892 40.1234 36.4447 40.775C36.4609 41.1514 36.4649 41.5845 36.471 42.0033C36.477 42.4222 36.4811 42.8532 36.4973 43.2377L36.5074 43.4522ZM35.3378 41.7888C35.4086 41.8799 35.4895 41.9912 35.5786 42.1167C35.7882 42.4264 36.0216 42.7193 36.2767 42.9929C36.2767 42.6731 36.2625 42.3312 36.2585 41.9993C36.2585 41.5824 36.2484 41.1494 36.2322 40.7649C36.2828 40.0121 35.9489 39.2209 35.7728 39.2007C35.7344 39.1885 35.5948 39.3099 35.4976 39.8907C35.4251 40.3435 35.3812 40.8004 35.3661 41.2587C35.358 41.4205 35.3499 41.5925 35.3378 41.7868V41.7888Z" fill="#373435"/>
<path d="M27.1931 29.0121C27.7192 26.5029 28.2352 23.9936 28.7614 21.4743C28.8443 20.8854 28.9981 20.3593 29.6173 20.3066H30.3701C30.8234 20.3066 31.0824 20.5758 31.1229 21.1161L30.9691 22.2311C30.9893 22.6864 31.2686 22.9434 31.8251 22.9859C32.5779 23.0162 33.3428 23.0587 34.0956 23.0891C35.2308 23.1619 35.9937 23.6476 35.9168 25.0621C35.68 26.3106 35.4412 27.5612 35.2045 28.7997C35.1916 29.0884 35.0936 29.3669 34.923 29.6002C34.7523 29.8335 34.5166 30.0112 34.2453 30.111C33.9053 30.0907 33.5229 30.1312 33.1829 30.111C32.594 30.1413 32.2541 29.9248 32.4706 29.1497C32.6871 28.1683 32.9563 26.94 33.1829 25.9585C33.2659 24.7909 32.8328 24.7302 32.3735 24.6472C31.9809 24.5946 31.6005 24.6472 31.2079 24.5946C30.6291 24.6776 30.4126 25.2341 30.2487 25.8553C30.0018 26.8975 29.7428 27.9417 29.4959 28.9939C29.3826 29.5626 29.2592 29.9329 28.8362 30.1089H27.5776C27.1027 30.0051 26.9678 29.6334 27.1728 28.9939L27.1931 29.0121Z" fill="#373435"/>
<path d="M33.3974 30.3282C33.3225 30.3282 33.2497 30.3282 33.1768 30.3282C33.0249 30.3539 32.8689 30.342 32.7226 30.2937C32.5763 30.2454 32.4439 30.1621 32.3371 30.051C32.2475 29.9097 32.1935 29.7489 32.1797 29.5821C32.166 29.4154 32.1929 29.2479 32.2581 29.0938L32.3816 28.5313C32.5698 27.6773 32.7863 26.7242 32.9644 25.9289C33.0271 24.988 32.7742 24.9414 32.3573 24.8645C31.9809 24.8139 31.6187 24.8645 31.214 24.816C30.8092 24.8888 30.6251 25.2915 30.4592 25.9128C30.3499 26.3721 30.2366 26.8396 30.1232 27.307C29.9836 27.8858 29.844 28.4645 29.7064 29.0473C29.5688 29.6301 29.4575 30.0874 28.9192 30.3121L28.8787 30.3282H27.531C27.4165 30.3095 27.3074 30.2664 27.2111 30.2018C27.1147 30.1372 27.0333 30.0527 26.9725 29.9539C26.9018 29.7946 26.8652 29.6223 26.8652 29.448C26.8652 29.2737 26.9018 29.1014 26.9725 28.9421L27.0393 28.7397C27.3091 27.4325 27.5789 26.1246 27.8487 24.816C28.0808 23.6962 28.3135 22.5759 28.5469 21.4548C28.6035 21.0501 28.7229 20.19 29.5971 20.1172H30.3681C30.7 20.1172 31.2686 20.2467 31.3354 21.129V21.1512L31.1796 22.2683C31.1937 22.4969 31.2888 22.758 31.8352 22.7984L32.9704 22.849L34.0976 22.8996C34.3856 22.8727 34.676 22.9127 34.9461 23.0164C35.2162 23.1202 35.4586 23.285 35.6545 23.4979C35.8504 23.7109 35.9944 23.9662 36.0754 24.244C36.1563 24.5217 36.172 24.8144 36.1212 25.0993V25.1276C35.8844 26.3782 35.6456 27.6267 35.4089 28.8672C35.3889 29.193 35.2743 29.506 35.0792 29.7677C34.884 30.0293 34.6167 30.2284 34.3101 30.3404L34.2696 30.3545H34.2251C34.0652 30.3545 33.8932 30.3545 33.7131 30.3545C33.6099 30.3242 33.5026 30.3282 33.3974 30.3282ZM33.1789 29.8911H33.191C33.3509 29.8911 33.5229 29.8911 33.703 29.8911C33.8831 29.8911 34.0429 29.8911 34.2089 29.8911C34.4333 29.798 34.6261 29.6421 34.7643 29.4422C34.9024 29.2423 34.9801 29.0069 34.988 28.764C35.2254 27.5229 35.4622 26.279 35.6982 25.0325C35.761 23.8952 35.2773 23.3772 34.0794 23.3023L32.9543 23.2517L31.815 23.1991C30.9246 23.1323 30.7667 22.5698 30.7526 22.2399V22.2136L30.9064 21.1027C30.8598 20.5846 30.5947 20.5179 30.3701 20.5179H29.6173C29.245 20.5502 29.071 20.8072 28.9738 21.4993C28.7371 22.6366 28.5044 23.7556 28.2717 24.8747C27.983 26.2682 27.6929 27.6605 27.4015 29.0514L27.3206 29.4419L27.2963 29.4176C27.281 29.5218 27.2972 29.6283 27.3428 29.7232C27.3717 29.7666 27.4093 29.8036 27.4532 29.8318C27.4971 29.86 27.5463 29.8788 27.5978 29.8871H28.7856C29.075 29.7495 29.1742 29.4824 29.2794 28.9441C29.419 28.3532 29.5587 27.7724 29.6983 27.1937C29.8116 26.7269 29.9236 26.2608 30.0342 25.7954C30.1576 25.334 30.3823 24.4841 31.1735 24.3789H31.2018H31.2322C31.6005 24.4274 31.9849 24.3789 32.3978 24.4315H32.4261C33.0048 24.5367 33.4763 24.7249 33.3893 25.9674V26.0018C33.2052 26.7991 32.9846 27.7583 32.8045 28.6163L32.677 29.191C32.5961 29.4804 32.5961 29.6787 32.677 29.7758C32.758 29.8729 32.9947 29.8992 33.1688 29.8911H33.1789Z" fill="#FEFEFE"/>
<path d="M17.4406 31.9156C17.9566 29.2404 18.4828 26.5652 19.0008 23.9002C18.9941 23.7791 19.013 23.6579 19.0562 23.5446C19.0995 23.4314 19.1662 23.3285 19.252 23.2427C19.3377 23.157 19.4406 23.0903 19.5539 23.047C19.6672 23.0037 19.7883 22.9848 19.9094 22.9916H24.6608C25.1135 22.9782 25.5613 23.0885 25.956 23.3107C26.3507 23.5328 26.6774 23.8583 26.9009 24.2523C27.219 24.8282 27.3525 25.488 27.2834 26.1423C27.1817 27.2658 26.6839 28.3165 25.879 29.1069C25.2199 29.6634 24.4124 30.0151 23.5559 30.1187C22.7465 30.1389 21.937 30.149 21.1276 30.1713C20.6622 30.1308 20.1988 30.2542 20.0854 30.6266C19.9418 31.1325 19.8386 31.6384 19.6929 32.1342C19.6423 32.2458 19.5682 32.3452 19.4757 32.4256C19.3831 32.5059 19.2743 32.5653 19.1566 32.5996C18.6912 32.6097 18.2177 32.6097 17.7522 32.6198C17.2544 32.6279 17.3576 32.3325 17.4406 31.9156ZM20.7553 27.3301C20.8888 26.628 21.0547 25.8327 21.1782 25.2135C21.2441 25.028 21.3682 24.8687 21.5319 24.7593C21.6956 24.65 21.8902 24.5963 22.0868 24.6064C22.5767 24.5716 23.0685 24.6349 23.5337 24.7926C23.7373 24.8748 23.9211 24.9993 24.073 25.1579C24.2249 25.3166 24.3413 25.5057 24.4146 25.7127C24.4879 25.9197 24.5163 26.1399 24.4981 26.3588C24.4798 26.5776 24.4152 26.7901 24.3087 26.9821C24.1287 27.3201 23.8838 27.6192 23.5879 27.8623C23.292 28.1054 22.9511 28.2876 22.5846 28.3986C22.248 28.4865 21.8998 28.5213 21.5526 28.5018C20.6642 28.4087 20.5913 28.172 20.7431 27.3241L20.7553 27.3301Z" fill="#373435"/>
<path d="M17.7291 32.8339C17.643 32.8426 17.5559 32.8316 17.4746 32.8018C17.3933 32.7721 17.3198 32.7242 17.2597 32.6619C17.1059 32.4778 17.1585 32.2288 17.2131 31.9658L17.2313 31.8747C17.516 30.4015 17.8026 28.9284 18.0913 27.4552C18.3234 26.2653 18.5548 25.0768 18.7854 23.8896C18.7767 23.7501 18.7971 23.6102 18.8451 23.4789C18.8932 23.3476 18.968 23.2277 19.0647 23.1267C19.1747 23.0114 19.3078 22.9205 19.4553 22.8602C19.6028 22.7999 19.7614 22.7714 19.9207 22.7766H24.662C25.1542 22.7616 25.641 22.8822 26.0693 23.1253C26.4976 23.3683 26.8508 23.7244 27.0903 24.1547C27.4259 24.7658 27.5671 25.4647 27.495 26.1581C27.3895 27.3324 26.8703 28.4311 26.0299 29.2582L26.0056 29.2805C25.316 29.8608 24.4721 30.2272 23.5773 30.3348C23.1605 30.3469 22.7537 30.353 22.349 30.3611L21.1348 30.3874H21.1106C20.7848 30.359 20.374 30.4198 20.3011 30.6909C20.2283 30.9621 20.1696 31.1847 20.0988 31.4336C20.0279 31.6825 19.9733 31.9395 19.8964 32.1965C19.8393 32.3408 19.7503 32.4704 19.6361 32.5755C19.5218 32.6807 19.3853 32.7586 19.2367 32.8035L19.1983 32.8197H19.1578L18.4596 32.8299L17.7534 32.84L17.7291 32.8339ZM17.5935 32.3887C17.6436 32.4021 17.6956 32.4069 17.7473 32.4029L18.4596 32.3928H19.1112C19.3298 32.2956 19.4553 32.1904 19.4897 32.0811C19.5605 31.8322 19.6212 31.5853 19.692 31.3364C19.7628 31.0875 19.8175 30.8305 19.8944 30.5756C20.0259 30.1425 20.5014 29.9098 21.151 29.9685L22.353 29.9422L23.5672 29.9159C24.3729 29.8134 25.1318 29.4803 25.7527 28.9567C26.5153 28.2043 26.9876 27.2066 27.0862 26.1399C27.1521 25.524 27.0263 24.9028 26.726 24.3611C26.5162 24.004 26.2143 23.7097 25.852 23.5089C25.4896 23.3082 25.0801 23.2083 24.666 23.2198H19.9106C19.8115 23.2158 19.7128 23.2331 19.621 23.2704C19.5292 23.3078 19.4465 23.3643 19.3784 23.4363C19.3198 23.4962 19.2749 23.5682 19.247 23.6471C19.219 23.7261 19.2086 23.8103 19.2165 23.8937V23.924V23.9544C18.9844 25.151 18.751 26.3496 18.5163 27.5503C18.229 29.0221 17.9423 30.4953 17.6563 31.9698L17.636 32.0649C17.6052 32.1741 17.5916 32.2875 17.5956 32.4009L17.5935 32.3887ZM21.746 28.722C21.6751 28.722 21.6043 28.722 21.5315 28.722C21.3607 28.7261 21.1908 28.6962 21.0316 28.634C20.8725 28.5719 20.7274 28.4786 20.6047 28.3597C20.4246 28.1189 20.4407 27.7992 20.5338 27.2913L20.6067 26.8866L20.6208 26.9007C20.6917 26.5385 20.7686 26.1662 20.8394 25.8161L20.9871 25.122C21.071 24.8971 21.2248 24.7051 21.4258 24.574C21.6268 24.4429 21.8645 24.3796 22.1041 24.3935C22.6151 24.3593 23.1278 24.4281 23.6117 24.5959C23.8254 24.6725 24.0207 24.7929 24.1852 24.9494C24.3496 25.1058 24.4796 25.2949 24.5668 25.5044C24.6631 25.7568 24.7073 26.0259 24.6969 26.2958C24.6865 26.5657 24.6216 26.8306 24.5061 27.0748L24.492 27.1011C24.2989 27.4612 24.0367 27.7797 23.7203 28.0384C23.404 28.2971 23.0398 28.4909 22.6485 28.6086C22.352 28.6793 22.0487 28.7173 21.7439 28.722H21.746ZM20.9102 27.6859C20.8785 27.8217 20.8935 27.9643 20.9527 28.0906C21.0235 28.1837 21.2218 28.2444 21.576 28.2828C21.9002 28.2989 22.225 28.2655 22.5392 28.1837C22.8755 28.0807 23.1882 27.9124 23.4594 27.6884C23.7306 27.4645 23.9549 27.1892 24.1196 26.8785C24.2084 26.6896 24.2586 26.485 24.2673 26.2765C24.276 26.068 24.243 25.8599 24.1702 25.6643C24.1046 25.5096 24.0076 25.3702 23.8854 25.2549C23.7631 25.1396 23.6182 25.0509 23.4599 24.9945C23.0214 24.8466 22.5576 24.7881 22.096 24.8225C21.943 24.8099 21.7901 24.8489 21.6617 24.9332C21.5334 25.0176 21.437 25.1424 21.3878 25.2879L21.2643 25.895C21.1672 26.3726 21.062 26.8926 20.9709 27.3702L20.9102 27.6859Z" fill="#FEFEFE"/>
<path d="M35.4929 31.9156C36.009 29.2404 36.5351 26.5652 37.0531 23.9002C37.0464 23.7791 37.0653 23.6579 37.1086 23.5446C37.1518 23.4314 37.2185 23.3285 37.3043 23.2427C37.39 23.157 37.4929 23.0903 37.6062 23.047C37.7195 23.0037 37.8406 22.9848 37.9617 22.9916H42.7131C43.1658 22.9782 43.6136 23.0885 44.0084 23.3107C44.4031 23.5328 44.7297 23.8583 44.9532 24.2523C45.2713 24.8282 45.4048 25.488 45.3357 26.1423C45.234 27.2658 44.7363 28.3165 43.9313 29.1069C43.2722 29.6634 42.4647 30.0151 41.6082 30.1187C40.7988 30.1389 39.9894 30.149 39.1799 30.1713C38.7145 30.1308 38.2511 30.2542 38.1378 30.6266C37.9941 31.1325 37.8909 31.6384 37.7452 32.1342C37.6947 32.2458 37.6206 32.3452 37.528 32.4256C37.4354 32.5059 37.3266 32.5653 37.2089 32.5996C36.7435 32.6097 36.27 32.6097 35.8046 32.6198C35.3068 32.6279 35.4019 32.3325 35.4929 31.9156ZM38.8076 27.3301C38.9411 26.628 39.1071 25.8327 39.2305 25.2135C39.2965 25.028 39.4205 24.8687 39.5842 24.7593C39.7479 24.65 39.9425 24.5963 40.1391 24.6064C40.629 24.5716 41.1209 24.6349 41.586 24.7926C41.7896 24.8748 41.9735 24.9993 42.1253 25.1579C42.2772 25.3166 42.3936 25.5057 42.4669 25.7127C42.5402 25.9197 42.5686 26.1399 42.5504 26.3588C42.5321 26.5776 42.4676 26.7901 42.361 26.9821C42.1811 27.3201 41.9361 27.6192 41.6402 27.8623C41.3444 28.1054 41.0034 28.2876 40.6369 28.3986C40.3004 28.4865 39.9522 28.5213 39.6049 28.5018C38.7165 28.4087 38.6437 28.172 38.7954 27.3241L38.8076 27.3301Z" fill="#373435"/>
<path d="M35.7799 32.8339C35.6938 32.8424 35.6068 32.8314 35.5255 32.8016C35.4442 32.7718 35.3707 32.7241 35.3104 32.6619C35.1566 32.4778 35.2093 32.2288 35.2639 31.9658L35.2821 31.8747C35.5654 30.4056 35.8507 28.9378 36.1381 27.4714C36.3715 26.2761 36.6042 25.0822 36.8362 23.8896C36.8275 23.7501 36.8479 23.6102 36.8959 23.4789C36.944 23.3476 37.0187 23.2277 37.1155 23.1267C37.2254 23.0114 37.3585 22.9205 37.5061 22.8602C37.6536 22.7999 37.8122 22.7714 37.9715 22.7766H42.7127C43.2049 22.7616 43.6918 22.8822 44.1201 23.1253C44.5484 23.3683 44.9016 23.7244 45.1411 24.1547C45.4765 24.7658 45.6177 25.4647 45.5458 26.1581C45.4401 27.3324 44.9209 28.431 44.0807 29.2582L44.0564 29.2805C43.3668 29.8608 42.5229 30.2272 41.6281 30.3348C41.2112 30.3469 40.8045 30.353 40.3998 30.3611L39.1856 30.3874H39.1613C38.8335 30.359 38.4247 30.4198 38.3519 30.6909C38.279 30.9621 38.2204 31.1847 38.1495 31.4316C38.0787 31.6784 38.0241 31.9395 37.9472 32.1944C37.8901 32.3388 37.8011 32.4684 37.6868 32.5735C37.5726 32.6786 37.4361 32.7566 37.2875 32.8015L37.249 32.8177H37.2086L36.5104 32.8278L35.8042 32.838L35.7799 32.8339ZM35.6443 32.3887C35.6945 32.4017 35.7464 32.4065 35.7981 32.4029L36.5104 32.3928H37.162C37.3806 32.2956 37.506 32.1904 37.5404 32.0811C37.6113 31.8322 37.674 31.5833 37.7428 31.3364C37.8116 31.0896 37.8683 30.8326 37.9452 30.5776C38.0767 30.1445 38.5522 29.9118 39.2018 29.9705L40.4038 29.9442L41.618 29.9179C42.4237 29.8154 43.1826 29.4823 43.8035 28.9587C44.5661 28.2063 45.0384 27.2086 45.137 26.1419C45.203 25.526 45.0772 24.9048 44.7768 24.3631C44.5669 24.006 44.2651 23.7117 43.9028 23.511C43.5404 23.3102 43.1309 23.2104 42.7168 23.2218H37.9613C37.8623 23.2176 37.7635 23.2347 37.6716 23.2721C37.5798 23.3094 37.4971 23.3661 37.4291 23.4384C37.3706 23.4983 37.3257 23.5702 37.2978 23.6492C37.2698 23.7282 37.2594 23.8123 37.2673 23.8957V23.926V23.9564C37.0339 25.1584 36.7998 26.3625 36.5651 27.5685C36.2791 29.0349 35.9937 30.5027 35.7091 31.9719L35.6888 32.067C35.658 32.1762 35.6444 32.2895 35.6484 32.4029L35.6443 32.3887ZM39.7967 28.722C39.7259 28.722 39.6551 28.722 39.5822 28.722C39.4114 28.7261 39.2415 28.6962 39.0824 28.634C38.9233 28.5719 38.7781 28.4786 38.6554 28.3597C38.4753 28.1189 38.4915 27.7992 38.5846 27.2913L38.6575 26.8866L38.6716 26.9007C38.7424 26.5365 38.8193 26.1621 38.8902 25.81L39.0379 25.12C39.121 24.8946 39.2745 24.702 39.4758 24.5707C39.677 24.4395 39.9151 24.3766 40.1549 24.3915C40.6659 24.3579 41.1785 24.4267 41.6625 24.5938C41.8762 24.6705 42.0715 24.7909 42.2359 24.9473C42.4004 25.1038 42.5304 25.2928 42.6176 25.5024C42.7139 25.7547 42.7581 26.0239 42.7477 26.2938C42.7372 26.5636 42.6724 26.8286 42.5569 27.0727L42.5428 27.099C42.3497 27.4592 42.0874 27.7777 41.7711 28.0364C41.4548 28.2951 41.0906 28.4888 40.6993 28.6066C40.4035 28.6778 40.1009 28.7164 39.7967 28.722ZM38.959 27.6879C38.9273 27.8238 38.9423 27.9663 39.0015 28.0926C39.0723 28.1857 39.2706 28.2464 39.6247 28.2849C39.949 28.3009 40.2738 28.2675 40.588 28.1857C40.9243 28.0827 41.237 27.9144 41.5081 27.6905C41.7793 27.4665 42.0037 27.1913 42.1684 26.8805C42.2572 26.6917 42.3074 26.487 42.3161 26.2785C42.3248 26.07 42.2917 25.8619 42.219 25.6663C42.1534 25.5116 42.0564 25.3722 41.9341 25.2569C41.8119 25.1416 41.667 25.0529 41.5087 24.9965C41.0702 24.8485 40.6064 24.79 40.1448 24.8245C39.9918 24.8123 39.8391 24.8514 39.7108 24.9357C39.5825 25.02 39.486 25.1446 39.4365 25.2899L39.3131 25.897C39.216 26.3766 39.1107 26.8987 39.0197 27.3763L38.959 27.6879Z" fill="#FEFEFE"/>
<path d="M4.89589 44.0813C4.65392 43.849 4.44916 43.5808 4.28882 43.2861C4.03907 42.8313 3.91804 42.3171 3.93873 41.7987C3.4126 32.8281 3.876 24.9827 6.73534 18.5719C7.08542 17.7868 7.14006 17.55 7.87058 17.1878C10.1023 16.3695 12.4963 16.0921 14.856 16.3783C14.9289 16.176 15.0725 15.9736 15.0098 15.7713C12.8743 15.6003 10.7253 15.7711 8.64359 16.2772C7.22707 16.5038 5.84698 16.7527 5.50702 19.0029C2.6497 26.5692 2.85611 33.7347 3.15358 40.7748C3.15144 41.2826 3.22789 41.7878 3.38022 42.2723C3.93671 44.0469 4.47499 43.9862 4.89792 44.0793L4.89589 44.0813Z" fill="#EBEFFF"/>
<path d="M15.8697 42.9605C15.8697 41.0927 15.7159 39.2249 15.7159 37.3491C15.6403 36.2787 15.4078 35.2254 15.0259 34.2226C14.612 33.4932 14.1382 32.7994 13.6094 32.1484C15.2172 35.2039 15.7177 38.7218 15.0259 42.1045C15.3132 42.3919 15.5702 42.6812 15.8697 42.9605Z" fill="#EBEFFF"/>
<path d="M16.0232 43.3295L15.8795 43.2749C15.3396 43.0429 14.8765 42.6626 14.5439 42.1781L14.4043 42.002H14.5358C14.5662 41.3322 14.554 40.7191 14.5358 40.1241C14.5237 39.4968 14.5095 38.8493 14.5459 38.137V38.0176L14.6653 38.0358C14.9954 38.0678 15.3073 38.202 15.5576 38.4196C15.8079 38.6373 15.984 38.9275 16.0616 39.2499V39.2661V39.2823C16.0515 39.9784 16.0434 40.5977 16.0353 41.2149C16.0272 41.8321 16.0191 42.4735 16.009 43.1777L16.0232 43.3295ZM14.7463 42.087C15.0244 42.4743 15.3888 42.7916 15.8107 43.0138C15.8107 42.3744 15.8269 41.7997 15.835 41.2108C15.835 40.6037 15.8512 39.9825 15.8613 39.2945C15.7984 39.0348 15.6605 38.7995 15.4648 38.6177C15.269 38.436 15.024 38.3159 14.7605 38.2725C14.7321 38.9282 14.7443 39.5332 14.7605 40.1201C14.7605 40.7413 14.7807 41.3828 14.7463 42.087Z" fill="#373435"/>
<path d="M18.7102 45.6032C18.2882 45.4366 17.9327 45.1358 17.6985 44.7472C17.6256 41.4123 17.5629 38.0693 17.4961 34.7324L18.004 35.2383C18.1177 35.9414 18.1699 36.653 18.1598 37.3651L18.3156 37.7698C18.3128 40.386 18.4445 43.0005 18.7102 45.6032Z" fill="#EBEFFF"/>
<path d="M18.879 46.3434L18.7374 46.2968C18.1488 46.0897 17.6616 45.6655 17.3755 45.111L17.3613 45.0827V45.0422C17.3613 43.9312 17.3816 42.7818 17.3816 41.6567V41.6284L17.3957 41.6041C17.7013 41.0476 17.9644 40.6894 18.2517 40.7461C18.4763 40.7906 18.7293 41.0517 18.8993 42.6382C18.8993 43.8179 18.879 45.0199 18.879 46.1956V46.3434ZM17.5779 45.028C17.8167 45.4774 18.1993 45.8336 18.6645 46.0398C18.6645 44.9127 18.6746 43.7653 18.6848 42.6523C18.5269 41.1771 18.3003 40.9748 18.2112 40.9566C18.1222 40.9384 17.9482 41.0517 17.6042 41.683C17.594 42.796 17.594 43.9312 17.5779 45.0301V45.028Z" fill="#373435"/>
<path d="M15.1646 34.2696C15.1709 34.0979 15.1462 33.9266 15.0918 33.7637C15.1748 33.7839 15.2577 33.794 15.3387 33.8163L16.6479 34.8807C16.8303 34.8034 16.9754 34.6583 17.0527 34.476C17.1355 34.4747 17.2175 34.4922 17.2925 34.5273C17.3675 34.5623 17.4336 34.614 17.4857 34.6783C17.5059 35.5262 17.4452 36.362 17.4655 37.2078C17.6014 37.3237 17.6893 37.486 17.7124 37.6631C18.2545 37.6848 18.7949 37.7368 19.3312 37.819C19.3616 37.9525 19.4041 38.0355 19.4344 38.1711C18.8292 38.1032 18.2184 38.1032 17.6132 38.1711V38.5535C18.0878 38.5292 18.5636 38.5638 19.0297 38.6567C19.0499 38.77 19.0601 38.8227 19.0803 38.936C18.5764 38.8756 18.0667 38.8824 17.5646 38.9562C17.6274 41.0425 17.6476 43.1086 17.5646 45.2051C17.3987 44.8125 17.081 44.43 16.9049 44.0375C17.2192 41.3667 17.2605 38.6708 17.0284 35.9917C16.5483 35.2816 15.9104 34.6922 15.1646 34.2696Z" fill="#373435"/>
<path d="M17.2777 45.3318C17.188 45.1389 17.0832 44.9535 16.964 44.7773C16.835 44.5834 16.7201 44.3806 16.62 44.1703L16.5816 44.0873L16.5937 43.9962C16.9005 41.3764 16.9425 38.7324 16.7192 36.1042C16.2622 35.4694 15.6743 34.9401 14.9951 34.5521L14.813 34.4347L14.8534 34.2202C14.8542 34.1425 14.8419 34.0652 14.817 33.9916C14.8028 33.9369 14.7907 33.8843 14.7806 33.8317L14.6875 33.3359L15.1772 33.4574L15.2824 33.4796C15.329 33.4796 15.3775 33.4978 15.4241 33.51L15.4929 33.5282L16.6747 34.4874C16.7093 34.4553 16.7362 34.4159 16.7536 34.372L16.8325 34.1697H17.0571C17.1925 34.1686 17.3262 34.1994 17.4474 34.2595C17.5687 34.3196 17.6741 34.4074 17.7553 34.5157L17.8099 34.5946V34.6917C17.82 35.1228 17.8099 35.5558 17.7998 35.9727C17.7998 36.343 17.7816 36.7255 17.7876 37.1018C17.8575 37.1818 17.9161 37.271 17.9617 37.3669C18.2976 37.3811 18.6295 37.4256 18.9532 37.4661L19.3701 37.5167L19.5967 37.543L19.6473 37.7656C19.659 37.8148 19.6732 37.8635 19.6898 37.9113C19.7101 37.974 19.7323 38.0388 19.7505 38.1136L19.8497 38.5426L19.4106 38.5082H19.3316L19.4794 39.3177L19.0524 39.2732C18.6701 39.2293 18.2844 39.2232 17.901 39.2549C17.9657 41.5618 17.9617 43.4681 17.901 45.2326L17.2777 45.3318ZM17.2494 43.9881L17.2878 44.061C17.2878 43.9153 17.2878 43.7676 17.2878 43.6178C17.2784 43.7419 17.2656 43.8654 17.2494 43.9881ZM16.8143 35.1653C16.9423 35.3019 17.0606 35.4473 17.1684 35.6003C17.1684 35.3676 17.1684 35.1329 17.1684 34.9002C17.067 35.0088 16.9471 35.0986 16.8143 35.1653Z" fill="#373435"/>
<path d="M16.4219 15.8683C17.3555 15.7456 18.2549 15.4367 19.0667 14.9597C20.6764 14.0584 22.4716 13.5391 24.3139 13.442C23.5517 13.0978 22.6942 13.0263 21.8856 13.2396C19.8997 13.7216 18.0379 14.6174 16.4219 15.8683Z" fill="#EBEFFF"/>
<path d="M26.5254 14.7472C30.9566 13.4715 35.6839 13.6848 39.9823 15.3542C35.7568 13.4973 31.0147 13.1773 26.578 14.4497C26.576 14.6561 26.5254 14.5529 26.5254 14.7472Z" fill="#EBEFFF"/>
<defs>
<linearGradient id="paint0_linear_1679_98" x1="15.0423" y1="10.3999" x2="27.9442" y2="53.3651" gradientUnits="userSpaceOnUse">
<stop stop-color="#8A9FE0"/>
<stop offset="0.588" stop-color="#7182B8"/>
<stop offset="1" stop-color="#576490"/>
</linearGradient>
</defs>
</svg>
