<svg width="22" height="22" viewBox="0 0 22 22" fill="none" xmlns="http://www.w3.org/2000/svg">
<path d="M0.916992 1.19214H21.0831V20.8083H0.916992V1.19214Z" fill="#0C0824"/>
<path d="M0.916929 1.19195H21.0831V20.8081H0.916929V1.19195ZM0 21.725H22V0.275024H0V21.725ZM14.8319 9.07502C14.1075 9.07502 13.86 9.44195 13.86 9.74445C13.86 10.0745 14.025 10.3039 14.9969 10.8075C16.4364 11.5045 16.8826 12.1731 16.8826 13.1545C16.8826 14.6214 15.7646 15.4095 14.2521 15.4095C13.603 15.4335 12.9578 15.2986 12.3726 15.0166C12.3082 14.9891 12.2996 14.9435 12.2996 14.8697V13.5206C12.2996 13.4287 12.3451 13.4012 12.4096 13.4475C12.9591 13.8009 13.5987 13.9886 14.2521 13.9881C14.9765 13.9881 15.279 13.6856 15.279 13.2731C15.279 12.9431 15.0684 12.65 14.1421 12.1731C12.8401 11.55 12.2996 10.916 12.2996 9.8631C12.2996 8.6806 13.2251 7.70002 14.8296 7.70002C15.3881 7.67604 15.9457 7.76338 16.4701 7.95695C16.5003 7.97655 16.5248 8.00385 16.5409 8.03602C16.5571 8.0682 16.5644 8.10409 16.5621 8.14002V9.39717C16.5621 9.47024 16.5165 9.51659 16.4246 9.48909C15.9399 9.21009 15.3887 9.06754 14.8296 9.07659L14.8319 9.07502ZM6.94807 10.1656C7.15864 10.1837 7.32364 10.1837 7.69057 10.1837C8.76307 10.1837 9.77114 9.80809 9.77114 8.35059C9.77114 7.18617 9.04671 6.60002 7.82807 6.60002C7.46114 6.60002 7.11307 6.6181 6.94807 6.62752V10.1656ZM5.31614 5.29417C5.31614 5.22974 5.44421 5.18417 5.51807 5.18417C6.105 5.15667 6.97557 5.1386 7.88307 5.1386C10.4225 5.1386 11.4125 6.53167 11.4125 8.31052C11.4125 10.6386 9.72557 11.638 7.65443 11.638C7.30636 11.638 7.18693 11.62 6.93943 11.62V15.14C6.93943 15.213 6.91193 15.25 6.82943 15.25H5.42693C5.35386 15.25 5.31693 15.2225 5.31693 15.14V5.2981L5.31614 5.29417Z" fill="#31C5F0"/>
</svg>
