<svg width="56" height="56" viewBox="0 0 56 56" fill="none" xmlns="http://www.w3.org/2000/svg">
<path fill-rule="evenodd" clip-rule="evenodd" d="M22.0329 -6.10352e-05C17.6387 -6.10352e-05 14.0766 3.44902 14.0766 7.70368V13.037H27.8471V14.5185H7.95632C3.56216 14.5185 0 17.9676 0 22.2222V33.7779C0 38.0325 3.56216 41.4815 7.95632 41.4815H12.5465V34.9631C12.5465 30.7085 16.1087 27.2593 20.5029 27.2593H35.1914C38.9096 27.2593 41.9236 24.3409 41.9236 20.7408V7.70368C41.9236 3.44902 38.3616 -6.10352e-05 33.9674 -6.10352e-05H22.0329ZM20.1969 9.48147C21.7179 9.48147 22.9509 8.28754 22.9509 6.81479C22.9509 5.34203 21.7179 4.1481 20.1969 4.1481C18.6757 4.1481 17.4427 5.34203 17.4427 6.81479C17.4427 8.28754 18.6757 9.48147 20.1969 9.48147Z" fill="url(#paint0_linear_3_8272)"/>
<path fill-rule="evenodd" clip-rule="evenodd" d="M33.9671 56.0001C38.3613 56.0001 41.9235 52.5511 41.9235 48.2965V42.9631H28.1528V41.4817H48.0437C52.438 41.4817 56 38.0324 56 33.7778V22.2222C56 17.9676 52.438 14.5185 48.0437 14.5185H43.4535V21.037C43.4535 25.2918 39.8913 28.7408 35.4973 28.7408H20.8086C17.0904 28.7408 14.0764 31.6592 14.0764 35.2592V48.2965C14.0764 52.5511 17.6386 56.0001 22.0326 56.0001H33.9671ZM35.8033 46.5187C34.2821 46.5187 33.0491 47.7125 33.0491 49.1853C33.0491 50.6581 34.2821 51.8519 35.8033 51.8519C37.3243 51.8519 38.5573 50.6581 38.5573 49.1853C38.5573 47.7125 37.3243 46.5187 35.8033 46.5187Z" fill="url(#paint1_linear_3_8272)"/>
<defs>
<linearGradient id="paint0_linear_3_8272" x1="20.9619" y1="-6.10352e-05" x2="20.9619" y2="41.4815" gradientUnits="userSpaceOnUse">
<stop stop-color="#327EBD"/>
<stop offset="1" stop-color="#1565A7"/>
</linearGradient>
<linearGradient id="paint1_linear_3_8272" x1="35.0383" y1="14.5185" x2="35.0383" y2="56.0001" gradientUnits="userSpaceOnUse">
<stop stop-color="#FFDA4B"/>
<stop offset="1" stop-color="#F9C600"/>
</linearGradient>
</defs>
</svg>
