<svg width="180" height="161" viewBox="0 0 180 161" fill="none" xmlns="http://www.w3.org/2000/svg">
<path d="M89.9039 96.4697C98.7705 96.4697 105.958 89.282 105.958 80.4154C105.958 71.5489 98.7705 64.3611 89.9039 64.3611C81.0374 64.3611 73.8496 71.5489 73.8496 80.4154C73.8496 89.282 81.0374 96.4697 89.9039 96.4697Z" fill="#00D8FF"/>
<path d="M89.9041 117.225C70.6077 117.691 51.3596 115.09 32.8792 109.518C24.3423 106.812 16.3801 102.549 9.39498 96.9447C6.72951 95.0301 4.50979 92.5615 2.88812 89.7084C1.26644 86.8552 0.281205 83.6849 0 80.4152C0 69.8001 11.6618 59.3969 31.1967 52.5898C50.1712 46.5582 69.9962 43.635 89.9041 43.9333C109.546 43.6589 129.106 46.5293 147.841 52.4357C156.062 55.0568 163.755 59.1138 170.561 64.4187C173.181 66.244 175.367 68.6231 176.965 71.3875C178.563 74.1519 179.534 77.2339 179.808 80.4152C179.808 91.4477 166.772 102.628 145.773 109.576C127.65 114.966 108.809 117.546 89.9041 117.225ZM89.9041 51.6137C70.858 51.3591 51.8928 54.1381 33.7204 59.8464C15.7396 66.1204 7.68038 74.6998 7.68038 80.3959C7.68038 86.3553 16.3433 95.7246 35.3644 102.23C53.0439 107.533 71.452 110.002 89.9041 109.544C107.99 109.868 126.019 107.42 143.365 102.288C163.112 95.7438 172.102 86.3617 172.102 80.4152C171.778 78.3745 171.034 76.4232 169.918 74.6846C168.802 72.9459 167.337 71.4576 165.616 70.3138C159.527 65.6076 152.655 62.012 145.317 59.6923C127.394 54.0653 108.687 51.338 89.9041 51.6137Z" fill="#00D8FF"/>
<path d="M53.4283 160.487C50.4325 160.556 47.4721 159.829 44.8488 158.381C35.6529 153.076 32.4678 137.78 36.3272 117.455C40.5826 98.0041 47.9557 79.3696 58.1611 62.273C67.7341 45.1212 79.9897 29.6115 94.463 16.3319C100.841 10.5184 108.198 5.88084 116.194 2.63438C119.086 1.27901 122.241 0.576416 125.435 0.576416C128.629 0.576416 131.784 1.27901 134.676 2.63438C144.238 8.14423 147.404 25.0205 142.941 46.681C138.554 65.0765 131.372 82.6905 121.646 98.909C112.41 115.858 100.54 131.233 86.4809 144.458C79.8715 150.5 72.2011 155.266 63.8571 158.515C60.5167 159.755 56.9908 160.422 53.4283 160.487ZM64.814 66.0875C55.0793 82.4586 48.0126 100.275 43.8792 118.868C40.328 137.587 43.7379 148.844 48.6955 151.708C53.8328 154.682 66.3038 151.863 81.4462 138.634C94.8678 125.963 106.197 111.246 115.013 95.0303C124.33 79.5251 131.219 62.6849 135.44 45.0949C139.64 24.7059 136.012 12.222 130.861 9.25519C128.931 8.51558 126.868 8.18449 124.804 8.28287C122.739 8.38124 120.717 8.90694 118.866 9.82672C111.748 12.7637 105.205 16.9332 99.5362 22.1436C85.7081 34.8637 74.0015 49.7117 64.8589 66.126L64.814 66.0875Z" fill="#00D8FF"/>
<path d="M126.36 160.572C117.659 160.572 106.607 155.306 95.0992 145.41C80.3723 132.01 67.9095 116.316 58.1936 98.9362C48.1162 82.075 40.8015 63.7101 36.5267 44.5377C34.6728 36.1027 34.3293 27.4058 35.5121 18.8508C35.7855 15.6772 36.7519 12.6023 38.343 9.84278C39.9341 7.0833 42.1112 4.70649 44.7208 2.87994C54.2699 -2.64917 70.4719 3.03406 87.0079 17.7141C100.754 30.7001 112.428 45.7174 121.621 62.2424C131.692 78.71 139.084 96.6727 143.519 115.459C145.453 124.204 145.751 133.231 144.399 142.084C144.077 145.349 143.053 148.505 141.397 151.337C139.741 154.169 137.492 156.61 134.805 158.491C132.224 159.922 129.31 160.64 126.36 160.572ZM64.8401 95.0703C74.1608 111.68 86.0657 126.7 100.108 139.566C114.551 151.993 126.007 154.664 130.932 151.768C136.07 148.782 139.859 136.593 135.954 116.872C131.677 98.9358 124.587 81.7896 114.949 66.0698C106.176 50.2538 95.0333 35.8739 81.909 23.4295C66.3428 9.60991 53.7177 6.52106 48.5739 9.50074C46.9707 10.8036 45.655 12.4247 44.71 14.2617C43.7649 16.0987 43.211 18.1118 43.0833 20.1737C42.0623 27.8032 42.3949 35.5531 44.0658 43.0671C48.1777 61.4021 55.193 78.9621 64.8465 95.0832L64.8401 95.0703Z" fill="#00D8FF"/>
</svg>
