<svg width="79" height="71" viewBox="0 0 79 71" fill="none" xmlns="http://www.w3.org/2000/svg">
<path d="M39.3328 42.5297C43.212 42.5297 46.3566 39.385 46.3566 35.5059C46.3566 31.6268 43.212 28.4822 39.3328 28.4822C35.4537 28.4822 32.3091 31.6268 32.3091 35.5059C32.3091 39.385 35.4537 42.5297 39.3328 42.5297Z" fill="#7049EE"/>
<path d="M39.333 51.6101C30.8909 51.8143 22.4698 50.6763 14.3847 48.2387C10.6498 47.0547 7.16629 45.1896 4.1103 42.7376C2.94416 41.9 1.97303 40.82 1.26355 39.5717C0.554069 38.3235 0.123027 36.9365 0 35.506C0 30.8619 5.10206 26.3105 13.6486 23.3324C21.9499 20.6936 30.6234 19.4147 39.333 19.5452C47.9265 19.4251 56.4838 20.6809 64.6804 23.265C68.2773 24.4117 71.6427 26.1866 74.6204 28.5075C75.7666 29.3061 76.7231 30.347 77.4223 31.5564C78.1214 32.7658 78.5461 34.1142 78.6661 35.506C78.6661 40.3327 72.9628 45.2241 63.7757 48.2639C55.8471 50.6221 47.6037 51.7506 39.333 51.6101ZM39.333 22.9054C31.0004 22.794 22.7031 24.0098 14.7527 26.5071C6.88609 29.252 3.36016 33.0055 3.36016 35.4976C3.36016 38.1048 7.15018 42.2038 15.4719 45.0499C23.2067 47.3701 31.2602 48.4502 39.333 48.2499C47.2457 48.3914 55.1335 47.3207 62.7221 45.0751C71.3614 42.2123 75.2947 38.1076 75.2947 35.506C75.1529 34.6132 74.8276 33.7595 74.3391 32.9988C73.8507 32.2382 73.2099 31.5871 72.4571 31.0866C69.793 29.0277 66.7866 27.4546 63.5762 26.4397C55.735 23.9779 47.5508 22.7848 39.333 22.9054Z" fill="#7049EE"/>
<path d="M23.375 70.5371C22.0644 70.5672 20.7692 70.2492 19.6215 69.6156C15.5983 67.295 14.2048 60.6027 15.8933 51.7107C17.755 43.201 20.9808 35.0483 25.4456 27.5686C29.6338 20.0647 34.9956 13.2793 41.3277 7.46944C44.118 4.92601 47.3369 2.8971 50.8351 1.47677C52.1004 0.883799 53.4806 0.576416 54.878 0.576416C56.2753 0.576416 57.6556 0.883799 58.9209 1.47677C63.1042 3.88733 64.4893 11.2707 62.5367 20.7471C60.6175 28.7951 57.4755 36.5013 53.2204 43.5968C49.1796 51.0121 43.9866 57.7385 37.8355 63.5246C34.944 66.1678 31.5881 68.2529 27.9377 69.6746C26.4762 70.217 24.9336 70.5087 23.375 70.5371ZM28.3563 29.2375C24.0973 36.3998 21.0057 44.1944 19.1973 52.3288C17.6436 60.5185 19.1355 65.4435 21.3044 66.6966C23.552 67.9974 29.0081 66.764 35.6329 60.9764C41.5048 55.4331 46.4614 48.9945 50.3182 41.8999C54.3946 35.1164 57.4085 27.7488 59.2552 20.0532C61.0926 11.133 59.5052 5.67136 57.252 4.37337C56.4075 4.04979 55.5051 3.90494 54.6017 3.94798C53.6984 3.99102 52.8138 4.22101 52.0039 4.62342C48.89 5.90833 46.0273 7.7325 43.5473 10.012C37.4975 15.5771 32.3758 22.0731 28.3759 29.2543L28.3563 29.2375Z" fill="#7049EE"/>
<path d="M55.282 70.5744C51.4752 70.5744 46.64 68.2706 41.6054 63.9412C35.1624 58.0785 29.7099 51.2124 25.4592 43.6088C21.0503 36.2321 17.8501 28.1974 15.9799 19.8095C15.1688 16.1192 15.0186 12.3143 15.536 8.57153C15.6557 7.18309 16.0784 5.83781 16.7745 4.63054C17.4707 3.42327 18.4231 2.38341 19.5648 1.5843C23.7426 -0.834684 30.831 1.65172 38.0654 8.07425C44.0794 13.7556 49.1865 20.3257 53.2086 27.5553C57.6148 34.7599 60.8485 42.6186 62.789 50.8377C63.635 54.6634 63.7655 58.6127 63.1739 62.4859C63.0332 63.9142 62.5852 65.2953 61.8607 66.5343C61.1362 67.7733 60.1523 68.841 58.9765 69.6642C57.8476 70.2899 56.5725 70.6041 55.282 70.5744ZM28.367 41.9175C32.4448 49.1841 37.6532 55.7553 43.7968 61.3845C50.1154 66.8209 55.1275 67.9897 57.2824 66.7226C59.53 65.4162 61.1876 60.0837 59.4794 51.4558C57.608 43.6087 54.5063 36.1072 50.2896 29.2298C46.4513 22.3103 41.5766 16.0191 35.8347 10.5747C29.0244 4.52865 23.501 3.17729 21.2506 4.48089C20.5491 5.05089 19.9735 5.76013 19.5601 6.56382C19.1466 7.36752 18.9043 8.24821 18.8484 9.15029C18.4017 12.4882 18.5472 15.8788 19.2783 19.1662C21.0772 27.1877 24.1464 34.8702 28.3698 41.9231L28.367 41.9175Z" fill="#7049EE"/>
</svg>
