<svg width="90" height="81" viewBox="0 0 90 81" fill="none" xmlns="http://www.w3.org/2000/svg">
<path d="M44.952 48.5231C49.3852 48.5231 52.9791 44.9292 52.9791 40.4959C52.9791 36.0626 49.3852 32.4688 44.952 32.4688C40.5187 32.4688 36.9248 36.0626 36.9248 40.4959C36.9248 44.9292 40.5187 48.5231 44.952 48.5231Z" fill="#00D8FF"/>
<path d="M44.952 58.9005C35.3038 59.1339 25.6798 57.8334 16.4396 55.0475C12.1712 53.6944 8.19005 51.5629 4.69749 48.7606C3.36476 47.8033 2.2549 46.5691 1.44406 45.1425C0.633222 43.7159 0.140602 42.1308 0 40.4959C0 35.1883 5.83092 29.9867 15.5984 26.5832C25.0856 23.5674 34.9981 22.1058 44.952 22.255C54.7731 22.1178 64.5529 23.553 73.9204 26.5062C78.0312 27.8167 81.8773 29.8452 85.2804 32.4976C86.5904 33.4103 87.6836 34.5999 88.4826 35.9821C89.2816 37.3643 89.7669 38.9053 89.9041 40.4959C89.9041 46.0121 83.386 51.6023 72.8865 55.0764C63.8252 57.7715 54.4043 59.0612 44.952 58.9005ZM44.952 26.0952C35.429 25.9679 25.9464 27.3574 16.8602 30.2115C7.86982 33.3485 3.84019 37.6382 3.84019 40.4863C3.84019 43.4659 8.17164 48.1506 17.6822 51.4032C26.5219 54.0549 35.726 55.2892 44.952 55.0603C53.9951 55.2221 63.0097 53.9985 71.6824 51.4321C81.5558 48.1602 86.051 43.4691 86.051 40.4959C85.889 39.4756 85.5172 38.4999 84.959 37.6306C84.4008 36.7613 83.6684 36.0171 82.8081 35.4452C79.7634 33.0921 76.3276 31.2943 72.6585 30.1344C63.6971 27.3209 54.3437 25.9573 44.952 26.0952Z" fill="#00D8FF"/>
<path d="M26.7143 80.5315C25.2164 80.5659 23.7362 80.2025 22.4245 79.4784C17.8266 76.8262 16.234 69.1779 18.1637 59.0156C20.2914 49.2902 23.978 39.9729 29.0807 31.4247C33.8672 22.8488 39.9949 15.0939 47.2316 8.45416C50.4205 5.54739 54.0993 3.22862 58.0972 1.6054C59.5432 0.927711 61.1207 0.576416 62.7176 0.576416C64.3146 0.576416 65.892 0.927711 67.338 1.6054C72.119 4.36032 73.702 12.7985 71.4704 23.6287C69.2771 32.8264 65.6863 41.6334 60.8232 49.7426C56.2051 58.2172 50.2703 65.9045 43.2405 72.5172C39.9359 75.538 36.1007 77.9209 31.9287 79.5458C30.2585 80.1657 28.4955 80.499 26.7143 80.5315ZM32.4071 33.3319C27.5398 41.5174 24.0064 50.4256 21.9397 59.722C20.1641 69.0816 21.8691 74.7103 24.3479 76.1423C26.9165 77.6289 33.152 76.2194 40.7232 69.605C47.434 63.2698 53.0986 55.9113 57.5064 47.8032C62.1651 40.0507 65.6096 31.6306 67.7201 22.8356C69.82 12.6411 68.0059 6.39921 65.4308 4.91579C64.4657 4.54599 63.4343 4.38045 62.4019 4.42963C61.3695 4.47882 60.3585 4.74167 59.4329 5.20156C55.8743 6.67004 52.6026 8.75479 49.7682 11.36C42.8542 17.72 37.0008 25.144 32.4296 33.3512L32.4071 33.3319Z" fill="#00D8FF"/>
<path d="M63.1801 80.574C58.8294 80.574 53.3035 77.9411 47.5496 72.9932C40.1862 66.293 33.9548 58.4461 29.0968 49.7562C24.0581 41.3256 20.4007 32.1432 18.2634 22.557C17.3364 18.3395 17.1647 13.9911 17.756 9.71358C17.8928 8.1268 18.3759 6.58933 19.1715 5.20959C19.9671 3.82985 21.0556 2.64145 22.3604 1.72818C27.135 -1.03637 35.236 1.80524 43.5039 9.14526C50.3771 15.6382 56.2138 23.1469 60.8105 31.4094C65.846 39.6431 69.5418 48.6245 71.7595 58.0178C72.7263 62.39 72.8755 66.9034 72.1994 71.33C72.0385 72.9624 71.5265 74.5407 70.6985 75.9568C69.8706 77.3728 68.7461 78.593 67.4024 79.5337C66.1121 80.2489 64.6549 80.6079 63.1801 80.574ZM32.42 47.8233C37.0804 56.128 43.0329 63.6379 50.0541 70.0713C57.2753 76.2843 63.0035 77.6201 65.4662 76.172C68.0349 74.6789 69.9293 68.5847 67.9771 58.7241C65.8383 49.756 62.2935 41.1829 57.4744 33.323C53.0878 25.4151 47.5167 18.2251 40.9545 12.0029C33.1714 5.09316 26.8588 3.54873 24.2869 5.03857C23.4853 5.69 22.8275 6.50055 22.355 7.41906C21.8825 8.33757 21.6055 9.34407 21.5417 10.375C21.0311 14.1898 21.1974 18.0647 22.0329 21.8217C24.0888 30.9892 27.5965 39.7692 32.4233 47.8297L32.42 47.8233Z" fill="#00D8FF"/>
</svg>
