<svg width="68" height="61" viewBox="0 0 68 61" fill="none" xmlns="http://www.w3.org/2000/svg">
<path d="M33.9516 36.7903C37.3 36.7903 40.0144 34.0759 40.0144 30.7274C40.0144 27.379 37.3 24.6646 33.9516 24.6646C30.6031 24.6646 27.8887 27.379 27.8887 30.7274C27.8887 34.0759 30.6031 36.7903 33.9516 36.7903Z" fill="#7049EE"/>
<path d="M33.9521 44.6286C26.6649 44.8049 19.3959 43.8226 12.4168 41.7184C9.19284 40.6964 6.18592 39.0865 3.548 36.97C2.54139 36.2469 1.70312 35.3147 1.09069 34.2372C0.478271 33.1597 0.106197 31.9624 0 30.7276C0 26.7189 4.40408 22.7901 11.7814 20.2194C18.9471 17.9416 26.434 16.8377 33.9521 16.9503C41.37 16.8467 48.7566 17.9307 55.8319 20.1612C58.9368 21.1511 61.8417 22.6832 64.4121 24.6866C65.4015 25.3759 66.2272 26.2744 66.8307 27.3183C67.4342 28.3623 67.8007 29.5262 67.9043 30.7276C67.9043 34.894 62.9812 39.1162 55.051 41.7402C48.207 43.7759 41.0914 44.75 33.9521 44.6286ZM33.9521 19.8508C26.7594 19.7547 19.5972 20.8042 12.7345 22.9599C5.94405 25.3292 2.90048 28.5692 2.90048 30.7204C2.90048 32.9709 6.17202 36.5092 13.3553 38.9659C20.0319 40.9687 26.9837 41.901 33.9521 41.7281C40.7824 41.8503 47.591 40.9261 54.1415 38.9877C61.5989 36.5165 64.9941 32.9733 64.9941 30.7276C64.8717 29.957 64.5909 29.2201 64.1693 28.5635C63.7477 27.9069 63.1945 27.3448 62.5447 26.9129C60.2451 25.1356 57.65 23.7777 54.8788 22.9017C48.1103 20.7766 41.0457 19.7467 33.9521 19.8508Z" fill="#7049EE"/>
<path d="M20.1776 60.9663C19.0463 60.9923 17.9283 60.7178 16.9376 60.1708C13.4648 58.1677 12.2619 52.391 13.7195 44.7153C15.3265 37.3698 18.1109 30.3325 21.965 23.876C25.5802 17.3987 30.2085 11.5415 35.6744 6.52645C38.0829 4.33098 40.8615 2.57962 43.8811 1.3536C44.9733 0.841748 46.1647 0.576416 47.3709 0.576416C48.5771 0.576416 49.7685 0.841748 50.8607 1.3536C54.4717 3.43438 55.6673 9.80769 53.9819 17.9877C52.3252 24.9347 49.6131 31.5866 45.9401 37.7115C42.452 44.1123 37.9695 49.9186 32.6599 54.9131C30.1639 57.1947 27.2672 58.9945 24.1161 60.2218C22.8546 60.69 21.523 60.9417 20.1776 60.9663ZM24.4774 25.3165C20.8011 31.4991 18.1324 38.2273 16.5714 45.2489C15.2303 52.3182 16.5181 56.5695 18.3903 57.6511C20.3304 58.774 25.0401 57.7093 30.7586 52.7135C35.8272 47.9286 40.1057 42.3707 43.4349 36.2467C46.9536 30.3912 49.5552 24.0316 51.1493 17.3887C52.7353 9.68886 51.3651 4.97436 49.4201 3.85394C48.6912 3.57462 47.9122 3.44959 47.1324 3.48674C46.3526 3.52389 45.5891 3.72242 44.89 4.06977C42.2021 5.17891 39.731 6.75352 37.5902 8.72122C32.3681 13.5249 27.9471 19.1322 24.4944 25.3311L24.4774 25.3165Z" fill="#7049EE"/>
<path d="M47.72 60.9985C44.4339 60.9985 40.2602 59.0099 35.9143 55.2728C30.3527 50.2121 25.6462 44.2853 21.977 37.7219C18.1713 31.3543 15.4089 24.4188 13.7945 17.1784C13.0944 13.993 12.9646 10.7086 13.4113 7.47783C13.5146 6.27934 13.8795 5.11809 14.4804 4.07598C15.0813 3.03387 15.9035 2.13627 16.889 1.44648C20.4952 -0.641582 26.6139 1.50468 32.8586 7.04858C38.0499 11.9527 42.4583 17.624 45.9302 23.8646C49.7336 30.0835 52.5249 36.8671 54.2 43.9618C54.9302 47.2642 55.0429 50.6732 54.5322 54.0165C54.4107 55.2495 54.024 56.4416 53.3986 57.5111C52.7733 58.5806 51.924 59.5023 50.909 60.2128C49.9345 60.7529 48.8339 61.0241 47.72 60.9985ZM24.487 36.262C28.0069 42.5345 32.5028 48.2067 37.8059 53.0659C43.2601 57.7585 47.5866 58.7674 49.4467 57.6737C51.3868 56.546 52.8176 51.943 51.3431 44.4954C49.7277 37.7218 47.0504 31.2465 43.4105 25.31C40.0973 19.3371 35.8894 13.9066 30.9331 9.20697C25.0545 3.98804 20.2866 2.82154 18.3441 3.94681C17.7386 4.43883 17.2418 5.05104 16.8849 5.74478C16.528 6.43853 16.3188 7.19874 16.2706 7.97741C15.885 10.8587 16.0106 13.7854 16.6416 16.6231C18.1945 23.5472 20.8438 30.1788 24.4894 36.2668L24.487 36.262Z" fill="#7049EE"/>
</svg>
