<svg width="68" height="61" viewBox="0 0 68 61" fill="none" xmlns="http://www.w3.org/2000/svg">
<path d="M33.952 36.7903C37.3005 36.7903 40.0149 34.0758 40.0149 30.7274C40.0149 27.379 37.3005 24.6645 33.952 24.6645C30.6036 24.6645 27.8892 27.379 27.8892 30.7274C27.8892 34.0758 30.6036 36.7903 33.952 36.7903Z" fill="#00D8FF"/>
<path d="M33.9521 44.6286C26.6649 44.8048 19.3959 43.8225 12.4168 41.7184C9.19284 40.6964 6.18592 39.0865 3.548 36.9699C2.54139 36.2469 1.70312 35.3146 1.09069 34.2371C0.478271 33.1596 0.106197 31.9624 0 30.7276C0 26.7188 4.40408 22.7901 11.7814 20.2194C18.9471 17.9416 26.434 16.8376 33.9521 16.9503C41.37 16.8467 48.7566 17.9307 55.8319 20.1612C58.9368 21.1511 61.8417 22.6832 64.4121 24.6865C65.4015 25.3759 66.2272 26.2743 66.8307 27.3183C67.4342 28.3623 67.8007 29.5262 67.9043 30.7276C67.9043 34.894 62.9812 39.1162 55.051 41.7402C48.207 43.7758 41.0914 44.7499 33.9521 44.6286ZM33.9521 19.8508C26.7594 19.7546 19.5972 20.8041 12.7345 22.9598C5.94405 25.3292 2.90048 28.5692 2.90048 30.7203C2.90048 32.9709 6.17202 36.5092 13.3553 38.9658C20.0319 40.9687 26.9837 41.901 33.9521 41.7281C40.7824 41.8502 47.591 40.9261 54.1415 38.9877C61.5989 36.5164 64.9941 32.9733 64.9941 30.7276C64.8717 29.9569 64.5909 29.22 64.1693 28.5634C63.7477 27.9068 63.1945 27.3448 62.5447 26.9128C60.2451 25.1355 57.65 23.7777 54.8788 22.9016C48.1103 20.7766 41.0457 19.7467 33.9521 19.8508Z" fill="#00D8FF"/>
<path d="M20.1772 60.9663C19.0458 60.9923 17.9278 60.7178 16.9372 60.1708C13.4643 58.1677 12.2615 52.391 13.719 44.7153C15.326 37.3698 18.1105 30.3325 21.9645 23.876C25.5797 17.3987 30.208 11.5415 35.6739 6.52645C38.0825 4.33098 40.861 2.57962 43.8806 1.3536C44.9728 0.841748 46.1642 0.576416 47.3704 0.576416C48.5766 0.576416 49.768 0.841748 50.8602 1.3536C54.4712 3.43438 55.6669 9.80769 53.9814 17.9877C52.3247 24.9347 49.6126 31.5866 45.9396 37.7115C42.4515 44.1123 37.969 49.9186 32.6594 54.9131C30.1634 57.1947 27.2667 58.9945 24.1156 60.2218C22.8541 60.69 21.5225 60.9417 20.1772 60.9663ZM24.477 25.3165C20.8007 31.4991 18.1319 38.2273 16.571 45.2489C15.2298 52.3182 16.5176 56.5695 18.3898 57.6511C20.3299 58.774 25.0396 57.7093 30.7581 52.7135C35.8267 47.9286 40.1052 42.3707 43.4344 36.2467C46.9531 30.3912 49.5547 24.0316 51.1488 17.3887C52.7348 9.68886 51.3646 4.97436 49.4197 3.85394C48.6907 3.57462 47.9117 3.44959 47.1319 3.48674C46.3522 3.52389 45.5886 3.72242 44.8895 4.06977C42.2016 5.17891 39.7305 6.75352 37.5898 8.72122C32.3676 13.5249 27.9466 19.1322 24.4939 25.3311L24.477 25.3165Z" fill="#00D8FF"/>
<path d="M47.7195 60.9985C44.4334 60.9985 40.2597 59.0099 35.9138 55.2728C30.3522 50.2121 25.6457 44.2853 21.9765 37.7219C18.1708 31.3543 15.4084 24.4188 13.794 17.1784C13.0939 13.993 12.9642 10.7086 13.4108 7.47783C13.5141 6.27934 13.879 5.11809 14.4799 4.07598C15.0808 3.03387 15.903 2.13627 16.8885 1.44648C20.4947 -0.641582 26.6134 1.50468 32.8581 7.04858C38.0494 11.9527 42.4578 17.624 45.9297 23.8646C49.7331 30.0835 52.5245 36.8671 54.1995 43.9618C54.9297 47.2642 55.0424 50.6732 54.5317 54.0165C54.4102 55.2495 54.0235 56.4416 53.3982 57.5111C52.7728 58.5806 51.9235 59.5023 50.9086 60.2128C49.934 60.7529 48.8334 61.0241 47.7195 60.9985ZM24.4865 36.262C28.0065 42.5345 32.5023 48.2067 37.8055 53.0659C43.2596 57.7585 47.5861 58.7674 49.4462 57.6737C51.3863 56.546 52.8172 51.943 51.3427 44.4954C49.7272 37.7218 47.0499 31.2465 43.41 25.31C40.0968 19.3371 35.889 13.9066 30.9326 9.20697C25.054 3.98804 20.2861 2.82154 18.3436 3.94681C17.7381 4.43883 17.2413 5.05104 16.8844 5.74478C16.5275 6.43853 16.3183 7.19874 16.2701 7.97741C15.8845 10.8587 16.0101 13.7854 16.6411 16.6231C18.194 23.5472 20.8433 30.1788 24.4889 36.2668L24.4865 36.262Z" fill="#00D8FF"/>
</svg>
