<svg width="113" height="101" viewBox="0 0 113 101" fill="none" xmlns="http://www.w3.org/2000/svg">
<path d="M56.1899 60.5098C61.7315 60.5098 66.2239 56.0175 66.2239 50.4759C66.2239 44.9343 61.7315 40.4419 56.1899 40.4419C50.6484 40.4419 46.156 44.9343 46.156 50.4759C46.156 56.0175 50.6484 60.5098 56.1899 60.5098Z" fill="#00D8FF"/>
<path d="M56.1901 73.4816C44.1298 73.7733 32.0998 72.1476 20.5495 68.6653C15.2139 66.9739 10.2376 64.3095 5.87186 60.8067C4.20595 59.6101 2.81862 58.0672 1.80507 56.284C0.791527 54.5007 0.175753 52.5193 0 50.4757C0 43.8413 7.28865 37.3393 19.4979 33.0849C31.357 29.3151 43.7477 27.4881 56.1901 27.6746C68.4664 27.5031 80.6911 29.2971 92.4005 32.9886C97.539 34.6267 102.347 37.1624 106.601 40.4779C108.238 41.6187 109.605 43.1057 110.603 44.8334C111.602 46.5612 112.209 48.4875 112.38 50.4757C112.38 57.3711 104.233 64.3587 91.1082 68.7014C79.7816 72.0703 68.0053 73.6824 56.1901 73.4816ZM56.1901 32.4748C44.2862 32.3157 32.433 34.0526 21.0753 37.6202C9.83727 41.5415 4.80024 46.9037 4.80024 50.4637C4.80024 54.1883 10.2145 60.0441 22.1028 64.1099C33.1524 67.4245 44.6575 68.9675 56.1901 68.6814C67.4939 68.8835 78.7621 67.354 89.6031 64.146C101.945 60.0562 107.564 54.1923 107.564 50.4757C107.361 49.2003 106.897 47.9808 106.199 46.8941C105.501 45.8074 104.586 44.8773 103.51 44.1624C99.7042 41.221 95.4095 38.9738 90.8232 37.5239C79.6214 34.007 67.9297 32.3025 56.1901 32.4748Z" fill="#00D8FF"/>
<path d="M33.3927 100.521C31.5204 100.564 29.6701 100.109 28.0306 99.2041C22.2831 95.8889 20.2924 86.3285 22.7045 73.6255C25.3641 61.4688 29.9723 49.8221 36.3507 39.1368C42.3339 28.4169 49.9936 18.7234 59.0394 10.4236C63.0256 6.79014 67.6239 3.89168 72.6214 1.86265C74.4289 1.01554 76.4007 0.576416 78.3969 0.576416C80.3931 0.576416 82.3649 1.01554 84.1724 1.86265C90.1487 5.3063 92.1274 15.854 89.3379 29.3918C86.5962 40.889 82.1077 51.8977 76.0289 62.0343C70.2563 72.6276 62.8378 82.2367 54.0506 90.5026C49.9197 94.2786 45.1257 97.2573 39.9107 99.2884C37.823 100.063 35.6193 100.48 33.3927 100.521ZM40.5088 41.5209C34.4246 51.7528 30.0079 62.888 27.4245 74.5085C25.205 86.2081 27.3362 93.2439 30.4347 95.034C33.6456 96.8923 41.4399 95.1303 50.9039 86.8623C59.2924 78.9433 66.3732 69.7452 71.8829 59.6101C77.7063 49.9194 82.0119 39.3942 84.6501 28.4005C87.2749 15.6573 85.0073 7.85493 81.7884 6.00065C80.5819 5.53839 79.2927 5.33146 78.0022 5.39295C76.7117 5.45444 75.448 5.78299 74.291 6.35786C69.8427 8.19346 65.7531 10.7994 62.2102 14.0559C53.5676 22.006 46.2509 31.286 40.5369 41.5449L40.5088 41.5209Z" fill="#00D8FF"/>
<path d="M78.9752 100.574C73.5368 100.574 66.6294 97.2826 59.4371 91.0977C50.2327 82.7224 42.4435 72.9137 36.3711 62.0514C30.0727 51.5131 25.501 40.035 22.8293 28.0523C21.6706 22.7804 21.4559 17.3448 22.1951 11.998C22.366 10.0145 22.97 8.09263 23.9644 6.36796C24.9589 4.64328 26.3196 3.15777 27.9506 2.01618C33.9188 -1.43952 44.045 2.1125 54.38 11.2876C62.9714 19.4038 70.2673 28.7896 76.0131 39.1177C82.3076 49.41 86.9273 60.6367 89.6994 72.3783C90.908 77.8436 91.0944 83.4855 90.2493 89.0186C90.0482 91.0592 89.4082 93.0321 88.3732 94.8021C87.3382 96.5721 85.9327 98.0974 84.253 99.2733C82.6402 100.167 80.8186 100.616 78.9752 100.574ZM40.5251 59.6352C46.3505 70.0161 53.7911 79.4035 62.5677 87.4453C71.5942 95.2116 78.7544 96.8812 81.8328 95.0711C85.0437 93.2048 87.4117 85.587 84.9714 73.2613C82.2979 62.0511 77.867 51.3347 71.843 41.5098C66.3598 31.6249 59.3959 22.6374 51.1932 14.8596C41.4643 6.22241 33.5736 4.29188 30.3587 6.15418C29.3567 6.96847 28.5344 7.98166 27.9438 9.1298C27.3531 10.2779 27.007 11.5361 26.9271 12.8248C26.289 17.5932 26.4969 22.4369 27.5412 27.1332C30.1111 38.5925 34.4957 49.5676 40.5291 59.6432L40.5251 59.6352Z" fill="#00D8FF"/>
</svg>
