<svg width="135" height="121" viewBox="0 0 135 121" fill="none" xmlns="http://www.w3.org/2000/svg">
<path d="M67.4279 72.4965C74.0778 72.4965 79.4687 67.1057 79.4687 60.4558C79.4687 53.8059 74.0778 48.415 67.4279 48.415C60.778 48.415 55.3872 53.8059 55.3872 60.4558C55.3872 67.1057 60.778 72.4965 67.4279 72.4965Z" fill="#00D8FF"/>
<path d="M67.4281 88.0626C52.9558 88.4126 38.5197 86.4618 24.6594 82.283C18.2567 80.2534 12.2851 77.0561 7.04623 72.8527C5.04713 71.4167 3.38234 69.5653 2.16609 67.4254C0.949833 65.2855 0.210904 62.9079 0 60.4555C0 52.4942 8.74638 44.6918 23.3975 39.5865C37.6284 35.0628 52.4972 32.8704 67.4281 33.0942C82.1597 32.8883 96.8293 35.0411 110.881 39.4709C117.047 41.4367 122.816 44.4795 127.921 48.4581C129.886 49.8271 131.525 51.6115 132.724 53.6848C133.922 55.7581 134.65 58.0696 134.856 60.4555C134.856 68.7299 125.079 77.1151 109.33 82.3263C95.7379 86.369 81.6064 88.3036 67.4281 88.0626ZM67.4281 38.8545C53.1435 38.6635 38.9196 40.7478 25.2903 45.0289C11.8047 49.7345 5.76028 56.169 5.76028 60.4411C5.76028 64.9106 12.2575 71.9376 26.5233 76.8165C39.7829 80.7941 53.589 82.6456 67.4281 82.3023C80.9927 82.5448 94.5145 80.7094 107.524 76.8598C122.334 71.952 129.077 64.9154 129.077 60.4555C128.834 58.9251 128.276 57.4616 127.439 56.1576C126.601 54.8536 125.503 53.7374 124.212 52.8795C119.645 49.3499 114.491 46.6532 108.988 44.9134C95.5457 40.6931 81.5156 38.6477 67.4281 38.8545Z" fill="#00D8FF"/>
<path d="M40.0711 120.509C37.8243 120.561 35.604 120.016 33.6366 118.93C26.7396 114.951 24.3508 103.479 27.2454 88.2353C30.4369 73.6472 35.9667 59.6713 43.6207 46.8488C50.8005 33.985 59.9922 22.3527 70.8472 12.3931C75.6306 8.03288 81.1486 4.55474 87.1455 2.11989C89.3146 1.10336 91.6807 0.576416 94.0762 0.576416C96.4716 0.576416 98.8378 1.10336 101.007 2.11989C108.178 6.25227 110.553 18.9095 107.205 35.1549C103.915 48.9515 98.5291 62.162 91.2346 74.3258C84.3075 87.0377 75.4052 98.5687 64.8606 108.488C59.9036 113.019 54.1508 116.593 47.8928 119.031C45.3875 119.961 42.743 120.46 40.0711 120.509ZM48.6104 49.7097C41.3094 61.988 36.0094 75.3503 32.9093 89.2949C30.2459 103.334 32.8034 111.777 36.5215 113.925C40.3746 116.155 49.7278 114.041 61.0846 104.119C71.1508 94.6166 79.6477 83.5789 86.2594 71.4168C93.2475 59.7879 98.4142 47.1578 101.58 33.9652C104.73 18.6735 102.009 9.31062 98.146 7.08549C96.6982 6.53078 95.1512 6.28247 93.6026 6.35625C92.054 6.43004 90.5375 6.82431 89.1491 7.51414C83.8111 9.71686 78.9036 12.844 74.6521 16.7518C64.281 26.2919 55.501 37.4279 48.6441 49.7386L48.6104 49.7097Z" fill="#00D8FF"/>
<path d="M94.7702 120.573C88.2442 120.573 79.9553 116.624 71.3245 109.202C60.2793 99.1516 50.9323 87.3811 43.6453 74.3464C36.0873 61.7005 30.6012 47.9268 27.3952 33.5475C26.0047 27.2212 25.7471 20.6985 26.6342 14.2823C26.8393 11.9021 27.564 9.59592 28.7574 7.52631C29.9507 5.4567 31.5835 3.67409 33.5408 2.30418C40.7026 -1.84265 52.8541 2.41977 65.256 13.4298C75.5657 23.1693 84.3208 34.4323 91.2158 46.826C98.7692 59.1767 104.313 72.6488 107.639 86.7387C109.09 93.2971 109.313 100.067 108.299 106.707C108.058 109.156 107.29 111.523 106.048 113.647C104.806 115.771 103.119 117.602 101.104 119.013C99.1683 120.085 96.9824 120.624 94.7702 120.573ZM48.6302 71.4469C55.6207 83.904 64.5494 95.1689 75.0813 104.819C85.9131 114.139 94.5053 116.142 98.1994 113.97C102.052 111.73 104.894 102.589 101.966 87.7983C98.7575 74.3461 93.4404 61.4864 86.2117 49.6965C79.6318 37.8346 71.2751 27.0496 61.4319 17.7163C49.7572 7.35166 40.2884 5.03502 36.4305 7.26978C35.2281 8.24692 34.2414 9.46276 33.5326 10.8405C32.8238 12.2183 32.4084 13.728 32.3126 15.2745C31.5468 20.9966 31.7963 26.809 33.0495 32.4446C36.1334 46.1958 41.3949 59.3658 48.635 71.4566L48.6302 71.4469Z" fill="#00D8FF"/>
</svg>
