<svg width="22" height="20" viewBox="0 0 22 20" fill="none" xmlns="http://www.w3.org/2000/svg">
<path d="M11.0004 11.9446C12.0853 11.9446 12.9647 11.0651 12.9647 9.98028C12.9647 8.89543 12.0853 8.01599 11.0004 8.01599C9.91557 8.01599 9.03613 8.89543 9.03613 9.98028C9.03613 11.0651 9.91557 11.9446 11.0004 11.9446Z" fill="#00D8FF"/>
<path d="M11 14.4841C8.63903 14.5412 6.28398 14.2229 4.02286 13.5412C2.97835 13.2101 2.00415 12.6885 1.1495 12.0028C0.823374 11.7685 0.551785 11.4665 0.353369 11.1174C0.154953 10.7683 0.0344061 10.3804 0 9.98034C0 8.68155 1.42686 7.4087 3.817 6.57584C6.13858 5.83786 8.56422 5.48019 11 5.5167C13.4033 5.48312 15.7964 5.83432 18.0887 6.55698C19.0947 6.87768 20.0358 7.37406 20.8686 8.02313C21.1891 8.24646 21.4566 8.53755 21.6522 8.87578C21.8477 9.21401 21.9664 9.5911 22 9.98034C22 11.3302 20.405 12.6981 17.8357 13.5483C15.6184 14.2078 13.313 14.5234 11 14.4841ZM11 6.45641C8.66966 6.42526 6.34922 6.76528 4.12579 7.4637C1.92579 8.23134 0.939714 9.28105 0.939714 9.97798C0.939714 10.7071 1.99964 11.8535 4.32693 12.6494C6.49006 13.2983 8.74234 13.6004 11 13.5443C13.2129 13.5839 15.4188 13.2845 17.5411 12.6565C19.9571 11.8558 21.0571 10.7079 21.0571 9.98034C21.0175 9.73066 20.9265 9.49192 20.7899 9.27919C20.6533 9.06646 20.4741 8.88436 20.2636 8.74441C19.5185 8.1686 18.6778 7.72867 17.7799 7.44484C15.587 6.75636 13.2982 6.42268 11 6.45641Z" fill="#00D8FF"/>
<path d="M6.53712 19.7772C6.17058 19.7856 5.80837 19.6967 5.4874 19.5195C4.36226 18.8705 3.97254 16.9989 4.44476 14.5122C4.96541 12.1323 5.86753 9.85232 7.11619 7.76052C8.28747 5.66196 9.78697 3.76431 11.5578 2.13952C12.3382 1.42821 13.2384 0.860801 14.2167 0.463589C14.5705 0.297756 14.9565 0.211792 15.3473 0.211792C15.7381 0.211792 16.1241 0.297756 16.478 0.463589C17.6479 1.13773 18.0353 3.20259 17.4892 5.8528C16.9525 8.10353 16.0738 10.2586 14.8838 12.243C13.7537 14.3168 12.3014 16.1979 10.5812 17.8161C9.77252 18.5553 8.83402 19.1384 7.81312 19.536C7.4044 19.6877 6.973 19.7693 6.53712 19.7772ZM7.93019 8.22723C6.73912 10.2303 5.87449 12.4101 5.36876 14.685C4.93426 16.9754 5.35147 18.3527 5.95804 18.7032C6.58662 19.0669 8.11247 18.722 9.96519 17.1034C11.6074 15.5532 12.9935 13.7525 14.0721 11.7684C15.2121 9.87135 16.055 7.81091 16.5715 5.65873C17.0853 3.16409 16.6414 1.63666 16.0113 1.27366C15.7751 1.18317 15.5227 1.14266 15.2701 1.15469C15.0174 1.16673 14.77 1.23105 14.5435 1.34359C13.6727 1.70293 12.8721 2.21308 12.1785 2.85059C10.4866 4.40692 9.0543 6.22361 7.93569 8.23195L7.93019 8.22723Z" fill="#00D8FF"/>
<path d="M15.4605 19.7877C14.3958 19.7877 13.0436 19.1434 11.6356 17.9326C9.83373 16.293 8.30888 14.3728 7.12011 12.2464C5.88711 10.1834 4.99213 7.93639 4.46911 5.59061C4.24228 4.55856 4.20025 3.49447 4.34497 2.44775C4.37842 2.05945 4.49666 1.68323 4.69133 1.3456C4.88601 1.00797 5.15239 0.71716 5.47168 0.493678C6.64004 -0.182822 8.62239 0.512535 10.6456 2.30868C12.3275 3.89754 13.7558 5.73494 14.8806 7.75682C16.1128 9.77166 17.0172 11.9695 17.5599 14.268C17.7965 15.3379 17.833 16.4424 17.6675 17.5256C17.6282 17.9251 17.5029 18.3113 17.3003 18.6578C17.0977 19.0043 16.8225 19.3029 16.4937 19.5331C16.1779 19.7081 15.8214 19.796 15.4605 19.7877ZM7.93332 11.7734C9.07373 13.8056 10.5303 15.6433 12.2485 17.2176C14.0155 18.738 15.4172 19.0648 16.0199 18.7105C16.6485 18.3451 17.112 16.8538 16.6343 14.4409C16.1109 12.2463 15.2435 10.1485 14.0642 8.22511C12.9908 6.28999 11.6275 4.53057 10.0218 3.00796C8.11718 1.31711 6.57247 0.939178 5.94311 1.30375C5.74695 1.46316 5.58598 1.6615 5.47035 1.88627C5.35472 2.11103 5.28695 2.35733 5.27132 2.60961C5.1464 3.5431 5.18709 4.49132 5.39154 5.41068C5.89463 7.654 6.75298 9.80252 7.93411 11.775L7.93332 11.7734Z" fill="#00D8FF"/>
</svg>
