<svg width="20" height="20" viewBox="0 0 20 20" fill="none" xmlns="http://www.w3.org/2000/svg">
<rect width="20" height="20" rx="2" fill="white"/>
<g clip-path="url(#clip0_1798_39)">
<path d="M6.35465 11.9185L6.90168 13.6545C7.02459 14.0486 7.07584 14.3238 7.05531 14.4806C7.35449 13.6969 7.56354 12.8429 7.68246 11.9185H8.34024C8.05737 13.4234 7.6844 14.5169 7.22132 15.1991C6.86055 15.7248 6.46532 15.9876 6.03494 15.9876C5.92019 15.9876 5.77872 15.9537 5.61085 15.8864V15.5237C5.69287 15.5354 5.78909 15.5417 5.89976 15.5417C6.1005 15.5417 6.26241 15.4873 6.38548 15.3787C6.53289 15.2463 6.60668 15.0976 6.60668 14.9327C6.60668 14.8201 6.54913 14.5891 6.43456 14.2396L5.67237 11.9185H6.35465ZM2.168 10.8516L3.16995 13.8415H3.17614L4.18424 10.8516H5.00788C5.18823 12.3343 5.29476 13.691 5.32745 14.9208H4.63305C4.60858 13.7712 4.54098 12.6902 4.43027 11.6777H4.42422L3.36679 14.9208H2.83797L1.78694 11.6777H1.78075C1.70282 12.6501 1.65365 13.7311 1.63323 14.9208H1C1.04092 13.4739 1.14333 12.1176 1.30723 10.8516H2.168Z" fill="#00758F"/>
<path d="M13.3931 10.791C14.4709 10.791 15.0098 11.4645 15.0098 12.8107C15.0098 13.5423 14.8477 14.0949 14.5239 14.4682C14.4655 14.5364 14.401 14.5953 14.3331 14.6499L15.0958 15.0188L15.0951 15.0187L14.8243 15.4761L13.831 14.9093C13.6663 14.957 13.4852 14.9808 13.2878 14.9808C12.7586 14.9808 12.3633 14.83 12.1019 14.5287C11.8151 14.1953 11.6717 13.6706 11.6717 12.9553C11.6717 12.2279 11.8335 11.6774 12.1574 11.3036C12.4524 10.9617 12.8644 10.791 13.3931 10.791ZM10.0926 10.7969C10.4778 10.7969 10.8281 10.8977 11.1436 11.0986L10.9833 11.4479C10.7134 11.3357 10.4472 11.2793 10.1847 11.2793C9.97174 11.2793 9.80763 11.3294 9.69323 11.4303C9.5782 11.5303 9.50705 11.659 9.50705 11.8158C9.50705 12.0569 9.68262 12.2659 10.0068 12.4425C10.113 12.4993 10.2188 12.5567 10.3243 12.6148L10.3485 12.6281L10.3606 12.6348L10.3848 12.6481L10.3969 12.6547L10.4211 12.6681C10.6665 12.8034 10.8974 12.9325 10.8974 12.9325C11.2215 13.1576 11.3831 13.3975 11.3831 13.7927C11.3831 14.1378 11.2538 14.4211 10.9961 14.6427C10.7381 14.8634 10.3916 14.9741 9.95761 14.9741C9.55173 14.9741 9.15837 14.8467 8.77734 14.5941L8.95559 14.2446C9.28349 14.4053 9.58021 14.4856 9.84666 14.4856C10.0965 14.4856 10.2922 14.431 10.4337 14.3233C10.5749 14.2147 10.6595 14.0633 10.6595 13.8714C10.6595 13.6298 10.4877 13.4232 10.1724 13.2499C10.0737 13.1966 9.97536 13.1428 9.87728 13.0884L9.85313 13.0751C9.80876 13.0506 9.76407 13.0257 9.7203 13.0014L9.69657 12.9882C9.4837 12.8698 9.29966 12.7663 9.29966 12.7663C8.98452 12.5409 8.82649 12.299 8.82649 11.9004C8.82649 11.5708 8.94434 11.3043 9.17967 11.1016C9.41559 10.8985 9.71991 10.7969 10.0926 10.7969ZM16.2764 10.8514V14.42H17.5856V14.9206H15.6125V10.8514L16.2764 10.8514ZM18.313 14.4216V14.5062H18.1691V14.9201H18.0591V14.5062H17.9095V14.4216H18.313ZM18.5788 14.4216L18.717 14.7614L18.8439 14.4216H18.9999V14.9201H18.8962V14.5407L18.7517 14.9201H18.677L18.5322 14.5407H18.5267V14.9201H18.4285V14.4216H18.5788ZM13.3253 11.2915C12.6902 11.2915 12.3724 11.8041 12.3724 12.8288C12.3724 13.4157 12.4566 13.8413 12.6247 14.1066C12.7804 14.3521 13.0242 14.4746 13.3562 14.4746C13.9913 14.4746 14.309 13.9579 14.309 12.9251C14.309 12.3464 14.2248 11.9244 14.0569 11.659C13.9011 11.4141 13.6574 11.2915 13.3253 11.2915" fill="#F29111"/>
<path d="M11.6606 4.25214C11.8712 3.7458 12.6079 4.12925 12.8938 4.30612C12.9639 4.35037 13.0443 4.44386 13.1246 4.47842C13.2499 4.48323 13.3752 4.49283 13.5007 4.49795C13.7362 4.55207 13.9567 4.59629 14.1423 4.69965C15.0046 5.19632 15.566 5.70246 16.0826 6.53847C16.193 6.71554 16.2481 6.90717 16.3383 7.09879C16.4635 7.38442 16.6041 7.68424 16.7494 7.95433C16.8144 8.08238 16.8647 8.22476 16.955 8.3329C16.9903 8.38234 17.0904 8.39692 17.1503 8.42646C17.3158 8.51025 17.5164 8.57386 17.672 8.6722C17.9627 8.84948 18.2438 9.06074 18.4993 9.27701C18.5946 9.3605 18.6595 9.47867 18.7502 9.56697V9.61153C18.6697 9.6357 18.5894 9.66046 18.5091 9.6803C18.3336 9.72438 18.1782 9.71441 18.0079 9.75852C17.9028 9.78837 17.7722 9.82774 17.6618 9.83775L17.672 9.84779C17.7369 10.0292 18.0881 10.1767 18.2487 10.2851C18.4437 10.4228 18.6244 10.5898 18.7699 10.7816C18.8202 10.8305 18.8704 10.875 18.9204 10.9238C18.9553 10.9732 18.9652 11.0372 19.0005 11.0813V11.0962C18.9614 11.0827 18.9332 11.0569 18.9065 11.0299L18.8906 11.0137C18.8747 10.9975 18.8586 10.9816 18.8403 10.9685C18.7296 10.8946 18.6197 10.8062 18.5091 10.7374C18.3188 10.6194 18.0981 10.5508 17.9028 10.4323C17.7923 10.3635 17.687 10.2851 17.5817 10.2064C17.4863 10.1374 17.3811 10.0049 17.3212 9.90655C17.2858 9.85222 17.281 9.78837 17.2406 9.74907C17.2478 9.68343 17.3093 9.66393 17.3714 9.64791L17.3856 9.64423C17.4071 9.6388 17.428 9.63337 17.4463 9.62618C17.7069 9.51794 18.0177 9.47867 18.419 9.48851C18.4038 9.38996 18.1531 9.26718 18.0731 9.20817C17.9124 9.09491 17.7423 8.97674 17.5718 8.87365C17.4815 8.81967 17.3259 8.78027 17.2258 8.73615C17.0904 8.68203 16.7895 8.62795 16.7145 8.52486C16.5871 8.36236 16.4955 8.16854 16.4066 7.97276L16.3825 7.91933L16.3582 7.86593C16.2532 7.63016 16.1227 7.38435 16.0174 7.14294C15.9623 7.02517 15.937 6.92181 15.8767 6.80886C15.5109 6.11575 14.9694 5.53545 14.3128 5.12735C14.0971 4.99456 13.8565 4.87167 13.5909 4.78815C13.4404 4.74369 13.2598 4.76828 13.0994 4.73417H12.9939C12.9038 4.70934 12.8286 4.61596 12.7583 4.56672C12.6031 4.46364 12.4477 4.39442 12.262 4.32087C12.197 4.29137 12.0113 4.22267 11.9464 4.27676C11.9063 4.28663 11.8859 4.30145 11.8761 4.34085C11.8361 4.39965 11.8712 4.48822 11.8961 4.54244C11.9714 4.69958 12.0766 4.79297 12.1721 4.92576C12.257 5.04352 12.3625 5.17631 12.4227 5.30436C12.5527 5.5796 12.6132 5.88455 12.7336 6.15976C12.7782 6.26326 12.8489 6.38102 12.9139 6.47437C12.969 6.54847 13.0691 6.60204 13.0994 6.69584C13.1598 6.79418 13.009 7.11866 12.9741 7.22171C12.8435 7.62493 12.8688 8.18542 13.0192 8.53494L13.0272 8.55337L13.0352 8.57204C13.0901 8.70005 13.1489 8.83789 13.2949 8.87369C13.305 8.86392 13.2949 8.86905 13.3149 8.86392C13.3502 8.59339 13.3601 8.33286 13.4555 8.12119C13.5106 7.98885 13.6206 7.89529 13.696 7.78726C13.7463 7.81669 13.7463 7.90544 13.7762 7.96416C13.8415 8.11648 13.9115 8.28349 13.992 8.43625C14.1571 8.75087 14.3428 9.05589 14.5533 9.3311C14.6238 9.4294 14.7238 9.53761 14.814 9.62615C14.8542 9.66043 14.8992 9.68023 14.9294 9.72435H14.9393V9.7392C14.7889 9.68498 14.6935 9.53279 14.5736 9.44395C14.3477 9.27694 14.0773 9.02615 13.9216 8.78549C13.8565 8.64734 13.7861 8.51493 13.7159 8.37746V8.36752C13.6859 8.40679 13.696 8.44578 13.681 8.50519C13.6159 8.75087 13.666 9.03113 13.4404 9.1195C13.1847 9.22299 12.9939 8.9525 12.9139 8.82957C12.6581 8.42157 12.588 7.73327 12.7684 7.17766C12.8085 7.05467 12.8139 6.90717 12.8839 6.80897C12.8688 6.72019 12.7988 6.69591 12.7583 6.64152C12.6882 6.54854 12.6281 6.44023 12.5731 6.33698C12.4676 6.13528 12.3925 5.89428 12.3124 5.67797C12.2772 5.58964 12.2671 5.50097 12.2319 5.41734C12.172 5.28971 12.0616 5.16166 11.9764 5.04875C11.8611 4.88646 11.5251 4.57191 11.6606 4.25214ZM13.3049 5.21541C13.3183 5.22854 13.3344 5.24003 13.3512 5.25134L13.3714 5.26488C13.3983 5.28311 13.4243 5.30229 13.4403 5.32843C13.4656 5.36302 13.4703 5.39716 13.5006 5.43182C13.5006 5.55 13.4656 5.62856 13.3949 5.67753C13.3949 5.67753 13.3901 5.68268 13.3851 5.6875C13.345 5.60872 13.3099 5.53036 13.2695 5.45166C13.2198 5.38296 13.1496 5.32846 13.1091 5.24996H13.0993V5.24009C13.1598 5.22548 13.2198 5.21541 13.3049 5.21541Z" fill="#00758F"/>
</g>
<defs>
<clipPath id="clip0_1798_39">
<rect width="18" height="12" fill="white" transform="translate(1 4)"/>
</clipPath>
</defs>
</svg>
