<svg width="22" height="22" viewBox="0 0 22 22" fill="none" xmlns="http://www.w3.org/2000/svg">
<g clip-path="url(#clip0_847_2003)">
<path d="M21.9995 6.09615V5.43263C21.9788 4.95572 21.9581 4.45808 21.8751 3.98117C21.7922 3.50426 21.6471 3.04808 21.419 2.61265C21.1909 2.17721 20.9213 1.78324 20.5688 1.45148C20.2163 1.09898 19.8224 0.82942 19.4077 0.601334C18.9722 0.373247 18.516 0.228105 18.0391 0.145164C17.5622 0.0622235 17.0853 0.020752 16.5877 0.020752H5.45289C5.32848 0.020752 5.20407 0.0207532 5.1004 0.0414884C4.7479 0.0622235 4.37466 0.0829587 4.02217 0.145164C3.66967 0.20737 3.31717 0.311044 2.98541 0.435455C2.88173 0.476925 2.75732 0.539133 2.65365 0.580604C2.32188 0.746485 2.03159 0.953835 1.7413 1.18192C1.65836 1.26486 1.55468 1.3478 1.47174 1.43074C1.11925 1.78324 0.849687 2.17721 0.621601 2.59191C0.393514 3.02735 0.248368 3.48352 0.165428 3.96043C0.0824872 4.43734 0.0617508 4.91425 0.0410156 5.41189V16.5467C0.0617508 17.0236 0.0824872 17.5212 0.165428 17.9981C0.248368 18.475 0.393514 18.9312 0.621601 19.3666C0.849687 19.8021 1.11925 20.1961 1.47174 20.5278C1.82424 20.8803 2.21821 21.1499 2.63291 21.378C3.06835 21.606 3.52452 21.7512 4.00143 21.8341C4.47834 21.9171 4.95525 21.9585 5.45289 21.9585H16.5877C17.0646 21.9378 17.5622 21.9171 18.0391 21.8341C18.516 21.7512 18.9722 21.606 19.4077 21.378C19.8431 21.1499 20.2371 20.8803 20.5688 20.5278C20.9213 20.1753 21.1909 19.7814 21.419 19.3666C21.6471 18.9312 21.7922 18.475 21.8751 17.9981C21.9581 17.5212 21.9995 17.0443 21.9995 16.5467V15.8831V6.86335V6.09615Z" fill="#F05138"/>
<path d="M17.4171 13.5815L17.4793 13.3327C18.3917 9.70403 16.173 5.39111 12.3992 3.13098C14.058 5.37038 14.7837 8.08668 14.1409 10.4505C14.0787 10.6578 14.0165 10.8652 13.9336 11.0725C13.8506 11.0103 13.747 10.9481 13.6018 10.8859C13.6018 10.8859 9.84876 8.56359 5.78467 4.47877C5.681 4.37509 7.96187 7.73418 10.533 10.4505C9.30965 9.76623 5.92982 7.29875 3.77336 5.34965C4.04292 5.78508 4.35395 6.22052 4.68571 6.61449C6.46894 8.89535 8.81201 11.6946 11.6113 13.8511C9.64141 15.0537 6.8629 15.1574 4.10513 13.8511C3.42087 13.54 2.77808 13.1461 2.17676 12.7106C3.33793 14.5768 5.14188 16.1941 7.33981 17.1479C9.95244 18.2676 12.5651 18.2054 14.4934 17.1687C14.4934 17.1687 14.5142 17.1687 14.5142 17.1479C14.5971 17.1065 14.6801 17.0443 14.763 17.0028C15.6961 16.5259 17.5208 16.049 18.5161 17.9566C18.8064 18.3921 19.3247 15.9038 17.4171 13.5815Z" fill="white"/>
</g>
<defs>
<clipPath id="clip0_847_2003">
<rect width="22" height="22" fill="white"/>
</clipPath>
</defs>
</svg>
