<svg width="31" height="31" viewBox="0 0 31 31" fill="none" xmlns="http://www.w3.org/2000/svg">
<path d="M8.9375 13.3887C9.8125 9.88867 12 8.13867 15.5 8.13867C20.75 8.13867 21.4063 12.0762 24.0313 12.7324C25.7813 13.1699 27.3125 12.5137 28.625 10.7637C27.75 14.2637 25.5625 16.0137 22.0625 16.0137C16.8125 16.0137 16.1562 12.0762 13.5312 11.4199C11.7812 10.9824 10.25 11.6387 8.9375 13.3887ZM2.375 21.2637C3.25 17.7637 5.4375 16.0137 8.9375 16.0137C14.1875 16.0137 14.8438 19.9512 17.4688 20.6074C19.2188 21.0449 20.75 20.3887 22.0625 18.6387C21.1875 22.1387 19 23.8887 15.5 23.8887C10.25 23.8887 9.59375 19.9512 6.96875 19.2949C5.21875 18.8574 3.6875 19.5137 2.375 21.2637Z" fill="#44A8B3"/>
</svg>
