<svg width="20" height="20" viewBox="0 0 20 20" fill="none" xmlns="http://www.w3.org/2000/svg">
<g clip-path="url(#clip0_1796_9)">
<path d="M5 8C5.66667 5.33333 7.33333 4 10 4C14 4 14.5 7 16.5 7.5C17.8333 7.83333 19 7.33333 20 6C19.3333 8.66667 17.6667 10 15 10C11 10 10.5 7 8.5 6.5C7.16667 6.16667 6 6.66667 5 8ZM0 14C0.666667 11.3333 2.33333 10 5 10C9 10 9.5 13 11.5 13.5C12.8333 13.8333 14 13.3333 15 12C14.3333 14.6667 12.6667 16 10 16C6 16 5.5 13 3.5 12.5C2.16667 12.1667 1 12.6667 0 14Z" fill="#44A8B3"/>
</g>
<defs>
<clipPath id="clip0_1796_9">
<rect width="20" height="20" fill="white"/>
</clipPath>
</defs>
</svg>
