<svg width="24" height="24" viewBox="0 0 24 24" fill="none" xmlns="http://www.w3.org/2000/svg">
  <path d="M22 5.79997C21.2483 6.12606 20.4534 6.34163 19.64 6.43997C20.4982 5.92729 21.1413 5.12075 21.45 4.16997C20.6436 4.65003 19.7608 4.98826 18.84 5.16997C18.2245 4.50254 17.405 4.05826 16.5098 3.90682C15.6147 3.75537 14.6945 3.90532 13.8938 4.33315C13.093 4.76099 12.4569 5.44379 12.0852 6.27437C11.7135 7.10495 11.6273 8.03775 11.84 8.91997C10.2094 8.83869 8.61444 8.43194 7.15865 7.72373C5.70287 7.01551 4.41885 6.02237 3.39 4.79997C3.02914 5.42613 2.83952 6.13286 2.84 6.85997C2.83872 7.54057 3.00422 8.21067 3.32176 8.81171C3.63929 9.41275 4.09902 9.92438 4.66 10.3C4.00798 10.2822 3.37163 10.1063 2.8 9.77997V9.83997C2.80489 10.7885 3.13599 11.7063 3.73731 12.4474C4.33864 13.1885 5.17326 13.7112 6.1 13.93C5.74326 14.0375 5.37287 14.0912 5 14.09C4.74189 14.0856 4.48442 14.0615 4.23 14.0177C4.49391 14.8373 5.00462 15.5607 5.69107 16.0939C6.37753 16.6271 7.20558 16.9451 8.07 17.0077C6.61909 18.1518 4.83449 18.7754 3 18.78C2.66574 18.7793 2.33174 18.7613 2 18.7259C3.87443 19.9383 6.05881 20.5853 8.29 20.58C9.82969 20.5935 11.3571 20.3075 12.7831 19.738C14.2091 19.1685 15.505 18.3266 16.5952 17.2595C17.6854 16.1924 18.5452 14.9154 19.1347 13.503C19.7242 12.0906 20.0321 10.5712 20.0413 9.03197C20.0413 8.85197 20.0413 8.66197 20.0413 8.47197C20.8381 7.89005 21.5171 7.17386 22 5.79997Z" fill="white"/>
</svg>
