<svg width="34" height="33" viewBox="0 0 34 33" fill="none" xmlns="http://www.w3.org/2000/svg">
<rect x="0.799805" width="32.8" height="32.8" rx="5" fill="#26BEFF"/>
<path fill-rule="evenodd" clip-rule="evenodd" d="M14.9282 22.7196C20.3621 22.7196 23.3342 18.2869 23.3342 14.4434C23.3342 14.3172 23.3342 14.192 23.3256 14.0673C23.9037 13.6561 24.4027 13.1456 24.7994 12.5615C24.2609 12.7969 23.6885 12.9512 23.1031 13.0192C23.7194 12.6556 24.1809 12.0843 24.402 11.4101C23.8217 11.749 23.1873 11.9881 22.5257 12.1164C21.4068 10.9454 19.5355 10.8886 18.3453 11.9902C17.5785 12.7005 17.2524 13.7595 17.4907 14.7697C15.1154 14.652 12.9021 13.5476 11.4017 11.7308C10.6176 13.0599 11.0186 14.7596 12.3168 15.6131C11.8466 15.5996 11.3865 15.475 10.9754 15.2496V15.2865C10.9761 16.6709 11.9676 17.863 13.3457 18.1373C12.9108 18.2543 12.4543 18.2712 12.0122 18.1869C12.3989 19.3721 13.5084 20.1839 14.772 20.2073C13.7258 21.0168 12.4334 21.4564 11.1029 21.455C10.8681 21.4543 10.6334 21.4408 10.3994 21.4132C11.7509 22.2666 13.3226 22.7196 14.9282 22.7175" fill="white"/>
</svg>
