<svg width="60" height="60" viewBox="0 0 60 60" fill="none" xmlns="http://www.w3.org/2000/svg">
<path d="M4.55231 44.8445V55.4477H15.1555L46.4279 24.147L35.8247 13.5438L4.55231 44.8445ZM60 47.983L47.983 60L33.2799 45.2969L38.2846 40.2922L41.1122 43.1197L48.0961 36.1074L52.1112 40.1225L47.983 44.1376L50.9802 46.9651L54.9953 43.0066L60 47.983ZM14.7597 26.6918L0 12.017L12.017 0L16.9934 5.00471L10.0094 12.017L13.0349 15.0141L19.9906 8.00188L24.0057 12.017L19.9906 16.0038L22.8181 18.8313L14.7597 26.6918ZM54.6277 15.8624C55.7304 14.7597 55.7304 13.0349 54.6277 11.8756L48.0113 5.37229C46.9651 4.26956 45.1272 4.26956 44.0245 5.37229L38.8219 10.5467L49.4251 21.1499L54.6277 15.8624Z" fill="white"/>
</svg>
