<svg width="66" height="66" viewBox="0 0 66 66" fill="none" xmlns="http://www.w3.org/2000/svg">
<path d="M53.5012 51.6884L42.4008 33.0021L53.5012 14.3076L58.8596 32.998L53.4991 51.6842L53.5012 51.6884ZM28.7636 49.894L14.8046 36.0402H36.995L48.0913 54.7285L28.7615 49.8981L28.7636 49.894ZM28.7636 16.1061L48.0913 11.2757L36.9971 29.964H14.8025L28.7636 16.1061ZM63.9292 26.6414L57.1601 2.0708L31.8924 8.65636L28.1551 15.0749L20.5651 15.0192L2.07275 33.0021L20.5672 50.9871L28.1531 50.9273L31.9006 57.3458L57.158 63.9293L63.9292 39.369L60.0847 33.0021L63.9292 26.6414Z" fill="#9F9D9D"/>
</svg>
