<svg width="22" height="22" viewBox="0 0 22 22" fill="none" xmlns="http://www.w3.org/2000/svg">
<path d="M17.8342 17.2295L14.1341 11.0007L17.8342 4.76924L19.6203 10.9994L17.8335 17.2281L17.8342 17.2295ZM9.58834 16.6314L4.93534 12.0134H12.3322L16.0309 18.2429L9.58766 16.6327L9.58834 16.6314ZM9.58834 5.36874L16.0309 3.75862L12.3328 9.98806H4.93466L9.58834 5.36874ZM21.3102 8.88049L19.0538 0.690308L10.6313 2.88549L9.38553 5.02499L6.85553 5.00643L0.691406 11.0007L6.85622 16.9957L9.38484 16.9758L10.634 19.1153L19.0532 21.3098L21.3102 13.1231L20.0287 11.0007L21.3102 8.88049Z" fill="white"/>
</svg>
