<svg width="60" height="60" viewBox="0 0 60 60" fill="none" xmlns="http://www.w3.org/2000/svg">
<path d="M48.6379 46.9893L38.5466 30.0018L48.6379 13.0068L53.5091 29.9981L48.636 46.9856L48.6379 46.9893ZM26.1491 45.3581L13.4591 32.7637H33.6323L43.7198 49.7531L26.1473 45.3618L26.1491 45.3581ZM26.1491 14.6418L43.7198 10.2506L33.6341 27.2399H13.4573L26.1491 14.6418ZM58.1179 24.2193L51.9641 1.88245L28.9935 7.86932L25.596 13.7043L18.696 13.6537L1.88477 30.0018L18.6979 46.3518L25.5941 46.2974L29.001 52.1325L51.9623 58.1174L58.1179 35.7899L54.6229 30.0018L58.1179 24.2193Z" fill="#7049EE"/>
</svg>
