<svg width="66" height="66" viewBox="0 0 66 66" fill="none" xmlns="http://www.w3.org/2000/svg">
<path d="M53.5012 51.6883L42.4008 33.0021L53.5012 14.3076L58.8596 32.9979L53.4991 51.6842L53.5012 51.6883ZM28.7636 49.8939L14.8046 36.0401H36.995L48.0913 54.7284L28.7615 49.8981L28.7636 49.8939ZM28.7636 16.1061L48.0913 11.2757L36.9971 29.964H14.8025L28.7636 16.1061ZM63.9292 26.6413L57.1601 2.07075L31.8924 8.65631L28.1551 15.0748L20.5651 15.0191L2.07275 33.0021L20.5672 50.9871L28.1531 50.9272L31.9006 57.3457L57.158 63.9292L63.9292 39.369L60.0847 33.0021L63.9292 26.6413Z" fill="white"/>
</svg>
