<svg id="Layer_1" enable-background="new 0 0 512 512" viewBox="0 0 512 512" xmlns="http://www.w3.org/2000/svg" xmlns:xlink="http://www.w3.org/1999/xlink" width="300" height="300" version="1.1" xmlns:svgjs="http://svgjs.dev/svgjs"><g width="100%" height="100%" transform="matrix(1,0,0,1,0,0)"><linearGradient id="SVGID_1_" gradientUnits="userSpaceOnUse" x1="30.617" x2="481.383" y1="256.001" y2="256.001"><stop stop-opacity="1" stop-color="#ffffff" offset="0"/><stop stop-opacity="1" stop-color="#feffff" offset="1"/></linearGradient><path d="m444.89 104.59h-20.37v-73.97c0-16.89-13.74-30.63-30.63-30.63h-275.78c-16.89 0-30.63 13.74-30.63 30.63v73.97h-20.37c-20.12 0-36.5 16.37-36.5 36.5v273.37c0 20.12 16.37 36.5 36.5 36.5h140.68l-16.12 45.04h-30.87c-4.42 0-8.01 3.58-8.01 8.01s3.58 8.01 8.01 8.01h36.45.06.03 117.32.03.06 36.45c4.42 0 8.01-3.58 8.01-8.01s-3.58-8.01-8.01-8.01h-30.87l-16.12-45.04h140.68c20.12 0 36.5-16.37 36.5-36.5v-273.38c-.01-20.12-16.38-36.49-36.5-36.49zm-341.39-19.17h305v198.3c0 8.04-6.56 14.58-14.61 14.58h-275.78c-8.06 0-14.61-6.54-14.61-14.58zm14.61-69.42h275.78c8.06 0 14.61 6.56 14.61 14.61v38.79h-305v-38.78c0-8.06 6.55-14.62 14.61-14.62zm-51 104.6h20.37v163.12c0 16.87 13.74 30.6 30.63 30.6h275.78c16.89 0 30.63-13.73 30.63-30.6v-163.12h20.37c11.29 0 20.48 9.19 20.48 20.48v221.71h-418.74v-221.71c0-11.29 9.19-20.48 20.48-20.48zm236.21 375.4h-94.64l16.12-45.04h62.39zm141.57-61.06h-377.78c-11.29 0-20.48-9.19-20.48-20.48v-35.65h418.73v35.65c.01 11.29-9.18 20.48-20.47 20.48zm-306.85-372.42c10.93 0 19.83-8.88 19.83-19.8 0-10.93-8.9-19.83-19.83-19.83-10.92 0-19.8 8.9-19.8 19.83 0 10.92 8.88 19.8 19.8 19.8zm0-23.61c2.1 0 3.81 1.71 3.81 3.81 0 2.09-1.71 3.78-3.81 3.78-2.05 0-3.78-1.73-3.78-3.78-.01-2.1 1.69-3.81 3.78-3.81zm46.77 23.61c10.93 0 19.83-8.88 19.83-19.8 0-10.93-8.9-19.83-19.83-19.83s-19.83 8.9-19.83 19.83c0 10.92 8.89 19.8 19.83 19.8zm0-23.61c2.1 0 3.81 1.71 3.81 3.81 0 2.09-1.71 3.78-3.81 3.78-2.07 0-3.81-1.73-3.81-3.78 0-2.07 1.74-3.81 3.81-3.81zm46.77 23.61c10.92 0 19.8-8.88 19.8-19.8 0-10.93-8.88-19.83-19.8-19.83-10.93 0-19.83 8.9-19.83 19.83 0 10.92 8.9 19.8 19.83 19.8zm0-23.61c2.09 0 3.78 1.71 3.78 3.81 0 2.05-1.73 3.78-3.78 3.78-2.1 0-3.81-1.7-3.81-3.78 0-2.1 1.71-3.81 3.81-3.81zm28.08 3.81c0-4.42 3.58-8.01 8.01-8.01h118.09c4.42 0 8.01 3.58 8.01 8.01s-3.58 8.01-8.01 8.01h-118.1c-4.42 0-8-3.59-8-8.01zm-22.87 197.09 22.82-99.47c.99-4.31 5.29-7 9.6-6.01s7 5.29 6.01 9.6l-22.82 99.47c-.85 3.71-4.15 6.22-7.8 6.22-.59 0-1.2-.07-1.8-.2-4.31-1-7-5.3-6.01-9.61zm-77.96-47.93c0-2.9 1.57-5.58 4.1-6.99l54.65-30.53c3.86-2.16 8.74-.77 10.9 3.09s.77 8.74-3.09 10.9l-42.13 23.53 42.13 23.51c3.86 2.16 5.25 7.03 3.09 10.9-1.47 2.63-4.19 4.11-7 4.11-1.32 0-2.66-.33-3.9-1.02l-54.65-30.5c-2.53-1.42-4.1-4.1-4.1-7zm127.78 23.51 42.13-23.51-42.13-23.53c-3.86-2.16-5.24-7.04-3.09-10.9 2.16-3.86 7.04-5.24 10.9-3.09l54.65 30.53c2.53 1.42 4.1 4.09 4.1 6.99s-1.57 5.58-4.11 6.99l-54.65 30.5c-1.23.69-2.57 1.02-3.9 1.02-2.81 0-5.53-1.48-7-4.11-2.15-3.86-.76-8.74 3.1-10.89z" fill="url(#SVGID_1_)" data-original-color="SVGID_1_" stroke="none" stroke-opacity="1"/></g></svg>